<?xml version="1.0" encoding="utf-8"?>
<!-- Generator: Adobe Illustrator 15.1.0, SVG Export Plug-In . SVG Version: 6.00 Build 0)  -->
<!DOCTYPE svg PUBLIC "-//W3C//DTD SVG 1.1//EN" "http://www.w3.org/Graphics/SVG/1.1/DTD/svg11.dtd">
<svg version="1.1" id="Layer_1" xmlns="http://www.w3.org/2000/svg" xmlns:xlink="http://www.w3.org/1999/xlink" x="0px" y="0px"
	 width="50px" height="50px" viewBox="125 125 50 50" enable-background="new 125 125 50 50" xml:space="preserve">
<g id="Bow">
	<g>
		<rect x="126.667" y="126.667" fill="#660000" width="46.667" height="46.667"/>
		<g id="stroke_7_">
			<path fill="#660000" d="M173.333,126.667v46.667h-46.667v-46.667H173.333 M175,125h-1.136h-45.459H125v1.136v45.453V175h3.405
				h45.459H175v-3.411v-45.453V125L175,125z"/>
			
				<linearGradient id="SVGID_1_" gradientUnits="userSpaceOnUse" x1="1023" y1="-1015.9995" x2="1023" y2="-966" gradientTransform="matrix(1 0 0 -1 -873 -841)">
				<stop  offset="0" style="stop-color:#333333;stop-opacity:0.3"/>
				<stop  offset="0.2701" style="stop-color:#353535;stop-opacity:0.4215"/>
				<stop  offset="0.4166" style="stop-color:#3D3D3D;stop-opacity:0.4875"/>
				<stop  offset="0.5336" style="stop-color:#4B4B4B;stop-opacity:0.5401"/>
				<stop  offset="0.635" style="stop-color:#5E5E5E;stop-opacity:0.5857"/>
				<stop  offset="0.7262" style="stop-color:#787878;stop-opacity:0.6268"/>
				<stop  offset="0.8101" style="stop-color:#979797;stop-opacity:0.6646"/>
				<stop  offset="0.8885" style="stop-color:#BBBBBB;stop-opacity:0.6998"/>
				<stop  offset="0.9606" style="stop-color:#E5E5E5;stop-opacity:0.7323"/>
				<stop  offset="1" style="stop-color:#FFFFFF;stop-opacity:0.75"/>
			</linearGradient>
			<path fill="url(#SVGID_1_)" d="M173.333,126.667v46.667h-46.667v-46.667H173.333 M175,125h-1.136h-45.459H125v1.136v45.453V175
				h3.405h45.459H175v-3.411v-45.453V125L175,125z"/>
		</g>
	</g>
	<path id="bow" fill="#231F20" d="M128.294,171.077c-0.111-1.045,4.046-4.84,4.873-6.331c1.559-3.115,3.118-6.23,4.677-9.343
		c1.101-1.777,2.207-3.548,3.308-5.325c1.029-1.729,1.973-3.724,3.49-5.358c0.098,0.134,0.195,0.257,0.293,0.384
		c0.527-0.866,1.318-1.641,2.376-2.461c-0.013-0.02-0.033-0.045-0.046-0.065c-0.211-0.124-0.13-0.049-0.26-0.205
		c5.498-4.359,11.761-6.599,17.165-9.147c1.931-0.915,5.049-4.482,6.101-4.229c-1.963,1.895-3.929,3.792-5.889,5.684
		c0.684-0.697,1.36-1.394,2.044-2.097c-1.907,1.498-3.802,2.233-5.67,3.083c-2.175,1.214-4.362,2.438-6.543,3.649
		c-0.932,0.469-4.278,3.086-4.366,3.698c-1.394,0.222-3.33,1.843-4.3,3.138c-0.387,0.514-0.251,0.879-0.345,1.383
		c0,0-2.581,2.458-2.682,2.598c-1.92,2.692-3.506,5.335-5.036,8.083c-1.624,2.924-2.848,6.794-5.595,9.35
		c0.098-0.007,0.192-0.02,0.286-0.02C130.931,168.601,129.756,170.638,128.294,171.077z M132.194,167.435
		c0.183-0.208,0.365-0.416,0.541-0.621c0.01,0.055,0.023,0.113,0.032,0.172C132.578,167.142,132.389,167.285,132.194,167.435z
		 M133.841,165.749c0.182-0.358,0.85-1.062,1.237-1.166C134.668,164.971,134.258,165.358,133.841,165.749z M135.032,164.519
		c0.104-0.078,0.212-0.163,0.319-0.244C135.244,164.355,135.14,164.44,135.032,164.519z M135.488,164.062
		c3.451-3.528,6.901-7.051,10.348-10.579c0.013,0.059,0.023,0.117,0.033,0.176C142.416,157.122,138.952,160.593,135.488,164.062z
		 M146.016,153.447c0.273-0.947,1.836-1.885,2.578-2.722c1.165-1.299,7.312-8.03,8.46-8.401
		C153.379,146.029,149.694,149.733,146.016,153.447z M157.005,142.259c0.176-0.13,0.346-0.267,0.515-0.397
		C157.347,141.992,157.175,142.129,157.005,142.259z M157.468,141.8c0.169-0.13,0.335-0.26,0.508-0.397
		C157.806,141.537,157.637,141.667,157.468,141.8z M157.927,141.341c0.403-0.742,5.68-5.921,6.087-5.954
		C161.985,137.37,159.954,139.362,157.927,141.341z M164.026,135.277c0.082-0.068,0.173-0.134,0.254-0.199
		C164.199,135.14,164.108,135.208,164.026,135.277z M164.231,135.016c0.085-0.068,0.176-0.137,0.261-0.205
		C164.401,134.883,164.316,134.948,164.231,135.016z"/>
	
		<linearGradient id="SVGID_2_" gradientUnits="userSpaceOnUse" x1="1023" y1="-1014.3325" x2="1023" y2="-967.6665" gradientTransform="matrix(1 0 0 -1 -873 -841)">
		<stop  offset="0" style="stop-color:#000000;stop-opacity:0.35"/>
		<stop  offset="0.0975" style="stop-color:#060606;stop-opacity:0.3159"/>
		<stop  offset="0.2216" style="stop-color:#151515;stop-opacity:0.2724"/>
		<stop  offset="0.36" style="stop-color:#2F2F2F;stop-opacity:0.224"/>
		<stop  offset="0.5088" style="stop-color:#545454;stop-opacity:0.1719"/>
		<stop  offset="0.6661" style="stop-color:#838383;stop-opacity:0.1169"/>
		<stop  offset="0.8304" style="stop-color:#BCBCBC;stop-opacity:0.0594"/>
		<stop  offset="0.9977" style="stop-color:#FEFEFE;stop-opacity:8.182824e-04"/>
		<stop  offset="1" style="stop-color:#FFFFFF;stop-opacity:0"/>
	</linearGradient>
	<rect x="126.667" y="126.667" fill="url(#SVGID_2_)" width="46.667" height="46.667"/>
	
		<linearGradient id="SVGID_3_" gradientUnits="userSpaceOnUse" x1="1023" y1="-1014.3325" x2="1023" y2="-967.6665" gradientTransform="matrix(1 0 0 -1 -873 -841)">
		<stop  offset="0" style="stop-color:#000000;stop-opacity:0"/>
		<stop  offset="0.3726" style="stop-color:#020202;stop-opacity:0.205"/>
		<stop  offset="0.5069" style="stop-color:#090909;stop-opacity:0.2788"/>
		<stop  offset="0.6026" style="stop-color:#141414;stop-opacity:0.3314"/>
		<stop  offset="0.68" style="stop-color:#252525;stop-opacity:0.374"/>
		<stop  offset="0.7463" style="stop-color:#3B3B3B;stop-opacity:0.4104"/>
		<stop  offset="0.805" style="stop-color:#575757;stop-opacity:0.4427"/>
		<stop  offset="0.8581" style="stop-color:#777777;stop-opacity:0.472"/>
		<stop  offset="0.9069" style="stop-color:#9D9D9D;stop-opacity:0.4988"/>
		<stop  offset="0.9523" style="stop-color:#C8C8C8;stop-opacity:0.5238"/>
		<stop  offset="0.9926" style="stop-color:#F6F6F6;stop-opacity:0.5459"/>
		<stop  offset="1" style="stop-color:#FFFFFF;stop-opacity:0.55"/>
	</linearGradient>
	<rect x="126.667" y="126.667" fill="url(#SVGID_3_)" width="46.667" height="46.667"/>
</g>
</svg>
