<?xml version="1.0" encoding="utf-8"?>
<!-- Generator: Adobe Illustrator 15.1.0, SVG Export Plug-In . SVG Version: 6.00 Build 0)  -->
<!DOCTYPE svg PUBLIC "-//W3C//DTD SVG 1.1//EN" "http://www.w3.org/Graphics/SVG/1.1/DTD/svg11.dtd">
<svg version="1.1" xmlns="http://www.w3.org/2000/svg" xmlns:xlink="http://www.w3.org/1999/xlink" x="0px" y="0px" width="50px"
	 height="50px" viewBox="0 0 50 50" enable-background="new 0 0 50 50" xml:space="preserve">
<g id="Layer_1">
	<g id="Compact_Explosives">
		<g>
			<rect x="1.667" y="1.667" fill="#660000" width="46.667" height="46.667"/>
			<g id="stroke">
				<path fill="#660000" d="M48.334,1.667v46.667H1.667V1.667H48.334 M50,0h-1.137H3.408H0v1.136v45.456V50h3.408h45.455H50v-3.408
					V1.136V0L50,0z"/>
				
					<linearGradient id="SVGID_1_" gradientUnits="userSpaceOnUse" x1="1069" y1="1552" x2="1069" y2="1502" gradientTransform="matrix(1 0 0 1 -1044 -1502)">
					<stop  offset="0" style="stop-color:#333333;stop-opacity:0.3"/>
					<stop  offset="0.2701" style="stop-color:#353535;stop-opacity:0.4215"/>
					<stop  offset="0.4166" style="stop-color:#3D3D3D;stop-opacity:0.4875"/>
					<stop  offset="0.5336" style="stop-color:#4B4B4B;stop-opacity:0.5401"/>
					<stop  offset="0.635" style="stop-color:#5E5E5E;stop-opacity:0.5857"/>
					<stop  offset="0.7262" style="stop-color:#787878;stop-opacity:0.6268"/>
					<stop  offset="0.8101" style="stop-color:#979797;stop-opacity:0.6646"/>
					<stop  offset="0.8885" style="stop-color:#BBBBBB;stop-opacity:0.6998"/>
					<stop  offset="0.9606" style="stop-color:#E5E5E5;stop-opacity:0.7323"/>
					<stop  offset="1" style="stop-color:#FFFFFF;stop-opacity:0.75"/>
				</linearGradient>
				<path fill="url(#SVGID_1_)" d="M48.334,1.667v46.667H1.667V1.667H48.334 M50,0h-1.137H3.408H0v1.136v45.456V50h3.408h45.455H50
					v-3.408V1.136V0L50,0z"/>
			</g>
		</g>
		<g id="Shape_29">
			<g id="g1457">
				<path id="path1459" d="M6.814,26.721c-1.859,2.799-3.603,5.683-4.118,7.298c-0.312,0.977-0.237,1.772-0.195,2.12
					c0.044,0.346,0.304,0.735,0.46,0.916c0.159,0.175,0.186-0.017,0.326-0.168c0.136-0.148,0.206-0.387,0.376-0.902
					c0.319-0.976,0.933-2.172,1.031-2.315c0.1-0.142,0.162-0.03,0.331-0.018c0.167,0.012,0.601,0.099,0.957-0.571
					c0.355-0.672,1.762-2.972,3.176-5.064c1.786-2.64,4.638-5.726,6.666-7.831c3.081-3.192,6.121-4.791,6.121-4.791l0.058,0.426
					c0,0-1.948,1.192-3.27,2.498c-1.325,1.307-2.929,3.226-2.929,3.226s-0.481-0.121-1.014,0.5c-0.531,0.619-0.697,0.962-0.705,1.38
					c-0.006,0.416,0.093,0.731,0.093,0.731s-1.649,3.053-2.251,7.041c-0.636,4.242,0.258,7.537,0.258,7.537
					s-0.131,0.188-0.192,0.379c-0.057,0.177-0.094,0.442-0.094,0.442s-0.727-0.137-1.134,0.064c-0.431,0.21-0.756,0.862-0.334,1.809
					c0.496,1.12,1.721,2.554,4.246,4.304c2.407,1.665,5.054,2.654,5.99,2.335c0.688-0.232,0.713-0.88,0.647-1.245
					c-0.066-0.36-0.142-0.661-0.142-0.661s0.115-0.036,0.239-0.213c0.128-0.171,0.13-0.272,0.13-0.272s3.469-0.272,6.715-1.776
					c3.708-1.714,6.938-4.754,6.938-4.754s0.748-0.016,1.389-0.945c0.56-0.809,0.369-1.401,0.369-1.401s2.661-3.743,3.78-8.692
					c1.193-5.293-0.311-9.334-0.311-9.334s0.524,0.009,0.617-0.348c0.104-0.403-0.299-0.839-0.299-0.839l2.862-3.847l1.538-0.546
					c0,0,0.22,0.348,0.674,0.557c0.453,0.208,0.932,0.175,0.932,0.175s0.162-0.065,0.167-0.274c0.002-0.208-0.077-0.347-0.077-0.347
					s0.552-0.149,0.691-0.717c0.123-0.482-0.858-1.953-1.22-2.462c-0.508-0.709-1.092-0.612-1.092-0.612l-0.288-0.092
					c0,0-0.059-0.677-0.48-1.141c-0.419-0.466-0.483-0.476-1.515-1.222c-1.032-0.749-5.466-3.807-5.939-4.095
					c-0.47-0.289-1.745-0.22-1.745-0.22s-0.027-0.265-0.044-0.451c-0.012-0.185-0.162-0.325-0.299-0.277
					c-0.139,0.043-0.181,0.157-0.19,0.326c-0.012,0.169-0.261,0.736-0.426,0.869c-0.162,0.137-1.484,0.879-2.101,1.263
					c-0.615,0.384-1.544,1.013-1.673,0.995c-0.13-0.018-0.688-0.124-0.819-0.037c-0.128,0.087,0.006,0.354-0.013,0.482
					c-0.019,0.129-0.067,0.097-0.175,0.198c-0.105,0.105-0.672,0.417-0.672,0.417s-0.975,0.139-1.735,0.423
					c-0.758,0.286-2.246,1.268-2.246,1.268s-1.612-1.08-2.077-1.327c-0.46-0.25-0.99-0.296-1.304,0.261
					c-0.316,0.557-0.945,1.675-1.111,2.017c-0.166,0.344-0.217,0.978,0.404,1.405c0.62,0.428,1.208,0.799,1.208,0.799
					s-4.393,2.851-7.786,6.39C10.799,21.3,8.583,24.06,6.814,26.721z M28.369,12.032l0.469-0.171l1.172,0.903L28.369,12.032z
					 M23.271,14.629c0,0,1.011-0.575,2.069-1.129c1.039-0.54,2.157-1.037,2.157-1.037l1.325,0.526c0,0-1.78,0.389-2.851,0.817
					c-1.066,0.425-2.679,1.215-2.679,1.215L23.271,14.629z M23.301,9.719c-0.33,0.478-0.768,1.266-0.768,1.266
					s-1.117-0.642-1.404-0.839c-0.365-0.252-0.414-0.436-0.252-0.772c0.202-0.42,0.822-1.519,0.982-1.763
					c0.187-0.292,0.358-0.418,0.656-0.239C22.913,7.616,23.787,8.132,24,8.28c0.214,0.148,0.365,0.238,0.215,0.406
					C23.998,8.923,23.63,9.242,23.301,9.719z"/>
			</g>
		</g>
		
			<linearGradient id="SVGID_2_" gradientUnits="userSpaceOnUse" x1="1069" y1="1550.334" x2="1069" y2="1503.668" gradientTransform="matrix(1 0 0 1 -1044 -1502)">
			<stop  offset="0" style="stop-color:#000000;stop-opacity:0.35"/>
			<stop  offset="0.0975" style="stop-color:#060606;stop-opacity:0.3159"/>
			<stop  offset="0.2216" style="stop-color:#151515;stop-opacity:0.2724"/>
			<stop  offset="0.36" style="stop-color:#2F2F2F;stop-opacity:0.224"/>
			<stop  offset="0.5088" style="stop-color:#545454;stop-opacity:0.1719"/>
			<stop  offset="0.6661" style="stop-color:#838383;stop-opacity:0.1169"/>
			<stop  offset="0.8304" style="stop-color:#BCBCBC;stop-opacity:0.0594"/>
			<stop  offset="0.9977" style="stop-color:#FEFEFE;stop-opacity:8.182824e-04"/>
			<stop  offset="1" style="stop-color:#FFFFFF;stop-opacity:0"/>
		</linearGradient>
		<rect x="1.667" y="1.667" fill="url(#SVGID_2_)" width="46.667" height="46.667"/>
		
			<linearGradient id="SVGID_3_" gradientUnits="userSpaceOnUse" x1="1069" y1="1550.334" x2="1069" y2="1503.668" gradientTransform="matrix(1 0 0 1 -1044 -1502)">
			<stop  offset="0" style="stop-color:#000000;stop-opacity:0"/>
			<stop  offset="0.3726" style="stop-color:#020202;stop-opacity:0.205"/>
			<stop  offset="0.5069" style="stop-color:#090909;stop-opacity:0.2788"/>
			<stop  offset="0.6026" style="stop-color:#141414;stop-opacity:0.3314"/>
			<stop  offset="0.68" style="stop-color:#252525;stop-opacity:0.374"/>
			<stop  offset="0.7463" style="stop-color:#3B3B3B;stop-opacity:0.4104"/>
			<stop  offset="0.805" style="stop-color:#575757;stop-opacity:0.4427"/>
			<stop  offset="0.8581" style="stop-color:#777777;stop-opacity:0.472"/>
			<stop  offset="0.9069" style="stop-color:#9D9D9D;stop-opacity:0.4988"/>
			<stop  offset="0.9523" style="stop-color:#C8C8C8;stop-opacity:0.5238"/>
			<stop  offset="0.9926" style="stop-color:#F6F6F6;stop-opacity:0.5459"/>
			<stop  offset="1" style="stop-color:#FFFFFF;stop-opacity:0.55"/>
		</linearGradient>
		<rect x="1.667" y="1.667" fill="url(#SVGID_3_)" width="46.667" height="46.667"/>
	</g>
</g>
<g id="Vector-Elements">
</g>
</svg>
