<?xml version="1.0" encoding="utf-8"?>
<!-- Generator: Adobe Illustrator 15.1.0, SVG Export Plug-In . SVG Version: 6.00 Build 0)  -->
<!DOCTYPE svg PUBLIC "-//W3C//DTD SVG 1.1//EN" "http://www.w3.org/Graphics/SVG/1.1/DTD/svg11.dtd">
<svg version="1.1" xmlns="http://www.w3.org/2000/svg" xmlns:xlink="http://www.w3.org/1999/xlink" x="0px" y="0px" width="50px"
	 height="50px" viewBox="0 0 50 50" enable-background="new 0 0 50 50" xml:space="preserve">
<g id="Layer_1">
	<g id="ImprovisedWeapons">
		<g>
			<rect x="1.667" y="1.667" fill="#660000" width="46.667" height="46.667"/>
			<g id="stroke">
				<path fill="#660000" d="M48.334,1.667v46.667H1.667V1.667H48.334 M50,0h-1.137H3.408H0v1.136v45.456V50h3.408h45.455H50v-3.408
					V1.136V0L50,0z"/>
				
					<linearGradient id="SVGID_1_" gradientUnits="userSpaceOnUse" x1="1069" y1="1552" x2="1069" y2="1502" gradientTransform="matrix(1 0 0 1 -1044 -1502)">
					<stop  offset="0" style="stop-color:#333333;stop-opacity:0.3"/>
					<stop  offset="0.2701" style="stop-color:#353535;stop-opacity:0.4215"/>
					<stop  offset="0.4166" style="stop-color:#3D3D3D;stop-opacity:0.4875"/>
					<stop  offset="0.5336" style="stop-color:#4B4B4B;stop-opacity:0.5401"/>
					<stop  offset="0.635" style="stop-color:#5E5E5E;stop-opacity:0.5857"/>
					<stop  offset="0.7262" style="stop-color:#787878;stop-opacity:0.6268"/>
					<stop  offset="0.8101" style="stop-color:#979797;stop-opacity:0.6646"/>
					<stop  offset="0.8885" style="stop-color:#BBBBBB;stop-opacity:0.6998"/>
					<stop  offset="0.9606" style="stop-color:#E5E5E5;stop-opacity:0.7323"/>
					<stop  offset="1" style="stop-color:#FFFFFF;stop-opacity:0.75"/>
				</linearGradient>
				<path fill="url(#SVGID_1_)" d="M48.334,1.667v46.667H1.667V1.667H48.334 M50,0h-1.137H3.408H0v1.136v45.456V50h3.408h45.455H50
					v-3.408V1.136V0L50,0z"/>
			</g>
		</g>
		<path d="M36.398,25.295L12.479,47.618c0,0-0.674,0.808-1.582,0.315c-0.906-0.494-5.304-4.249-7.704-8.353
			c0,0-0.483-0.709,0.71-1.823C5.098,36.644,27.68,15.569,27.68,15.569s2.146-2.006,5.232-1.76c0,0,1.102,0.223,0.299-0.636
			c0,0,1.641-1.977,2.244-2.095c0.605-0.118,2.967-0.268,3.01-2.899c0,0-2.428,0.749-3.207,3.262c0,0-0.143,1.474-1.48,0.042
			c-1.336-1.431-2.666-3.049-0.088-5.454c2.578-2.407,3.58-2.002,3.58-2.002l0.064-0.507c0,0,3.07-0.633,4.061-1.199l2.494,2.673
			c0,0-0.865,0.986,1.197,1.474l1.648,1.766c0,0,0.338,0.937-0.598,1.272c-0.938,0.338-2.877-0.977-2.877-0.977l3.432,3.677
			c0,0,0.314,0.241-0.082,0.966c-0.395,0.726-1.398,1.752-1.705,2.576c-0.305,0.82-3.168,3.4-5.314,4.067l-0.713-0.764
			c0,0-0.314-0.241-0.207,0.64C38.779,20.572,38.791,22.883,36.398,25.295z M41.328,16.317l1.158,1.241l1.287-1.203l-1.156-1.241
			L41.328,16.317z"/>
		
			<linearGradient id="SVGID_2_" gradientUnits="userSpaceOnUse" x1="1069" y1="1550.334" x2="1069" y2="1503.668" gradientTransform="matrix(1 0 0 1 -1044 -1502)">
			<stop  offset="0" style="stop-color:#000000;stop-opacity:0.35"/>
			<stop  offset="0.0975" style="stop-color:#060606;stop-opacity:0.3159"/>
			<stop  offset="0.2216" style="stop-color:#151515;stop-opacity:0.2724"/>
			<stop  offset="0.36" style="stop-color:#2F2F2F;stop-opacity:0.224"/>
			<stop  offset="0.5088" style="stop-color:#545454;stop-opacity:0.1719"/>
			<stop  offset="0.6661" style="stop-color:#838383;stop-opacity:0.1169"/>
			<stop  offset="0.8304" style="stop-color:#BCBCBC;stop-opacity:0.0594"/>
			<stop  offset="0.9977" style="stop-color:#FEFEFE;stop-opacity:8.182824e-04"/>
			<stop  offset="1" style="stop-color:#FFFFFF;stop-opacity:0"/>
		</linearGradient>
		<rect x="1.667" y="1.667" fill="url(#SVGID_2_)" width="46.667" height="46.667"/>
		
			<linearGradient id="SVGID_3_" gradientUnits="userSpaceOnUse" x1="1069" y1="1550.334" x2="1069" y2="1503.668" gradientTransform="matrix(1 0 0 1 -1044 -1502)">
			<stop  offset="0" style="stop-color:#000000;stop-opacity:0"/>
			<stop  offset="0.3726" style="stop-color:#020202;stop-opacity:0.205"/>
			<stop  offset="0.5069" style="stop-color:#090909;stop-opacity:0.2788"/>
			<stop  offset="0.6026" style="stop-color:#141414;stop-opacity:0.3314"/>
			<stop  offset="0.68" style="stop-color:#252525;stop-opacity:0.374"/>
			<stop  offset="0.7463" style="stop-color:#3B3B3B;stop-opacity:0.4104"/>
			<stop  offset="0.805" style="stop-color:#575757;stop-opacity:0.4427"/>
			<stop  offset="0.8581" style="stop-color:#777777;stop-opacity:0.472"/>
			<stop  offset="0.9069" style="stop-color:#9D9D9D;stop-opacity:0.4988"/>
			<stop  offset="0.9523" style="stop-color:#C8C8C8;stop-opacity:0.5238"/>
			<stop  offset="0.9926" style="stop-color:#F6F6F6;stop-opacity:0.5459"/>
			<stop  offset="1" style="stop-color:#FFFFFF;stop-opacity:0.55"/>
		</linearGradient>
		<rect x="1.667" y="1.667" fill="url(#SVGID_3_)" width="46.667" height="46.667"/>
	</g>
</g>
<g id="Vector_Graphics">
</g>
</svg>
