<?xml version="1.0" encoding="utf-8"?>
<!-- Generator: Adobe Illustrator 15.1.0, SVG Export Plug-In . SVG Version: 6.00 Build 0)  -->
<!DOCTYPE svg PUBLIC "-//W3C//DTD SVG 1.1//EN" "http://www.w3.org/Graphics/SVG/1.1/DTD/svg11.dtd">
<svg version="1.1" id="Layer_1" xmlns="http://www.w3.org/2000/svg" xmlns:xlink="http://www.w3.org/1999/xlink" x="0px" y="0px"
	 width="50px" height="50px" viewBox="0 0 50 50" enable-background="new 0 0 50 50" xml:space="preserve">
<g id="medieval">
	<g>
		<rect x="1.667" y="1.667" fill="#660000" width="46.667" height="46.667"/>
		<g id="stroke">
			<path fill="#660000" d="M48.334,1.667v46.667H1.667V1.667H48.334 M50,0h-1.137H3.408H0v1.136v45.456V50h3.408h45.456H50v-3.408
				V1.136V0L50,0z"/>
			
				<linearGradient id="SVGID_1_" gradientUnits="userSpaceOnUse" x1="838" y1="-1080.9995" x2="838" y2="-1031" gradientTransform="matrix(1 0 0 -1 -813 -1031)">
				<stop  offset="0" style="stop-color:#333333;stop-opacity:0.3"/>
				<stop  offset="0.2701" style="stop-color:#353535;stop-opacity:0.4215"/>
				<stop  offset="0.4166" style="stop-color:#3D3D3D;stop-opacity:0.4875"/>
				<stop  offset="0.5336" style="stop-color:#4B4B4B;stop-opacity:0.5401"/>
				<stop  offset="0.635" style="stop-color:#5E5E5E;stop-opacity:0.5857"/>
				<stop  offset="0.7262" style="stop-color:#787878;stop-opacity:0.6268"/>
				<stop  offset="0.8101" style="stop-color:#979797;stop-opacity:0.6646"/>
				<stop  offset="0.8885" style="stop-color:#BBBBBB;stop-opacity:0.6998"/>
				<stop  offset="0.9606" style="stop-color:#E5E5E5;stop-opacity:0.7323"/>
				<stop  offset="1" style="stop-color:#FFFFFF;stop-opacity:0.75"/>
			</linearGradient>
			<path fill="url(#SVGID_1_)" d="M48.334,1.667v46.667H1.667V1.667H48.334 M50,0h-1.137H3.408H0v1.136v45.456V50h3.408h45.456H50
				v-3.408V1.136V0L50,0z"/>
		</g>
	</g>
	<path fill-rule="evenodd" clip-rule="evenodd" fill="#231F20" d="M45.212,3.53c1.521,1.494-0.561,2.541,0.231,3.572
		c0.812,0.447,0.603,1.3,0.674,1.853c0.175,1.298-0.181,3.602-0.983,4.866c-0.037,0.332-0.074,0.661-0.11,0.993
		c-0.129,0.819-0.393,1.419-0.65,2.28c-0.042,0.418-0.089,0.836-0.131,1.256c-0.527,2.466-0.919,4.915-1.319,7.358
		c-0.101,0.252-0.204,0.502-0.305,0.754c-0.049,0.602-0.1,1.207-0.149,1.814c-0.093,0.404-0.185,0.805-0.277,1.209
		c0.031,0,0.065,0,0.097,0c0.892,0.289,1.761-1.178,2.646-1.141c0.008,0.023,0.018,0.047,0.025,0.072
		c-0.387,0.732-0.895,1.619-1.136,2.377c0.522,0.715,1.417,0.553,2.115,1.02c-0.007,0.006-0.016,0.014-0.023,0.02
		c-0.377,0.186-1.815,0.572-1.994,0.871c-0.283,0.469-0.46,1.154-0.152,1.523c-0.01,0.074-0.018,0.145-0.024,0.219
		c-0.174,0.107-0.773-0.311-0.971-0.375c0.001,0.062,0,0.127,0.005,0.191c-0.046,0.355-0.09,0.711-0.134,1.066
		c-0.041-0.008-0.083-0.016-0.122-0.023c-0.375-0.123-0.718-0.775-0.978-1.104c-0.308,0.059-0.527-0.025-0.852-0.207
		c-0.845,0.51-1.693,1.018-2.54,1.525c-0.009-0.006-0.016-0.016-0.025-0.023c0.468-0.516,1.179-2.035,1.347-2.648
		c-0.047-0.094-0.097-0.189-0.148-0.289c-0.621-0.209-1.244-0.418-1.865-0.629c-0.64,0.598-1.479,0.785-2.04,1.449
		c0.026,0.023,0.049,0.047,0.075,0.072c0.048-0.018,0.096-0.033,0.145-0.051c0.093,0.363,0.847,1.232,1.248,1.461
		c-0.649,0.412-1.449-0.336-2.054-0.102c-1.029,0.402-0.839,1.326-1.38,1.998c-0.064-0.275-0.303-0.814-0.568-0.984
		c-0.23,0.234-0.46,0.471-0.691,0.709c-0.214-0.41,0.03-0.613-0.06-0.967c-0.098-0.393-0.731-0.779-0.93-1.053
		c-0.449,0.059-2.393,0.113-2.754-0.064c0.017-0.016,0.032-0.033,0.048-0.049c0.181-0.318,1.83-1.283,2.206-1.428
		c0-0.127-0.003-0.258-0.003-0.385c-0.408-0.43-0.815-0.861-1.225-1.291c0.487-0.135,1.333-0.045,1.815,0.148
		c1.064-1.033,0.873-0.762,1.259-1.973c0.039-0.008,0.079-0.018,0.12-0.021c0.205,0.326,0.411,0.654,0.614,0.982
		c0.017-0.018,0.031-0.031,0.05-0.051c0.357-0.197,0.909-1.76,1.182-2.188c0.649-1.021,0.879-1.855,1.539-2.843
		c0.212-0.317,0.523-0.31,0.672-0.441c0.371-0.673,0.743-1.346,1.111-2.018c0.146-0.375-0.032-0.799,0.131-1.211
		c0.16-0.393,1.161-2.634,1.908-2.292c0.121-0.624,0.753-1.83,1.353-2.311c-0.417-0.682,0.955-2.684,1.75-3.16
		c-0.33-0.658,0.731-1.567,0.678-2.254c-0.016,0.016-0.032,0.033-0.048,0.048c-0.465,0.172-0.765,0.873-1.242,1.223
		c-0.544,0.396-1.253,0.866-1.604,1.395c-0.442,0.664-0.805,1.52-1.62,2.143c-0.133,0.101-1.011,1.268-1.236,1.608
		c-0.216,0.326-0.7,0.748-0.958,0.833c-0.552,1.193-1.878,2.648-2.594,3.726c-0.356,0.543-1.075,1.016-1.383,1.465
		c-0.063,0.16-0.126,0.323-0.188,0.485c-0.286,0.374-0.571,0.747-0.856,1.119c-0.334,0.344-0.669,0.686-1.005,1.027
		c0.018,0.08,0.035,0.16,0.052,0.24c-0.025,0.098-0.355,0.428-0.429,0.539c-0.327,0.479-1.316,1.17-1.479,1.514
		c-0.236,0.484-0.536,1.189-0.901,1.75c-0.394,0.596-0.914,0.943-1.238,1.463c0.129,0.264,0.181,0.516,0.25,0.768
		c0.6,0.104,1.234,0.258,1.815,0.537c-0.006,0.041-0.016,0.078-0.021,0.119c-0.296,0.434-1.232,0.357-1.485,1.031
		c0.215,0.299,0.646,0.746,0.64,1.059c-0.401-0.014-0.806-0.027-1.21-0.035c-0.118,0.104-0.237,0.211-0.357,0.318
		c0.055,0.541,0,1.201-0.222,1.742c-0.385-0.457-0.768-0.912-1.153-1.365c-0.167-0.004-0.338-0.014-0.508-0.02
		c-0.412,0.432-1.724,1.762-2.13,1.787c-0.006-0.006-0.015-0.016-0.023-0.023c0.248-0.871,0.496-1.744,0.743-2.615
		c-0.155-0.236-0.311-0.465-0.467-0.695c-0.413-0.221-0.909-0.072-1.382-0.447c0.414-0.283,1.183-0.465,1.342-1.029
		c-0.253-0.342-0.507-0.686-0.762-1.031c0.033-0.047,0.065-0.094,0.097-0.145c0.418,0.072,1.012,0.211,1.427,0.057
		c0.41-0.736,0.106-1.389,0.532-2.059c0.124,0.422,0.696,0.867,0.812,1.271c0.308,0.109,0.614,0.219,0.921,0.328
		c0.428-0.578,0.518-1.422,0.896-2.039c0.771-1.254,1.752-2.205,2.572-3.41c0.171-0.254,0.588-0.381,0.646-0.469
		c0.547-0.801,1.27-1.837,2.002-2.533c0.053-0.187,0.106-0.373,0.162-0.559c0.247-0.495,1.441-2.057,1.907-2.099
		c-0.152-0.312,1.361-2.475,1.857-2.582c0.137-0.323,0.277-0.666,0.615-1.021c0.343-0.354,1.163-1.559,1.488-1.128
		c0.56-0.562,1.707-1.576,1.883-2.269c-0.044-0.136-0.083-0.273-0.126-0.409c-0.045-0.397,0.47-0.962,0.879-1.289
		c-0.024-0.041-0.048-0.081-0.073-0.121c-0.494,0.383-0.745,1.043-1.048,1.269c-0.328,0.241-0.698,0.112-1.06,0.35
		c-5.531,5.691-11.067,11.383-16.599,17.074c-1.792,1.846-3.583,3.695-5.376,5.541c-0.29,0.432-0.053,0.527-0.159,0.896
		c-0.12,0.426-0.936,0.809-1.364,1.102c-0.951,0.652-1.379,1.73-2.124,2.416c-1.109,1.021-2.54,2.547-3.871,3.91
		c-0.35,0.375-0.701,0.748-1.051,1.121c-0.152,0.236-0.173,0.664-0.473,0.875c-0.195,0.141-0.777,0.232-0.893,0.084
		c-0.738-0.391-1.449-1.139-2.05-1.814c-0.062,0.018-0.129,0.035-0.192,0.053c0.024-0.406-0.401-0.801-0.4-1.207
		c0.592-0.656,1.64-1.027,2.344-2.055c0.736-1.072,1.774-2.279,2.77-2.979c0.278-0.195,0.515-0.76,0.881-0.998
		c0.602-0.393,1.888-2.105,2.367-2.178c0.124-0.41,0.369-0.883,0.736-1.289c0.198-0.018,0.555,0.092,0.725,0.041
		c1.545-1.562,3.091-3.129,4.635-4.691c4.235-4.362,8.473-8.727,12.706-13.091c1.234-1.276,2.47-2.556,3.703-3.835
		c0.566-0.575,1.38-1.29,1.452-1.729c-0.156-0.254,0.04-0.341-0.005-0.581c0.297-0.369,0.718-0.366,1.055-0.786
		c0.553-0.681,2.34-2.886,3.274-3.249c0.057-1.508,1.476-0.87,2.335-0.822c0.055-0.042,0.111-0.082,0.166-0.123
		C42.835,3.737,44.202,3.28,45.212,3.53z M42.73,17.111c-0.189,0.226-1.337,1.513-1.337,1.513c-0.07,0.175-0.118,0.425-0.233,0.63
		c-0.11,0.148-0.222,0.294-0.332,0.44c0.01,0.263,0.021,0.529,0.031,0.794c-0.321,0.674-0.645,1.345-0.968,2.018
		c-0.33,0.607-0.896,0.493-1.244,1.029c-0.982,1.506-1.083,2.937-1.905,4.442c-0.146,0.193-0.288,0.389-0.432,0.584
		c-0.233,0.566-0.471,1.133-0.705,1.699c-0.195,0.367-0.642,0.766-0.737,1.145c0.043,0.053,0.083,0.113,0.123,0.166
		c1.379,0.047,3.762,0.562,4.555-1.039c0.185-0.373,0.092-1.039-0.135-1.379c0.031-0.018,0.062-0.031,0.095-0.049
		c0.266,0.086,0.533,0.174,0.802,0.26c0.566-1.086,0.452-2.164,0.806-3.273c0.194-0.098,0.386-0.197,0.579-0.297
		c0.034-0.393,0.07-0.79,0.107-1.185c-0.008-0.006-0.018-0.015-0.025-0.023c-0.153,0.011-0.307,0.02-0.459,0.031
		c-0.008-0.057-0.017-0.114-0.025-0.17c0.165-0.542,0.327-1.082,0.49-1.623c0.052-0.493,0.103-0.984,0.153-1.476
		C42.214,20.738,42.839,17.842,42.73,17.111z"/>
	
		<linearGradient id="SVGID_2_" gradientUnits="userSpaceOnUse" x1="838.001" y1="-1079.3335" x2="838.001" y2="-1032.667" gradientTransform="matrix(1 0 0 -1 -813 -1031)">
		<stop  offset="0" style="stop-color:#000000;stop-opacity:0.35"/>
		<stop  offset="0.0975" style="stop-color:#060606;stop-opacity:0.3159"/>
		<stop  offset="0.2216" style="stop-color:#151515;stop-opacity:0.2724"/>
		<stop  offset="0.36" style="stop-color:#2F2F2F;stop-opacity:0.224"/>
		<stop  offset="0.5088" style="stop-color:#545454;stop-opacity:0.1719"/>
		<stop  offset="0.6661" style="stop-color:#838383;stop-opacity:0.1169"/>
		<stop  offset="0.8304" style="stop-color:#BCBCBC;stop-opacity:0.0594"/>
		<stop  offset="0.9977" style="stop-color:#FEFEFE;stop-opacity:8.182824e-04"/>
		<stop  offset="1" style="stop-color:#FFFFFF;stop-opacity:0"/>
	</linearGradient>
	<rect x="1.667" y="1.667" fill="url(#SVGID_2_)" width="46.667" height="46.667"/>
	
		<linearGradient id="SVGID_3_" gradientUnits="userSpaceOnUse" x1="838.001" y1="-1079.3335" x2="838.001" y2="-1032.667" gradientTransform="matrix(1 0 0 -1 -813 -1031)">
		<stop  offset="0" style="stop-color:#000000;stop-opacity:0"/>
		<stop  offset="0.3726" style="stop-color:#020202;stop-opacity:0.205"/>
		<stop  offset="0.5069" style="stop-color:#090909;stop-opacity:0.2788"/>
		<stop  offset="0.6026" style="stop-color:#141414;stop-opacity:0.3314"/>
		<stop  offset="0.68" style="stop-color:#252525;stop-opacity:0.374"/>
		<stop  offset="0.7463" style="stop-color:#3B3B3B;stop-opacity:0.4104"/>
		<stop  offset="0.805" style="stop-color:#575757;stop-opacity:0.4427"/>
		<stop  offset="0.8581" style="stop-color:#777777;stop-opacity:0.472"/>
		<stop  offset="0.9069" style="stop-color:#9D9D9D;stop-opacity:0.4988"/>
		<stop  offset="0.9523" style="stop-color:#C8C8C8;stop-opacity:0.5238"/>
		<stop  offset="0.9926" style="stop-color:#F6F6F6;stop-opacity:0.5459"/>
		<stop  offset="1" style="stop-color:#FFFFFF;stop-opacity:0.55"/>
	</linearGradient>
	<rect x="1.667" y="1.667" fill="url(#SVGID_3_)" width="46.667" height="46.667"/>
</g>
</svg>
