<?xml version="1.0" encoding="utf-8"?>
<!-- Generator: Adobe Illustrator 15.1.0, SVG Export Plug-In . SVG Version: 6.00 Build 0)  -->
<!DOCTYPE svg PUBLIC "-//W3C//DTD SVG 1.1//EN" "http://www.w3.org/Graphics/SVG/1.1/DTD/svg11.dtd">
<svg version="1.1" id="Layer_1" xmlns="http://www.w3.org/2000/svg" xmlns:xlink="http://www.w3.org/1999/xlink" x="0px" y="0px"
	 width="50px" height="50px" viewBox="0 0 50 50" enable-background="new 0 0 50 50" xml:space="preserve">
<g id="Other">
	<g>
		<rect x="1.667" y="1.667" fill="#660000" width="46.667" height="46.667"/>
		<g id="stroke">
			<path fill="#660000" d="M48.334,1.667v46.667H1.667V1.667H48.334 M50,0h-1.137H3.408H0v1.136v45.456V50h3.408h45.455H50v-3.408
				V1.136V0L50,0z"/>
			
				<linearGradient id="SVGID_1_" gradientUnits="userSpaceOnUse" x1="1069" y1="1552" x2="1069" y2="1502" gradientTransform="matrix(1 0 0 1 -1044 -1502)">
				<stop  offset="0" style="stop-color:#333333;stop-opacity:0.3"/>
				<stop  offset="0.2701" style="stop-color:#353535;stop-opacity:0.4215"/>
				<stop  offset="0.4166" style="stop-color:#3D3D3D;stop-opacity:0.4875"/>
				<stop  offset="0.5336" style="stop-color:#4B4B4B;stop-opacity:0.5401"/>
				<stop  offset="0.635" style="stop-color:#5E5E5E;stop-opacity:0.5857"/>
				<stop  offset="0.7262" style="stop-color:#787878;stop-opacity:0.6268"/>
				<stop  offset="0.8101" style="stop-color:#979797;stop-opacity:0.6646"/>
				<stop  offset="0.8885" style="stop-color:#BBBBBB;stop-opacity:0.6998"/>
				<stop  offset="0.9606" style="stop-color:#E5E5E5;stop-opacity:0.7323"/>
				<stop  offset="1" style="stop-color:#FFFFFF;stop-opacity:0.75"/>
			</linearGradient>
			<path fill="url(#SVGID_1_)" d="M48.334,1.667v46.667H1.667V1.667H48.334 M50,0h-1.137H3.408H0v1.136v45.456V50h3.408h45.455H50
				v-3.408V1.136V0L50,0z"/>
		</g>
	</g>
	<path d="M32.347,10.487L3.182,35.461c0,0-1.572,1.543,0.119,3.91c1.691,2.369,4.2,0.181,4.267,0.134
		c0.065-0.047,27.85-26.244,27.85-26.244l2.05-1.86c0,0,0.422-0.729-0.042-1.472c0,0,0.169-0.212,0.43-0.421
		c0.264-0.21,0.757-0.928,0.791-1.296c0.035-0.368,0.355-0.621,0.686-0.673c0.33-0.051,1.261-0.442,1.651-1.018
		c0.39-0.575,0.425-0.623,0.782-0.696c0.36-0.074,0.688-0.286,0.883-0.493c0.195-0.208,1.139-0.904,1.204-0.493
		s-0.288,0.365-0.435,0.834c-0.144,0.47-0.479,2.562-0.479,2.562s-0.454,0.005-0.781,1.083c-0.327,1.08-8.364,35.125-8.364,35.125
		s0.381,1.535,2.134,1.907c1.751,0.372,2.796-0.054,2.97-0.772c0.172-0.717,7.332-35.874,7.332-35.874s0.038-0.462-0.072-0.613
		l0.558-2.774c0,0-0.021-0.443-0.591-0.859c-0.571-0.415-0.263-0.27-0.043-0.379c0.219-0.112,0.933-0.552,0.698-1.071
		c-0.232-0.519-0.622-0.905-0.962-0.708c-0.34,0.198-0.346,0.156-0.613,0.072c-0.264-0.085-0.325-0.135-0.625-0.011
		c-0.299,0.123-0.461,0.125-0.618,0.03c-0.158-0.092-0.508,0.089-0.773,0.004c-0.267-0.083-0.972,0.145-1.205,0.426
		C41.746,4.1,41.393,4.627,40.98,4.784c-0.414,0.159-0.862,0.524-1.159,0.782c-0.296,0.257-0.625,0.629-1.037,0.787
		c-0.413,0.157-0.491,0.785-1.05,1.092c-0.559,0.308-0.896,0.411-1.552,1.062c0,0-0.877-0.426-1.65,0.059
		c-0.774,0.484-1.709,1.449-1.709,1.449s-0.378,0.27-0.115,0.447C32.708,10.462,32.489,10.357,32.347,10.487z"/>
	
		<linearGradient id="SVGID_2_" gradientUnits="userSpaceOnUse" x1="1069" y1="1550.334" x2="1069" y2="1503.668" gradientTransform="matrix(1 0 0 1 -1044 -1502)">
		<stop  offset="0" style="stop-color:#000000;stop-opacity:0.35"/>
		<stop  offset="0.0975" style="stop-color:#060606;stop-opacity:0.3159"/>
		<stop  offset="0.2216" style="stop-color:#151515;stop-opacity:0.2724"/>
		<stop  offset="0.36" style="stop-color:#2F2F2F;stop-opacity:0.224"/>
		<stop  offset="0.5088" style="stop-color:#545454;stop-opacity:0.1719"/>
		<stop  offset="0.6661" style="stop-color:#838383;stop-opacity:0.1169"/>
		<stop  offset="0.8304" style="stop-color:#BCBCBC;stop-opacity:0.0594"/>
		<stop  offset="0.9977" style="stop-color:#FEFEFE;stop-opacity:8.182824e-04"/>
		<stop  offset="1" style="stop-color:#FFFFFF;stop-opacity:0"/>
	</linearGradient>
	<rect x="1.667" y="1.667" fill="url(#SVGID_2_)" width="46.667" height="46.667"/>
	
		<linearGradient id="SVGID_3_" gradientUnits="userSpaceOnUse" x1="1069" y1="1550.334" x2="1069" y2="1503.668" gradientTransform="matrix(1 0 0 1 -1044 -1502)">
		<stop  offset="0" style="stop-color:#000000;stop-opacity:0"/>
		<stop  offset="0.3726" style="stop-color:#020202;stop-opacity:0.205"/>
		<stop  offset="0.5069" style="stop-color:#090909;stop-opacity:0.2788"/>
		<stop  offset="0.6026" style="stop-color:#141414;stop-opacity:0.3314"/>
		<stop  offset="0.68" style="stop-color:#252525;stop-opacity:0.374"/>
		<stop  offset="0.7463" style="stop-color:#3B3B3B;stop-opacity:0.4104"/>
		<stop  offset="0.805" style="stop-color:#575757;stop-opacity:0.4427"/>
		<stop  offset="0.8581" style="stop-color:#777777;stop-opacity:0.472"/>
		<stop  offset="0.9069" style="stop-color:#9D9D9D;stop-opacity:0.4988"/>
		<stop  offset="0.9523" style="stop-color:#C8C8C8;stop-opacity:0.5238"/>
		<stop  offset="0.9926" style="stop-color:#F6F6F6;stop-opacity:0.5459"/>
		<stop  offset="1" style="stop-color:#FFFFFF;stop-opacity:0.55"/>
	</linearGradient>
	<rect x="1.667" y="1.667" fill="url(#SVGID_3_)" width="46.667" height="46.667"/>
</g>
</svg>
