<?xml version="1.0" encoding="utf-8"?>
<!-- Generator: Adobe Illustrator 15.1.0, SVG Export Plug-In . SVG Version: 6.00 Build 0)  -->
<!DOCTYPE svg PUBLIC "-//W3C//DTD SVG 1.1//EN" "http://www.w3.org/Graphics/SVG/1.1/DTD/svg11.dtd">
<svg version="1.1" id="Layer_1" xmlns="http://www.w3.org/2000/svg" xmlns:xlink="http://www.w3.org/1999/xlink" x="0px" y="0px"
	 width="50px" height="50px" viewBox="0 0 50 50" enable-background="new 0 0 50 50" xml:space="preserve">
<g id="Pyrotechnics">
	<g>
		<rect x="1.667" y="1.667" fill="#660000" width="46.667" height="46.667"/>
		<g id="stroke">
			<path fill="#660000" d="M48.334,1.667v46.667H1.667V1.667H48.334 M50,0h-1.137H3.408H0v1.136v45.456V50h3.408h45.455H50v-3.408
				V1.136V0L50,0z"/>
			
				<linearGradient id="SVGID_1_" gradientUnits="userSpaceOnUse" x1="1069" y1="1552" x2="1069" y2="1502" gradientTransform="matrix(1 0 0 1 -1044 -1502)">
				<stop  offset="0" style="stop-color:#333333;stop-opacity:0.3"/>
				<stop  offset="0.2701" style="stop-color:#353535;stop-opacity:0.4215"/>
				<stop  offset="0.4166" style="stop-color:#3D3D3D;stop-opacity:0.4875"/>
				<stop  offset="0.5336" style="stop-color:#4B4B4B;stop-opacity:0.5401"/>
				<stop  offset="0.635" style="stop-color:#5E5E5E;stop-opacity:0.5857"/>
				<stop  offset="0.7262" style="stop-color:#787878;stop-opacity:0.6268"/>
				<stop  offset="0.8101" style="stop-color:#979797;stop-opacity:0.6646"/>
				<stop  offset="0.8885" style="stop-color:#BBBBBB;stop-opacity:0.6998"/>
				<stop  offset="0.9606" style="stop-color:#E5E5E5;stop-opacity:0.7323"/>
				<stop  offset="1" style="stop-color:#FFFFFF;stop-opacity:0.75"/>
			</linearGradient>
			<path fill="url(#SVGID_1_)" d="M48.334,1.667v46.667H1.667V1.667H48.334 M50,0h-1.137H3.408H0v1.136v45.456V50h3.408h45.455H50
				v-3.408V1.136V0L50,0z"/>
		</g>
	</g>
	<g>
		<path d="M36.784,37.113c-0.326-1.518,2.304-2.216,4.162-3.412c1.344-0.858,1.287-3.409,1.152-4.77
			c-0.169,1.972-2.664,4.762-4.17,3.04c-1.754-2.005,2.541-6.637,4.72-6.973c2.177-0.336,1.922-3.986,1.922-3.986
			c-0.974,2.856-4.879,3.166-5.602,2.264c-0.724-0.903,0.621-2.647,2.997-3.292c2.376-0.643,2.472-4.501,2.472-4.501
			c-0.677,2.394-5.238,2.714-5.918,1.405c-0.68-1.31,1.822-3.833,5.444-6.067c3.621-2.236,1.773-7.132,1.773-7.132
			c0.257,3.65-1.628,4.259-2.417,4.755c-0.878,0.552-6.387,0.448-6.186,3.845c0.201,3.399-5.652,5.717-6.683,4.615
			c-1.033-1.102,3.075-4.766,3.075-4.766s-4.291,1.586-5.053,4.795c-0.768,3.209-4.581,2.706-5.459,1.704
			c-0.876-1.003,0.106-3.2,3.229-4.665c3.125-1.467,1.803-8.858,1.803-8.858s-0.964,7.222-3.647,7.666
			c-2.681,0.445-5.284-0.582-6.031,3.944c-0.745,4.529-6.275,4.66-6.275,4.66c7.107-3.25,1.363-10.881,1.363-10.881
			s3.613,7.561-2.423,7.801c-6.037,0.24-6.634,6.07-7.227,10.959c-0.059,0.488,0.043,1.032,0.279,1.613
			c0.489-0.634,1.469-0.839,3.321-0.166c0,0-2.047,0.736-2.079,2.217c0.088,0.671-0.173,1.247,1.448,1.189
			c1.62-0.06,1.932-2.816,1.932-2.816s0.924,2.539-0.979,4.229c0.178,0.169,0.36,0.338,0.546,0.509
			c2.461,0.633,4.847-1.546,3.08-5.892c-2.245-5.522,4.845-0.001,4.845-0.001s-6.188-2.828-2.671,1.941
			c3.519,4.77,0.074,5.711-1.152,6.412c0,0,0.22,1.596,2.357,1.745c2.14,0.151-0.624-8.17,4.33-5.849c0,0-5.705,3.359-1.167,6.123
			c0.195,0.119,1.073-0.835,1.097-0.967c0.818-5.097,4.777-2.934,4.777-2.934s-1.899-0.549-2.682,2.114
			c-0.331,1.122-2.291,1.396-1.867,2.497c0.424,1.103,5.638,0.19,4.163-2.1c0.423,0.649,2.267,3.626,0.701,4.217
			c-0.959,0.362-4.441-0.134-4.596,0.794c-0.154,0.927,2.704,2.015,3.594,1.935c0.889-0.081,1.178-1.298,2.098-1.636
			c2.606-0.961,1.933-2.816,1.933-2.816s1.297,3.571-2.357,5.06c1.165,0.263,2.276,0.155,3.321-0.167
			c-0.107-0.154-0.173-0.244-0.173-0.244s0.073,0.088,0.196,0.236c2.943-0.927,5.35-3.589,6.929-4.65
			C37.341,40.3,37.112,38.631,36.784,37.113z M23.301,39.006c0,0,0.028,0.042,0.076,0.116
			C23.352,39.083,23.326,39.045,23.301,39.006z"/>
		<path d="M44.57,21.013c-0.974,2.856-4.879,3.166-5.602,2.264c-0.724-0.903,0.621-2.647,2.997-3.292
			c2.376-0.643,2.472-4.501,2.472-4.501c-0.677,2.394-5.238,2.714-5.918,1.405c-0.68-1.31,1.822-3.833,5.444-6.067
			c3.621-2.236,1.773-7.132,1.773-7.132c0.257,3.65-1.591,4.322-2.417,4.755c-0.822,0.433-6.387,0.448-6.186,3.845
			c0.201,3.399-5.652,5.717-6.683,4.615c-1.033-1.102,3.075-4.766,3.075-4.766s-4.291,1.586-5.053,4.795
			c-0.768,3.209-4.581,2.706-5.459,1.704c-0.876-1.003,0.106-3.2,3.229-4.665c3.125-1.467,1.803-8.858,1.803-8.858
			s-0.964,7.222-3.647,7.666c-2.681,0.445-5.284-0.582-6.031,3.944c-0.745,4.529-6.275,4.66-6.275,4.66
			c7.107-3.25,1.363-10.881,1.363-10.881s3.613,7.561-2.423,7.801c-4.451,0.177-5.944,3.392-6.66,7.029
			c9.847-3.038,23.368-4.937,35.878,1.013c0.839-0.725,1.722-1.243,2.396-1.348C44.825,24.662,44.57,21.013,44.57,21.013z"/>
	</g>
	
		<linearGradient id="SVGID_2_" gradientUnits="userSpaceOnUse" x1="1069" y1="1550.334" x2="1069" y2="1503.668" gradientTransform="matrix(1 0 0 1 -1044 -1502)">
		<stop  offset="0" style="stop-color:#000000;stop-opacity:0.35"/>
		<stop  offset="0.0975" style="stop-color:#060606;stop-opacity:0.3159"/>
		<stop  offset="0.2216" style="stop-color:#151515;stop-opacity:0.2724"/>
		<stop  offset="0.36" style="stop-color:#2F2F2F;stop-opacity:0.224"/>
		<stop  offset="0.5088" style="stop-color:#545454;stop-opacity:0.1719"/>
		<stop  offset="0.6661" style="stop-color:#838383;stop-opacity:0.1169"/>
		<stop  offset="0.8304" style="stop-color:#BCBCBC;stop-opacity:0.0594"/>
		<stop  offset="0.9977" style="stop-color:#FEFEFE;stop-opacity:8.182824e-04"/>
		<stop  offset="1" style="stop-color:#FFFFFF;stop-opacity:0"/>
	</linearGradient>
	<rect x="1.667" y="1.667" fill="url(#SVGID_2_)" width="46.667" height="46.667"/>
	
		<linearGradient id="SVGID_3_" gradientUnits="userSpaceOnUse" x1="1069" y1="1550.334" x2="1069" y2="1503.668" gradientTransform="matrix(1 0 0 1 -1044 -1502)">
		<stop  offset="0" style="stop-color:#000000;stop-opacity:0"/>
		<stop  offset="0.3726" style="stop-color:#020202;stop-opacity:0.205"/>
		<stop  offset="0.5069" style="stop-color:#090909;stop-opacity:0.2788"/>
		<stop  offset="0.6026" style="stop-color:#141414;stop-opacity:0.3314"/>
		<stop  offset="0.68" style="stop-color:#252525;stop-opacity:0.374"/>
		<stop  offset="0.7463" style="stop-color:#3B3B3B;stop-opacity:0.4104"/>
		<stop  offset="0.805" style="stop-color:#575757;stop-opacity:0.4427"/>
		<stop  offset="0.8581" style="stop-color:#777777;stop-opacity:0.472"/>
		<stop  offset="0.9069" style="stop-color:#9D9D9D;stop-opacity:0.4988"/>
		<stop  offset="0.9523" style="stop-color:#C8C8C8;stop-opacity:0.5238"/>
		<stop  offset="0.9926" style="stop-color:#F6F6F6;stop-opacity:0.5459"/>
		<stop  offset="1" style="stop-color:#FFFFFF;stop-opacity:0.55"/>
	</linearGradient>
	<rect x="1.667" y="1.667" fill="url(#SVGID_3_)" width="46.667" height="46.667"/>
</g>
</svg>
