<?xml version="1.0" encoding="utf-8"?>
<!-- Generator: Adobe Illustrator 15.1.0, SVG Export Plug-In . SVG Version: 6.00 Build 0)  -->
<!DOCTYPE svg PUBLIC "-//W3C//DTD SVG 1.1//EN" "http://www.w3.org/Graphics/SVG/1.1/DTD/svg11.dtd">
<svg version="1.1" id="Layer_1" xmlns="http://www.w3.org/2000/svg" xmlns:xlink="http://www.w3.org/1999/xlink" x="0px" y="0px"
	 width="50px" height="50px" viewBox="0 0 50 50" enable-background="new 0 0 50 50" xml:space="preserve">
<g id="rangedexp">
	<g>
		<rect x="1.667" y="1.667" fill="#660000" width="46.667" height="46.667"/>
		<g id="stroke">
			<path fill="#660000" d="M48.334,1.667v46.667H1.667V1.667H48.334 M50,0h-1.137H3.408H0v1.136v45.456V50h3.408h45.455H50v-3.408
				V1.136V0L50,0z"/>
			
				<linearGradient id="SVGID_1_" gradientUnits="userSpaceOnUse" x1="1069" y1="1552" x2="1069" y2="1502" gradientTransform="matrix(1 0 0 1 -1044 -1502)">
				<stop  offset="0" style="stop-color:#333333;stop-opacity:0.3"/>
				<stop  offset="0.2701" style="stop-color:#353535;stop-opacity:0.4215"/>
				<stop  offset="0.4166" style="stop-color:#3D3D3D;stop-opacity:0.4875"/>
				<stop  offset="0.5336" style="stop-color:#4B4B4B;stop-opacity:0.5401"/>
				<stop  offset="0.635" style="stop-color:#5E5E5E;stop-opacity:0.5857"/>
				<stop  offset="0.7262" style="stop-color:#787878;stop-opacity:0.6268"/>
				<stop  offset="0.8101" style="stop-color:#979797;stop-opacity:0.6646"/>
				<stop  offset="0.8885" style="stop-color:#BBBBBB;stop-opacity:0.6998"/>
				<stop  offset="0.9606" style="stop-color:#E5E5E5;stop-opacity:0.7323"/>
				<stop  offset="1" style="stop-color:#FFFFFF;stop-opacity:0.75"/>
			</linearGradient>
			<path fill="url(#SVGID_1_)" d="M48.334,1.667v46.667H1.667V1.667H48.334 M50,0h-1.137H3.408H0v1.136v45.456V50h3.408h45.455H50
				v-3.408V1.136V0L50,0z"/>
		</g>
	</g>
	<path fill="#231F20" d="M24.51,22.639c-0.151-0.072-0.181-0.25-0.043-0.252c0.052-0.001,0.112,0.069,0.134,0.156
		C24.633,22.67,24.616,22.689,24.51,22.639z M18.16,31.24c-0.077,0.087-0.141,0.115-0.142,0.063c0-0.052,0.062-0.122,0.141-0.158
		C18.244,31.107,18.244,31.145,18.16,31.24z M18.54,30.846c-0.076,0.087-0.14,0.115-0.141,0.062
		c-0.001-0.052,0.062-0.121,0.14-0.156C18.625,30.713,18.625,30.749,18.54,30.846z M18.317,31.392
		c-0.077,0.087-0.141,0.115-0.142,0.064c0-0.053,0.062-0.121,0.14-0.158C18.402,31.261,18.403,31.297,18.317,31.392z M19.879,29.786
		c-0.043-0.041-0.019-0.138,0.055-0.213c0.116-0.116,0.129-0.108,0.097,0.056C19.984,29.87,19.975,29.879,19.879,29.786z
		 M32.872,14.583c0.041-0.043,0.04-0.113-0.003-0.156c-0.044-0.042-0.113-0.04-0.155,0.004s-0.041,0.112,0.002,0.153
		C32.761,14.627,32.83,14.627,32.872,14.583z M32.303,15.252c0.068-0.017,0.089-0.066,0.045-0.108
		c-0.043-0.042-0.135-0.062-0.203-0.044c-0.07,0.018-0.091,0.066-0.047,0.109C32.141,15.25,32.232,15.27,32.303,15.252z
		 M33.087,15.466c0.262-0.272,0.375-0.45,0.296-0.466c-0.068-0.016-0.294,0.148-0.502,0.363c-0.207,0.214-0.341,0.423-0.298,0.466
		C32.627,15.872,32.854,15.708,33.087,15.466z M28.315,21.99c0.065-0.067,0.062-0.135-0.009-0.15
		c-0.116-0.025-0.229,0.161-0.145,0.241C28.18,22.098,28.25,22.058,28.315,21.99z M25.742,27.66
		c0.044-0.046,0.021-0.096-0.047-0.111c-0.068-0.015-0.141-0.012-0.159,0.008c-0.018,0.019,0.002,0.068,0.045,0.111
		C25.625,27.709,25.696,27.707,25.742,27.66z M25.48,28.477c0.164,0.066,0.128-0.004-0.147-0.276
		c-0.204-0.201-0.404-0.332-0.446-0.287c-0.042,0.043-0.037,0.117,0.013,0.164c0.061,0.059,0.022,0.094-0.126,0.108
		c-0.173,0.021-0.189,0.046-0.093,0.139c0.064,0.063,0.221,0.103,0.346,0.089C25.154,28.399,25.357,28.427,25.48,28.477z
		 M26.567,27.594c0.011-0.011-0.014-0.055-0.054-0.094c-0.042-0.04-0.086-0.253-0.098-0.476c-0.03-0.523-0.108-0.584-0.386-0.298
		c-0.22,0.229-0.216,0.246,0.145,0.563C26.378,27.47,26.555,27.606,26.567,27.594z M33.303,22.01
		c0.313-0.596,0.269-0.828-0.255-1.282c-0.453-0.393-0.466-0.396-0.733-0.167c-0.152,0.132-0.235,0.268-0.189,0.313
		c0.048,0.045,0.018,0.151-0.065,0.237c-0.081,0.085-0.115,0.258-0.076,0.383c0.096,0.293,0.433,0.621,0.596,0.58
		c0.068-0.019,0.166,0.006,0.216,0.054c0.065,0.063,0.037,0.088-0.097,0.09c-0.31,0.006-0.415,0.206-0.193,0.366
		C32.74,22.754,33.014,22.559,33.303,22.01z M27.115,29.079c0.063-0.066,0.082-0.156,0.039-0.197
		c-0.043-0.043-0.111-0.044-0.15-0.003c-0.04,0.04-0.058,0.13-0.04,0.2C26.982,29.146,27.05,29.147,27.115,29.079z M27.135,29.929
		c0.149-0.039-0.006-0.188-0.316-0.306c-0.199-0.075-0.2-0.061-0.016,0.127C26.916,29.865,27.066,29.945,27.135,29.929z
		 M28.485,29.517c0.265,0.224,0.073,0.015-0.427-0.468c-0.499-0.481-0.716-0.665-0.481-0.409
		C27.812,28.896,28.221,29.29,28.485,29.517z M34.348,26.601l-0.63,0.61l-0.548-0.535c-0.303-0.297-0.787-0.79-1.075-1.099
		c-0.805-0.856-0.86-0.889-1.272-0.75l-0.374,0.126l0.05-0.352c0.048-0.346,0.042-0.354-0.313-0.446
		c-0.232-0.058-0.424-0.027-0.534,0.086c-0.212,0.219-0.355,0.106-0.216-0.171c0.142-0.287-0.073-0.474-0.229-0.197
		c-0.077,0.138-0.132,0.165-0.153,0.078c-0.061-0.237-0.661,0.191-1.72,1.227l-1.026,1.002l0.223,0.146
		c0.147,0.097,0.229,0.273,0.24,0.525c0.019,0.36,0.085,0.447,1.271,1.664c0.688,0.707,1.252,1.327,1.252,1.38
		c0.005,0.199-0.963,1.166-1.167,1.17c-0.143,0.005-0.588-0.344-1.506-1.178c-1.249-1.132-1.32-1.181-1.636-1.141
		c-0.182,0.021-0.303,0.008-0.27-0.032s-0.15,0.031-0.409,0.16c-0.376,0.189-0.89,0.663-2.659,2.463
		c-2.979,3.028-2.86,2.917-4.288,3.982c-1.125,0.842-1.546,1.235-3.79,3.542c-1.389,1.426-2.657,2.706-2.817,2.844
		c-0.4,0.346-3.402,4.166-3.556,4.528c-0.069,0.162-0.078,0.497-0.019,0.745c0.082,0.344,0.058,0.492-0.103,0.625
		c-0.346,0.287-0.937,0.103-1.871-0.587c-1.562-1.153-2.458-2.631-1.927-3.182c0.134-0.14,0.279-0.15,0.551-0.044
		c0.203,0.078,0.451,0.132,0.55,0.118c0.1-0.015,0.755-0.5,1.456-1.081c0.702-0.581,1.584-1.307,1.961-1.613
		c0.376-0.308,2.106-2.034,3.843-3.838c2.523-2.619,3.24-3.411,3.571-3.947c0.308-0.494,1.137-1.439,3.237-3.684
		c2.782-2.973,3.395-3.558,3.558-3.401c0.054,0.053-0.221,0.382-0.794,0.949c-2.109,2.093-5.426,5.766-4.56,5.051
		c0.286-0.234,0.312-0.251,0.505-0.299c0.118-0.027,0.165-0.116,0.138-0.267c-0.036-0.206-0.021-0.216,0.161-0.112
		c0.123,0.068,0.264,0.046,0.364-0.058c0.101-0.104,0.178-0.116,0.199-0.031c0.021,0.081-0.088,0.231-0.263,0.362
		c-0.165,0.122-0.286,0.276-0.269,0.34c0.016,0.064-0.037,0.184-0.117,0.267c-0.079,0.082-0.11,0.257-0.07,0.386
		c0.064,0.196,0.108,0.21,0.287,0.089c0.334-0.226,1.444-1.22,2.477-2.217c0.524-0.505,1.405-1.349,1.957-1.874
		c0.673-0.642,0.994-1.002,0.972-1.092c-0.02-0.073,0-0.171,0.042-0.214c0.042-0.043,0.09-0.022,0.108,0.047
		c0.018,0.068,0.102,0.051,0.188-0.038c0.142-0.146,0.108-0.213-0.364-0.689c-0.286-0.288-0.571-0.579-0.631-0.646
		c-0.086-0.095,0.009-0.258,0.41-0.71l0.522-0.586l-0.249-0.438c-0.2-0.353-0.212-0.443-0.057-0.461
		c0.107-0.012,0.242,0.058,0.301,0.155c0.089,0.146,0.154,0.127,0.386-0.113l0.277-0.289l-0.615,0.015
		c-0.338,0.01-0.664,0.062-0.724,0.12c-0.075,0.074-0.155,0.029-0.275-0.156c-0.13-0.202-0.161-0.215-0.132-0.062
		c0.027,0.147-0.077,0.069-0.396-0.3c-0.237-0.275-0.531-0.598-0.652-0.718c-0.128-0.126-0.172-0.243-0.104-0.278
		c0.07-0.038,0.418,0.206,0.895,0.624c0.428,0.377,0.797,0.686,0.821,0.686c0.022,0,0.358-0.262,0.746-0.581
		c0.387-0.321,0.737-0.583,0.777-0.583c0.04-0.002,0.075,0.177,0.08,0.395l0.008,0.397l0.422-0.438
		c0.233-0.241,0.565-0.483,0.74-0.536c1.024-0.315,1.064-0.347,3.87-3.188l2.678-2.711l-0.285-0.275
		c-0.546-0.528-0.524-0.637,0.318-1.511c0.614-0.636,0.737-0.808,0.672-0.946c-0.134-0.288-0.766-0.842-1.023-0.896
		c-0.303-0.064-0.324-0.269-0.035-0.341c0.297-0.072,0.954,0.285,1.288,0.7c0.228,0.286,0.348,0.348,0.679,0.355
		c0.222,0.004,0.533,0.088,0.692,0.188c0.32,0.196,0.408,0.158,0.487-0.218c0.042-0.198,0.125-0.281,0.405-0.408
		c0.594-0.269,1.601-1.255,2.176-2.132c2.356-3.583,2.738-3.986,4.943-5.214c1.457-0.812,2.714-1.714,3.457-2.485
		c0.681-0.706,0.953-0.805,1.299-0.472c0.277,0.268,0.141,0.559-0.651,1.38c-0.729,0.754-1.004,1.172-2.503,3.808
		c-0.416,0.73-0.954,1.548-1.196,1.818c-0.658,0.735-2.29,1.995-4.141,3.199c-0.763,0.496-1.292,1.054-1.577,1.657
		c-0.126,0.267-0.31,0.521-0.409,0.564c-0.33,0.146-4.343,4.12-4.341,4.301c0.001,0.059,0.309,0.44,0.683,0.845
		c0.785,0.85,0.783,0.832,0.218,1.999c-0.193,0.399-0.361,0.791-0.373,0.869c-0.012,0.085,0.42,0.583,1.086,1.25
		c0.739,0.74,1.098,1.158,1.078,1.259C34.99,25.92,34.694,26.263,34.348,26.601z"/>
	
		<linearGradient id="SVGID_2_" gradientUnits="userSpaceOnUse" x1="1069" y1="1550.334" x2="1069" y2="1503.668" gradientTransform="matrix(1 0 0 1 -1044 -1502)">
		<stop  offset="0" style="stop-color:#000000;stop-opacity:0.35"/>
		<stop  offset="0.0975" style="stop-color:#060606;stop-opacity:0.3159"/>
		<stop  offset="0.2216" style="stop-color:#151515;stop-opacity:0.2724"/>
		<stop  offset="0.36" style="stop-color:#2F2F2F;stop-opacity:0.224"/>
		<stop  offset="0.5088" style="stop-color:#545454;stop-opacity:0.1719"/>
		<stop  offset="0.6661" style="stop-color:#838383;stop-opacity:0.1169"/>
		<stop  offset="0.8304" style="stop-color:#BCBCBC;stop-opacity:0.0594"/>
		<stop  offset="0.9977" style="stop-color:#FEFEFE;stop-opacity:8.182824e-04"/>
		<stop  offset="1" style="stop-color:#FFFFFF;stop-opacity:0"/>
	</linearGradient>
	<rect x="1.667" y="1.667" fill="url(#SVGID_2_)" width="46.667" height="46.667"/>
	
		<linearGradient id="SVGID_3_" gradientUnits="userSpaceOnUse" x1="1069" y1="1550.334" x2="1069" y2="1503.668" gradientTransform="matrix(1 0 0 1 -1044 -1502)">
		<stop  offset="0" style="stop-color:#000000;stop-opacity:0"/>
		<stop  offset="0.3726" style="stop-color:#020202;stop-opacity:0.205"/>
		<stop  offset="0.5069" style="stop-color:#090909;stop-opacity:0.2788"/>
		<stop  offset="0.6026" style="stop-color:#141414;stop-opacity:0.3314"/>
		<stop  offset="0.68" style="stop-color:#252525;stop-opacity:0.374"/>
		<stop  offset="0.7463" style="stop-color:#3B3B3B;stop-opacity:0.4104"/>
		<stop  offset="0.805" style="stop-color:#575757;stop-opacity:0.4427"/>
		<stop  offset="0.8581" style="stop-color:#777777;stop-opacity:0.472"/>
		<stop  offset="0.9069" style="stop-color:#9D9D9D;stop-opacity:0.4988"/>
		<stop  offset="0.9523" style="stop-color:#C8C8C8;stop-opacity:0.5238"/>
		<stop  offset="0.9926" style="stop-color:#F6F6F6;stop-opacity:0.5459"/>
		<stop  offset="1" style="stop-color:#FFFFFF;stop-opacity:0.55"/>
	</linearGradient>
	<rect x="1.667" y="1.667" fill="url(#SVGID_3_)" width="46.667" height="46.667"/>
</g>
</svg>
