<?xml version="1.0" encoding="utf-8"?>
<!-- Generator: Adobe Illustrator 15.1.0, SVG Export Plug-In . SVG Version: 6.00 Build 0)  -->
<!DOCTYPE svg PUBLIC "-//W3C//DTD SVG 1.1//EN" "http://www.w3.org/Graphics/SVG/1.1/DTD/svg11.dtd">
<svg version="1.1" id="Layer_1" xmlns="http://www.w3.org/2000/svg" xmlns:xlink="http://www.w3.org/1999/xlink" x="0px" y="0px"
	 width="50px" height="50px" viewBox="125 125 50 50" enable-background="new 125 125 50 50" xml:space="preserve">
<g id="Dagger">
	<g>
		<rect x="126.667" y="126.667" fill="#660000" width="46.667" height="46.667"/>
		<g id="stroke_4_">
			<path fill="#660000" d="M173.333,126.667v46.667h-46.667v-46.667H173.333 M175,125h-1.136h-45.453H125v1.136v45.453V175h3.412
				h45.453H175v-3.411v-45.453V125L175,125z"/>
			
				<linearGradient id="SVGID_1_" gradientUnits="userSpaceOnUse" x1="1023" y1="-1015.9995" x2="1023" y2="-966" gradientTransform="matrix(1 0 0 -1 -873 -841)">
				<stop  offset="0" style="stop-color:#333333;stop-opacity:0.3"/>
				<stop  offset="0.2701" style="stop-color:#353535;stop-opacity:0.4215"/>
				<stop  offset="0.4166" style="stop-color:#3D3D3D;stop-opacity:0.4875"/>
				<stop  offset="0.5336" style="stop-color:#4B4B4B;stop-opacity:0.5401"/>
				<stop  offset="0.635" style="stop-color:#5E5E5E;stop-opacity:0.5857"/>
				<stop  offset="0.7262" style="stop-color:#787878;stop-opacity:0.6268"/>
				<stop  offset="0.8101" style="stop-color:#979797;stop-opacity:0.6646"/>
				<stop  offset="0.8885" style="stop-color:#BBBBBB;stop-opacity:0.6998"/>
				<stop  offset="0.9606" style="stop-color:#E5E5E5;stop-opacity:0.7323"/>
				<stop  offset="1" style="stop-color:#FFFFFF;stop-opacity:0.75"/>
			</linearGradient>
			<path fill="url(#SVGID_1_)" d="M173.333,126.667v46.667h-46.667v-46.667H173.333 M175,125h-1.136h-45.453H125v1.136v45.453V175
				h3.412h45.453H175v-3.411v-45.453V125L175,125z"/>
		</g>
	</g>
	<g id="Dagger_1_">
		<path d="M158.06,140.619L158.06,140.619c0-0.007,0-0.007,0-0.007v-0.006c-0.01-0.319,0.149-0.576,0.43-0.726
			c0.039-0.017,0.072-0.033,0.111-0.052c0.029-0.01,0.059-0.023,0.091-0.029l0,0l0,0l0,0c0.013,0,0.026-0.006,0.032-0.006
			c0.036-0.013,0.049-0.059,0.036-0.085l0,0l0,0c-0.004,0-0.004-0.006-0.004-0.006v-0.006c-0.006-0.046-0.006-0.095,0-0.14
			c0.02-0.14,0.085-0.277,0.183-0.381c0.085-0.098,0.202-0.189,0.339-0.208c0.032,0,0.062,0,0.091,0
			c0.049,0.007,0.13,0.007,0.149-0.045h0.007c-0.007,0-0.007,0-0.007,0v-0.006c0.007-0.013,0.007-0.023,0.007-0.033
			c-0.007-0.01,0,0-0.007-0.01c-0.006-0.042-0.02-0.088-0.02-0.133c0-0.183,0.092-0.345,0.215-0.476
			c0.124-0.124,0.287-0.221,0.459-0.267c0.062-0.013,0.124-0.019,0.192-0.026c0.062,0,0.071-0.068,0.085-0.124v-0.013
			c0.064-0.358,0.279-0.729,0.586-0.931c0.059-0.033,0.107-0.059,0.169-0.078c0.049-0.02,0.098-0.029,0.156-0.036h0.014
			c0.064-0.003,0.179-0.023,0.215-0.088c0.006-0.003,0.006-0.013,0.006-0.02l0,0v-0.02c0,0,0,0,0-0.003l0,0l0,0c0,0,0,0,0-0.003l0,0
			c-0.039-0.28,0.293-0.648,0.502-0.801c0.064-0.039,0.123-0.079,0.188-0.104c0.068-0.032,0.137-0.052,0.208-0.068l0,0
			c0.092-0.013,0.251-0.049,0.326-0.121c0.013-0.013,0.032-0.039,0.032-0.065l0,0v-0.006l0,0v-0.007c0-0.299,0.28-0.615,0.527-0.762
			c0.052-0.029,0.098-0.059,0.163-0.078c0.055-0.022,0.11-0.039,0.169-0.039l0,0h0.01c0.107-0.003,0.264-0.036,0.312-0.147v-0.003
			v-0.003h0.004l-0.007-0.003h0.003l0.007-0.032v0.003c0.101-0.329,0.335-0.589,0.651-0.719c0.045-0.013,0.088-0.032,0.137-0.039
			c0.039-0.013,0.074-0.02,0.113-0.02l0,0c0.111-0.003,0.183-0.022,0.192-0.136l0,0v-0.007l0,0c0.029-0.166,0.14-0.345,0.267-0.446
			l0,0l0,0l0,0l0.007-0.003c0.127-0.085,0.296-0.195,0.407-0.303c0.035-0.042,0.059-0.072,0.071-0.124c0.007-0.003,0-0.006,0-0.013
			c-0.075-0.104-0.124-0.238-0.081-0.361c0.02-0.059,0.049-0.098,0.101-0.133c0.052-0.029,0.11-0.049,0.173-0.052
			c0.127-0.006,0.25,0.042,0.361,0.114c0.02,0.006,0.032,0.013,0.045,0.006c0.023,0,0.039-0.013,0.049-0.026
			c0.049-0.088,0.068-0.222,0.056-0.316l0,0l-0.007-0.023l0,0c-0.029-0.11-0.042-0.221-0.049-0.332
			c-0.013-0.12-0.013-0.244-0.006-0.368c0.029-0.635,0.289-1.237,0.745-1.683c0.505-0.488,1.182-0.735,1.885-0.713
			c0.723,0.029,1.394,0.342,1.897,0.856l0,0v0.003c0.508,0.518,0.808,1.201,0.82,1.924c0.007,0.7-0.244,1.367-0.748,1.859l0,0
			h-0.007c-0.508,0.495-1.179,0.739-1.882,0.713c-0.123-0.006-0.247-0.02-0.374-0.042c-0.01-0.003-0.022,0-0.029,0
			c-0.13,0.036-0.273,0.101-0.371,0.199c-0.022,0.02-0.032,0.049-0.013,0.072c0.022,0.052,0.035,0.11,0.049,0.169
			c0.006,0.065-0.004,0.14-0.033,0.202c-0.035,0.059-0.081,0.098-0.143,0.124c-0.095,0.033-0.205,0.02-0.3-0.013
			c-0.003,0-0.01,0-0.01,0c-0.149,0.042-0.286,0.231-0.371,0.349l-0.01,0.013c-0.117,0.179-0.267,0.4-0.505,0.381
			c-0.104-0.013-0.156,0.042-0.172,0.179l0,0v0.003l0,0c0,0.045-0.014,0.098-0.029,0.14c-0.014,0.049-0.033,0.101-0.059,0.146
			c-0.137,0.283-0.404,0.531-0.717,0.605l0,0h-0.017c-0.022,0.007-0.049,0.007-0.067,0.02c-0.065,0.039-0.092,0.234-0.104,0.296l0,0
			c-0.007,0.052-0.023,0.107-0.046,0.16c-0.025,0.059-0.045,0.117-0.078,0.169c-0.149,0.267-0.449,0.56-0.774,0.515
			c-0.007,0-0.007,0-0.007,0h-0.006l0,0l0,0c-0.02-0.003-0.053,0.016-0.065,0.029c-0.071,0.068-0.11,0.225-0.124,0.322
			c-0.013,0.045-0.025,0.091-0.045,0.137c-0.068,0.205-0.205,0.41-0.371,0.553c-0.144,0.121-0.346,0.234-0.541,0.199
			c-0.013,0-0.025-0.003-0.032-0.007c-0.02-0.003-0.026-0.003-0.032-0.003c-0.092,0.01-0.114,0.153-0.121,0.221
			c0,0.02-0.01,0.039-0.01,0.065c-0.039,0.199-0.201,0.42-0.348,0.56c-0.173,0.163-0.407,0.303-0.648,0.283
			c-0.025,0-0.049-0.003-0.071-0.01c-0.092-0.02-0.127,0.104-0.127,0.202c0,0.052-0.007,0.098-0.02,0.14
			c-0.043,0.159-0.156,0.303-0.28,0.4c-0.13,0.107-0.296,0.182-0.466,0.182c-0.055,0-0.104,0-0.156-0.02l0,0
			c-0.088-0.023-0.117,0.045-0.11,0.137c0.007,0.039-0.007,0.084-0.02,0.127c-0.032,0.121-0.104,0.241-0.198,0.329
			c-0.095,0.091-0.225,0.166-0.368,0.172c-0.052,0-0.101-0.003-0.149-0.023h-0.007l0,0l0,0l0,0
			c-0.052-0.013-0.078,0.017-0.091,0.062v0.003l-0.007,0.003l0,0c-0.013,0.029-0.02,0.062-0.025,0.088
			c-0.02,0.039-0.039,0.072-0.062,0.111c-0.149,0.267-0.413,0.43-0.729,0.41h-0.01l0,0l0,0l0,0
			c-0.039-0.006-0.046,0.013-0.033,0.045c0,0.01,0,0.023,0.007,0.033c0.013,0.12-0.065,0.267-0.13,0.365
			c-0.085,0.124-0.215,0.234-0.358,0.267c-0.007,0-0.013,0-0.02,0.007c-0.007,0-0.01,0-0.013,0.013
			c-0.014,0.036-0.033,0.072-0.059,0.111c0,0-0.007,0.013-0.01,0.013c-0.026,0.032-0.02,0.065,0.003,0.091
			c1.101,1.159,2.204,2.334,3.269,3.532c0.169,0.196,0.345,0.394,0.508,0.593c0.13,0.143,0.247,0.293,0.367,0.446l0.004,0.007
			c0.267,0.348,0.494,0.859,0.403,1.302c-0.013,0.062-0.036,0.117-0.059,0.176c-0.032,0.052-0.065,0.098-0.104,0.137h-0.006
			c-0.102,0.098-0.225,0.172-0.346,0.248c-0.11,0.062-0.228,0.117-0.348,0.166c-0.088,0.033-0.166,0.036-0.248,0
			c-0.081-0.042-0.162-0.127-0.218-0.192l-0.078-0.081c-0.104-0.107-0.3-0.3-0.358-0.433l0,0v-0.003v-0.003l0,0l-0.006-0.006
			c-0.053-0.124-0.02-0.182,0.064-0.273c0.053-0.065,0.085-0.114,0.111-0.195c0.071-0.192,0.02-0.41-0.068-0.589
			c-0.02-0.039-0.049-0.081-0.068-0.12c-0.026-0.036-0.049-0.072-0.082-0.111l0,0c-0.614-0.755-1.272-1.471-1.953-2.158
			c-0.117-0.13-0.244-0.257-0.377-0.381c-0.114-0.117-0.238-0.234-0.355-0.352l-0.013-0.006l0,0
			c-0.198-0.169-0.403-0.319-0.622-0.449c-0.055-0.026-0.107-0.056-0.156-0.082c-0.029-0.01-0.062-0.01-0.074,0.013
			c-3.998,3.857-7.999,7.705-12.016,11.546c-2.119,2.032-4.235,4.053-6.367,6.068c-1.533,1.458-3.069,2.91-4.625,4.336l-0.052,0.039
			c-0.97,0.892-1.959,1.773-2.979,2.613c-0.647,0.527-1.312,1.052-2.002,1.514c-0.498,0.339-1.126,0.733-1.709,0.912
			c-0.045,0.013-0.094,0-0.127-0.039c-0.036-0.036-0.049-0.085-0.032-0.134c0.188-0.579,0.579-1.194,0.918-1.702
			c0.468-0.693,0.989-1.364,1.517-2.012c0.384-0.466,0.765-0.915,1.162-1.367c0.277-0.319,0.56-0.632,0.837-0.938
			c0.234-0.251,0.476-0.505,0.703-0.755l0.006-0.007c1.458-1.523,2.927-3.034,4.388-4.544c2.044-2.104,4.079-4.193,6.123-6.283
			c3.883-3.981,7.77-7.962,11.663-11.934c0.022-0.02,0.029-0.049,0.017-0.075c-0.029-0.056-0.062-0.104-0.088-0.157
			c-0.117-0.228-0.261-0.429-0.427-0.628c-0.003,0-0.003,0-0.003,0c-0.632-0.69-1.293-1.361-1.979-1.996
			c-0.137-0.133-0.276-0.26-0.42-0.387c-0.137-0.124-0.286-0.248-0.427-0.371l-0.013-0.007c-0.17-0.143-0.381-0.254-0.6-0.267
			c-0.038-0.006-0.074,0-0.11,0c-0.032,0-0.071,0.007-0.104,0.02l0,0c-0.078,0.03-0.13,0.068-0.195,0.117
			c-0.094,0.075-0.156,0.111-0.273,0.056c-0.137-0.062-0.338-0.271-0.442-0.378l-0.078-0.075c-0.071-0.068-0.149-0.143-0.182-0.228
			c-0.039-0.084-0.033-0.159,0-0.25c0.055-0.114,0.107-0.231,0.175-0.342c0.072-0.121,0.153-0.238,0.248-0.345
			c0.244-0.267,0.765-0.176,1.055-0.059c0.101,0.039,0.188,0.084,0.273,0.137c0.091,0.052,0.195,0.117,0.276,0.186l0.007,0.006
			c0.396,0.316,0.777,0.677,1.148,1.019c0.527,0.495,1.049,0.996,1.576,1.504c0.625,0.612,1.256,1.23,1.878,1.849
			c0.017,0.013,0.036,0.019,0.056,0.019c0.022-0.003,0.039-0.013,0.049-0.032c0.12-0.189,0.349-0.371,0.537-0.479
			c0.036-0.023,0.085-0.042,0.134-0.062c0.032-0.013,0.074-0.02,0.107-0.02l0,0l0,0C158.021,140.645,158.066,140.645,158.06,140.619
			L158.06,140.619z"/>
		<path d="M171.035,133.255c0.481-0.466,0.729-1.101,0.71-1.771c-0.007-0.69-0.293-1.344-0.775-1.836h-0.003l0,0
			c-0.485-0.495-1.13-0.791-1.816-0.82c-0.667-0.026-1.312,0.208-1.79,0.677c-0.437,0.43-0.684,0.996-0.71,1.605
			c-0.007,0.114-0.003,0.231,0.007,0.348c0.006,0.117,0.022,0.228,0.055,0.342l0,0l0.007,0.026v0.022
			c0.046,0.199,0.114,0.384,0.208,0.566c0.02,0.033,0.033,0.068,0.06,0.101c0.117,0.218,0.27,0.42,0.442,0.602l0,0h0.006
			c0.479,0.482,1.14,0.791,1.816,0.82C169.909,133.958,170.554,133.727,171.035,133.255L171.035,133.255L171.035,133.255z"/>
		<path d="M158.698,144.505c0.228,0.136,0.445,0.293,0.642,0.462c0.003,0.003,0.003,0.003,0.003,0.003l0,0l0,0l0.013,0.01
			c0.121,0.117,0.241,0.234,0.358,0.352c0.123,0.13,0.257,0.254,0.378,0.381c0.684,0.693,1.348,1.416,1.963,2.171l0.003,0.003
			c0.029,0.039,0.059,0.075,0.085,0.121c0.025,0.042,0.055,0.085,0.074,0.13c0.102,0.208,0.16,0.465,0.075,0.69
			c-0.036,0.094-0.075,0.156-0.137,0.228c-0.046,0.052-0.072,0.081-0.043,0.146l0,0l0,0v0.01l0,0c0.056,0.117,0.248,0.306,0.342,0.4
			l0.072,0.084c0.052,0.052,0.127,0.127,0.188,0.16c0.052,0.023,0.095,0.016,0.149,0c0.111-0.045,0.222-0.101,0.329-0.16
			c0.117-0.068,0.231-0.14,0.329-0.231v-0.003c0.032-0.026,0.059-0.062,0.071-0.101c0.026-0.045,0.043-0.091,0.059-0.149
			c0.082-0.404-0.137-0.879-0.384-1.191v-0.006c-0.117-0.156-0.241-0.3-0.361-0.443c-0.173-0.202-0.342-0.397-0.521-0.586
			c-1.098-1.237-2.24-2.455-3.379-3.656l-0.004-0.003c-0.325-0.345-0.65-0.687-0.979-1.028l0,0
			c-0.947-0.957-1.911-1.895-2.881-2.835c-0.521-0.504-1.042-1.006-1.569-1.501c-0.361-0.345-0.748-0.703-1.139-1.019v-0.01
			c-0.085-0.065-0.18-0.127-0.268-0.183c-0.078-0.049-0.169-0.088-0.25-0.124c-0.248-0.098-0.713-0.195-0.922,0.029
			c-0.091,0.094-0.172,0.205-0.234,0.316c-0.064,0.107-0.123,0.215-0.169,0.332c-0.022,0.049-0.029,0.098-0.007,0.143
			c0.033,0.065,0.104,0.137,0.163,0.189l0.013,0.013l0.065,0.065c0.091,0.091,0.29,0.299,0.403,0.348
			c0.065,0.036,0.098,0.003,0.146-0.039c0.075-0.062,0.141-0.101,0.231-0.134l0,0l0,0l0,0l0,0l0,0
			c0.046-0.013,0.085-0.026,0.13-0.032c0.053,0,0.088,0,0.137,0c0.241,0.013,0.488,0.143,0.664,0.293l0.02,0.016
			c0.144,0.121,0.287,0.244,0.43,0.368c0.137,0.13,0.28,0.261,0.424,0.388c0.684,0.641,1.354,1.312,1.988,2.008h0.004l0,0l0,0
			c0.166,0.205,0.315,0.417,0.439,0.651c0.107,0.183,0.191,0.378,0.26,0.58c0.17,0.488,0.349,1.074,0.397,1.588
			c0.003,0.033,0.026,0.059,0.056,0.059c0.475,0.056,1.002,0.222,1.451,0.381C158.255,144.284,158.464,144.369,158.698,144.505z"/>
		<path d="M163.288,149.635c0.042-0.026,0.081-0.052,0.117-0.084c0.013-0.006,0.013-0.013,0.013-0.026
			c-0.007-0.006-0.02-0.006-0.026,0c-0.094,0.052-0.204,0.104-0.309,0.143c-0.049,0.02-0.095,0.023-0.144,0
			c-0.068-0.032-0.137-0.107-0.186-0.163l-0.081-0.082c-0.088-0.098-0.283-0.29-0.342-0.404l0,0v-0.006l0,0l0,0
			c-0.032-0.068,0-0.094,0.042-0.149c0.062-0.068,0.104-0.137,0.137-0.225c0.075-0.228,0.023-0.482-0.081-0.687
			c-0.032-0.042-0.049-0.088-0.075-0.127c-0.029-0.042-0.055-0.082-0.088-0.124l0,0h-0.006c-0.612-0.758-1.283-1.491-1.967-2.181
			c-0.127-0.13-0.254-0.257-0.384-0.384c-0.117-0.117-0.241-0.241-0.358-0.352l-0.013-0.006l0,0l0,0l0,0l0,0
			c-0.208-0.176-0.417-0.332-0.645-0.469c-0.234-0.137-0.446-0.221-0.7-0.316c-0.449-0.166-0.973-0.335-1.448-0.394
			c-0.025-0.003-0.052-0.026-0.059-0.059c-0.056-0.517-0.234-1.1-0.406-1.588c-0.068-0.202-0.153-0.397-0.258-0.583
			c-0.13-0.231-0.286-0.446-0.455-0.651l0,0l0,0v-0.007c-0.632-0.693-1.303-1.37-1.989-2.015c-0.141-0.13-0.283-0.261-0.434-0.388
			c-0.137-0.127-0.279-0.25-0.423-0.374l-0.013-0.01c-0.189-0.157-0.43-0.283-0.671-0.3c-0.045-0.003-0.091-0.003-0.137,0.003
			c-0.039,0-0.088,0.01-0.123,0.026l0,0c-0.007,0-0.007,0-0.007,0l0,0l0,0c-0.091,0.033-0.156,0.072-0.228,0.134
			c-0.052,0.042-0.078,0.068-0.15,0.036c-0.11-0.049-0.312-0.26-0.399-0.348l-0.068-0.068l-0.02-0.013
			c-0.053-0.052-0.124-0.124-0.156-0.189c-0.026-0.052-0.02-0.098,0-0.143c0.006-0.013,0.013-0.026,0.019-0.039
			c0-0.006,0-0.02-0.006-0.026c-0.013,0-0.02,0-0.026,0.006c-0.049,0.085-0.091,0.176-0.13,0.26v0.007
			c0,0.02,0.007,0.032,0.013,0.055c0.033,0.068,0.104,0.14,0.156,0.192l0.02,0.02l0.062,0.068c0.091,0.088,0.296,0.3,0.4,0.345
			c0.071,0.036,0.101,0.01,0.152-0.036c0.068-0.065,0.134-0.104,0.229-0.133l0,0l0,0l0,0l0,0l0,0
			c0.042-0.013,0.087-0.023,0.133-0.023c0.039-0.01,0.085-0.01,0.131-0.006c0.24,0.016,0.488,0.146,0.67,0.303l0.013,0.01
			c0.15,0.127,0.287,0.254,0.43,0.374c0.146,0.127,0.29,0.257,0.427,0.388c0.693,0.645,1.357,1.321,1.996,2.015h0.003l0,0l0,0
			c0.173,0.205,0.322,0.42,0.452,0.658c0.102,0.182,0.189,0.375,0.261,0.58c0.169,0.485,0.349,1.071,0.403,1.585
			c0.007,0.032,0.033,0.055,0.059,0.059c0.476,0.062,1.003,0.228,1.449,0.391c0.254,0.091,0.465,0.182,0.699,0.319
			c0.222,0.134,0.442,0.29,0.645,0.462l0,0l0,0l0,0l0.013,0.013c0.117,0.114,0.241,0.234,0.358,0.352
			c0.13,0.127,0.257,0.254,0.381,0.378c0.687,0.696,1.357,1.429,1.976,2.181l0,0c0.033,0.039,0.065,0.082,0.092,0.124
			c0.025,0.045,0.052,0.084,0.071,0.13c0.104,0.208,0.163,0.462,0.081,0.687c-0.032,0.094-0.074,0.153-0.137,0.225
			c-0.039,0.052-0.068,0.078-0.039,0.149l0,0l0,0l0.007,0.007l0,0c0.049,0.11,0.244,0.306,0.335,0.403l0.075,0.085
			c0.052,0.052,0.124,0.124,0.188,0.156c0.056,0.026,0.098,0.02,0.153,0C163.066,149.746,163.184,149.697,163.288,149.635
			L163.288,149.635z"/>
		<path d="M159.141,143.07c-0.26-0.283-0.488-0.609-0.671-0.96l-0.228,0.221c0.264,0.277,0.531,0.56,0.795,0.837
			c0.02,0.02,0.039,0.026,0.059,0.023c0.025-0.003,0.045-0.017,0.052-0.039c0.003-0.007,0.003-0.007,0.01-0.013
			C159.16,143.119,159.157,143.089,159.141,143.07L159.141,143.07z M158.562,142.018l0.553-0.547
			c0.13,0.323,0.303,0.619,0.515,0.863c0.045,0.059,0.059,0.16,0.045,0.231c-0.013,0.075-0.067,0.163-0.098,0.218
			c-0.071,0.104-0.182,0.199-0.299,0.225c-0.004,0-0.014,0-0.014,0.007c-0.006,0-0.013-0.007-0.013-0.007
			C158.972,142.708,158.74,142.376,158.562,142.018L158.562,142.018z M159.212,141.383c0.137,0.335,0.307,0.642,0.527,0.896
			c0.032,0.026,0.134,0.02,0.176,0.02c0.238-0.007,0.43-0.137,0.541-0.349c0.025-0.032,0.032-0.068,0.045-0.094
			c0.029-0.052,0.088-0.198,0.056-0.234c-0.205-0.225-0.404-0.605-0.56-0.996L159.212,141.383L159.212,141.383z M160.085,140.524
			l0.748-0.726c0.141,0.397,0.332,0.765,0.57,1.071c0.016,0.023,0.016,0.056,0,0.078c-0.033,0.056-0.043,0.121-0.039,0.189
			c0.006,0.029-0.004,0.062-0.01,0.091c-0.026,0.101-0.092,0.198-0.163,0.27c-0.085,0.072-0.186,0.13-0.3,0.137
			c-0.032,0.003-0.143-0.006-0.179-0.039C160.452,141.377,160.228,140.879,160.085,140.524L160.085,140.524z M160.925,139.707
			c0.152,0.423,0.352,0.823,0.618,1.139c0.017,0.013,0.032,0.02,0.046,0.023c0.013,0,0.032,0.01,0.045,0.01l0,0l0,0
			c0.004,0,0.004,0,0.004,0l0,0c0.032,0.013,0.074,0.013,0.113,0.013c0.15,0,0.287-0.068,0.391-0.156
			c0.104-0.085,0.205-0.208,0.234-0.339c0.02-0.032,0.026-0.071,0.026-0.104c-0.007-0.084,0.007-0.182,0.059-0.254
			c0.017-0.026,0.01-0.059-0.02-0.078c-0.231-0.254-0.417-0.716-0.547-1.208L160.925,139.707L160.925,139.707z M161.999,138.659
			l1.139-1.113c0.124,0.531,0.307,1.029,0.547,1.302c0.026,0.026,0.026,0.062,0.007,0.084c-0.056,0.072-0.075,0.169-0.081,0.257
			c0,0.013-0.004,0.029-0.007,0.042c-0.042,0.179-0.192,0.375-0.315,0.498c-0.15,0.14-0.352,0.267-0.561,0.251
			c-0.02,0-0.039-0.003-0.055-0.01h-0.004c-0.006,0-0.013,0-0.02,0c-0.013-0.003-0.02-0.007-0.025-0.017
			C162.344,139.753,162.142,139.212,161.999,138.659L161.999,138.659z M163.242,137.441c0.098,0.452,0.286,1.133,0.615,1.399
			c0.02,0.007,0.062,0.023,0.081,0.026c0.156,0.029,0.325-0.072,0.437-0.176c0.149-0.13,0.273-0.312,0.338-0.498
			c0.014-0.036,0.023-0.075,0.036-0.114c0.022-0.117,0.062-0.26,0.14-0.365c0.02-0.026,0.02-0.062-0.006-0.084
			c-0.28-0.283-0.473-0.729-0.6-1.205L163.242,137.441L163.242,137.441z M164.382,136.322l0.996-0.97
			c0.13,0.453,0.309,0.892,0.547,1.159c0.02,0.022,0.02,0.052,0.006,0.071c-0.039,0.082-0.064,0.208-0.078,0.293l-0.003,0.007l0,0
			c-0.01,0.045-0.023,0.091-0.036,0.137c-0.025,0.052-0.045,0.104-0.071,0.149c-0.124,0.218-0.378,0.492-0.658,0.453l0,0
			c0,0,0-0.003-0.006-0.003c-0.02-0.003-0.026-0.006-0.039-0.02C164.69,137.311,164.499,136.758,164.382,136.322L164.382,136.322z
			 M165.481,135.25c0.124,0.476,0.316,0.941,0.561,1.201c0.02,0.02,0.039,0.026,0.062,0.02c0.007,0,0.007-0.006,0.013-0.006h0.017
			c0.276-0.065,0.511-0.287,0.632-0.541c0.02-0.039,0.042-0.081,0.052-0.127c0.013-0.036,0.026-0.075,0.026-0.114l0,0v-0.003l0,0
			l0,0c0.013-0.068,0.025-0.153,0.071-0.211c0.013-0.03,0.01-0.068-0.013-0.085c-0.28-0.238-0.469-0.592-0.605-0.931L165.481,135.25
			L165.481,135.25z M166.394,134.355l0.742-0.726c0.286,0.302,0.546,0.635,0.765,0.973c0.01,0.016,0.017,0.033,0.01,0.052
			c0,0.013-0.017,0.026-0.032,0.042c-0.131,0.075-0.251,0.225-0.332,0.349l-0.014,0.013c-0.091,0.137-0.228,0.355-0.413,0.326
			c-0.003,0-0.006,0-0.006-0.003C166.79,135.189,166.56,134.792,166.394,134.355z M158.47,142.113
			c-0.208-0.407-0.345-0.843-0.4-1.283c-0.003-0.036-0.029-0.062-0.062-0.062c-0.007,0-0.013,0-0.02,0
			c-0.02,0-0.049,0.006-0.062,0.013c-0.039,0.017-0.075,0.033-0.107,0.052c-0.186,0.098-0.446,0.299-0.521,0.488
			c-0.013,0.026-0.006,0.059,0.007,0.075c0.273,0.27,0.547,0.537,0.808,0.808l0,0l0.123,0.127L158.47,142.113L158.47,142.113z
			 M167.136,133.629l-0.742,0.726c-0.195-0.515-0.297-1.094-0.346-1.504c-0.006-0.026,0.007-0.049,0.033-0.068
			c0.02-0.01,0.049-0.01,0.071,0C166.504,133.021,166.836,133.307,167.136,133.629L167.136,133.629z M166.296,134.45
			c-0.017-0.049-0.036-0.088-0.049-0.133c-0.153-0.443-0.258-0.925-0.316-1.39c0-0.023-0.013-0.042-0.039-0.055
			c-0.02-0.007-0.049,0-0.068,0.013c-0.107,0.091-0.225,0.176-0.348,0.254c-0.007,0,0.006,0,0,0
			c-0.104,0.091-0.199,0.228-0.219,0.361c-0.003,0.007,0,0-0.003,0.007c0,0.029-0.007,0.049-0.01,0.071
			c0.003,0.003,0.003,0.003,0.003,0.003h-0.003l0,0l0,0c-0.01,0.072-0.01,0.166-0.004,0.241c0.007,0.13,0.017,0.261,0.033,0.391
			c0.035,0.28,0.104,0.658,0.208,1.039L166.296,134.45L166.296,134.45z M165.378,135.345l-0.996,0.977l-0.014-0.045
			c-0.104-0.41-0.169-0.836-0.198-1.256c-0.013-0.127-0.02-0.254-0.026-0.384c-0.003-0.055,0-0.111,0-0.166c0-0.003,0-0.01,0-0.013
			c0.007-0.003,0.007-0.006,0.007-0.01c0-0.006,0,0,0-0.003c0.088-0.29,0.293-0.524,0.58-0.642c0.035-0.013,0.074-0.026,0.117-0.036
			c0.035-0.003,0.068-0.01,0.094-0.01l0,0c0.032,0,0.059-0.003,0.085-0.01c0.02,0,0.039,0.003,0.052,0.013
			c0.026,0.013,0.032,0.029,0.032,0.049c0,0.013,0,0.02,0,0.026c0.007,0.13,0.017,0.267,0.036,0.397
			C165.188,134.538,165.267,134.948,165.378,135.345L165.378,135.345z M164.28,136.426c-0.133-0.485-0.204-0.999-0.237-1.39
			c-0.007-0.101-0.013-0.202-0.013-0.306c0-0.02-0.02-0.039-0.036-0.049c-0.017-0.013-0.036-0.02-0.062-0.007
			c-0.068,0.023-0.144,0.036-0.209,0.039h-0.006l0,0c0,0,0,0-0.004,0c-0.049,0.003-0.088,0.013-0.137,0.029
			c-0.049,0.023-0.101,0.042-0.146,0.068c-0.208,0.13-0.449,0.397-0.462,0.651c0,0.013,0,0,0,0.007c0,0.006,0,0.013,0,0.02
			c0,0.013,0,0,0,0.006c0.007,0.013,0,0.029,0.007,0.042c0.039,0.589,0.11,1.188,0.23,1.768l0.03,0.13L164.28,136.426
			L164.28,136.426z M163.138,137.545l-1.146,1.113c-0.117-0.485-0.198-0.977-0.234-1.276c-0.02-0.149-0.032-0.299-0.039-0.446
			c-0.007-0.075-0.013-0.157-0.007-0.231c0-0.01,0,0.006,0-0.006c0.007-0.02,0.014-0.045,0-0.068l0,0v-0.003
			c-0.035-0.231,0.28-0.56,0.456-0.68c0.052-0.036,0.11-0.068,0.169-0.101c0.053-0.02,0.111-0.039,0.173-0.052l0,0l0,0l0,0
			c0.004,0,0.004,0,0.004,0c0.091-0.02,0.182-0.039,0.26-0.075c0.026-0.01,0.046-0.01,0.065,0.003s0.032,0.026,0.032,0.052
			C162.907,136.211,162.981,136.901,163.138,137.545L163.138,137.545z M161.895,138.756c-0.137-0.488-0.215-1.009-0.254-1.36
			c-0.02-0.15-0.039-0.3-0.046-0.449c0-0.02-0.006-0.036-0.025-0.045c-0.023-0.013-0.039-0.02-0.056-0.013
			c-0.049,0.013-0.091,0.013-0.133,0.02h-0.004h-0.01c-0.046,0.003-0.085,0.013-0.12,0.026c-0.049,0.02-0.102,0.042-0.144,0.072
			c-0.28,0.176-0.479,0.514-0.53,0.84l-0.004,0.013c-0.007,0.029-0.007,0.059-0.022,0.084c-0.004,0.01-0.004,0.02-0.004,0.026
			c0.004,0.039,0.007,0.075,0.01,0.111c0.01,0.104,0.026,0.208,0.039,0.306c0.072,0.417,0.176,0.872,0.332,1.315L161.895,138.756
			L161.895,138.756z M160.833,139.798l-0.748,0.726l-0.039-0.101c-0.111-0.316-0.219-0.645-0.307-0.974
			c-0.032-0.11-0.059-0.225-0.078-0.348c-0.006-0.045-0.02-0.101-0.025-0.143c0-0.007,0-0.007,0-0.02
			c0.013-0.029,0.013-0.068,0-0.098c-0.014-0.033-0.014-0.068-0.017-0.104c0-0.146,0.075-0.283,0.179-0.387
			c0.111-0.107,0.254-0.192,0.397-0.231c0.056-0.013,0.104-0.02,0.163-0.02c0-0.006,0.006-0.006,0.006-0.006
			c0.039,0,0.072,0.026,0.072,0.059c0.01,0.091,0.025,0.179,0.039,0.26C160.54,138.854,160.657,139.343,160.833,139.798
			L160.833,139.798z M159.997,140.619c-0.166-0.404-0.3-0.827-0.378-1.133c-0.026-0.117-0.056-0.228-0.072-0.342
			c-0.01-0.036-0.042-0.062-0.074-0.055c-0.039,0.006-0.078,0.006-0.111,0c-0.025,0-0.045,0-0.064,0
			c-0.104,0.013-0.202,0.088-0.264,0.163c-0.075,0.084-0.137,0.202-0.15,0.319c-0.019,0.127,0.007,0.312,0.014,0.439
			c0.035,0.446,0.143,0.931,0.322,1.371L159.997,140.619L159.997,140.619z M159.114,141.471l-0.553,0.547
			c-0.081-0.163-0.149-0.338-0.208-0.508c-0.079-0.221-0.137-0.482-0.163-0.723c-0.007-0.094-0.014-0.198-0.004-0.287
			c0.029-0.225,0.16-0.403,0.361-0.511c0.033-0.02,0.065-0.036,0.092-0.049c0.025-0.007,0.052-0.013,0.071-0.02c0,0,0,0,0.004,0l0,0
			h0.006l0,0c0.01,0,0.017,0,0.026-0.006c0.006,0,0.01,0,0.017,0.006c0.003,0,0.006,0.006,0.006,0.006
			C158.796,140.43,158.913,140.98,159.114,141.471z"/>
		<path d="M166.653,132.168c-0.01,0.02-0.022,0.036-0.032,0.055c-0.02,0.03-0.02,0.068,0,0.088c0.039,0.029,0.065,0.056,0.091,0.085
			c0.085,0.098-0.013,0.176-0.098,0.081c-0.117-0.137-0.348-0.322-0.533-0.316c-0.039,0.007-0.075,0.02-0.107,0.036
			c-0.029,0.02-0.043,0.042-0.062,0.068c-0.025,0.094,0.036,0.202,0.088,0.27c0.01,0.01,0.017,0.01,0.023,0.016
			c0.26,0.15,0.53,0.355,0.758,0.56c0.505,0.43,0.935,0.951,1.286,1.517c0.01,0.013,0.026,0.026,0.046,0.032
			c0.055,0.013,0.113,0.02,0.176,0c0.029-0.013,0.055-0.032,0.068-0.068c0.022-0.036,0.022-0.081,0.022-0.127
			c-0.013-0.055-0.032-0.11-0.052-0.163c-0.046-0.091-0.11-0.189-0.183-0.267c-0.085-0.091,0-0.182,0.085-0.084
			c0.039,0.032,0.068,0.075,0.101,0.117c0,0.019,0.02,0.026,0.036,0.026c0.025,0.006,0.039,0,0.052-0.013
			c0.02-0.013,0.046-0.032,0.068-0.049c0.022-0.016,0.036-0.036,0.036-0.068c-0.007-0.026-0.023-0.045-0.046-0.052
			c-0.433-0.143-0.823-0.391-1.143-0.719l0,0l-0.003-0.003c-0.183-0.189-0.339-0.394-0.462-0.625
			c-0.026-0.039-0.046-0.072-0.062-0.111c-0.049-0.094-0.088-0.198-0.127-0.293c0-0.006-0.01-0.013-0.013-0.013
			C166.66,132.155,166.657,132.155,166.653,132.168z"/>
		<path d="M160.938,139.648c0.146,0.417,0.342,0.82,0.603,1.133c0.016,0.007,0.029,0.02,0.042,0.02
			c0.013,0.003,0.032,0.003,0.046,0.006l0,0l0,0l0,0l0,0l0.003,0.003c0.032,0.007,0.068,0.013,0.107,0.01
			c0.13,0,0.261-0.065,0.361-0.146c0.101-0.075,0.192-0.192,0.225-0.315c0.01-0.033,0.013-0.065,0.013-0.098
			c-0.003-0.079,0.014-0.169,0.056-0.234c0.017-0.026,0.017-0.059-0.01-0.078c-0.01-0.007-0.02-0.02-0.026-0.026
			c-0.006,0-0.013,0-0.02,0c0,0-0.003,0.007-0.003,0.013c-0.003,0.013,0,0.026,0,0.036c-0.003,0.033-0.01,0.065-0.017,0.095
			c-0.039,0.117-0.127,0.231-0.228,0.315c-0.098,0.082-0.228,0.146-0.358,0.146c-0.035,0-0.071,0-0.104-0.013l0,0l0,0
			c-0.007,0-0.007,0-0.007,0l0,0l0,0c-0.013,0-0.032-0.007-0.039-0.007c-0.013-0.006-0.029-0.013-0.042-0.02
			c-0.219-0.26-0.381-0.579-0.518-0.924L160.938,139.648L160.938,139.648z M158.226,142.298l0.043-0.039
			c0.26,0.273,0.521,0.547,0.771,0.823c0.02,0.017,0.035,0.023,0.055,0.017c0.007,0,0.02,0,0.02,0c0.014-0.01,0.02-0.01,0.026,0
			c0.003,0,0.006,0.006,0.006,0.013c-0.003,0-0.006,0.007-0.006,0.007c0,0.006-0.004,0.006-0.004,0.013
			c-0.01,0.02-0.029,0.033-0.049,0.036c-0.013,0.003-0.035-0.003-0.052-0.023C158.767,142.865,158.499,142.578,158.226,142.298
			L158.226,142.298z M158.567,141.959l0.085-0.071c0.156,0.302,0.361,0.586,0.593,0.833c0.006,0.007,0.006,0.007,0.013,0.007
			s0.013,0,0.017-0.007c0.114-0.026,0.212-0.114,0.273-0.208c0.022-0.026,0.045-0.065,0.065-0.104c0-0.006,0.006-0.013,0.022-0.006
			c0.007,0,0.013,0,0.013,0.006c0,0.039,0,0.082,0,0.114c-0.013,0.068-0.064,0.159-0.101,0.205
			c-0.068,0.091-0.166,0.185-0.276,0.211l0,0c-0.007,0-0.007,0-0.014,0.003c-0.006,0-0.006,0-0.013-0.003
			C158.965,142.646,158.743,142.318,158.567,141.959L158.567,141.959z M159.238,141.315l0.095-0.091
			c0.113,0.267,0.257,0.508,0.439,0.703c0.025,0.029,0.117,0.023,0.156,0.023c0.218-0.01,0.391-0.137,0.501-0.322
			c0.01-0.02,0.017-0.033,0.026-0.046c0-0.006,0.006-0.013,0.013-0.013s0.013,0,0.02,0.006c0.007,0.013,0.02,0.026,0.036,0.039
			c0.032,0.032-0.029,0.166-0.043,0.215c-0.02,0.032-0.032,0.065-0.045,0.088c-0.11,0.192-0.287,0.312-0.508,0.325
			c-0.039,0-0.137,0.007-0.163-0.023C159.531,141.973,159.368,141.657,159.238,141.315L159.238,141.315z M160.107,140.456
			l0.081-0.072c0.117,0.303,0.307,0.664,0.512,0.843c0.035,0.026,0.13,0.033,0.162,0.033c0.104-0.003,0.199-0.062,0.268-0.13
			c0.068-0.062,0.13-0.153,0.152-0.244c0.007-0.016,0.014-0.029,0.014-0.045c0-0.006,0.006-0.013,0.013-0.013s0.013,0,0.02,0.003
			c0.007,0.013,0.02,0.026,0.026,0.033c0.02,0.023,0.02,0.055,0,0.075c-0.026,0.049-0.039,0.117-0.033,0.172
			c0,0.026-0.006,0.056-0.013,0.082c-0.029,0.091-0.085,0.182-0.156,0.247c-0.068,0.072-0.163,0.121-0.261,0.13
			c-0.035,0-0.136-0.01-0.169-0.036C160.449,141.315,160.228,140.781,160.107,140.456L160.107,140.456z M162.031,138.574
			l0.059-0.059c0.124,0.462,0.307,0.892,0.544,1.058c0.003,0.003,0.017,0.007,0.022,0.01c0.01,0,0.01,0,0.017,0.003
			c0,0,0.003,0,0.01,0c0.013,0.003,0.032,0.003,0.046,0.003c0.191,0.01,0.384-0.104,0.521-0.228c0.114-0.117,0.254-0.3,0.293-0.466
			c0-0.013,0.007-0.026,0.007-0.039c0-0.029,0.006-0.055,0.006-0.078c0-0.01,0.007-0.013,0.014-0.013c0.006,0,0.02,0,0.02,0.006
			c0.016,0.023,0.032,0.042,0.049,0.055c0.022,0.02,0.022,0.059,0.003,0.082c-0.049,0.062-0.071,0.16-0.078,0.238
			c0,0.013,0,0.022,0,0.039c-0.039,0.169-0.176,0.352-0.3,0.469c-0.137,0.13-0.328,0.247-0.518,0.231c-0.022,0-0.035,0-0.055-0.003
			c0-0.003,0-0.003,0-0.003c-0.007,0-0.014,0-0.017-0.003c-0.017,0-0.022-0.003-0.032-0.006
			C162.36,139.668,162.161,139.121,162.031,138.574L162.031,138.574z M163.269,137.367l0.049-0.049
			c0.101,0.41,0.264,0.918,0.53,1.139c0.02,0.01,0.062,0.023,0.075,0.026c0.152,0.033,0.303-0.072,0.41-0.16
			c0.14-0.124,0.254-0.296,0.322-0.472c0.013-0.033,0.02-0.068,0.025-0.104c0.017-0.065,0.036-0.136,0.059-0.202
			c0.004-0.01,0.011-0.013,0.017-0.013c0.004-0.003,0.017,0,0.017,0.003c0.02,0.03,0.046,0.049,0.065,0.072
			c0.025,0.02,0.025,0.056,0.003,0.082c-0.075,0.091-0.11,0.228-0.134,0.342c-0.006,0.036-0.02,0.075-0.032,0.107
			c-0.062,0.179-0.183,0.348-0.319,0.475c-0.11,0.091-0.26,0.189-0.41,0.16c-0.022-0.003-0.064-0.013-0.074-0.026
			C163.542,138.483,163.359,137.787,163.269,137.367L163.269,137.367z M164.395,136.263l0.104-0.098
			c0.104,0.361,0.286,0.758,0.553,0.983c0.007,0.013,0.02,0.013,0.032,0.02c0.007,0,0.007,0,0.014,0l0,0
			c0.26,0.036,0.501-0.225,0.621-0.437c0.029-0.045,0.056-0.091,0.068-0.137c0.02-0.042,0.033-0.087,0.039-0.136l0,0l0,0l0,0
			l0.007-0.036c0.022,0.023,0.036,0.042,0.052,0.068c0.02,0.02,0.026,0.045,0.014,0.068c-0.039,0.078-0.065,0.205-0.082,0.283v0.006
			l0,0c-0.003,0.046-0.016,0.088-0.035,0.13c-0.02,0.045-0.039,0.098-0.068,0.143c-0.114,0.212-0.361,0.476-0.629,0.437l0,0l0,0
			c0,0,0,0-0.006,0c-0.014,0-0.026-0.007-0.033-0.02c-0.345-0.29-0.533-0.843-0.65-1.273V136.263L164.395,136.263z M165.508,135.172
			l0.049-0.042c0.11,0.391,0.264,0.761,0.466,0.973c0.025,0.016,0.045,0.023,0.062,0.016l0,0c0.007,0,0.007,0,0.013,0l0,0h0.014
			c0.25-0.065,0.465-0.263,0.579-0.488c0.022-0.032,0.036-0.075,0.042-0.117c0.014-0.032,0.026-0.068,0.026-0.101l0,0V135.4l0,0l0,0
			c0.007-0.013,0.007-0.029,0.007-0.036s0.006-0.006,0.01-0.013c0.006-0.006,0.013,0,0.017,0c0.016,0.013,0.032,0.026,0.049,0.039
			c0.022,0.02,0.029,0.055,0.01,0.078c-0.043,0.056-0.056,0.13-0.062,0.199l0,0l0,0l0,0l0,0c-0.006,0.036-0.01,0.068-0.022,0.107
			c-0.02,0.039-0.032,0.082-0.052,0.117c-0.111,0.231-0.326,0.43-0.576,0.488h-0.02c0,0-0.007,0-0.014,0
			c-0.02,0.003-0.035,0-0.055-0.013C165.804,136.117,165.632,135.638,165.508,135.172L165.508,135.172z M166.419,134.291l0.06-0.059
			c0.143,0.349,0.348,0.651,0.608,0.814c0.006,0,0.006,0,0.006,0l0,0c0.18,0.026,0.303-0.176,0.385-0.299l0.013-0.013
			c0.062-0.098,0.146-0.208,0.238-0.28c0.006,0,0.006-0.003,0.019-0.003c0.004,0,0.004,0.003,0.011,0.006
			c0.032,0.042,0.062,0.091,0.087,0.137c0.007,0.01,0.014,0.029,0.007,0.049c0,0.02-0.013,0.026-0.025,0.039
			c-0.124,0.072-0.229,0.208-0.316,0.326l-0.01,0.016c-0.085,0.127-0.208,0.329-0.384,0.303c0,0-0.004,0-0.007,0
			C166.79,135.124,166.569,134.723,166.419,134.291z M160.612,138.105c0,0.033,0.006,0.068,0.013,0.098
			c0.007,0.101,0.026,0.195,0.039,0.287c0.049,0.365,0.146,0.762,0.276,1.159l0.081-0.081c-0.176-0.446-0.279-0.915-0.345-1.341
			c-0.013-0.088-0.025-0.172-0.032-0.257l-0.007,0.02v0.006c-0.013,0.03-0.013,0.059-0.025,0.085
			C160.612,138.086,160.612,138.093,160.612,138.105L160.612,138.105z M166.478,134.232l-0.062,0.059
			c-0.14-0.375-0.225-0.775-0.273-1.113c0-0.006,0.01-0.017,0.022-0.02c0.007,0,0.014,0.003,0.02,0.013
			C166.243,133.516,166.335,133.89,166.478,134.232L166.478,134.232z M165.557,135.13l-0.049,0.042
			c-0.068-0.276-0.117-0.543-0.149-0.762c0-0.01,0.006-0.022,0.013-0.022c0.013,0,0.022,0.006,0.022,0.013
			C165.43,134.629,165.488,134.879,165.557,135.13L165.557,135.13z M164.499,136.166l-0.098,0.098
			c-0.102-0.384-0.163-0.801-0.199-1.198c-0.006-0.13-0.016-0.247-0.016-0.371c-0.007-0.052-0.007-0.107,0-0.163
			c0,0,0-0.007,0-0.013c0,0,0.003-0.006,0.006-0.006l0,0c0-0.007,0,0,0-0.007v-0.006c0.004-0.013,0.014-0.013,0.026-0.013
			c0.007,0,0.013,0.007,0.013,0.013c0,0.072,0,0.143,0.007,0.208c0.036,0.397,0.091,0.801,0.188,1.191
			C164.446,135.977,164.466,136.068,164.499,136.166L164.499,136.166z M163.317,137.318l-0.049,0.049l-0.014-0.062
			c-0.117-0.547-0.182-1.113-0.221-1.673c-0.004-0.013-0.004-0.026-0.004-0.039c0-0.013,0,0.006,0-0.01c0-0.003,0-0.013,0-0.016
			c0-0.007-0.003-0.003-0.003-0.003c0.003-0.003,0.013-0.003,0.02-0.003c0.006,0,0.013,0.007,0.013,0.01
			c0.039,0.492,0.091,0.98,0.195,1.462C163.274,137.119,163.294,137.217,163.317,137.318L163.317,137.318z M162.09,138.516
			l-0.059,0.062c-0.101-0.427-0.17-0.85-0.202-1.107c-0.017-0.14-0.029-0.28-0.035-0.42c-0.007-0.072-0.011-0.15-0.007-0.212
			c0-0.013,0,0,0-0.01c0.007-0.023,0.007-0.042,0-0.072l0,0l0,0c-0.004-0.032,0.003-0.075,0.013-0.114c0,0.049,0,0.101,0.004,0.146
			c0.01,0.137,0.022,0.273,0.039,0.413C161.875,137.5,161.953,138.027,162.09,138.516L162.09,138.516z M160.188,140.381
			l-0.078,0.072l-0.003-0.003c-0.107-0.29-0.205-0.593-0.283-0.895c-0.032-0.104-0.059-0.215-0.075-0.323
			c-0.006-0.042-0.02-0.094-0.02-0.137c0-0.006,0-0.006,0-0.013c0.007-0.02,0.007-0.042,0.007-0.062c0-0.006,0.007-0.016,0.013-0.02
			c0.007,0,0.017,0.007,0.017,0.017c0.02,0.084,0.039,0.166,0.062,0.247c0.075,0.303,0.17,0.603,0.271,0.889
			C160.124,140.221,160.149,140.299,160.188,140.381L160.188,140.381z M159.333,141.218l-0.095,0.091
			c-0.149-0.384-0.231-0.801-0.26-1.182c-0.007-0.107-0.026-0.254-0.02-0.371c0-0.006,0.006-0.013,0.02-0.01
			c0.006-0.003,0.016,0.003,0.016,0.013c0.004,0.033,0.007,0.068,0.007,0.098C159.036,140.296,159.138,140.788,159.333,141.218
			L159.333,141.218z M158.652,141.881l-0.078,0.075c-0.071-0.14-0.124-0.28-0.176-0.426c-0.068-0.208-0.13-0.456-0.149-0.687
			c-0.014-0.055-0.014-0.12-0.014-0.179c0-0.007,0.014-0.013,0.02-0.013c0.007-0.006,0.014,0,0.014,0.013
			c0.025,0.221,0.078,0.462,0.143,0.664C158.479,141.527,158.555,141.712,158.652,141.881L158.652,141.881z M158.262,142.259
			l-0.039,0.039l-0.022-0.026l0,0c-0.244-0.247-0.629-0.628-0.873-0.869c-0.022-0.016-0.029-0.039-0.016-0.068
			c0,0,0.006-0.006,0.013-0.006c0.003,0,0.013,0,0.017,0.006l0.865,0.873l0,0L158.262,142.259z"/>
		<path d="M170.911,133.151c0.446-0.436,0.678-1.032,0.658-1.647c0-0.134-0.017-0.264-0.043-0.397c0-0.006-0.003-0.013-0.013-0.01
			c-0.01,0-0.017,0.003-0.017,0.013c-0.045,0.527-0.267,1.019-0.65,1.396l0,0l-0.004,0.006c-0.449,0.433-1.045,0.651-1.666,0.625
			c-0.629-0.026-1.244-0.312-1.684-0.758l0,0l-0.003-0.003c-0.166-0.163-0.31-0.352-0.417-0.553
			c-0.02-0.036-0.036-0.072-0.056-0.098c-0.064-0.137-0.117-0.273-0.156-0.417c-0.006-0.007-0.006-0.013-0.022-0.013
			c-0.007,0-0.013,0.006-0.013,0.013c0,0.059,0.003,0.11,0.006,0.169c0.017,0.104,0.029,0.208,0.049,0.316l0,0l0.007,0.026
			l0.007,0.02c0.045,0.186,0.11,0.355,0.191,0.524c0.017,0.032,0.036,0.071,0.049,0.098c0.114,0.205,0.254,0.391,0.417,0.56l0,0l0,0
			c0.449,0.449,1.064,0.732,1.699,0.759c0.615,0.029,1.211-0.192,1.653-0.628H170.911L170.911,133.151z"/>
		<path d="M165.974,132.396c0.013,0.059,0.049,0.117,0.081,0.163c0.013,0,0.013,0.007,0.026,0.013
			c0.253,0.143,0.508,0.348,0.732,0.547c0.479,0.423,0.908,0.924,1.253,1.471c0.01,0.013,0.02,0.023,0.039,0.026
			c0.052,0.013,0.114,0.026,0.163,0.006c0.039-0.01,0.059-0.029,0.071-0.059c0.017-0.032,0.023-0.071,0.02-0.104
			c-0.003-0.01-0.01-0.013-0.017-0.013c-0.01-0.003-0.013,0-0.02,0.007c-0.013,0.032-0.035,0.052-0.067,0.059
			c-0.05,0.02-0.111,0.006-0.166-0.006c-0.017,0-0.026-0.007-0.036-0.026c-0.345-0.547-0.774-1.048-1.257-1.478
			c-0.221-0.189-0.481-0.394-0.735-0.547c-0.013,0-0.013-0.006-0.02-0.013c-0.013-0.013-0.026-0.032-0.036-0.055
			c-0.006-0.006-0.02-0.01-0.025-0.006C165.974,132.376,165.97,132.389,165.974,132.396L165.974,132.396z M166.634,132.236
			c-0.02,0.023-0.013,0.055,0.017,0.075c0.02,0.029,0.039,0.049,0.068,0.072c0,0.006,0.007,0.006,0.013,0.006
			c0,0,0.007-0.003,0.014-0.01c0.006-0.02,0.006-0.055-0.026-0.094c-0.022-0.013-0.039-0.032-0.056-0.052
			c-0.003-0.003-0.006-0.007-0.01-0.007C166.647,132.23,166.638,132.233,166.634,132.236L166.634,132.236z M168.262,133.965
			c0.026,0.029,0.052,0.059,0.071,0.091c0.007,0.013,0.023,0.02,0.036,0.02c0.017,0.006,0.029,0,0.036-0.007
			c0.02-0.016,0.039-0.029,0.062-0.039c0.017-0.01,0.022-0.026,0.02-0.046s-0.013-0.039-0.032-0.045l0,0
			c-0.023,0.006-0.043,0.02-0.056,0.039c-0.013,0.006-0.026,0.013-0.039,0.006c-0.017,0-0.029-0.006-0.032-0.02
			c-0.029-0.032-0.052-0.065-0.078-0.091l0,0C168.203,133.822,168.171,133.88,168.262,133.965L168.262,133.965z"/>
		<path d="M130.924,170.117c0.042-0.026,0.075-0.052,0.111-0.071C131,170.065,130.967,170.091,130.924,170.117L130.924,170.117z
			 M131.048,170.026c0.042-0.026,0.087-0.062,0.124-0.092C131.136,169.964,131.09,170,131.048,170.026L131.048,170.026z
			 M131.416,169.746c0.303-0.222,0.589-0.452,0.869-0.687c1.016-0.84,1.996-1.719,2.965-2.601l0.062-0.062
			c1.562-1.422,3.093-2.874,4.629-4.329c2.125-2.016,4.248-4.043,6.367-6.071c3.307-3.164,6.618-6.341,9.912-9.525
			c0.007,0,0.007-0.006,0-0.013c0-0.007-0.007-0.013-0.017-0.013c-0.025,0-0.062,0.006-0.088,0.006
			c-0.628,0.072-1.289,0.326-1.865,0.58c-0.013,0.007-0.013,0.013-0.02,0.017l-22.835,22.683c-0.003,0.006-0.006,0.016,0,0.02
			C131.399,169.756,131.413,169.756,131.416,169.746z"/>
		<path d="M155.95,142.122c-0.006-0.019-0.013-0.039-0.025-0.062c-0.007-0.023-0.026-0.036-0.046-0.042
			c-0.022-0.006-0.045,0-0.062,0.02c-3.867,3.945-7.735,7.897-11.592,11.856c-2.044,2.09-4.082,4.186-6.12,6.288
			c-1.465,1.504-2.936,3.015-4.388,4.538l-0.003,0.007c-0.238,0.247-0.472,0.501-0.707,0.755c-0.28,0.307-0.56,0.625-0.84,0.935
			c-0.387,0.445-0.774,0.901-1.146,1.36c-0.456,0.55-0.901,1.123-1.318,1.716c-0.335,0.479-0.677,0.996-0.928,1.523
			c-0.013,0.032-0.003,0.068,0.026,0.085c0.026,0.016,0.062,0.016,0.081-0.011l25.329-25.149c0.007-0.01,0.014-0.01,0.014-0.023
			c0.267-0.56,0.54-1.221,0.628-1.842c0.026-0.205,0.042-0.498-0.022-0.704c-0.02-0.045-0.007-0.098,0.035-0.136
			c0.355-0.345,0.717-0.697,1.074-1.045C155.95,142.174,155.964,142.148,155.95,142.122z"/>
		<path d="M155.938,142.367c-0.319,0.315-0.638,0.628-0.964,0.944c-0.02,0.016-0.025,0.036-0.013,0.062
			c0.17,0.651-0.237,1.745-0.488,2.321c-0.02,0.026-0.013,0.055,0.013,0.075c0.02,0.02,0.046,0.026,0.072,0.013
			c0.586-0.244,1.686-0.622,2.337-0.43c0.022,0.006,0.049,0,0.065-0.013l0.957-0.938c0.02-0.02,0.022-0.039,0.022-0.065
			c-0.007-0.023-0.022-0.039-0.042-0.049c-0.424-0.146-0.951-0.316-1.4-0.355c-0.064-0.006-0.113-0.059-0.12-0.124
			c-0.036-0.449-0.192-0.983-0.335-1.413c-0.007-0.02-0.02-0.036-0.043-0.042C155.977,142.347,155.957,142.354,155.938,142.367z"/>
		<path d="M155.078,143.262l-0.068,0.065c-0.013,0.013-0.017,0.033-0.013,0.059c0.176,0.625-0.192,1.66-0.427,2.2
			c-0.01,0.026-0.003,0.052,0.017,0.072c0.022,0.02,0.049,0.026,0.068,0.016c0.553-0.225,1.598-0.563,2.22-0.364
			c0.026,0.01,0.042,0.003,0.068-0.017l0.896-0.879c0.055-0.052,0.025-0.098-0.053-0.026l-0.748,0.739
			c-0.02,0.013-0.039,0.02-0.065,0.013c-0.625-0.199-1.667,0.143-2.217,0.368c-0.029,0.007-0.056,0-0.075-0.02
			c-0.013-0.02-0.02-0.042-0.013-0.068c0.225-0.527,0.586-1.523,0.439-2.151c0-0.007-0.01-0.013-0.017-0.013
			C155.085,143.255,155.085,143.255,155.078,143.262z"/>
	</g>
	
		<linearGradient id="SVGID_2_" gradientUnits="userSpaceOnUse" x1="1023" y1="-1014.3325" x2="1023" y2="-967.6665" gradientTransform="matrix(1 0 0 -1 -873 -841)">
		<stop  offset="0" style="stop-color:#000000;stop-opacity:0.35"/>
		<stop  offset="0.0975" style="stop-color:#060606;stop-opacity:0.3159"/>
		<stop  offset="0.2216" style="stop-color:#151515;stop-opacity:0.2724"/>
		<stop  offset="0.36" style="stop-color:#2F2F2F;stop-opacity:0.224"/>
		<stop  offset="0.5088" style="stop-color:#545454;stop-opacity:0.1719"/>
		<stop  offset="0.6661" style="stop-color:#838383;stop-opacity:0.1169"/>
		<stop  offset="0.8304" style="stop-color:#BCBCBC;stop-opacity:0.0594"/>
		<stop  offset="0.9977" style="stop-color:#FEFEFE;stop-opacity:8.182824e-04"/>
		<stop  offset="1" style="stop-color:#FFFFFF;stop-opacity:0"/>
	</linearGradient>
	<rect x="126.667" y="126.667" fill="url(#SVGID_2_)" width="46.667" height="46.667"/>
	
		<linearGradient id="SVGID_3_" gradientUnits="userSpaceOnUse" x1="1023" y1="-1014.3325" x2="1023" y2="-967.6665" gradientTransform="matrix(1 0 0 -1 -873 -841)">
		<stop  offset="0" style="stop-color:#000000;stop-opacity:0"/>
		<stop  offset="0.3726" style="stop-color:#020202;stop-opacity:0.205"/>
		<stop  offset="0.5069" style="stop-color:#090909;stop-opacity:0.2788"/>
		<stop  offset="0.6026" style="stop-color:#141414;stop-opacity:0.3314"/>
		<stop  offset="0.68" style="stop-color:#252525;stop-opacity:0.374"/>
		<stop  offset="0.7463" style="stop-color:#3B3B3B;stop-opacity:0.4104"/>
		<stop  offset="0.805" style="stop-color:#575757;stop-opacity:0.4427"/>
		<stop  offset="0.8581" style="stop-color:#777777;stop-opacity:0.472"/>
		<stop  offset="0.9069" style="stop-color:#9D9D9D;stop-opacity:0.4988"/>
		<stop  offset="0.9523" style="stop-color:#C8C8C8;stop-opacity:0.5238"/>
		<stop  offset="0.9926" style="stop-color:#F6F6F6;stop-opacity:0.5459"/>
		<stop  offset="1" style="stop-color:#FFFFFF;stop-opacity:0.55"/>
	</linearGradient>
	<rect x="126.667" y="126.667" fill="url(#SVGID_3_)" width="46.667" height="46.667"/>
</g>
</svg>
