<?xml version="1.0" encoding="utf-8"?>
<!-- Generator: Adobe Illustrator 15.1.0, SVG Export Plug-In . SVG Version: 6.00 Build 0)  -->
<!DOCTYPE svg PUBLIC "-//W3C//DTD SVG 1.1//EN" "http://www.w3.org/Graphics/SVG/1.1/DTD/svg11.dtd">
<svg version="1.1" id="Layer_1" xmlns="http://www.w3.org/2000/svg" xmlns:xlink="http://www.w3.org/1999/xlink" x="0px" y="0px"
	 width="50px" height="50px" viewBox="125 125 50 50" enable-background="new 125 125 50 50" xml:space="preserve">
<g id="handgun">
	<g>
		<rect x="126.667" y="126.667" fill="#660000" width="46.667" height="46.667"/>
		<g id="stroke">
			<path fill="#660000" d="M173.334,126.667v46.667h-46.667v-46.667H173.334 M175,125h-1.136h-45.456H125v1.136v45.456V175h3.408
				h45.456H175v-3.408v-45.456V125L175,125z"/>
			
				<linearGradient id="SVGID_1_" gradientUnits="userSpaceOnUse" x1="732" y1="936" x2="732" y2="886" gradientTransform="matrix(1 0 0 1 -582 -761)">
				<stop  offset="0" style="stop-color:#333333;stop-opacity:0.3"/>
				<stop  offset="0.2701" style="stop-color:#353535;stop-opacity:0.4215"/>
				<stop  offset="0.4166" style="stop-color:#3D3D3D;stop-opacity:0.4875"/>
				<stop  offset="0.5336" style="stop-color:#4B4B4B;stop-opacity:0.5401"/>
				<stop  offset="0.635" style="stop-color:#5E5E5E;stop-opacity:0.5857"/>
				<stop  offset="0.7262" style="stop-color:#787878;stop-opacity:0.6268"/>
				<stop  offset="0.8101" style="stop-color:#979797;stop-opacity:0.6646"/>
				<stop  offset="0.8885" style="stop-color:#BBBBBB;stop-opacity:0.6998"/>
				<stop  offset="0.9606" style="stop-color:#E5E5E5;stop-opacity:0.7323"/>
				<stop  offset="1" style="stop-color:#FFFFFF;stop-opacity:0.75"/>
			</linearGradient>
			<path fill="url(#SVGID_1_)" d="M173.334,126.667v46.667h-46.667v-46.667H173.334 M175,125h-1.136h-45.456H125v1.136v45.456V175
				h3.408h45.456H175v-3.408v-45.456V125L175,125z"/>
		</g>
	</g>
	<path id="gun" fill="#231F20" d="M152.601,138.115c0.085-0.05,0.095-0.075,0.023-0.068c-0.065,0.007-0.13,0.042-0.137,0.081
		C152.475,138.164,152.525,138.161,152.601,138.115z M152.864,143.652c0.017-0.007,0.036-0.062,0.039-0.112
		c0.007-0.055-0.03-0.08-0.071-0.059c-0.042,0.024-0.062,0.074-0.039,0.117C152.812,143.639,152.845,143.663,152.864,143.652z
		 M149.044,146.519c0.041-0.018,0.057-0.07,0.035-0.112c-0.023-0.039-0.072-0.056-0.113-0.034c-0.04,0.021-0.056,0.073-0.034,0.112
		C148.952,146.527,149,146.542,149.044,146.519z M148.185,148.19c0.058-0.231,0.058-0.231-0.055-0.043
		c-0.062,0.103-0.1,0.215-0.083,0.246C148.093,148.479,148.124,148.438,148.185,148.19z M140.767,152.584
		c0.018-0.006,0.018-0.047-0.005-0.09c-0.022-0.035-0.073-0.053-0.117-0.031c-0.042,0.023-0.039,0.062,0.007,0.089
		C140.696,152.58,140.752,152.598,140.767,152.584z M151.521,149.349c0.191,0.056,0.191,0.052,0.017-0.052
		c-0.103-0.063-0.19-0.088-0.202-0.058C151.33,149.268,151.408,149.316,151.521,149.349z M151.973,149.121l0.299,0.088l-0.312-0.174
		c-0.172-0.099-0.307-0.138-0.301-0.089C151.666,148.991,151.803,149.069,151.973,149.121z M152.463,149.294
		c0.125-0.014,0.132-0.03,0.023-0.062c-0.081-0.025-0.152-0.016-0.162,0.018C152.314,149.284,152.377,149.306,152.463,149.294z
		 M146.416,153.184c0.103-0.056,0.133-0.095,0.071-0.088c-0.062,0.008-0.143,0.049-0.184,0.098
		C146.265,153.242,146.313,153.236,146.416,153.184z M156.092,149.036c0.376-0.371,0.419-0.832,0.176-1.885
		c-0.125-0.534-0.246-1.09-0.271-1.237c-0.061-0.391-0.173-0.557-0.494-0.755c-0.543-0.335-0.758-0.273-2.715,0.755l-1.738,0.918
		l0.106,0.319c0.062,0.176,0.144,0.474,0.187,0.658c0.094,0.392,0.449,0.856,0.846,1.088c0.139,0.087,0.514,0.195,0.826,0.243
		c0.555,0.087,0.711,0.212,0.521,0.429c-0.221,0.252-1.295,0.344-1.826,0.159c-0.395-0.139-1.004-0.59-1.137-0.841
		c-0.191-0.361-0.297-0.374-0.846-0.114c-0.427,0.2-0.573,0.228-0.954,0.177l-0.451-0.064l-0.076,0.346
		c-0.127,0.58-0.059,1.032,0.24,1.599c0.4,0.764,0.926,1.035,1.912,0.992c0.69-0.031,0.931-0.137,1.627-0.723
		c1.415-1.187,2.194-1.773,2.329-1.757c0.078,0.013,0.297,0.052,0.49,0.086C155.24,149.503,155.799,149.329,156.092,149.036z
		 M146.667,156.087c0.018-0.007,0.036-0.059,0.039-0.113c0.003-0.054-0.027-0.082-0.068-0.056c-0.044,0.021-0.065,0.075-0.042,0.114
		C146.618,156.074,146.652,156.101,146.667,156.087z M145.237,160.084l0.256,0.072l-0.243-0.119c-0.133-0.066-0.25-0.102-0.26-0.076
		C144.98,159.99,145.091,160.045,145.237,160.084z M146.938,159.727c0.041-0.022,0.057-0.076,0.034-0.117
		c-0.024-0.039-0.065-0.039-0.093,0.006c-0.028,0.051-0.041,0.098-0.034,0.117C146.856,159.748,146.897,159.746,146.938,159.727z
		 M142.604,164.045c0.055,0.004,0.078-0.028,0.059-0.066c-0.021-0.039-0.084-0.074-0.137-0.082c-0.056-0.004-0.08,0.029-0.059,0.068
		C142.487,164.004,142.549,164.043,142.604,164.045z M148.362,165.31c-0.239,0.074-0.85,0.286-1.35,0.465
		c-1.707,0.618-1.837,0.657-2.225,0.673c-0.213,0.011-0.604,0.086-0.869,0.171c-0.264,0.081-0.491,0.149-0.508,0.142
		c-0.014-0.002-0.257-0.207-0.537-0.449c-0.885-0.758-1.758-2.033-2.163-3.164c-0.312-0.867-0.417-1.552-0.48-3.23
		c-0.027-0.717-0.062-1.446-0.072-1.622c-0.012-0.176-0.038-0.628-0.059-1.009c-0.023-0.378-0.042-0.729-0.047-0.779
		c-0.005-0.048-0.005-0.422,0.006-0.822c0.044-1.819-0.342-2.585-1.479-2.939c-0.735-0.231-1.144-0.149-2.021,0.394l-0.64,0.397
		l-0.193-0.156c-0.137-0.111-0.489-0.71-1.147-1.971c-0.902-1.718-0.957-1.838-1.011-2.343c-0.104-0.895-0.041-1.334,0.231-1.667
		c0.137-0.162,0.228-0.333,0.199-0.386c-0.026-0.051-0.056-0.278-0.065-0.509c-0.016-0.355,0.01-0.43,0.205-0.532
		c0.342-0.178,0.869-0.259,0.977-0.145c0.052,0.055,0.169,0.192,0.264,0.309l0.168,0.208l3.219-1.634
		c1.773-0.898,6.772-3.52,11.111-5.829l7.891-4.194l0.006-0.286c0.01-0.271,0.033-0.298,0.417-0.469
		c0.558-0.248,1.565-0.176,1.819,0.13c0.095,0.112,0.223,0.226,0.283,0.252c0.174,0.071,0.635,0.945,1.39,2.609
		c0.837,1.842,1.117,2.907,0.929,3.516c-0.082,0.259-1.791,1.168-1.879,1.001c-0.081-0.155-0.589,0.112-0.566,0.298
		c0.017,0.11-0.202,0.247-1.32,0.84l-1.345,0.707l-0.256,0.408c-0.464,0.731-0.609,1.617-0.398,2.394
		c0.043,0.16,0.109,0.443,0.152,0.629c0.203,0.96,0.407,1.33,0.854,1.538c0.244,0.116,0.416,0.437,0.345,0.66
		c-0.05,0.156-0.452,0.384-3.336,1.907c-3.396,1.791-3.624,1.889-4.499,1.963c-0.176,0.016-0.501,0.09-0.72,0.172
		c-0.334,0.121-0.439,0.206-0.676,0.541c-0.152,0.215-0.323,0.407-0.379,0.423c-0.052,0.017-0.074,0.104-0.052,0.192
		c0.024,0.09,0.029,0.283,0.01,0.426c-0.021,0.183,0.052,0.456,0.228,0.847c0.283,0.634,0.311,0.837,0.16,1.179
		c-0.212,0.479-0.088,1.521,0.296,2.559c0.067,0.17,0.088,0.412,0.052,0.547c-0.039,0.13-0.047,0.279-0.02,0.329
		c0.026,0.048,0.049,0.254,0.052,0.452c0.01,0.689,0.732,1.814,1.385,2.158c0.097,0.049,0.2,0.137,0.229,0.191
		c0.029,0.053,0.129,0.124,0.223,0.15c0.204,0.064,0.415,0.436,0.332,0.586c-0.035,0.061-0.436,0.329-0.89,0.599
		C149.193,164.968,148.819,165.163,148.362,165.31z"/>
	
		<linearGradient id="SVGID_2_" gradientUnits="userSpaceOnUse" x1="732" y1="934.333" x2="732" y2="887.667" gradientTransform="matrix(1 0 0 1 -582 -761)">
		<stop  offset="0" style="stop-color:#000000;stop-opacity:0.35"/>
		<stop  offset="0.0975" style="stop-color:#060606;stop-opacity:0.3159"/>
		<stop  offset="0.2216" style="stop-color:#151515;stop-opacity:0.2724"/>
		<stop  offset="0.36" style="stop-color:#2F2F2F;stop-opacity:0.224"/>
		<stop  offset="0.5088" style="stop-color:#545454;stop-opacity:0.1719"/>
		<stop  offset="0.6661" style="stop-color:#838383;stop-opacity:0.1169"/>
		<stop  offset="0.8304" style="stop-color:#BCBCBC;stop-opacity:0.0594"/>
		<stop  offset="0.9977" style="stop-color:#FEFEFE;stop-opacity:8.182824e-04"/>
		<stop  offset="1" style="stop-color:#FFFFFF;stop-opacity:0"/>
	</linearGradient>
	<rect x="126.667" y="126.667" fill="url(#SVGID_2_)" width="46.667" height="46.667"/>
	
		<linearGradient id="SVGID_3_" gradientUnits="userSpaceOnUse" x1="732" y1="934.333" x2="732" y2="887.667" gradientTransform="matrix(1 0 0 1 -582 -761)">
		<stop  offset="0" style="stop-color:#000000;stop-opacity:0"/>
		<stop  offset="0.3726" style="stop-color:#020202;stop-opacity:0.205"/>
		<stop  offset="0.5069" style="stop-color:#090909;stop-opacity:0.2788"/>
		<stop  offset="0.6026" style="stop-color:#141414;stop-opacity:0.3314"/>
		<stop  offset="0.68" style="stop-color:#252525;stop-opacity:0.374"/>
		<stop  offset="0.7463" style="stop-color:#3B3B3B;stop-opacity:0.4104"/>
		<stop  offset="0.805" style="stop-color:#575757;stop-opacity:0.4427"/>
		<stop  offset="0.8581" style="stop-color:#777777;stop-opacity:0.472"/>
		<stop  offset="0.9069" style="stop-color:#9D9D9D;stop-opacity:0.4988"/>
		<stop  offset="0.9523" style="stop-color:#C8C8C8;stop-opacity:0.5238"/>
		<stop  offset="0.9926" style="stop-color:#F6F6F6;stop-opacity:0.5459"/>
		<stop  offset="1" style="stop-color:#FFFFFF;stop-opacity:0.55"/>
	</linearGradient>
	<rect x="126.667" y="126.667" fill="url(#SVGID_3_)" width="46.667" height="46.667"/>
</g>
</svg>
