<?xml version="1.0" encoding="utf-8"?>
<!-- Generator: Adobe Illustrator 15.1.0, SVG Export Plug-In . SVG Version: 6.00 Build 0)  -->
<!DOCTYPE svg PUBLIC "-//W3C//DTD SVG 1.1//EN" "http://www.w3.org/Graphics/SVG/1.1/DTD/svg11.dtd">
<svg version="1.1" id="Layer_1" xmlns="http://www.w3.org/2000/svg" xmlns:xlink="http://www.w3.org/1999/xlink" x="0px" y="0px"
	 width="50px" height="50px" viewBox="125 125 50 50" enable-background="new 125 125 50 50" xml:space="preserve">
<g id="Mace_1_">
	<g>
		<rect x="126.667" y="126.667" fill="#660000" width="46.667" height="46.667"/>
		<g id="stroke_11_">
			<path fill="#660000" d="M173.333,126.667v46.667h-46.667v-46.667H173.333 M175,125h-1.136h-45.459H125v1.136v45.453V175h3.405
				h45.459H175v-3.411v-45.453V125L175,125z"/>
			
				<linearGradient id="SVGID_1_" gradientUnits="userSpaceOnUse" x1="1023" y1="-1015.9995" x2="1023" y2="-966" gradientTransform="matrix(1 0 0 -1 -873 -841)">
				<stop  offset="0" style="stop-color:#333333;stop-opacity:0.3"/>
				<stop  offset="0.2701" style="stop-color:#353535;stop-opacity:0.4215"/>
				<stop  offset="0.4166" style="stop-color:#3D3D3D;stop-opacity:0.4875"/>
				<stop  offset="0.5336" style="stop-color:#4B4B4B;stop-opacity:0.5401"/>
				<stop  offset="0.635" style="stop-color:#5E5E5E;stop-opacity:0.5857"/>
				<stop  offset="0.7262" style="stop-color:#787878;stop-opacity:0.6268"/>
				<stop  offset="0.8101" style="stop-color:#979797;stop-opacity:0.6646"/>
				<stop  offset="0.8885" style="stop-color:#BBBBBB;stop-opacity:0.6998"/>
				<stop  offset="0.9606" style="stop-color:#E5E5E5;stop-opacity:0.7323"/>
				<stop  offset="1" style="stop-color:#FFFFFF;stop-opacity:0.75"/>
			</linearGradient>
			<path fill="url(#SVGID_1_)" d="M173.333,126.667v46.667h-46.667v-46.667H173.333 M175,125h-1.136h-45.459H125v1.136v45.453V175
				h3.405h45.459H175v-3.411v-45.453V125L175,125z"/>
		</g>
	</g>
	<g id="Mace">
		<path d="M171.067,128.502l0.229-0.117l0.091-0.052c0.02-0.006,0.039-0.006,0.052,0.013c0.013,0.016,0.02,0.039,0.007,0.045
			l-0.049,0.088l-1.084,2.034c-0.007,0.01-0.007,0.026,0,0.036c0.025,0.039,0.045,0.075,0.065,0.114
			c0.022,0.045,0.045,0.091,0.064,0.137c0.102,0.221,0.176,0.443,0.209,0.67c0.01,0.02,0.02,0.029,0.029,0.036l1.761,0.684
			l0.071,0.029c0.023,0.006,0.033,0.02,0.033,0.036c0,0.017-0.011,0.036-0.033,0.042l-0.078,0.032l-1.858,0.693
			c-0.013,0.007-0.02,0.017-0.026,0.026c-0.016,0.049-0.035,0.088-0.055,0.143c-0.026,0.068-0.049,0.13-0.075,0.192
			c-0.156,0.319-0.361,0.622-0.628,0.889l0,0l0,0c-0.117,0.121-0.248,0.225-0.381,0.319l0,0c-0.023,0.013-0.043,0.036-0.068,0.049
			c-0.098,0.065-0.195,0.117-0.297,0.176c-0.013,0.006-0.019,0.016-0.022,0.032l-0.134,1.25l-0.006,0.072
			c-0.004,0.013-0.014,0.026-0.029,0.032c-0.02,0.007-0.039,0-0.046-0.013l-0.045-0.052l-0.971-0.957
			c-0.01-0.013-0.02-0.02-0.032-0.02c-0.026,0.007-0.059,0.007-0.085,0.007c-0.045,0-0.091,0-0.137,0
			c-0.205-0.007-0.42-0.033-0.621-0.072c-0.017-0.006-0.029,0-0.043,0.01c-0.064,0.068-0.162,0.121-0.299,0.16
			c-0.033,0.01-0.068,0.016-0.098,0.023c-0.039,0.006-0.072,0.016-0.111,0.016l0,0c-0.02,0.003-0.032,0.013-0.052,0.006
			c-0.205,0.013-0.456-0.078-0.703-0.228c-0.02-0.007-0.039,0-0.052,0.006l-19.285,19.111c-0.016,0.023-0.016,0.043,0,0.062
			l0.693,0.703c0.017,0.013,0.036,0.032,0.049,0.055c0.082,0.104,0.13,0.244,0.124,0.378c0,0.127-0.052,0.257-0.149,0.355
			c-0.013,0.019-0.033,0.032-0.049,0.042c-0.248,0.195-0.504,0.381-0.765,0.566c-0.384,0.276-0.762,0.553-1.094,0.879
			c-0.332,0.328-0.615,0.709-0.895,1.09c-0.186,0.254-0.375,0.515-0.57,0.762c-0.01,0.02-0.026,0.033-0.039,0.049
			c-0.101,0.095-0.231,0.144-0.361,0.146c-0.081,0.004-0.159-0.013-0.237-0.045c-0.013-0.014-0.033-0.007-0.045,0.013
			c-0.716,0.765-7.617,8.151-8.724,9.245l-0.137,0.13c-0.215,0.215-0.378,0.368-0.651,0.612c0,0.006,0,0.006,0,0.006l0,0
			c0,0,0,0-0.007,0l0,0l0,0l-0.013,0.014l0,0l0,0l0,0c-0.039,0.042-0.075,0.071-0.117,0.098c-0.007,0.006-0.013,0.02-0.013,0.025
			c-0.013,0.137-0.065,0.261-0.137,0.358c-0.075,0.11-0.182,0.208-0.299,0.273s-0.248,0.114-0.384,0.14
			c-0.293,0.049-0.612,0-0.827-0.152c-0.273-0.189-0.492-0.293-0.729-0.303c-0.237-0.01-0.498,0.081-0.866,0.273
			c-0.149,0.081-0.303,0.13-0.453,0.166c-0.192,0.039-0.377,0.045-0.55,0.017l0.137-0.137c0.127,0.01,0.253,0,0.387-0.029
			c0.137-0.026,0.276-0.072,0.407-0.144c0.391-0.208,0.677-0.306,0.951-0.296c0.267,0.013,0.504,0.12,0.807,0.328
			c0.183,0.131,0.456,0.17,0.716,0.124c0.117-0.02,0.234-0.059,0.335-0.117c0.101-0.056,0.192-0.134,0.253-0.228
			c0.023-0.033,0.046-0.075,0.062-0.114c0.006-0.017,0.003-0.036-0.006-0.042c-0.01-0.014-0.026-0.02-0.042-0.014
			c-0.029,0.007-0.049,0.014-0.068,0.014c-0.124,0.02-0.241,0.006-0.332-0.049c-0.01-0.007-0.023-0.007-0.032-0.004
			c-0.983,0.238-1.911-0.064-2.507-0.352L171.067,128.502z M164.681,133.099c-0.039-0.124-0.074-0.248-0.104-0.384
			c0-0.02-0.007-0.042-0.01-0.065c-0.004-0.013-0.014-0.019-0.029-0.026l-1.459-0.7l-0.078-0.036
			c-0.02-0.007-0.025-0.026-0.025-0.039c0-0.023,0.013-0.036,0.032-0.039l0.085-0.02l1.464-0.375c0.017-0.006,0.023-0.02,0.03-0.032
			c0.127-0.557,0.403-1.084,0.84-1.514l0,0l0,0c0.062-0.059,0.123-0.114,0.185-0.169l0,0l0.033-0.026l0,0
			c0.039-0.033,0.074-0.062,0.117-0.091c0.006-0.01,0.013-0.02,0.013-0.029l0.052-0.583l0.007-0.062
			c0-0.013,0.007-0.029,0.022-0.036c0.014-0.007,0.029-0.003,0.043,0.01l0.049,0.026l0.374,0.273
			c0.007,0.013,0.026,0.013,0.039,0.006c0.017-0.006,0.022-0.02,0.029-0.029l0.244-1.136l0.017-0.078
			c0.003-0.017,0.016-0.026,0.035-0.029c0.014-0.003,0.033,0.003,0.039,0.02l0.046,0.071l0.554,0.951
			c0.01,0.02,0.025,0.026,0.039,0.02c0.638-0.045,1.289,0.098,1.855,0.442c0.013,0.003,0.025,0.003,0.039,0l1.81-0.918
			l-40.97,40.599c-0.348-0.176-0.586-0.342-0.651-0.384l0,0l-0.01-0.004h-0.003v-0.003l0,0v-0.007v-0.071c0,0,0-0.586,0.276-1.657
			c0.003-0.017,0-0.032-0.013-0.039c-0.017-0.013-0.029-0.016-0.049-0.003c-0.222,0.114-0.527,0.234-0.742,0.091
			c-0.045-0.02-0.111-0.013-0.183,0.02c-0.094,0.046-0.188,0.13-0.283,0.241c-0.094,0.101-0.172,0.234-0.221,0.367
			c-0.068,0.186-0.088,0.381,0.017,0.518c0.225,0.31,0.176,0.534,0.12,0.781c-0.032,0.163-0.068,0.326-0.029,0.524
			c0.01,0.043,0.026,0.085,0.052,0.124c0.078,0.153,0.241,0.273,0.449,0.349c0.104,0.038,0.221,0.059,0.345,0.068l-0.14,0.143
			c-0.094-0.013-0.179-0.036-0.264-0.062c-0.241-0.092-0.429-0.238-0.534-0.424c-0.026-0.055-0.045-0.104-0.055-0.169
			c-0.049-0.228-0.006-0.41,0.026-0.583c0.049-0.218,0.091-0.413-0.094-0.66c-0.137-0.189-0.124-0.43-0.039-0.664
			c0.059-0.149,0.15-0.293,0.25-0.417c0.101-0.117,0.218-0.222,0.335-0.271c0.114-0.062,0.231-0.068,0.326-0.01
			c0.228,0.15,0.651-0.123,0.794-0.228c0.013-0.007,0.013-0.013,0.02-0.026c0.358-1.23,1.146-1.891,1.149-1.891l0,0l9.479-8.076
			c0.013-0.014,0.017-0.026,0.01-0.043c-0.013-0.055-0.023-0.117-0.02-0.172c0-0.137,0.052-0.273,0.156-0.375
			c0.01-0.01,0.026-0.022,0.039-0.035l0,0l0.052-0.046l0,0c0.189-0.153,0.371-0.293,0.553-0.433c0.42-0.322,0.84-0.642,1.211-1.016
			c0.358-0.361,0.677-0.766,0.997-1.176c0.166-0.205,0.332-0.416,0.514-0.628c0.006-0.013,0.02-0.029,0.026-0.042
			c0.104-0.095,0.241-0.15,0.378-0.156c0.137,0,0.276,0.055,0.384,0.143c0.017,0.014,0.03,0.026,0.039,0.043l0,0l0.69,0.696
			c0.02,0.017,0.045,0.017,0.065,0l19.258-19.085c0.014-0.016,0.014-0.039,0-0.055c-0.137-0.199-0.225-0.41-0.254-0.603
			c0-0.026,0-0.045-0.006-0.068c-0.007-0.237,0.042-0.38,0.123-0.462c0.007-0.01,0.014-0.023,0.026-0.029
			C164.688,133.131,164.69,133.119,164.681,133.099z"/>
		<path d="M168.89,134.75l0.068-0.661c0.007-0.02,0-0.032-0.013-0.039c-1.003-0.696-1.406,0.273-1.491,0.544
			c-0.006,0.016-0.006,0.036,0.011,0.042l0.406,0.41l0,0l0,0l0,0l0.827,0.827c0.017,0.013,0.032,0.02,0.045,0.013
			c0.017-0.006,0.029-0.022,0.029-0.039l0.114-1.068L168.89,134.75L168.89,134.75z"/>
		<path d="M168.362,133.828c-0.452-0.033-0.738,0.348-0.882,0.771c-0.003,0,0,0.006,0.007,0.01l0.394,0.397l0,0l0.01,0.013
			l0.677,0.677c0.017,0.01,0.033,0.013,0.046,0.003c0.01-0.007,0.013-0.026,0.006-0.039c-0.098-0.146-0.188-0.296-0.267-0.446
			c-0.208-0.403-0.423-1.051,0.026-1.322c0.013-0.006,0.02-0.019,0.013-0.032C168.392,133.848,168.379,133.834,168.362,133.828z"/>
		<path d="M167.63,130.319l-1.236-0.889l-0.072-0.055l-0.3-0.218c-0.016-0.003-0.029-0.01-0.042-0.003
			c-0.017,0.007-0.022,0.023-0.022,0.036l-0.039,0.43l0,0l-0.107,1.344c-0.004,0.016,0.006,0.036,0.022,0.042
			c0.228,0.12,1.042,0.452,1.807-0.625C167.653,130.358,167.649,130.332,167.63,130.319z"/>
		<path d="M165.911,130.059l-0.071,0.908c0,0.003,0.003,0.006,0.007,0.016c0.208,0.108,0.455,0.157,0.684,0.127
			c0.332-0.033,0.611-0.218,0.837-0.449c0.01-0.017,0.013-0.029,0.003-0.042s-0.022-0.013-0.039-0.006
			c-0.176,0.088-0.371,0.137-0.566,0.124c-0.407-0.036-0.654-0.335-0.791-0.684c-0.007-0.017-0.017-0.026-0.032-0.023
			C165.925,130.032,165.911,130.039,165.911,130.059z"/>
		<path d="M165.13,133.314c-0.084-0.059-0.176-0.095-0.283-0.088l0,0l0,0l0,0l-0.01,0.003l-0.025,0.006l0,0
			c-0.131,0.045-0.156,0.257-0.137,0.442c0.091,0.671,1.129,1.556,1.68,1.491c0.152-0.029,0.391-0.078,0.449-0.195l0,0h0.003
			c0.007-0.02,0.01-0.033,0.013-0.046l0,0c0.02-0.124-0.133-0.28-0.361-0.423C165.339,133.789,165.537,133.607,165.13,133.314z"/>
		<path d="M170.563,131.621l-0.29-0.114c-0.013,0-0.022,0-0.032,0.003c-0.349,0.137-0.462,0.407-0.456,0.677
			c0.007,0.104,0.026,0.208,0.059,0.312c0.033,0.104,0.078,0.195,0.131,0.277c0.091,0.149,0.201,0.244,0.26,0.218l0.234-0.084
			l1.628-0.612c0.017-0.007,0.025-0.02,0.025-0.039c0-0.017-0.01-0.033-0.025-0.039L170.563,131.621z"/>
		<path d="M170.091,131.621c-0.188,0.124-0.279,0.319-0.273,0.566c0,0.104,0.023,0.205,0.056,0.303
			c0.036,0.094,0.075,0.186,0.124,0.267c0.029,0.045,0.166,0.237,0.23,0.211l0.234-0.088l1.221-0.459
			c0.013-0.006,0.023-0.026,0.02-0.042c-0.003-0.013-0.017-0.019-0.032-0.022c-0.71,0.078-1.716,0.091-1.533-0.703
			c0.003-0.013-0.004-0.026-0.013-0.033C170.117,131.615,170.104,131.615,170.091,131.621z"/>
		<path d="M170.244,130.326l0.85-1.589c0.007-0.02,0.007-0.039-0.01-0.052c-0.017-0.013-0.029-0.013-0.049-0.007l-1.599,0.814
			c-0.013,0-0.022,0.02-0.02,0.033c-0.003,0.013,0.004,0.029,0.017,0.039c0.13,0.098,0.257,0.208,0.378,0.325l0,0l0,0l0,0
			c0.137,0.137,0.254,0.283,0.361,0.437c0.01,0.013,0.022,0.019,0.036,0.019C170.228,130.345,170.234,130.338,170.244,130.326z"/>
		<path d="M170.71,129.264c-0.176,0.173-0.378,0.312-0.6,0.355c-0.208,0.042-0.396-0.01-0.557-0.133c-0.01-0.007-0.022-0.01-0.035,0
			l-0.068,0.032c-0.004,0-0.007,0.006-0.007,0.006c0,0.007,0,0.007,0.003,0.013c0.137,0.098,0.264,0.205,0.381,0.322l0,0
			l0.004,0.003c0.137,0.137,0.254,0.28,0.364,0.439c0,0.006,0.007,0.01,0.007,0.01c0.007-0.003,0.013-0.006,0.013-0.01l0.541-1.009
			c0.006-0.013,0-0.029-0.014-0.042C170.735,129.251,170.72,129.251,170.71,129.264z"/>
		<path d="M167.142,128.952l-0.348-0.608c-0.01-0.017-0.029-0.026-0.049-0.023c-0.014,0.003-0.026,0.016-0.033,0.036l-0.162,0.733
			c-0.004,0.013,0.003,0.032,0.02,0.042c0.006,0.013,0.025,0.013,0.039,0.007c0.071-0.03,0.149-0.049,0.221-0.068
			c0.095-0.026,0.189-0.042,0.287-0.062c0.013,0,0.025-0.01,0.032-0.023C167.155,128.978,167.155,128.965,167.142,128.952z"/>
		<path d="M166.631,128.854l-0.049,0.248c0,0,0,0.006,0.007,0.006c0,0,0.006,0.006,0.006,0c0.062-0.02,0.117-0.032,0.176-0.052
			c0.01-0.003,0.017-0.007,0.023-0.023c0.006-0.01,0-0.02-0.01-0.029c-0.039-0.045-0.065-0.101-0.092-0.156
			c-0.003-0.013-0.016-0.02-0.029-0.02C166.65,128.834,166.638,128.841,166.631,128.854z"/>
		<path d="M146.178,154.102l19.249-19.082c0.013-0.01,0.017-0.023,0.017-0.033c-0.004-0.013-0.011-0.02-0.02-0.032
			c-0.072-0.052-0.134-0.101-0.202-0.156c-0.101-0.095-0.205-0.202-0.3-0.312c-0.006-0.013-0.02-0.017-0.032-0.017
			c-0.017,0-0.026,0-0.032,0.017l-19.232,19.062c-0.02,0.014-0.02,0.039,0,0.059l0.244,0.248l0.244,0.24
			C146.136,154.114,146.166,154.121,146.178,154.102z"/>
		<path d="M146.172,154.023l19.18-19.007c0.007-0.006,0.007-0.016,0.007-0.026c0-0.006-0.007-0.013-0.014-0.023
			c-0.042-0.032-0.084-0.071-0.123-0.101c-0.014-0.01-0.033-0.01-0.046,0l-19.16,18.994c-0.013,0.014-0.016,0.033,0,0.046
			l0.114,0.117C146.139,154.033,146.159,154.036,146.172,154.023z"/>
		<path d="M144.512,155.134c-0.404-0.414-0.833-0.808-1.299-1.169c-0.017-0.013-0.042-0.007-0.062,0.007
			c-0.195,0.247-0.397,0.481-0.619,0.696c-0.377,0.378-0.801,0.703-1.217,1.028c-0.192,0.144-0.377,0.293-0.56,0.43l0,0
			l-0.052,0.046l0,0c-0.006,0.007-0.016,0.02-0.026,0.026c-0.072,0.074-0.114,0.172-0.114,0.273c0,0.098,0.036,0.201,0.101,0.286
			l0,0c0.006,0.007,0.02,0.022,0.029,0.036l1.104,1.106l1.107,1.113c0.01,0.017,0.022,0.029,0.036,0.039
			c0.082,0.062,0.179,0.095,0.28,0.091c0.095,0.004,0.186-0.035,0.261-0.104c0.01-0.007,0.02-0.026,0.026-0.032
			c0.205-0.248,0.384-0.505,0.57-0.759c0.28-0.385,0.573-0.769,0.911-1.107c0.215-0.211,0.453-0.41,0.7-0.599
			c0.01-0.007,0.013-0.017,0.013-0.029c0-0.007,0-0.02-0.006-0.029C145.326,156.009,144.928,155.56,144.512,155.134z"/>
		<path d="M143.307,153.854c0.469,0.364,0.905,0.758,1.312,1.175c0.426,0.439,0.82,0.896,1.198,1.367
			c0.013,0.02,0.039,0.022,0.056,0.007c0.075-0.049,0.149-0.107,0.225-0.16c0.257-0.182,0.511-0.364,0.765-0.562
			c0.006-0.01,0.02-0.023,0.032-0.029c0.068-0.072,0.111-0.17,0.111-0.258c0-0.104-0.033-0.198-0.094-0.279
			c-0.017-0.017-0.023-0.03-0.036-0.043l-0.781-0.781l0,0l-0.326-0.332l-0.299-0.306l-0.029-0.029l0,0l-0.771-0.778l0,0
			c-0.006-0.007-0.02-0.02-0.033-0.026c-0.081-0.068-0.182-0.104-0.286-0.11c-0.098,0.007-0.199,0.042-0.273,0.124
			c-0.007,0.006-0.017,0.013-0.023,0.02c-0.169,0.201-0.338,0.416-0.511,0.628c-0.078,0.104-0.163,0.205-0.244,0.316
			c-0.01,0.006-0.01,0.02-0.01,0.032C143.294,153.841,143.297,153.848,143.307,153.854z"/>
		<path d="M129.824,168.782c0.488,0.287,1.51,0.771,2.624,0.554c0.006,0,0.02-0.007,0.026-0.023c0.01-0.01,0.01-0.022,0-0.032
			c-0.039-0.091-0.045-0.191-0.026-0.303c0.029-0.149,0.111-0.306,0.241-0.442l0,0l0,0l0,0l0,0c0.137-0.13,0.293-0.215,0.443-0.241
			c0.163-0.032,0.312,0.007,0.417,0.111l0,0l0,0l0,0l0,0l0,0l0,0c0.033,0.035,0.056,0.068,0.072,0.101
			c0.016,0.042,0.026,0.071,0.033,0.114c0.006,0.032,0.006,0.071,0.006,0.104c0,0.02,0.006,0.036,0.026,0.043
			c0.013,0.006,0.036,0,0.049-0.007c0.075-0.075,0.153-0.153,0.238-0.237l0.137-0.131c1.094-1.08,7.848-8.307,8.694-9.215
			c0.017-0.02,0.017-0.046,0-0.062c-0.006,0-0.006,0-0.01-0.006l-0.625-0.635c-0.006-0.007-0.02-0.014-0.032-0.014
			c-0.013,0.004-0.023,0.01-0.029,0.014c-0.785,0.826-7.015,7.347-8.161,8.688c-0.527,0.622-1.045,1.003-1.465,1.211
			c-0.084,0.039-0.163,0.072-0.241,0.104c-0.078,0.026-0.146,0.046-0.215,0.065l0,0h-0.006l0,0c-0.599,0.163-1.289,0.156-1.94,0.156
			c-0.078,0.007-0.156,0.007-0.231,0.007c-0.02-0.007-0.036,0.01-0.042,0.029C129.798,168.757,129.805,168.772,129.824,168.782z"/>
		<path d="M133.138,169.265c0-0.039,0-0.072-0.007-0.104c-0.006-0.02,0.013-0.046,0.036-0.046l0.062-0.013
			c0.013,0,0.026,0,0.033,0.007c0.013,0.006,0.02,0.013,0.02,0.029s0,0.036,0.006,0.049c0.01-0.007,0.013-0.013,0.026-0.026l0,0l0,0
			l0,0l0,0l0.01-0.013l0.003-0.01c0.146-0.153,0.215-0.342,0.189-0.485c-0.006-0.029-0.013-0.055-0.026-0.074
			c-0.01-0.023-0.023-0.049-0.039-0.062c0,0,0,0-0.003,0l0,0l-0.003-0.006l0,0l0,0l0,0c-0.065-0.068-0.169-0.092-0.28-0.072
			c-0.124,0.026-0.254,0.092-0.365,0.205l0,0l0,0v0.004l0,0c-0.111,0.11-0.182,0.24-0.208,0.354c-0.02,0.12,0,0.218,0.072,0.29l0,0
			l0,0l0,0l0,0c0.072,0.071,0.169,0.084,0.283,0.071c0.055-0.007,0.114-0.029,0.172-0.062
			C133.131,169.29,133.138,169.277,133.138,169.265z"/>
		<path d="M129.59,168.477v0.039c0,0.006,0.003,0.02,0.01,0.032c0.006,0.007,0.02,0.013,0.036,0.013c0.144,0,0.293,0,0.449-0.006
			c0.642,0.006,1.322,0.013,1.908-0.144l0,0l0,0l0,0c0.062-0.013,0.124-0.032,0.202-0.065c0.072-0.025,0.143-0.059,0.222-0.098
			c0.41-0.205,0.908-0.572,1.419-1.172c1.149-1.348,7.402-7.896,8.171-8.697c0.013-0.023,0.013-0.046,0-0.059l-0.31-0.319
			l-0.765-0.769l-4.056,4.021c0.111-0.032,0.211-0.049,0.273-0.032c0.026,0.004,0.049,0.017,0.068,0.032l0,0
			c0.033,0.033,0.049,0.075,0.055,0.131c0.007,0.107-0.039,0.254-0.117,0.41c-0.071,0.146-0.176,0.296-0.273,0.406
			c-0.101,0.111-0.215,0.186-0.306,0.195c-0.192,0.014-0.173,0.176-0.173,0.176l0,0c0,0,0,0,0,0.007v0.007
			c0,0.039,0,0.071-0.003,0.11c-0.039,0.273-0.202,0.476-0.397,0.605c-0.192,0.124-0.42,0.186-0.586,0.188
			c-0.026,0-0.059,0-0.078-0.003c-0.215-0.032-0.254,0.107-0.28,0.205l0,0c0,0.007,0,0.02-0.006,0.032c0,0.004,0,0.004,0,0.004
			v0.003l0,0c-0.16,0.442-0.651,1.146-1.211,1.699c-0.306,0.306-0.628,0.569-0.928,0.729c-0.316,0.162-0.608,0.211-0.836,0.084
			c-0.046-0.025-0.085-0.059-0.124-0.098L129.59,168.477z M129.928,166.745v0.006c-0.247,0.873-0.316,1.459-0.338,1.726l2.36-2.337
			c-0.026-0.026-0.049-0.056-0.068-0.091c-0.055-0.079-0.091-0.163-0.117-0.254c-0.068-0.326,0.104-0.684,0.391-1.035
			c0.273-0.339,0.664-0.664,1.062-0.932c0.495-0.345,1.002-0.592,1.309-0.654c0.091-0.022,0.166-0.042,0.218-0.088
			c0.042-0.035,0.068-0.091,0.075-0.188c0,0,0,0,0-0.003c0-0.092,0.006-0.18,0.026-0.254c0.052-0.212,0.179-0.375,0.332-0.479
			c0.15-0.098,0.332-0.144,0.488-0.15c0.062,0,0.124,0.007,0.176,0.02c0.234,0.062,0.303-0.13,0.312-0.169l0,0
			c0.026-0.104,0.091-0.205,0.176-0.286l0,0c0.117-0.124,0.28-0.219,0.43-0.28c0.042-0.017,0.078-0.029,0.117-0.043l4.056-4.02
			l-0.345-0.345c-0.01-0.014-0.026-0.02-0.036-0.039l0,0c0-0.007-0.006-0.01-0.01-0.017c-0.006-0.007-0.017-0.013-0.026-0.017
			c-0.013-0.003-0.02,0.004-0.033,0.01l-9.44,8.041l0,0c-0.02,0.016-0.785,0.66-1.12,1.864L129.928,166.745L129.928,166.745z"/>
		<path d="M164.524,132.379c-0.006-0.049-0.006-0.101-0.013-0.156c-0.007-0.199,0-0.394,0.026-0.589c0-0.013,0-0.026-0.014-0.039
			c-0.006-0.006-0.025-0.013-0.032-0.006l-1.052,0.267c-0.017,0.006-0.029,0.02-0.029,0.039c-0.006,0.013,0.007,0.029,0.026,0.039
			l1.028,0.488c0.02,0.006,0.032,0.006,0.046,0C164.519,132.409,164.524,132.396,164.524,132.379z"/>
		<path d="M164.44,131.986c-0.283,0.094-0.593,0.013-0.85-0.13c-0.004-0.006-0.014-0.006-0.023-0.006l-0.12,0.032
			c-0.004,0-0.007,0-0.007,0.007c0,0.006,0.004,0.013,0.007,0.013l1.031,0.492c0.007,0.003,0.007,0.003,0.014,0
			c0-0.003,0.006-0.01,0.006-0.013c-0.006-0.052-0.013-0.107-0.013-0.156c-0.007-0.068-0.007-0.14,0-0.212
			c-0.007-0.006-0.01-0.013-0.017-0.019C164.463,131.985,164.45,131.979,164.44,131.986z"/>
		<path d="M169.453,129.766c-0.813-0.651-1.901-0.814-2.864-0.462c-0.033,0.01-0.039,0.052-0.007,0.072l1.25,0.905
			c0.039,0.022,0.007,0.059-0.007,0.084c-0.996,1.517-2.132,0.732-2.135,0.729c-0.039-0.026-0.039-0.026-0.039-0.065l0.104-1.25
			l-0.02,0.013l0,0l-0.029,0.026c-0.062,0.045-0.121,0.104-0.177,0.156l0,0c-0.423,0.423-0.693,0.938-0.807,1.478
			c-0.18,0.827,0.596,1.468,1.338,1.634c1.422,0.326,3.372-0.67,4.017-1.953c0.156-0.309,0.195-0.371,0-0.664
			C169.909,130.195,169.707,129.967,169.453,129.766z"/>
		<path d="M164.792,133.952c0.123,0.273,0.352,0.534,0.553,0.71c0.231,0.208,0.651,0.488,0.977,0.475c0.007,0,0.02,0,0.032-0.003
			l0,0c0.036-0.006,0.068-0.01,0.098-0.02c0.033,0,0.06-0.01,0.085-0.016c0.078-0.026,0.202-0.068,0.244-0.143l0,0l0,0l0,0
			c0.007-0.007,0.01-0.02,0.01-0.033c0.004-0.013,0.004-0.029,0-0.039c-0.003-0.016-0.01-0.032-0.016-0.055
			c-0.004-0.01-0.011-0.01-0.017-0.016c-0.014,0-0.02,0-0.026,0.006c-0.062,0.036-0.123,0.059-0.183,0.072
			c-0.029,0.006-0.064,0.013-0.091,0.02c-0.032,0.006-0.068,0.013-0.101,0.019h-0.004c-0.013,0-0.025,0-0.032,0.007
			c-0.349,0.013-0.771-0.273-1.019-0.492c-0.163-0.14-0.332-0.322-0.459-0.527c-0.013-0.016-0.032-0.023-0.046-0.013
			C164.778,133.913,164.785,133.939,164.792,133.952z"/>
		<path d="M133.477,168.347c0.01,0.013,0.026,0.02,0.039,0.032c-0.01-0.013-0.02-0.023-0.029-0.039l0,0l0,0l0,0L133.477,168.347
			L133.477,168.347z M141.966,159.935l0.833-0.82c0.02,0.017,0.033,0.043,0.003,0.068c-0.846,0.901-7.601,8.135-8.688,9.216
			l-0.137,0.13c-0.088,0.081-0.163,0.163-0.241,0.234c-0.013,0.01-0.033,0.017-0.046,0.007c-0.013-0.004-0.026-0.023-0.026-0.043
			c0-0.013,0-0.022,0-0.035v-0.007c0.078-0.068,0.156-0.144,0.241-0.231l0.137-0.13
			C134.964,167.422,139.941,162.103,141.966,159.935z M129.824,168.782c0.488,0.287,1.51,0.771,2.624,0.554
			c0.006,0,0.02-0.007,0.026-0.023c0.01-0.01,0.01-0.022,0-0.032c-0.039-0.091-0.045-0.191-0.026-0.303
			c0.029-0.149,0.111-0.306,0.241-0.442l0,0l0,0l0,0l0,0c0.137-0.13,0.293-0.215,0.443-0.241c0.13-0.025,0.247-0.006,0.345,0.053
			l0.007-0.007l-0.003-0.007l0,0l0,0l0,0c-0.101-0.104-0.254-0.143-0.414-0.11c-0.149,0.026-0.309,0.11-0.442,0.244l0,0l0,0l0,0l0,0
			c-0.134,0.134-0.215,0.29-0.244,0.439c-0.02,0.11-0.01,0.208,0.029,0.3c0.006,0.013,0.006,0.025,0,0.032
			c-0.006,0.02-0.017,0.026-0.029,0.026c-1.071,0.208-2.061-0.231-2.575-0.518C129.798,168.763,129.805,168.772,129.824,168.782
			L129.824,168.782z M142.799,159.114l-0.833,0.82l0.768-0.82C142.757,159.095,142.78,159.095,142.799,159.114z"/>
		<path d="M129.668,168.323c-0.006,0.046-0.013,0.095-0.013,0.141c0,0.013,0,0.02,0.007,0.025c0.006,0.007,0.013,0.01,0.02,0.01
			c0.137,0,0.267,0,0.403-0.003c0.612,0.007,1.286,0.013,1.882-0.144l0,0l0,0h0.006l0,0c0.065-0.02,0.127-0.042,0.189-0.064
			c0.078-0.026,0.149-0.062,0.221-0.098c0.537-0.264,1.016-0.704,1.403-1.159c0.199-0.228,0.407-0.456,0.615-0.684
			c0.312-0.345,0.628-0.684,0.944-1.022c0.814-0.872,1.625-1.738,2.441-2.604c1.374-1.454,2.757-2.903,4.141-4.352
			c0.01-0.014,0.01-0.029,0-0.039l-0.195-0.205c-0.006-0.007-0.013-0.007-0.02-0.007c-0.013,0-0.019,0-0.026,0.014
			c-1.38,1.445-2.76,2.896-4.134,4.352c-0.82,0.866-1.634,1.729-2.438,2.595c-0.316,0.342-0.628,0.677-0.944,1.025
			c-0.205,0.225-0.417,0.452-0.615,0.684c-0.394,0.466-0.889,0.914-1.439,1.188c-0.078,0.038-0.153,0.067-0.228,0.098
			c-0.068,0.032-0.137,0.045-0.208,0.064l0,0l-0.003,0.007c-0.608,0.159-1.292,0.149-1.92,0.149c-0.02,0-0.042,0-0.062,0
			C129.681,168.294,129.668,168.304,129.668,168.323z"/>
		<path d="M137.057,161.426c-0.071,0.007-0.156,0.039-0.218,0.068c-0.127,0.052-0.264,0.127-0.368,0.225
			c-0.049,0.052-0.101,0.117-0.114,0.192v0.003c0,0.004,0,0.004-0.003,0.01l0,0c-0.072,0.251-0.312,0.375-0.566,0.312
			c-0.039-0.013-0.084-0.013-0.124-0.013c-0.13,0.003-0.264,0.049-0.375,0.114c-0.127,0.084-0.211,0.208-0.244,0.352
			c-0.02,0.068-0.029,0.137-0.026,0.205v0.003c-0.003,0.137-0.039,0.254-0.146,0.345c-0.088,0.075-0.199,0.114-0.309,0.137
			c-0.381,0.081-0.918,0.403-1.237,0.622c-0.365,0.244-0.742,0.553-1.016,0.895c-0.182,0.222-0.404,0.561-0.345,0.859
			c0.01,0.065,0.039,0.124,0.081,0.183c0.029,0.049,0.068,0.091,0.121,0.117c0.192,0.11,0.462,0.007,0.635-0.088
			c0.316-0.163,0.628-0.427,0.875-0.684c0.404-0.397,0.97-1.084,1.163-1.618l0.006-0.025c0.068-0.273,0.205-0.397,0.504-0.352
			c0.02,0,0.039,0,0.055,0c0.153,0,0.342-0.068,0.472-0.156c0.156-0.104,0.273-0.261,0.299-0.456c0-0.032,0-0.056,0-0.085
			c-0.013-0.225,0.144-0.381,0.365-0.4c0.046,0,0.134-0.091,0.163-0.12c0.098-0.104,0.182-0.234,0.244-0.358
			C136.999,161.631,137.054,161.507,137.057,161.426z"/>
		<path d="M137.047,161.433L137.047,161.433c-0.023,0.068-0.049,0.12-0.075,0.182c-0.072,0.131-0.15,0.261-0.248,0.365
			c-0.032,0.032-0.117,0.12-0.169,0.124c-0.072,0.006-0.144,0.032-0.199,0.064c-0.016,0.007-0.016,0.033-0.01,0.043
			c0.01,0.013,0.026,0.02,0.039,0.013c0.052-0.022,0.107-0.042,0.169-0.049c0.045,0,0.127-0.088,0.156-0.117
			c0.101-0.104,0.182-0.231,0.247-0.358C136.992,161.621,137.038,161.517,137.047,161.433L137.047,161.433z M135.814,163.089
			c-0.124,0.068-0.271,0.107-0.4,0.107c-0.02,0-0.036,0-0.056,0c-0.293-0.039-0.423,0.072-0.495,0.352l-0.006,0.026
			c0,0.003,0,0.003,0,0.003c-0.195,0.537-0.755,1.215-1.159,1.618c-0.257,0.257-0.56,0.518-0.878,0.684
			c-0.179,0.095-0.453,0.205-0.645,0.091c-0.02-0.013-0.039-0.029-0.059-0.045c-0.01,0-0.022,0-0.032,0
			c-0.006,0.007-0.006,0.022,0,0.036c0.029,0.035,0.059,0.062,0.098,0.081c0.189,0.11,0.456,0,0.628-0.081
			c0.322-0.173,0.622-0.43,0.875-0.684c0.41-0.407,0.963-1.078,1.159-1.618l0,0l0.01-0.029c0.075-0.287,0.211-0.404,0.511-0.361
			c0.02,0,0.036,0,0.052,0c0.14,0,0.302-0.052,0.43-0.124c0.013-0.006,0.016-0.032,0.01-0.045
			C135.846,163.086,135.83,163.079,135.814,163.089z"/>
		<path d="M133.327,169.095c0.042-0.039,0.078-0.094,0.104-0.149c0.042-0.078,0.039-0.075-0.02-0.02
			c-0.033,0.046-0.075,0.081-0.117,0.124c-0.013,0.003-0.013,0.013-0.013,0.02C133.274,169.102,133.301,169.128,133.327,169.095
			L133.327,169.095z M133.063,169.199c-0.026,0.013-0.055,0.02-0.081,0.026c-0.124,0.019-0.26-0.007-0.339-0.111
			c-0.036-0.052-0.036-0.052-0.026,0.026c0.023,0.159,0.16,0.221,0.319,0.195c0.059-0.007,0.114-0.032,0.169-0.056
			c0,0,0.007-0.006,0.007-0.01c0-0.02,0-0.032,0-0.045c0-0.007-0.007-0.014-0.013-0.023
			C133.086,169.196,133.076,169.192,133.063,169.199z"/>
		<path d="M143.274,154.075c-0.019-0.022-0.039-0.032-0.065-0.049c-0.013-0.01-0.029-0.01-0.039,0.004
			c-0.195,0.228-0.391,0.455-0.605,0.674c-0.377,0.381-0.801,0.703-1.224,1.031c-0.182,0.144-0.371,0.28-0.553,0.43l-0.052,0.046
			c-0.01,0.003-0.02,0.013-0.026,0.022c-0.065,0.062-0.098,0.146-0.098,0.238c0,0.091,0.026,0.186,0.088,0.254
			c0.006,0.006,0.013,0.019,0.023,0.025l2.207,2.233c0.01,0.01,0.023,0.02,0.032,0.029c0.059,0.042,0.121,0.068,0.189,0.081
			c0.013,0,0.029-0.007,0.033-0.013c0.006-0.014,0.003-0.029-0.003-0.039c0,0-0.003,0-0.006-0.004l-2.207-2.229
			c-0.007-0.01-0.02-0.017-0.029-0.029c-0.072-0.091-0.114-0.205-0.111-0.322c0-0.11,0.045-0.218,0.127-0.3
			c0.01-0.016,0.02-0.025,0.029-0.035l0.059-0.039c0.179-0.153,0.365-0.297,0.553-0.434c0.417-0.325,0.84-0.647,1.214-1.021
			c0.166-0.17,0.322-0.339,0.465-0.515c0.007-0.007,0.007-0.02,0.007-0.026C143.288,154.089,143.281,154.082,143.274,154.075z"/>
		<path d="M143.379,153.772c-0.01,0.007-0.017,0.017-0.02,0.029c-0.01,0.007-0.01,0.007-0.01,0.014c0,0.013,0.003,0.02,0.013,0.032
			c0.453,0.349,0.882,0.739,1.292,1.155c0.417,0.427,0.807,0.876,1.175,1.345c0.01,0.013,0.029,0.013,0.039,0.007
			c0.071-0.053,0.133-0.098,0.198-0.141c0.26-0.186,0.515-0.364,0.765-0.562c0.01-0.014,0.023-0.02,0.029-0.026
			c0.026-0.032,0.049-0.056,0.062-0.081c0.006-0.017,0.003-0.036-0.007-0.043c-0.01-0.006-0.022-0.013-0.036,0
			c-0.244,0.192-0.501,0.371-0.752,0.554c-0.075,0.056-0.146,0.104-0.225,0.163c-0.036,0.029-0.088,0.022-0.117-0.02
			c-0.375-0.476-0.771-0.928-1.195-1.361c-0.368-0.374-0.758-0.735-1.168-1.061C143.405,153.76,143.385,153.763,143.379,153.772z"/>
	</g>
	
		<linearGradient id="SVGID_2_" gradientUnits="userSpaceOnUse" x1="1023" y1="-1014.3325" x2="1023" y2="-967.6665" gradientTransform="matrix(1 0 0 -1 -873 -841)">
		<stop  offset="0" style="stop-color:#000000;stop-opacity:0.35"/>
		<stop  offset="0.0975" style="stop-color:#060606;stop-opacity:0.3159"/>
		<stop  offset="0.2216" style="stop-color:#151515;stop-opacity:0.2724"/>
		<stop  offset="0.36" style="stop-color:#2F2F2F;stop-opacity:0.224"/>
		<stop  offset="0.5088" style="stop-color:#545454;stop-opacity:0.1719"/>
		<stop  offset="0.6661" style="stop-color:#838383;stop-opacity:0.1169"/>
		<stop  offset="0.8304" style="stop-color:#BCBCBC;stop-opacity:0.0594"/>
		<stop  offset="0.9977" style="stop-color:#FEFEFE;stop-opacity:8.182824e-04"/>
		<stop  offset="1" style="stop-color:#FFFFFF;stop-opacity:0"/>
	</linearGradient>
	<rect x="126.667" y="126.667" fill="url(#SVGID_2_)" width="46.667" height="46.667"/>
	
		<linearGradient id="SVGID_3_" gradientUnits="userSpaceOnUse" x1="1023" y1="-1014.3325" x2="1023" y2="-967.6665" gradientTransform="matrix(1 0 0 -1 -873 -841)">
		<stop  offset="0" style="stop-color:#000000;stop-opacity:0"/>
		<stop  offset="0.3726" style="stop-color:#020202;stop-opacity:0.205"/>
		<stop  offset="0.5069" style="stop-color:#090909;stop-opacity:0.2788"/>
		<stop  offset="0.6026" style="stop-color:#141414;stop-opacity:0.3314"/>
		<stop  offset="0.68" style="stop-color:#252525;stop-opacity:0.374"/>
		<stop  offset="0.7463" style="stop-color:#3B3B3B;stop-opacity:0.4104"/>
		<stop  offset="0.805" style="stop-color:#575757;stop-opacity:0.4427"/>
		<stop  offset="0.8581" style="stop-color:#777777;stop-opacity:0.472"/>
		<stop  offset="0.9069" style="stop-color:#9D9D9D;stop-opacity:0.4988"/>
		<stop  offset="0.9523" style="stop-color:#C8C8C8;stop-opacity:0.5238"/>
		<stop  offset="0.9926" style="stop-color:#F6F6F6;stop-opacity:0.5459"/>
		<stop  offset="1" style="stop-color:#FFFFFF;stop-opacity:0.55"/>
	</linearGradient>
	<rect x="126.667" y="126.667" fill="url(#SVGID_3_)" width="46.667" height="46.667"/>
</g>
</svg>
