<?xml version="1.0" encoding="utf-8"?>
<!-- Generator: Adobe Illustrator 15.1.0, SVG Export Plug-In . SVG Version: 6.00 Build 0)  -->
<!DOCTYPE svg PUBLIC "-//W3C//DTD SVG 1.1//EN" "http://www.w3.org/Graphics/SVG/1.1/DTD/svg11.dtd">
<svg version="1.1" id="Layer_1" xmlns="http://www.w3.org/2000/svg" xmlns:xlink="http://www.w3.org/1999/xlink" x="0px" y="0px"
	 width="70px" height="45px" viewBox="0 0 70 45" enable-background="new 0 0 70 45" xml:space="preserve">
<g>
	<path id="Base_2_" fill="#8A0016" d="M51.884,3.357c-1.386,0.404-2.886,0.606-4.457,0.606c-5.248,0-6.676-3.105-6.676-3.105
		L29.432,0.891c0,0-1.412,3.073-6.668,3.073c-1.566,0-3.064-0.203-4.454-0.606l-3.69-1.07v13.534
		c0,11.899,9.788,21.936,18.949,27.362l1.595,0.941l1.562-0.987c9.324-5.89,18.851-13.739,18.851-27.316V2.288L51.884,3.357z"/>
	<path id="Base_1_" fill="#8A0016" d="M39.996,2.197c0.881,1.142,3.03,3.104,7.431,3.104c1.707,0,3.34-0.224,4.854-0.663
		l1.918-0.556v11.741c0,12.938-9.212,20.504-18.223,26.199l-0.836,0.525l-0.851-0.501c-8.842-5.239-18.291-14.88-18.291-26.223
		V4.081l1.917,0.556c1.517,0.439,3.148,0.663,4.85,0.663c4.402,0,6.547-1.943,7.424-3.076L39.996,2.197 M40.751,0.858L29.432,0.891
		c0,0-1.412,3.073-6.668,3.073c-1.566,0-3.064-0.203-4.454-0.606l-3.69-1.07v13.534c0,11.899,9.788,21.936,18.949,27.362
		l1.595,0.941l1.562-0.987c9.324-5.89,18.851-13.739,18.851-27.316V2.288l-3.691,1.07c-1.386,0.404-2.886,0.606-4.457,0.606
		C42.179,3.964,40.751,0.858,40.751,0.858L40.751,0.858z"/>
</g>
<g>
	<linearGradient id="Dark_1_" gradientUnits="userSpaceOnUse" x1="25.6929" y1="-4.1064" x2="48.9448" y2="36.1671">
		<stop  offset="0" style="stop-color:#000000;stop-opacity:0"/>
		<stop  offset="0.8587" style="stop-color:#000000;stop-opacity:0.644"/>
		<stop  offset="1" style="stop-color:#000000;stop-opacity:0.75"/>
	</linearGradient>
	<path id="Dark_3_" fill="url(#Dark_1_)" d="M51.884,3.357c-1.386,0.404-2.886,0.606-4.457,0.606c-5.248,0-6.676-3.105-6.676-3.105
		L29.432,0.891c0,0-1.412,3.073-6.668,3.073c-1.566,0-3.064-0.203-4.454-0.606l-3.69-1.07v13.534
		c0,11.899,9.788,21.936,18.949,27.362l1.595,0.941l1.562-0.987c9.324-5.89,18.851-13.739,18.851-27.316V2.288L51.884,3.357z"/>
	<linearGradient id="Dark_4_" gradientUnits="userSpaceOnUse" x1="21.0977" y1="-3.1465" x2="50.809" y2="32.2621">
		<stop  offset="0" style="stop-color:#FF0000;stop-opacity:0"/>
		<stop  offset="0.0709" style="stop-color:#E50000;stop-opacity:0.0177"/>
		<stop  offset="0.2696" style="stop-color:#A00000;stop-opacity:0.0674"/>
		<stop  offset="0.4579" style="stop-color:#670000;stop-opacity:0.1145"/>
		<stop  offset="0.6303" style="stop-color:#3B0000;stop-opacity:0.1576"/>
		<stop  offset="0.7836" style="stop-color:#1B0000;stop-opacity:0.1959"/>
		<stop  offset="0.912" style="stop-color:#070000;stop-opacity:0.228"/>
		<stop  offset="1" style="stop-color:#000000;stop-opacity:0.25"/>
	</linearGradient>
	<path id="Dark_2_" fill="url(#Dark_4_)" d="M39.996,2.197c0.881,1.142,3.03,3.104,7.431,3.104c1.707,0,3.34-0.224,4.854-0.663
		l1.918-0.556v11.741c0,12.938-9.212,20.504-18.223,26.199l-0.836,0.525l-0.851-0.501c-8.842-5.239-18.291-14.88-18.291-26.223
		V4.081l1.917,0.556c1.517,0.439,3.148,0.663,4.85,0.663c4.402,0,6.547-1.943,7.424-3.076L39.996,2.197 M40.751,0.858L29.432,0.891
		c0,0-1.412,3.073-6.668,3.073c-1.566,0-3.064-0.203-4.454-0.606l-3.69-1.07v13.534c0,11.899,9.788,21.936,18.949,27.362
		l1.595,0.941l1.562-0.987c9.324-5.89,18.851-13.739,18.851-27.316V2.288l-3.691,1.07c-1.386,0.404-2.886,0.606-4.457,0.606
		C42.179,3.964,40.751,0.858,40.751,0.858L40.751,0.858z"/>
</g>
<g>
	<linearGradient id="SVGID_1_" gradientUnits="userSpaceOnUse" x1="2.4438" y1="23.3877" x2="10.0594" y2="32.4635">
		<stop  offset="0" style="stop-color:#FFFFFF"/>
		<stop  offset="0.0496" style="stop-color:#FAFAFA"/>
		<stop  offset="0.1098" style="stop-color:#EBEBEB"/>
		<stop  offset="0.1753" style="stop-color:#D3D3D3"/>
		<stop  offset="0.1902" style="stop-color:#CCCCCC"/>
		<stop  offset="0.3988" style="stop-color:#F2F2F2"/>
		<stop  offset="0.4613" style="stop-color:#EAEAEA"/>
		<stop  offset="0.5574" style="stop-color:#D5D5D5"/>
		<stop  offset="0.589" style="stop-color:#CCCCCC"/>
		<stop  offset="0.773" style="stop-color:#F2F2F2"/>
		<stop  offset="0.8879" style="stop-color:#ADADAD"/>
		<stop  offset="1" style="stop-color:#666666"/>
	</linearGradient>
	<path fill="url(#SVGID_1_)" stroke="#000000" stroke-width="0.5" stroke-miterlimit="10" d="M1.043,30.235
		c0.158-0.024,0.283-0.102,0.374-0.23c0.091-0.129,0.179-0.277,0.265-0.442l3.375-6.875c0.085-0.153,0.162-0.296,0.228-0.425
		c0.067-0.13,0.102-0.24,0.102-0.335c0-0.118-0.043-0.201-0.128-0.248c-0.086-0.046-0.176-0.083-0.274-0.105v-0.319h3.083v0.319
		c-0.086,0.023-0.17,0.056-0.256,0.097c-0.084,0.042-0.127,0.127-0.127,0.257c0,0.095,0.021,0.188,0.063,0.283
		s0.106,0.219,0.191,0.371l3.795,7.194c0.061,0.13,0.142,0.225,0.246,0.282c0.103,0.059,0.221,0.119,0.355,0.178v0.317H9.125v-0.317
		c0.049,0,0.109-0.019,0.182-0.054c0.074-0.035,0.111-0.088,0.111-0.16c0-0.116-0.05-0.271-0.147-0.459l-0.692-1.308H4.126
		L3.47,29.511c-0.123,0.248-0.183,0.424-0.183,0.53c0,0.13,0.116,0.194,0.347,0.194v0.317h-2.59V30.235z M7.921,26.947l-1.533-3.288
		l-1.715,3.288H7.921z"/>
	<linearGradient id="SVGID_2_" gradientUnits="userSpaceOnUse" x1="14.4717" y1="22.5894" x2="21.973" y2="31.529">
		<stop  offset="0" style="stop-color:#FFFFFF"/>
		<stop  offset="0.0496" style="stop-color:#FAFAFA"/>
		<stop  offset="0.1098" style="stop-color:#EBEBEB"/>
		<stop  offset="0.1753" style="stop-color:#D3D3D3"/>
		<stop  offset="0.1902" style="stop-color:#CCCCCC"/>
		<stop  offset="0.3988" style="stop-color:#F2F2F2"/>
		<stop  offset="0.4613" style="stop-color:#EAEAEA"/>
		<stop  offset="0.5574" style="stop-color:#D5D5D5"/>
		<stop  offset="0.589" style="stop-color:#CCCCCC"/>
		<stop  offset="0.773" style="stop-color:#F2F2F2"/>
		<stop  offset="0.8879" style="stop-color:#ADADAD"/>
		<stop  offset="1" style="stop-color:#666666"/>
	</linearGradient>
	<path fill="url(#SVGID_2_)" stroke="#000000" stroke-width="0.5" stroke-miterlimit="10" d="M19.286,22.774
		c1.082,0,1.928,0.175,2.536,0.523c0.608,0.349,0.912,0.94,0.912,1.776c0,0.317-0.061,0.602-0.183,0.847
		c-0.122,0.248-0.283,0.465-0.483,0.647c-0.202,0.182-0.422,0.328-0.666,0.44s-0.493,0.196-0.749,0.257l1.788,2.528
		c0.098,0.129,0.204,0.226,0.319,0.292c0.115,0.062,0.241,0.113,0.375,0.149v0.317h-2.791v-0.317c0.157,0,0.238-0.054,0.238-0.16
		c0-0.118-0.092-0.3-0.275-0.548l-1.441-2.085h-2.535v2.526c0,0.095,0.039,0.163,0.118,0.204c0.079,0.042,0.155,0.062,0.228,0.062
		v0.317H14.25v-0.317c0.22,0,0.33-0.089,0.33-0.267V23.36c0-0.179-0.109-0.266-0.33-0.266v-0.32H19.286z M19.25,26.135
		c1.192,0,1.789-0.367,1.789-1.096c0-0.297-0.144-0.528-0.429-0.698c-0.286-0.171-0.739-0.257-1.359-0.257h-2.882v2.051H19.25z"/>
	<linearGradient id="SVGID_3_" gradientUnits="userSpaceOnUse" x1="26.625" y1="21.9736" x2="34.4954" y2="31.3532">
		<stop  offset="0" style="stop-color:#FFFFFF"/>
		<stop  offset="0.0496" style="stop-color:#FAFAFA"/>
		<stop  offset="0.1098" style="stop-color:#EBEBEB"/>
		<stop  offset="0.1753" style="stop-color:#D3D3D3"/>
		<stop  offset="0.1902" style="stop-color:#CCCCCC"/>
		<stop  offset="0.3988" style="stop-color:#F2F2F2"/>
		<stop  offset="0.4613" style="stop-color:#EAEAEA"/>
		<stop  offset="0.5574" style="stop-color:#D5D5D5"/>
		<stop  offset="0.589" style="stop-color:#CCCCCC"/>
		<stop  offset="0.773" style="stop-color:#F2F2F2"/>
		<stop  offset="0.8879" style="stop-color:#ADADAD"/>
		<stop  offset="1" style="stop-color:#666666"/>
	</linearGradient>
	<path fill="url(#SVGID_3_)" stroke="#000000" stroke-width="0.5" stroke-miterlimit="10" d="M25.671,30.235
		c0.061-0.013,0.112-0.036,0.156-0.07c0.042-0.037,0.063-0.117,0.063-0.248v-6.469c0-0.166-0.016-0.267-0.045-0.302
		c-0.031-0.035-0.088-0.052-0.174-0.052v-0.32h2.536v0.32c-0.122,0-0.183,0.052-0.183,0.159c0,0.047,0.021,0.108,0.064,0.186
		c0.042,0.078,0.105,0.186,0.191,0.327l2.226,3.977l2.243-3.959c0.086-0.141,0.152-0.256,0.201-0.344
		c0.049-0.089,0.073-0.151,0.073-0.186c0-0.106-0.049-0.159-0.146-0.159v-0.32h2.572v0.32c-0.062,0-0.119,0.014-0.173,0.045
		c-0.055,0.029-0.082,0.091-0.082,0.184v6.646c0,0.095,0.027,0.163,0.082,0.204c0.055,0.042,0.111,0.062,0.173,0.062v0.317h-2.116
		v-0.317c0.255,0,0.364-0.089,0.328-0.267v-4.966h-0.037l-3.101,5.55h-0.146l-2.936-5.55h0.018h-0.037v4.966
		c0,0.178,0.103,0.267,0.31,0.267v0.317h-2.062V30.235z"/>
	<linearGradient id="SVGID_4_" gradientUnits="userSpaceOnUse" x1="39.8105" y1="23.208" x2="45.6107" y2="30.1204">
		<stop  offset="0" style="stop-color:#FFFFFF"/>
		<stop  offset="0.0496" style="stop-color:#FAFAFA"/>
		<stop  offset="0.1098" style="stop-color:#EBEBEB"/>
		<stop  offset="0.1753" style="stop-color:#D3D3D3"/>
		<stop  offset="0.1902" style="stop-color:#CCCCCC"/>
		<stop  offset="0.3988" style="stop-color:#F2F2F2"/>
		<stop  offset="0.4613" style="stop-color:#EAEAEA"/>
		<stop  offset="0.5574" style="stop-color:#D5D5D5"/>
		<stop  offset="0.589" style="stop-color:#CCCCCC"/>
		<stop  offset="0.773" style="stop-color:#F2F2F2"/>
		<stop  offset="0.8879" style="stop-color:#ADADAD"/>
		<stop  offset="1" style="stop-color:#666666"/>
	</linearGradient>
	<path fill="url(#SVGID_4_)" stroke="#000000" stroke-width="0.5" stroke-miterlimit="10" d="M42.712,22.67
		c0.666,0,1.298,0.081,1.886,0.246c0.59,0.166,1.104,0.414,1.543,0.743c0.438,0.331,0.785,0.744,1.039,1.246
		c0.256,0.502,0.382,1.087,0.382,1.76c0,0.671-0.126,1.258-0.382,1.758c-0.254,0.502-0.602,0.915-1.039,1.246
		c-0.439,0.331-0.953,0.57-1.543,0.717c-0.588,0.146-1.22,0.221-1.886,0.221c-0.671,0-1.3-0.074-1.891-0.221
		c-0.588-0.146-1.102-0.386-1.542-0.717c-0.437-0.331-0.784-0.744-1.038-1.246c-0.256-0.5-0.384-1.087-0.384-1.758
		c0-0.673,0.128-1.258,0.384-1.76c0.254-0.502,0.602-0.915,1.038-1.246c0.44-0.329,0.954-0.577,1.542-0.743
		C41.412,22.751,42.041,22.67,42.712,22.67z M42.712,23.977c-0.391,0-0.772,0.063-1.141,0.186c-0.371,0.124-0.704,0.302-0.994,0.532
		c-0.292,0.229-0.527,0.51-0.704,0.84c-0.177,0.329-0.265,0.706-0.265,1.131c0,0.423,0.088,0.8,0.265,1.131
		c0.177,0.329,0.412,0.61,0.704,0.838c0.29,0.23,0.623,0.408,0.994,0.533c0.368,0.123,0.75,0.186,1.141,0.186
		c0.387,0,0.769-0.062,1.141-0.186c0.367-0.125,0.699-0.303,0.992-0.533c0.294-0.228,0.527-0.509,0.701-0.838
		c0.177-0.331,0.266-0.708,0.266-1.131c0-0.425-0.089-0.802-0.266-1.131c-0.174-0.33-0.407-0.611-0.701-0.84
		c-0.293-0.23-0.625-0.408-0.992-0.532C43.48,24.04,43.099,23.977,42.712,23.977z"/>
	<linearGradient id="SVGID_5_" gradientUnits="userSpaceOnUse" x1="49.9355" y1="22.5903" x2="57.4368" y2="31.53">
		<stop  offset="0" style="stop-color:#FFFFFF"/>
		<stop  offset="0.0496" style="stop-color:#FAFAFA"/>
		<stop  offset="0.1098" style="stop-color:#EBEBEB"/>
		<stop  offset="0.1753" style="stop-color:#D3D3D3"/>
		<stop  offset="0.1902" style="stop-color:#CCCCCC"/>
		<stop  offset="0.3988" style="stop-color:#F2F2F2"/>
		<stop  offset="0.4613" style="stop-color:#EAEAEA"/>
		<stop  offset="0.5574" style="stop-color:#D5D5D5"/>
		<stop  offset="0.589" style="stop-color:#CCCCCC"/>
		<stop  offset="0.773" style="stop-color:#F2F2F2"/>
		<stop  offset="0.8879" style="stop-color:#ADADAD"/>
		<stop  offset="1" style="stop-color:#666666"/>
	</linearGradient>
	<path fill="url(#SVGID_5_)" stroke="#000000" stroke-width="0.5" stroke-miterlimit="10" d="M54.75,22.774
		c1.082,0,1.927,0.175,2.535,0.523c0.607,0.349,0.913,0.94,0.913,1.776c0,0.317-0.061,0.602-0.181,0.847
		c-0.125,0.248-0.284,0.465-0.485,0.647c-0.199,0.182-0.422,0.328-0.667,0.44c-0.241,0.112-0.492,0.196-0.747,0.257l1.79,2.528
		c0.094,0.129,0.2,0.226,0.315,0.292c0.116,0.062,0.241,0.113,0.377,0.149v0.317h-2.794v-0.317c0.16,0,0.239-0.054,0.239-0.16
		c0-0.118-0.093-0.3-0.272-0.548l-1.442-2.085h-2.537v2.526c0,0.095,0.041,0.163,0.12,0.204c0.077,0.042,0.155,0.062,0.228,0.062
		v0.317h-2.428v-0.317c0.222,0,0.329-0.089,0.329-0.267V23.36c0-0.179-0.107-0.266-0.329-0.266v-0.32H54.75z M54.715,26.135
		c1.191,0,1.787-0.367,1.787-1.096c0-0.297-0.143-0.528-0.431-0.698c-0.284-0.171-0.737-0.257-1.356-0.257h-2.882v2.051H54.715z"/>
	<linearGradient id="SVGID_6_" gradientUnits="userSpaceOnUse" x1="61.6816" y1="21.2607" x2="67.9312" y2="28.7087">
		<stop  offset="0" style="stop-color:#FFFFFF"/>
		<stop  offset="0.0496" style="stop-color:#FAFAFA"/>
		<stop  offset="0.1098" style="stop-color:#EBEBEB"/>
		<stop  offset="0.1753" style="stop-color:#D3D3D3"/>
		<stop  offset="0.1902" style="stop-color:#CCCCCC"/>
		<stop  offset="0.3988" style="stop-color:#F2F2F2"/>
		<stop  offset="0.4613" style="stop-color:#EAEAEA"/>
		<stop  offset="0.5574" style="stop-color:#D5D5D5"/>
		<stop  offset="0.589" style="stop-color:#CCCCCC"/>
		<stop  offset="0.773" style="stop-color:#F2F2F2"/>
		<stop  offset="0.8879" style="stop-color:#ADADAD"/>
		<stop  offset="1" style="stop-color:#666666"/>
	</linearGradient>
	<path fill="url(#SVGID_6_)" stroke="#000000" stroke-width="0.5" stroke-miterlimit="10" d="M60.533,23.395
		c-0.085-0.106-0.187-0.182-0.309-0.23c-0.123-0.046-0.239-0.07-0.348-0.07v-0.32h3.01v0.32c-0.061,0-0.129,0.021-0.2,0.062
		c-0.073,0.041-0.109,0.097-0.109,0.167c0,0.071,0.022,0.137,0.072,0.194c0.05,0.061,0.103,0.131,0.165,0.214l1.841,2.331
		l1.623-2.19c0.11-0.152,0.192-0.269,0.249-0.345c0.053-0.077,0.082-0.151,0.082-0.22c0-0.095-0.03-0.154-0.094-0.178
		c-0.059-0.023-0.121-0.035-0.18-0.035v-0.32h2.789v0.32c-0.146,0-0.306,0.08-0.484,0.238c-0.174,0.159-0.329,0.322-0.465,0.485
		l-2.789,3.501v2.65c0,0.178,0.116,0.267,0.346,0.267v0.317h-2.427v-0.317c0.221,0,0.328-0.089,0.328-0.267v-2.722L60.533,23.395z"
		/>
</g>
<g>
	<linearGradient id="SVGID_7_" gradientUnits="userSpaceOnUse" x1="23.083" y1="6.7666" x2="28.1743" y2="15.585">
		<stop  offset="0" style="stop-color:#FFFFFF"/>
		<stop  offset="0.0496" style="stop-color:#FAFAFA"/>
		<stop  offset="0.1098" style="stop-color:#EBEBEB"/>
		<stop  offset="0.1753" style="stop-color:#D3D3D3"/>
		<stop  offset="0.1902" style="stop-color:#CCCCCC"/>
		<stop  offset="0.3988" style="stop-color:#F2F2F2"/>
		<stop  offset="0.4613" style="stop-color:#EAEAEA"/>
		<stop  offset="0.5574" style="stop-color:#D5D5D5"/>
		<stop  offset="0.589" style="stop-color:#CCCCCC"/>
		<stop  offset="0.773" style="stop-color:#F2F2F2"/>
		<stop  offset="0.8879" style="stop-color:#ADADAD"/>
		<stop  offset="1" style="stop-color:#666666"/>
	</linearGradient>
	<path fill="url(#SVGID_7_)" stroke="#000000" stroke-width="0.5" stroke-miterlimit="10" d="M25.77,16.209
		c0,0.187,0.118,0.281,0.353,0.281v0.28h-2.473v-0.28c0.075,0,0.142-0.024,0.201-0.071c0.058-0.047,0.087-0.116,0.087-0.21v-6.192
		h-2.649c-0.096,0-0.19,0.026-0.281,0.077c-0.091,0.052-0.136,0.15-0.136,0.296h-0.289V8.211h0.289c0,0.146,0.045,0.244,0.136,0.296
		c0.091,0.051,0.185,0.077,0.281,0.077h7.13c0.096,0,0.19-0.026,0.281-0.077c0.091-0.053,0.136-0.15,0.136-0.296h0.29v2.179h-0.29
		c0-0.146-0.045-0.244-0.136-0.296c-0.091-0.051-0.185-0.077-0.281-0.077H25.77V16.209z"/>
	<linearGradient id="SVGID_8_" gradientUnits="userSpaceOnUse" x1="32.6504" y1="9.0747" x2="37.5825" y2="17.6174">
		<stop  offset="0" style="stop-color:#FFFFFF"/>
		<stop  offset="0.0496" style="stop-color:#FAFAFA"/>
		<stop  offset="0.1098" style="stop-color:#EBEBEB"/>
		<stop  offset="0.1753" style="stop-color:#D3D3D3"/>
		<stop  offset="0.1902" style="stop-color:#CCCCCC"/>
		<stop  offset="0.3988" style="stop-color:#F2F2F2"/>
		<stop  offset="0.4613" style="stop-color:#EAEAEA"/>
		<stop  offset="0.5574" style="stop-color:#D5D5D5"/>
		<stop  offset="0.589" style="stop-color:#CCCCCC"/>
		<stop  offset="0.773" style="stop-color:#F2F2F2"/>
		<stop  offset="0.8879" style="stop-color:#ADADAD"/>
		<stop  offset="1" style="stop-color:#666666"/>
	</linearGradient>
	<path fill="url(#SVGID_8_)" stroke="#000000" stroke-width="0.5" stroke-miterlimit="10" d="M32.964,16.255
		c0,0.084,0.024,0.144,0.072,0.18c0.049,0.036,0.104,0.054,0.168,0.054v0.28h-2.023v-0.28c0.064,0,0.12-0.019,0.167-0.054
		c0.049-0.037,0.073-0.096,0.073-0.18v-5.819c0-0.083-0.023-0.143-0.073-0.179c-0.047-0.036-0.104-0.054-0.167-0.054v-0.28h2.023
		v0.28c-0.064,0-0.12,0.019-0.168,0.054c-0.048,0.037-0.072,0.096-0.072,0.179v2.194h4.303v-2.194c0-0.083-0.022-0.143-0.07-0.179
		c-0.051-0.036-0.105-0.054-0.171-0.054v-0.28h2.025v0.28c-0.064,0-0.122,0.019-0.169,0.054c-0.047,0.037-0.072,0.096-0.072,0.179
		v5.819c0,0.084,0.025,0.144,0.072,0.18c0.047,0.036,0.104,0.054,0.169,0.054v0.28h-2.025v-0.28c0.065,0,0.12-0.019,0.171-0.054
		c0.048-0.037,0.07-0.096,0.07-0.18v-2.349h-4.303V16.255z"/>
	<linearGradient id="SVGID_9_" gradientUnits="userSpaceOnUse" x1="42.8066" y1="9.3384" x2="47.5039" y2="17.4743">
		<stop  offset="0" style="stop-color:#FFFFFF"/>
		<stop  offset="0.0496" style="stop-color:#FAFAFA"/>
		<stop  offset="0.1098" style="stop-color:#EBEBEB"/>
		<stop  offset="0.1753" style="stop-color:#D3D3D3"/>
		<stop  offset="0.1902" style="stop-color:#CCCCCC"/>
		<stop  offset="0.3988" style="stop-color:#F2F2F2"/>
		<stop  offset="0.4613" style="stop-color:#EAEAEA"/>
		<stop  offset="0.5574" style="stop-color:#D5D5D5"/>
		<stop  offset="0.589" style="stop-color:#CCCCCC"/>
		<stop  offset="0.773" style="stop-color:#F2F2F2"/>
		<stop  offset="0.8879" style="stop-color:#ADADAD"/>
		<stop  offset="1" style="stop-color:#666666"/>
	</linearGradient>
	<path fill="url(#SVGID_9_)" stroke="#000000" stroke-width="0.5" stroke-miterlimit="10" d="M47.997,11.37
		c0-0.197-0.165-0.296-0.498-0.296H43.58v1.557h2.475c0.182,0,0.314-0.013,0.4-0.039c0.085-0.026,0.129-0.096,0.129-0.211h0.289
		v1.649h-0.321c0.032-0.114-0.012-0.183-0.129-0.208c-0.118-0.027-0.282-0.04-0.499-0.04H43.58v1.836h4.112
		c0.127,0,0.235-0.028,0.32-0.085c0.088-0.058,0.129-0.133,0.129-0.227h0.288v1.634h-0.288c0-0.093-0.041-0.145-0.129-0.156
		c-0.085-0.01-0.193-0.015-0.32-0.015h-5.896v-0.28c0.054,0,0.108-0.019,0.162-0.054c0.053-0.037,0.078-0.096,0.078-0.18v-5.819
		c0-0.083-0.025-0.143-0.078-0.179c-0.054-0.036-0.108-0.054-0.162-0.054v-0.28h5.702c0.333,0,0.498-0.093,0.498-0.28h0.287v1.728
		H47.997z"/>
</g>
</svg>
