<?xml version="1.0" encoding="utf-8"?>
<!-- Generator: Adobe Illustrator 15.1.0, SVG Export Plug-In . SVG Version: 6.00 Build 0)  -->
<!DOCTYPE svg PUBLIC "-//W3C//DTD SVG 1.1//EN" "http://www.w3.org/Graphics/SVG/1.1/DTD/svg11.dtd">
<svg version="1.1" id="Layer_1" xmlns="http://www.w3.org/2000/svg" xmlns:xlink="http://www.w3.org/1999/xlink" x="0px" y="0px"
	 width="50px" height="50px" viewBox="125 125 50 50" enable-background="new 125 125 50 50" xml:space="preserve">
<g id="Explosive">
	<g>
		<rect x="126.667" y="126.667" fill="#660000" width="46.667" height="46.667"/>
		<g id="stroke_10_">
			<path fill="#660000" d="M173.333,126.667v46.667h-46.667v-46.667H173.333 M175,125h-1.136h-45.459H125v1.136v45.453V175h3.405
				h45.459H175v-3.411v-45.453V125L175,125z"/>
			
				<linearGradient id="SVGID_1_" gradientUnits="userSpaceOnUse" x1="1023" y1="-1015.9995" x2="1023" y2="-966" gradientTransform="matrix(1 0 0 -1 -873 -841)">
				<stop  offset="0" style="stop-color:#333333;stop-opacity:0.3"/>
				<stop  offset="0.2701" style="stop-color:#353535;stop-opacity:0.4215"/>
				<stop  offset="0.4166" style="stop-color:#3D3D3D;stop-opacity:0.4875"/>
				<stop  offset="0.5336" style="stop-color:#4B4B4B;stop-opacity:0.5401"/>
				<stop  offset="0.635" style="stop-color:#5E5E5E;stop-opacity:0.5857"/>
				<stop  offset="0.7262" style="stop-color:#787878;stop-opacity:0.6268"/>
				<stop  offset="0.8101" style="stop-color:#979797;stop-opacity:0.6646"/>
				<stop  offset="0.8885" style="stop-color:#BBBBBB;stop-opacity:0.6998"/>
				<stop  offset="0.9606" style="stop-color:#E5E5E5;stop-opacity:0.7323"/>
				<stop  offset="1" style="stop-color:#FFFFFF;stop-opacity:0.75"/>
			</linearGradient>
			<path fill="url(#SVGID_1_)" d="M173.333,126.667v46.667h-46.667v-46.667H173.333 M175,125h-1.136h-45.459H125v1.136v45.453V175
				h3.405h45.459H175v-3.411v-45.453V125L175,125z"/>
		</g>
	</g>
	<g id="explosive">
		<path d="M169.053,131.507c-0.173-0.146,0.166-0.485,0.349-0.566c0.191-0.309,0.56-0.371,0.833-0.557
			C169.964,130.768,169.505,131.198,169.053,131.507L169.053,131.507z"/>
		<path d="M168.772,133.001c-0.01-0.039-0.016-0.082-0.029-0.121c1.186-0.534,2.331-0.638,3.412-0.915
			C170.905,132.396,169.929,132.764,168.772,133.001L168.772,133.001z"/>
		<path d="M170.645,131.09c-0.681,0.622-1.562,0.99-2.298,1.543c-0.316-0.225,0.201-0.426,0.352-0.563
			C169.297,131.693,170.02,131.256,170.645,131.09C169.964,131.712,169.089,132.083,170.645,131.09L170.645,131.09z"/>
		<path d="M167.952,132.155c-0.381-0.267,0.215-0.808,0.439-1.062c0.202-0.169,0.879-1.315,0.593-0.482
			C168.577,131.048,168.301,131.657,167.952,132.155L167.952,132.155z"/>
		<path d="M167.077,131.677c-0.241-0.075-0.319-0.531-0.397-0.765c-0.071-0.566,0.046-1.178-0.029-1.68
			C166.794,130.104,166.907,130.755,167.077,131.677L167.077,131.677z"/>
		<path d="M167.8,130.898c-0.192-0.225-0.078-0.615-0.02-0.869C168.073,130.247,167.754,130.599,167.8,130.898L167.8,130.898z"/>
		<path d="M166.24,131.875c-0.264,0.163-0.557-0.306-0.778-0.485c-0.123-0.368-0.403-0.609-0.476-1.009
			C165.439,130.85,165.671,131.484,166.24,131.875L166.24,131.875z"/>
		<path d="M166.458,131.683c-0.225-0.101-0.345-0.342-0.293-0.573C166.387,131.218,166.501,131.517,166.458,131.683L166.458,131.683
			z"/>
		<path d="M170.677,133.922c-0.66,0.017-1.517-0.029-2.09-0.423c0.124-0.244,0.322,0.172,0.508,0.091
			C169.648,133.535,170.146,133.887,170.677,133.922L170.677,133.922z"/>
		<path d="M167.356,132.344c-0.038,0.563-0.68,0.618-0.475,1.178c-0.104,0.062-0.111,0.384-0.268,0.156
			c0.342-0.28-0.025-0.312-0.24-0.377c-0.195,0.042-0.417,0.13-0.586-0.065c-0.131-0.153-0.3,0.261-0.58,0.189
			c-2.585-0.241-5.222,0.534-7.317,1.81c-0.065,0.247-0.325,0.254-0.404,0.534c0.733,0.449,1.286,1.032,1.791,1.627
			c-0.593,1.328-1.663,2.52-2.285,3.672c0.215,0.603,0.797,0.918,1.188,1.396c4.46,4.899,5.616,12.373,2.726,18.373
			c-2.858,6.279-8.776,9.749-15.293,9.837c-5.618,0.325-11.959-3.694-14.645-8.662c-3.057-5.784-2.904-12.741,1.27-18.398
			c3.936-5.221,10.947-7.676,17.113-6.253c0.723,0.192,1.439,0.41,2.128,0.609c0.075-0.023,0.202-0.007,0.222-0.088
			c0.808-1.101,1.614-2.49,2.409-3.76c1.178-0.176,2.337,2.109,3.17,0.345c1.875-1.803,4.407-1.725,6.882-2.148
			c0.273,0.144,0.41,0.033,0.742-0.032c-0.254-0.222-0.703-0.234-1.068-0.332c0.69,0.104,1.68,0.032,2.139,0.7
			c-0.035,0.117-0.074,0.124-0.169,0.068c0.068-0.319-0.349-0.02-0.485-0.006c-0.169,0.739,0.449-0.049,0.71,0.273
			c0.088-0.306,0.469-0.492,0.531-0.124c0.342-0.176-0.244-1.035,0.413-0.921c0.065,0.104,0.013,0.404,0.176,0.342
			C167.197,132.181,167.292,132.34,167.356,132.344L167.356,132.344z"/>
		<path d="M168.083,133.48c-0.134,0.211-0.361-0.16-0.576,0.042c0.006,0.192-0.195,0.361-0.277,0.538
			c-0.179-0.075-0.25-0.225-0.296-0.414c0.394-0.111,0-0.521,0.394-0.638C167.464,133.685,168.164,132.715,168.083,133.48
			L168.083,133.48z"/>
		<path d="M165.117,131.797c-0.325-0.107-1.126-0.501-0.208-0.293C164.971,131.608,165.319,131.628,165.117,131.797L165.117,131.797
			z"/>
		<path d="M170.869,136.654c-0.771-0.742-1.562-1.784-2.588-2.497c0.54,0.01,1.038,0.586,1.416,0.979
			C170.059,135.651,170.661,136,170.869,136.654L170.869,136.654z"/>
		<path d="M168.281,134.785c0.241,0.508,1.003,1.959,0.039,0.573C168.157,135.195,167.666,134.456,168.281,134.785L168.281,134.785z
			"/>
		<path d="M164.512,132.92c-0.098-0.417-0.99,0.654-0.618-0.156c-0.625,0.586-0.547-0.277-1.137,0.306
			c-0.146-0.186-0.459-0.153-0.621,0.107c-0.117,0.084-0.149-0.033-0.312-0.13c-0.137,0.104-0.358,0.365-0.413,0.296
			c0.022-0.088-0.049-0.137-0.121-0.176c-0.221-0.007-0.289,0.41-0.455,0.205c-0.173-0.299-0.605,0.599-0.651,0.052
			c-0.364,0.589-0.651-0.208-0.944,0.521c0.039-0.273-0.176-0.137-0.312-0.13c-0.11,0.124-0.247,0.501-0.296,0.371
			c-0.081-0.078-0.166-0.003-0.261,0.003c0.056,0.172-0.113,0.287-0.182,0.446c-0.095-0.065-0.082-0.183-0.192-0.218
			c-0.329,0.059-0.101,0.846-0.41,0.296c-0.144,0.338-0.205,0.69-0.664,0.693c-0.381-0.335,0.515-0.296,0.397-0.791
			c0.445,0.176,0.322-0.684,0.807-0.413c0.28-0.183,0.587-0.511,0.873-0.498c0.228-0.58,0.762,0.078,1.041-0.524
			c0.202-0.273,0.117,0.075,0.385,0.007c0.514-0.296,0.67-0.231,1.198-0.199c0.228,0.013,0.41-0.335,0.56-0.107
			c0.188,0.114,0.677-0.459,0.696-0.023c0.527-0.846,0.671,0.453,1.156-0.329C164.03,133.441,165,131.986,164.512,132.92
			L164.512,132.92z"/>
		<path d="M168.145,137.148c-0.13-0.934-0.811-1.777-0.781-2.679C167.9,135.293,168.167,136.178,168.145,137.148L168.145,137.148z"
			/>
		<path d="M166.777,134.792c-0.293,0.729-0.319,1.504-0.593,2.207c-0.156-0.749,0.268-1.53,0.424-2.311
			C166.66,134.72,166.731,134.759,166.777,134.792L166.777,134.792z"/>
		<path d="M166.022,134.479c-0.82,0.635-1.596,1.263-2.445,1.836c0.654-0.794,1.537-1.257,2.282-1.934
			C165.931,134.42,165.977,134.453,166.022,134.479L166.022,134.479z"/>
		<path d="M164.98,134.163c-0.647,0.146-1.201,0.459-1.78,0.453C163.659,134.349,164.499,133.991,164.98,134.163L164.98,134.163z"/>
		<path d="M164.948,136.621c-0.121-0.267,0.306-0.69,0.472-1.016C165.788,135.638,165.173,136.367,164.948,136.621L164.948,136.621z
			"/>
		<path d="M155.687,135.879c0.039-0.169-0.146-0.023-0.191-0.056c-0.287,0.245,0.481,0.791-0.28,0.55
			c0.104,0.459-0.11,0.446-0.515,0.459c-0.059,0.098,0.033,0.222,0.02,0.342c0.046,0.03,0.124,0.007,0.16,0
			c0.062-0.195,0.074-0.013,0.12,0.082c-0.228,0.153-0.439,0.111-0.677,0.296c-0.026,0.306,0.357,0.157,0.476,0.13
			c-0.417,0.358-1.218,0.28-1.055,1.071c-0.312,0.029-0.619-0.12-0.879-0.322c0.078-0.078,0.029-0.205,0.029-0.306
			c-0.082-0.082-0.18,0.02-0.238,0.013c0.251-0.462,0.014,0.144,0.385,0.013c0.039-0.338,0.514-0.361,0.352-0.729
			c0.442-0.501,1.002-1.394,1.126-1.81c0.218,0.335,0.007-0.322,0.293-0.104c-0.039-0.456,0.371-0.326,0.596-0.423
			C155.931,135.124,156.12,135.762,155.687,135.879L155.687,135.879z"/>
		<path d="M147.545,141.777c-0.006,0.322,0.593,0.042,0.299,0.417c0.212,0.134,0.176,0.397,0.372,0.553
			c0.215-0.087,0.801-0.605,0.592,0.042c-0.273-0.394-0.403,0.172-0.664,0.075c-0.006,0.485,0.671,0.029,0.964,0.342
			c-0.062,0.098-0.186,0.245-0.052,0.293c0.189,0.28,0.355-0.042,0.531-0.062c-0.003,0.062-0.466,0.169-0.277,0.446
			c0.202-0.003,0.762,0.342,0.166,0.101c-0.101,0.104-0.114,0.228-0.059,0.365c0.068,0.137-0.322-0.332-0.387,0.078
			c0.299,0.052,0.228,0.527,0.592,0.208c-0.072-0.144-0.026-0.212,0.15-0.241c0.202,0.254-0.117,0.612-0.391,0.635
			c-0.423-0.065-0.088,0.4-0.312,0.596c0.081,0.078,0.163,0,0.241-0.013c0.084-0.075,0.084-0.505,0.293-0.212
			c0.117-0.022,0.234-0.016,0.264-0.159c-0.172,0.283-0.498,0.273-0.752,0.579c0.189,0.273,0.605,0.339,0.794,0.619
			c-0.439,0.287-0.573-0.553-0.996-0.299c0.163,0.104,0.264,0.527,0.124,0.537c-0.072,0.117-0.124,0.247-0.059,0.354
			c0.316-0.032,0.553-0.143,0.833-0.335c0.085,0.124,0.091,0.485-0.176,0.29c-0.124-0.02-0.111,0.121-0.198,0.195
			c0,0.163,0.316,0.13,0.182,0.348c-0.218-0.172-0.472-0.459-0.697-0.146c0.186,0.544-0.329,0.846-0.198,1.315
			c-0.531,0.065-0.586,1.042-1.12,0.54c-0.592-0.032,0.163,0.625-0.43,0.586c0.144,0.023,0.065-0.156,0.062-0.254
			c-0.088-0.022-0.137-0.146-0.238-0.094c0.241,0.615-0.69,0.166-0.377,0.719c0.482-0.352,0.234,0.404,0.417,0.319
			c-0.332-0.566-0.436,0.605-0.622,0.013c0.186,0.017,0.016-0.195,0.016-0.293c-0.273-0.137-0.348,0.241-0.521,0.365
			c-0.065,0.149,0.247,0.123,0.052,0.293c-0.296-0.059-0.276-0.501-0.625-0.268c-0.198,0.479-0.459,0.111-0.729,0.437
			c-0.13-0.205-0.384-0.371-0.631-0.394c-0.28,0.12,0.13,0.468-0.157,0.517c-0.013-0.136-0.071-0.367-0.299-0.416
			c-0.28,0.032-0.172,0.65-0.417,0.201c-0.104-0.098-0.195-0.052-0.312-0.029c-0.065,0.056,0.045,0.251-0.098,0.163
			c-0.049-0.289,0.354-0.361,0.039-0.596c-0.352,0.312-0.619,0.371-0.996,0.241c-0.065-0.104,0.192-0.046,0.299,0.049
			c0.052,0.068,0.149-0.042,0.234-0.017c0.062-0.098-0.013-0.237-0.017-0.338c-0.163-0.003-0.4,0.013-0.442-0.179
			c-0.114-0.133,0.329-0.381-0.017-0.498c-0.234,0.013-0.244,0.762-0.68,0.462c0.026-0.15,0.068-0.319,0.01-0.488
			c-0.442-0.072-0.319,0.456-0.358-0.059c0.062-0.094,0.41,0.192,0.488-0.15c-0.15-0.391-0.387-0.11-0.667-0.188
			c-0.12,0.084,0.208,0.456-0.127,0.312c0.124-0.15,0.143-0.335,0.085-0.505c-0.111-0.198-0.511-0.016-0.283-0.335
			c0.14,0.084,0.286,0.117,0.456,0.055c0.082-0.342-0.326-0.27-0.446-0.446c-0.114,0.033-0.352,0.466-0.312,0.039
			c0.296,0.052,0.228-0.319,0.166-0.426c-0.257-0.218-0.153-0.55-0.589-0.687c-0.299,0.006-0.033,0.469-0.365,0.326
			c-0.114-0.397,0.674-0.397,0.189-0.664c-0.065-0.013,0.032-0.375,0.02-0.15c0.286,0.013-0.033,0.534,0.423,0.319
			c-0.205-0.251,0.104-0.742-0.423-0.944c0.136-0.104,0.553,0.215,0.546-0.143c0.056-0.713-1.175,0.469-0.456-0.417
			c0.365-0.332,0.391-0.996,0.417-1.309c-0.02-0.274-0.338-0.078-0.404-0.342c0.114-0.13,0.208-0.433,0.397-0.375
			c0.202,0.25-0.423,0.052-0.325,0.417c0.352-0.137,0.352,0.381,0.713,0.218c-0.296-0.254,0.153-0.823-0.231-0.993
			c0.15-0.072,0.332-0.052,0.384-0.254c-1.055-0.98,0.774,0.059,0.476-0.654c-0.274,0.13-0.111-0.036-0.062-0.166
			c0.068,0.036,0.14,0.084,0.231,0.045c0.085-0.404,0.371,0.137,0.58,0.072c0.052-0.658,0.377-0.55,0.439-1.23
			c0.101,0.098,0.361-0.166,0.504,0.084c-0.039,0.111-0.182,0.183-0.13,0.312c-0.143,0.017-0.55-0.273-0.391,0.153
			c0.163,0.264,0.488,0.43,0.583,0.589c0.055-0.032,0.172-0.013,0.199-0.104c0.059-0.355-0.261-0.156-0.349-0.446
			c0.342-0.176,0.837-0.029,1.064-0.449c-0.208-0.257-0.137-0.41-0.124-0.693c0.192-0.046,0.335,0.14,0.322,0.267
			c-0.267-0.032-0.14,0.176-0.13,0.31c0.091,0.12,0.199,0.055,0.31,0.036c0.098-0.273-0.303-0.615,0.186-0.67
			c-0.228,0.059-0.101,0.329-0.153,0.462c0.068,0.039,0.124,0.111,0.218,0.072c-0.14-0.254,0.121-0.417,0.199-0.599
			c0.052,0.033-0.02,0.254,0.143,0.254c0.241-0.02,0.039-0.27,0.293-0.052c-0.586,0-0.368,0.853-1.101,0.716
			c-0.045,0.078-0.087,0.15-0.039,0.212c0.338,0.14,0.599-0.218,0.645,0.335c0.143,0.029,0.149-0.137,0.218-0.189
			c-0.85-0.794,0.456,0.088,0.349-0.726c0.231,0.205-0.397,0.472-0.01,0.642c0.27-0.124,0.29-0.306,0.351-0.566
			c0.042-0.234-0.452-0.114-0.172-0.202c0.342-0.179,0.137,0.934,0.736,0.557c0.039-0.433,0.495-0.547,0.234-0.023
			c0.172,0.208,0.26-0.098,0.43-0.052c0.104-1.009,0.029,0.472,0.527-0.068c-0.157,0.355-0.788-0.036-0.469,0.492
			c0.059,0.065-0.326,0.254-0.134,0.475c0.264,0.264,0.26-0.267,0.459-0.267c0.245-0.446,0.157,0.221,0.355,0.221
			c0.107,0.192-0.257,0.619,0.183,0.599c0.315-0.254-0.052-0.912,0.127-1.263c-0.046-0.026-0.104-0.091-0.195-0.045
			c-0.052,0.029-0.059,0.186-0.121,0.091c-0.075-0.248,0.218-0.098,0.319-0.26C147.754,141.39,147.461,141.602,147.545,141.777
			L147.545,141.777z"/>
		<path d="M147.656,142.858c-0.316-0.065,0.169-0.156,0.163-0.358C148.057,142.584,147.715,142.767,147.656,142.858L147.656,142.858
			z"/>
		<path d="M148.848,143.828c0.267-0.221-0.352-0.384,0.02-0.508C148.652,143.509,149.349,143.916,148.848,143.828L148.848,143.828z"
			/>
		<path d="M147.943,143.659c0.188-0.205-0.199-0.41,0.163-0.521C147.865,143.317,148.304,143.756,147.943,143.659L147.943,143.659z"
			/>
		<path d="M142.643,140.85c0.091-0.101,0.365-0.166,0.524-0.068C143.024,140.762,142.715,140.996,142.643,140.85L142.643,140.85z"/>
		<path d="M148.151,148.883c-0.088,0.036-0.163-0.003-0.205-0.036C148.047,148.418,148.542,148.297,148.151,148.883L148.151,148.883
			z"/>
		<path d="M147.904,149.274c-0.111-0.231-0.681-0.062-0.375-0.391C147.643,149.017,148.057,149.082,147.904,149.274L147.904,149.274
			z"/>
		<path d="M139.3,145.332c-0.199,0-0.368-0.729-0.225-0.273c0.28,0.498,0.58-0.619,0.325,0.101
			C139.362,145.234,139.33,145.28,139.3,145.332L139.3,145.332z"/>
		<path d="M144.75,150.837c-0.101-0.258,0.192-0.101,0.296-0.268C145.27,150.938,144.902,150.749,144.75,150.837L144.75,150.837z"/>
		<path d="M143.242,150.847c-0.042-0.085-0.208,0.071-0.166-0.104c0.264,0.007,0.485-0.67,0.602-0.241
			C143.516,150.563,143.457,150.817,143.242,150.847L143.242,150.847z"/>
		<path d="M142.708,150.449c-0.26,0.104-0.124-0.273-0.254-0.319C142.773,149.707,142.598,150.352,142.708,150.449L142.708,150.449z
			"/>
		<path d="M147.578,148.685c0.029,0.075-0.026,0.088-0.072,0.117c0.065,0.013,0.127,0.007,0.16-0.065
			c-0.029,0.01-0.068,0.017-0.094,0.023C147.572,148.737,147.572,148.705,147.578,148.685L147.578,148.685z"/>
	</g>
	
		<linearGradient id="SVGID_2_" gradientUnits="userSpaceOnUse" x1="1023" y1="-1014.3325" x2="1023" y2="-967.6665" gradientTransform="matrix(1 0 0 -1 -873 -841)">
		<stop  offset="0" style="stop-color:#000000;stop-opacity:0.35"/>
		<stop  offset="0.0975" style="stop-color:#060606;stop-opacity:0.3159"/>
		<stop  offset="0.2216" style="stop-color:#151515;stop-opacity:0.2724"/>
		<stop  offset="0.36" style="stop-color:#2F2F2F;stop-opacity:0.224"/>
		<stop  offset="0.5088" style="stop-color:#545454;stop-opacity:0.1719"/>
		<stop  offset="0.6661" style="stop-color:#838383;stop-opacity:0.1169"/>
		<stop  offset="0.8304" style="stop-color:#BCBCBC;stop-opacity:0.0594"/>
		<stop  offset="0.9977" style="stop-color:#FEFEFE;stop-opacity:8.182824e-04"/>
		<stop  offset="1" style="stop-color:#FFFFFF;stop-opacity:0"/>
	</linearGradient>
	<rect x="126.667" y="126.667" fill="url(#SVGID_2_)" width="46.667" height="46.667"/>
	
		<linearGradient id="SVGID_3_" gradientUnits="userSpaceOnUse" x1="1023" y1="-1014.3325" x2="1023" y2="-967.6665" gradientTransform="matrix(1 0 0 -1 -873 -841)">
		<stop  offset="0" style="stop-color:#000000;stop-opacity:0"/>
		<stop  offset="0.3726" style="stop-color:#020202;stop-opacity:0.205"/>
		<stop  offset="0.5069" style="stop-color:#090909;stop-opacity:0.2788"/>
		<stop  offset="0.6026" style="stop-color:#141414;stop-opacity:0.3314"/>
		<stop  offset="0.68" style="stop-color:#252525;stop-opacity:0.374"/>
		<stop  offset="0.7463" style="stop-color:#3B3B3B;stop-opacity:0.4104"/>
		<stop  offset="0.805" style="stop-color:#575757;stop-opacity:0.4427"/>
		<stop  offset="0.8581" style="stop-color:#777777;stop-opacity:0.472"/>
		<stop  offset="0.9069" style="stop-color:#9D9D9D;stop-opacity:0.4988"/>
		<stop  offset="0.9523" style="stop-color:#C8C8C8;stop-opacity:0.5238"/>
		<stop  offset="0.9926" style="stop-color:#F6F6F6;stop-opacity:0.5459"/>
		<stop  offset="1" style="stop-color:#FFFFFF;stop-opacity:0.55"/>
	</linearGradient>
	<rect x="126.667" y="126.667" fill="url(#SVGID_3_)" width="46.667" height="46.667"/>
</g>
</svg>
