<?xml version="1.0" encoding="utf-8"?>
<!-- Generator: Adobe Illustrator 15.1.0, SVG Export Plug-In . SVG Version: 6.00 Build 0)  -->
<!DOCTYPE svg PUBLIC "-//W3C//DTD SVG 1.1//EN" "http://www.w3.org/Graphics/SVG/1.1/DTD/svg11.dtd">
<svg version="1.1" id="Layer_1" xmlns="http://www.w3.org/2000/svg" xmlns:xlink="http://www.w3.org/1999/xlink" x="0px" y="0px"
	 width="50px" height="50px" viewBox="125 125 50 50" enable-background="new 125 125 50 50" xml:space="preserve">
<g id="smg">
	<g>
		<rect x="126.667" y="127.031" fill="#660000" width="46.667" height="46.667"/>
		<g id="stroke">
			<path fill="#660000" d="M173.333,126.932v46.762h-46.667v-46.762H173.333 M175,125.26h-1.136h-45.458H125v1.138v45.548v3.418
				h3.406h45.458H175v-3.411v-45.552V125.26L175,125.26z"/>
			
				<linearGradient id="SVGID_1_" gradientUnits="userSpaceOnUse" x1="1023" y1="-1030.3638" x2="1023" y2="-980.2603" gradientTransform="matrix(1 0 0 -1 -873 -855)">
				<stop  offset="0" style="stop-color:#333333;stop-opacity:0.3"/>
				<stop  offset="0.2701" style="stop-color:#353535;stop-opacity:0.4215"/>
				<stop  offset="0.4166" style="stop-color:#3D3D3D;stop-opacity:0.4875"/>
				<stop  offset="0.5336" style="stop-color:#4B4B4B;stop-opacity:0.5401"/>
				<stop  offset="0.635" style="stop-color:#5E5E5E;stop-opacity:0.5857"/>
				<stop  offset="0.7262" style="stop-color:#787878;stop-opacity:0.6268"/>
				<stop  offset="0.8101" style="stop-color:#979797;stop-opacity:0.6646"/>
				<stop  offset="0.8885" style="stop-color:#BBBBBB;stop-opacity:0.6998"/>
				<stop  offset="0.9606" style="stop-color:#E5E5E5;stop-opacity:0.7323"/>
				<stop  offset="1" style="stop-color:#FFFFFF;stop-opacity:0.75"/>
			</linearGradient>
			<path fill="url(#SVGID_1_)" d="M173.333,126.932v46.762h-46.667v-46.762H173.333 M175,125.26h-1.136h-45.458H125v1.138v45.548
				v3.418h3.406h45.458H175v-3.411v-45.552V125.26L175,125.26z"/>
		</g>
	</g>
	<path id="gun_1_" fill="#231F20" d="M133.804,152.317c0.239,0.026,0.273,0.014,0.2-0.059c-0.111-0.091-0.575-0.091-0.697,0.007
		c-0.06,0.042-0.047,0.059,0.067,0.039C133.451,152.292,133.643,152.298,133.804,152.317z M150.573,140.409
		c-0.026-0.034-0.014-0.19,0.034-0.344c0.066-0.234,0.066-0.264-0.034-0.193c-0.106,0.08-0.252,0.623-0.197,0.706
		C150.433,140.651,150.627,140.479,150.573,140.409z M135.938,151.614c0.026,0.007,0.017-0.032-0.024-0.086
		c-0.047-0.057-0.066-0.061-0.054-0.003C135.874,151.564,135.91,151.611,135.938,151.614z M150.579,140.737
		c0.031-0.02,0.034-0.067,0.015-0.093c-0.027-0.029-0.06-0.023-0.072,0.016c-0.019,0.041-0.021,0.08-0.012,0.094
		C150.521,140.768,150.55,140.758,150.579,140.737z M143.503,146.742c0.101-0.077,0.13-0.117,0.075-0.094
		c-0.06,0.024-0.14,0.084-0.177,0.13C143.359,146.828,143.406,146.812,143.503,146.742z M144.097,146.198
		c0.044-0.146,0.038-0.146-0.07-0.07c-0.061,0.044-0.096,0.127-0.077,0.177C143.979,146.431,144.04,146.388,144.097,146.198z
		 M144.547,145.962c0.08-0.066,0.103-0.098,0.042-0.07c-0.06,0.02-0.124,0.073-0.153,0.109
		C144.417,146.045,144.459,146.021,144.547,145.962z M148.353,143.694c1.3-0.996,1.58-1.256,1.323-1.233
		c-0.115,0.01-6.982,5.164-6.992,5.25c-0.011,0.036,0.023,0.077,0.073,0.08C142.844,147.805,146.034,145.469,148.353,143.694z
		 M137.5,152.37c0.036-0.088,0.026-0.095-0.047-0.043c-0.045,0.029-0.083,0.095-0.08,0.137
		C137.379,152.559,137.446,152.507,137.5,152.37z M137.884,152.077c0.052-0.097,0.036-0.09-0.104,0.006
		c-0.1,0.072-0.144,0.131-0.103,0.149C137.76,152.266,137.79,152.246,137.884,152.077z M138.727,151.428
		c0.017-0.043-0.149,0.057-0.374,0.216c-0.22,0.175-0.376,0.312-0.35,0.314C138.083,151.965,138.69,151.525,138.727,151.428z
		 M143,148.834c0.007-0.07,0.08-0.184,0.168-0.254c0.293-0.242,1.133-0.833,1.32-0.929c0.1-0.054,0.166-0.121,0.153-0.14
		c-0.021-0.023,0.217-0.227,0.52-0.44c0.311-0.218,0.604-0.467,0.654-0.557c0.076-0.121,0.133-0.158,0.226-0.151
		c0.11,0.003,0.133-0.013,0.124-0.102c-0.003-0.067,0.01-0.083,0.039-0.047c0.031,0.038,0.107,0,0.22-0.096
		c0.098-0.086,0.25-0.174,0.337-0.193c0.114-0.023,0.161-0.063,0.171-0.137c0.01-0.061,0.057-0.137,0.102-0.169
		c0.051-0.038,0.073-0.104,0.064-0.146c-0.017-0.067,0-0.072,0.073-0.054c0.083,0.023,0.098,0.01,0.073-0.077
		c-0.029-0.107-0.02-0.114,0.153-0.124c0.203-0.016,0.41-0.14,0.354-0.213c-0.021-0.031,0.007-0.076,0.056-0.114
		c0.154-0.106,2.007-1.61,2.158-1.753c0.071-0.07,0.192-0.177,0.255-0.233c0.117-0.101,0.114-0.101-0.057-0.031
		c-0.182,0.076-2.385,1.701-6.285,4.624c-4.923,3.696-5.094,3.83-5.057,3.89c0.023,0.025,0.08,0.006,0.127-0.054
		c0.042-0.054,0.089-0.083,0.105-0.063c0.018,0.016,0.14-0.054,0.28-0.156c0.14-0.104,0.267-0.178,0.28-0.153
		c0.038,0.056,0.331-0.174,0.324-0.251c-0.003-0.034,0.14-0.14,0.321-0.242c1.019-0.568,1.323-0.75,1.562-0.912
		c0.167-0.115,0.299-0.169,0.368-0.143c0.08,0.031,0.093,0.021,0.052-0.029c-0.036-0.057,0-0.098,0.14-0.166
		c0.104-0.05,0.231-0.117,0.276-0.151c0.044-0.036,0.114-0.052,0.15-0.036C142.9,149.061,142.99,148.975,143,148.834z
		 M160.696,137.785c-0.071-0.177-0.146-0.204-0.215-0.086c-0.035,0.056-0.006,0.122,0.072,0.192
		C160.71,138.034,160.781,137.985,160.696,137.785z M150.426,145.758c0.061-0.047,0.063-0.066,0.007-0.054
		c-0.045,0.013-0.086,0.051-0.093,0.077C150.337,145.814,150.373,145.801,150.426,145.758z M138.756,154.678
		c0.026-0.022,0.029-0.062,0.013-0.088c-0.023-0.029-0.063-0.036-0.089-0.013c-0.03,0.02-0.034,0.059-0.01,0.088
		C138.69,154.69,138.727,154.697,138.756,154.678z M141.018,152.979c0.042-0.036,0.049-0.068,0.01-0.085
		c-0.067-0.022-0.144,0.068-0.107,0.124C140.926,153.027,140.97,153.015,141.018,152.979z M141.374,152.708
		c0.057-0.045,0.057-0.071,0.007-0.052c-0.051,0.013-0.095,0.046-0.098,0.078C141.279,152.761,141.316,152.754,141.374,152.708z
		 M141.657,152.507c0.183-0.144,0.117-0.183-0.089-0.062c-0.078,0.043-0.124,0.101-0.104,0.134
		C141.479,152.601,141.571,152.565,141.657,152.507z M142.03,152.214c0.057-0.046,0.06-0.065,0.003-0.052
		c-0.042,0.013-0.086,0.052-0.09,0.078C141.94,152.266,141.979,152.259,142.03,152.214z M146.244,149.055
		c0.057-0.047,0.063-0.067,0.006-0.054c-0.051,0.018-0.089,0.047-0.093,0.081C146.15,149.111,146.187,149.102,146.244,149.055z
		 M145.96,149.271c0.07-0.099,0.016-0.076-0.213,0.083c-0.42,0.301-2.884,2.144-3.221,2.424c-0.246,0.193-0.252,0.21-0.067,0.12
		C142.736,151.765,145.837,149.442,145.96,149.271z M147.611,148.024c0-0.036-0.292,0.153-0.642,0.42
		c-0.356,0.257-0.63,0.493-0.612,0.514C146.393,149.01,147.617,148.097,147.611,148.024z M160.345,138.965
		c0.033-0.02,0.036-0.063,0.014-0.09c-0.02-0.031-0.062-0.034-0.085-0.011c-0.029,0.021-0.032,0.063-0.017,0.088
		C160.28,138.978,160.319,138.984,160.345,138.965z M163.952,136.415c-0.007-0.044-0.053-0.086-0.104-0.096
		c-0.107-0.013-0.169,0.112-0.091,0.213C163.821,136.615,163.958,136.535,163.952,136.415z M152.161,145.807
		c0.029-0.016,0.036-0.055,0.014-0.083c-0.02-0.029-0.062-0.032-0.088-0.013c-0.029,0.02-0.032,0.06-0.014,0.086
		C152.093,145.825,152.136,145.835,152.161,145.807z M151.946,146.051c0.029-0.02,0.026-0.066-0.006-0.114
		c-0.029-0.039-0.078-0.057-0.107-0.036c-0.026,0.02-0.026,0.073,0.006,0.112C151.875,146.058,151.921,146.074,151.946,146.051z
		 M152.627,145.495c0.042-0.003,0.075-0.041,0.068-0.086c-0.007-0.114-0.117-0.114-0.13,0.003
		C152.559,145.469,152.571,145.501,152.627,145.495z M139.167,155.859c0.07-0.056,0.086-0.085,0.044-0.075
		c-0.044,0.017-0.101,0.056-0.124,0.095C139.062,155.921,139.097,155.915,139.167,155.859z M139.542,155.671
		c0.038-0.033,0.061-0.078,0.044-0.098c-0.02-0.026-0.08-0.036-0.137-0.02c-0.054,0.02-0.073,0.059-0.039,0.101
		C139.44,155.696,139.5,155.703,139.542,155.671z M142.243,153.562c-0.003-0.039-0.236,0.101-0.599,0.381
		c-0.327,0.244-0.581,0.445-0.56,0.449C141.17,154.395,142.25,153.626,142.243,153.562z M142.404,153.525
		c0.023-0.022,0.045-0.071,0.042-0.11c-0.003-0.043-0.039-0.049-0.086-0.017c-0.044,0.036-0.063,0.085-0.044,0.11
		C142.337,153.535,142.379,153.545,142.404,153.525z M142.704,153.223c-0.044-0.013-0.114,0-0.156,0.039
		c-0.073,0.059-0.07,0.065,0.026,0.059C142.72,153.308,142.787,153.259,142.704,153.223z M142.917,153.142
		c0.023-0.017,0.036-0.068,0.036-0.107c-0.003-0.039-0.056-0.039-0.112,0.006c-0.057,0.046-0.073,0.092-0.038,0.104
		C142.84,153.164,142.891,153.161,142.917,153.142z M148.41,148.942c-0.023-0.031-0.999,0.666-2.739,1.976
		c-1.727,1.296-2.671,2.024-2.614,2.031C143.223,152.979,148.48,149.038,148.41,148.942z M164.434,137.464
		c0.052-0.017,0.039-0.073-0.022-0.16c-0.068-0.086-0.121-0.11-0.153-0.066c-0.026,0.037-0.013,0.11,0.026,0.159
		C164.323,137.451,164.388,137.48,164.434,137.464z M154.287,145.047c-0.036-0.042-0.075-0.049-0.091-0.01
		c-0.014,0.044,0.003,0.083,0.042,0.101C154.333,145.171,154.355,145.138,154.287,145.047z M154.548,144.974
		c0.029-0.02,0.025-0.073-0.01-0.119c-0.033-0.041-0.068-0.044-0.082-0.006c-0.02,0.036-0.013,0.089,0.004,0.115
		C154.479,144.992,154.519,144.999,154.548,144.974z M155.508,144.255c0.032-0.02,0.039-0.067,0.017-0.09
		c-0.023-0.031-0.056-0.034-0.088-0.015c-0.029,0.021-0.032,0.063-0.013,0.088C155.446,144.268,155.488,144.268,155.508,144.255z
		 M145.693,152.239c0.06-0.049,0.06-0.068,0.006-0.055c-0.044,0.016-0.086,0.049-0.089,0.081
		C145.604,152.292,145.643,152.285,145.693,152.239z M135.737,162.487c0.063-0.046-0.008-0.222-0.084-0.212
		c-0.109,0.01-0.137,0.134-0.039,0.195C135.661,162.5,135.716,162.507,135.737,162.487z M142.494,157.786
		c0.096,0.039,0.103,0.026,0.036-0.104c-0.08-0.17-0.22-0.205-0.172-0.046C142.367,157.688,142.43,157.757,142.494,157.786z
		 M148.209,153.594c0.083-0.062,0.104-0.091,0.047-0.068c-0.06,0.026-0.13,0.075-0.153,0.114
		C148.08,153.675,148.126,153.659,148.209,153.594z M137.964,163.509c0.133-0.094,0.192-0.221,0.252-0.53
		c0.05-0.225,0.161-0.622,0.253-0.889c0.093-0.268,0.144-0.488,0.114-0.491c-0.078-0.014-1.25,0.879-1.377,1.045
		c-0.091,0.123-0.08,0.162,0.127,0.472c0.13,0.186,0.283,0.381,0.347,0.433C137.77,163.62,137.83,163.613,137.964,163.509z
		 M151.38,154.421l1.013-0.775l0.049-0.267l0.049-0.264l-0.677-0.876l-0.674-0.869l-0.93,0.7l-0.933,0.703l0.133,0.374
		c0.243,0.697,0.649,0.993,1.309,0.947c0.308-0.02,0.308-0.02,0.187,0.098c-0.072,0.065-0.257,0.137-0.406,0.166
		c-0.57,0.095-1.104-0.172-1.307-0.66c-0.192-0.456-0.186-0.453-0.586-0.131l-0.356,0.29l0.672,0.901
		c0.368,0.488,0.705,0.898,0.744,0.902C149.746,155.674,149.93,155.54,151.38,154.421z M151.17,158.19
		c0.029,0-0.257-0.41-0.636-0.915c-0.384-0.515-0.707-0.908-0.718-0.876c-0.013,0.026,0.277,0.437,0.642,0.915
		C150.82,157.793,151.14,158.184,151.17,158.19z M151.38,158.47c0.036,0.02,0.02-0.022-0.047-0.11
		c-0.066-0.078-0.096-0.101-0.07-0.045C151.286,158.379,151.333,158.447,151.38,158.47z M151.604,158.776
		c0.04,0.02,0.022-0.026-0.048-0.107c-0.059-0.085-0.093-0.104-0.066-0.043C151.511,158.682,151.567,158.75,151.604,158.776z
		 M152.1,159.434c0.042,0.026,0.029-0.013-0.022-0.078c-0.053-0.071-0.085-0.091-0.072-0.046
		C152.012,159.349,152.061,159.407,152.1,159.434z M152.783,160.349c0.042,0.022,0.022-0.029-0.042-0.107
		c-0.068-0.085-0.098-0.099-0.072-0.043C152.695,160.257,152.747,160.325,152.783,160.349z M156.511,168.509
		c-1.31,0.932-1.452,1.01-1.602,0.938c-0.072-0.039-0.889-1.119-2.246-2.994c-1.174-1.622-2.153-2.956-2.18-2.969
		c-0.034-0.007-0.156,0.032-0.273,0.091c-0.356,0.188-0.716,0.159-1.237-0.085c-0.264-0.123-0.506-0.254-0.547-0.293
		c-0.036-0.035-0.133-0.123-0.216-0.195c-0.347-0.296-1.18-1.243-1.603-1.822c-0.337-0.469-0.51-0.762-0.677-1.172
		c-0.21-0.521-0.229-0.554-0.382-0.583c-0.137-0.026-0.248-0.146-0.763-0.837c-0.513-0.677-0.598-0.82-0.588-0.957
		c0.024-0.273-0.169-0.286-0.545-0.029l-0.324,0.219l0.073,0.306c0.037,0.166,0.057,0.332,0.044,0.364
		c-0.041,0.111-0.435,0.049-0.591-0.084c-0.114-0.102-0.153-0.104-0.2-0.026c-0.026,0.059-0.37,0.364-0.764,0.69
		c-0.386,0.315-0.713,0.586-0.713,0.599c-0.006,0.01,0.013,0.052,0.051,0.092c0.032,0.049-0.031,0.143-0.221,0.318
		c-1.302,1.205-1.916,2.614-1.932,4.434c-0.003,0.534-0.101,0.986-0.26,1.237c-0.041,0.052,0.054,0.303,0.28,0.769
		c0.188,0.374,0.331,0.723,0.324,0.765c-0.018,0.134-0.578,0.218-0.95,0.146c-0.19-0.039-0.363-0.085-0.381-0.104
		c-0.143-0.152-0.666-0.801-1.756-2.188c-0.697-0.892-1.343-1.709-1.426-1.816c-0.124-0.146-0.158-0.267-0.155-0.54
		c0-0.325-0.032-0.423-0.343-0.983c-0.62-1.094-0.656-1.188-0.589-1.51c0.051-0.247,0.026-0.361-0.19-0.872
		c-0.14-0.323-0.293-0.678-0.35-0.788c-0.12-0.254-0.05-0.752,0.134-0.928c0.073-0.068,0.149-0.166,0.167-0.205
		c0.013-0.052-0.187-0.365-0.597-0.896c-0.513-0.667-0.637-0.862-0.667-1.038c-0.02-0.13-0.125-0.345-0.252-0.515
		c-0.353-0.468-0.42-0.735-0.333-1.221c0.044-0.244,0.099-0.56,0.127-0.712c0.039-0.245,0.089-0.312,0.42-0.606
		c0.433-0.377,0.676-0.481,1.156-0.488c0.444-0.006,0.884,0.222,1.177,0.612c0.127,0.17,0.254,0.293,0.28,0.271
		c0.031-0.023,0.084,0.01,0.127,0.062c0.044,0.056,0.167,0.117,0.286,0.144l0.207,0.042l0.08-0.218l0.084-0.222l-0.228-0.163
		c-0.236-0.163-0.819-0.82-0.889-1.001c-0.021-0.06-0.018-0.127,0.01-0.143c0.029-0.02,0.06-0.104,0.073-0.178
		c0.023-0.186,0.566-0.596,0.607-0.456c0.017,0.058,0.052,0.083,0.08,0.063c0.023-0.018,0.02-0.069-0.015-0.113
		c-0.049-0.067-0.003-0.109,0.285-0.284c0.516-0.317,0.476-0.324,0.78,0.133c0.176,0.258,0.257,0.424,0.229,0.487
		c-0.023,0.063,0.01,0.13,0.093,0.203c0.075,0.061,0.19,0.163,0.264,0.227c0.077,0.066,0.197,0.149,0.273,0.19
		c0.14,0.07,0.156,0.063,1.071-0.627c0.542-0.403,0.97-0.76,1.028-0.853c0.117-0.197,1.338-1.104,1.551-1.164
		c0.14-0.041,0.146-0.034,0.026,0.173c-0.136,0.247-0.166,0.267,0.884-0.5c0.77-0.563,0.945-0.729,0.75-0.716
		c-0.05,0.01-0.07-0.041-0.06-0.124c0.016-0.08-0.05-0.226-0.165-0.384c-0.099-0.129-0.172-0.272-0.159-0.306
		c0.013-0.036,0.13-0.163,0.264-0.283c0.232-0.216,0.236-0.216,0.403-0.083c0.227,0.179,0.35,0.103,0.293-0.19
		c-0.047-0.226-0.037-0.239,0.223-0.426c0.248-0.174,0.29-0.188,0.381-0.098c0.143,0.145,0.389-0.039,0.338-0.252
		c-0.029-0.121,0.008-0.188,0.168-0.308c0.283-0.216,0.42-0.229,0.557-0.049c0.07,0.09,0.127,0.127,0.143,0.083
		c0.013-0.044-0.003-0.083-0.041-0.096c-0.033-0.015-0.013-0.06,0.047-0.107c0.063-0.051,0.09-0.13,0.057-0.204
		c-0.023-0.067-0.023-0.143,0.003-0.169c0.442-0.42,0.537-0.451,0.767-0.244c0.143,0.127,0.293,0.111,0.197-0.02
		c-0.031-0.038-0.031-0.11,0-0.153c0.026-0.051,0.026-0.124-0.003-0.167c-0.034-0.049-0.01-0.109,0.063-0.166
		c0.066-0.057,0.179-0.16,0.246-0.241c0.111-0.125,0.153-0.133,0.321-0.045c0.14,0.07,0.184,0.116,0.153,0.163
		c-0.02,0.038,0.02,0.03,0.083-0.016c0.08-0.057,0.111-0.149,0.091-0.299c-0.031-0.208-0.015-0.231,0.259-0.417
		c0.273-0.181,0.298-0.187,0.41-0.068c0.184,0.194,0.36-0.01,0.277-0.306c-0.02-0.063,0.044-0.163,0.174-0.273
		c0.283-0.236,0.427-0.277,0.532-0.137c0.051,0.066,0.14,0.101,0.197,0.086c0.06-0.016,0.107-0.039,0.104-0.049
		c-0.088-0.317-0.05-0.463,0.166-0.647c0.124-0.103,0.26-0.189,0.311-0.183c0.042,0.003,0.223,0.173,0.392,0.366l0.314,0.356
		l0.227-0.203c0.127-0.112,0.244-0.183,0.29-0.163c0.082,0.029,0.336-0.133,0.429-0.276c0.067-0.114-0.038-0.331-0.426-0.874
		c-0.257-0.363-0.296-0.456-0.303-0.729c-0.031-0.636,0.43-1.237,1.043-1.374c0.268-0.063,1.063,0.07,1.405,0.226
		c0.088,0.041,0.345,0.277,0.56,0.527c0.218,0.251,0.484,0.534,0.593,0.627l0.201,0.166l2.565-1.899l2.565-1.908l0.221,0.028
		c0.156,0.02,0.241-0.01,0.29-0.09c0.068-0.107,0.042-0.161-0.628-1.055c-0.859-1.142-0.863-1.149-0.319-1.502
		c0.384-0.251,0.427-0.241,0.892,0.137c0.449,0.366,1.921,2.16,2.09,2.545c0.163,0.381,0.293,0.441,0.41,0.194
		c0.056-0.109,0.202-0.236,0.495-0.427c0.234-0.146,1.458-1.009,2.715-1.917c1.263-0.906,2.38-1.709,2.48-1.786
		c0.169-0.114,0.231-0.12,0.403-0.034c0.273,0.13,0.84,0.871,0.905,1.17l0.039,0.207l-2.103,1.59
		c-1.159,0.871-2.136,1.616-2.182,1.657c-0.059,0.051-0.055,0.112,0.02,0.21c0.111,0.144,0.15,0.459,0.072,0.52
		c-0.023,0.018-0.209,0.003-0.414-0.026c-0.299-0.047-0.361-0.041-0.354,0.054c0.007,0.1-0.026,0.116-0.212,0.14
		c-0.123,0.02-0.27,0.067-0.328,0.106c-0.056,0.044-0.17,0.088-0.241,0.101c-0.163,0.02-0.364,0.233-0.306,0.316
		c0.02,0.028,0.234,0.08,0.481,0.117c0.442,0.063,0.449,0.07,0.681,0.376c0.367,0.501,0.664,1.078,0.647,1.278
		c-0.02,0.143,0.059,0.286,0.469,0.875c0.271,0.387,0.495,0.757,0.518,0.82c0.042,0.165-0.146,0.414-0.342,0.448
		c-0.29,0.049-0.527-0.077-1.062-0.563c-0.789-0.721-0.655-0.744-2.098,0.36l-1.194,0.9l0.055,0.277
		c0.062,0.299-0.02,0.216,1.195,1.25c0.273,0.232,0.586,0.612,1.507,1.839c1.491,1.984,2.188,3.024,2.175,3.225
		c-0.033,0.242-0.404,0.624-1.159,1.146c-0.706,0.489-1.179,0.709-1.465,0.67c-0.11-0.013-0.332-0.276-1.468-1.803
		c-1.611-2.156-1.931-2.681-2.549-4.194c-0.156-0.385-0.229-0.493-0.378-0.599l-0.188-0.13l-0.463,0.306
		c-0.247,0.167-0.508,0.333-0.569,0.371c-0.056,0.036-0.163,0.149-0.244,0.243c-0.124,0.156-0.13,0.203-0.029,0.366
		c0.062,0.108,0.11,0.26,0.098,0.344c-0.017,0.194-0.244,0.356-0.452,0.321c-0.215-0.047-0.358,0.063-0.3,0.223
		c0.02,0.067,0.02,0.15-0.013,0.178c-0.254,0.232-0.361,0.29-0.566,0.28c-0.287-0.021-0.346,0.026-0.378,0.306
		c-0.02,0.19-0.056,0.237-0.231,0.333c-0.117,0.054-0.279,0.083-0.354,0.054c-0.195-0.063-0.41,0.106-0.349,0.267
		c0.095,0.232-0.303,0.525-0.615,0.452c-0.188-0.039-0.416,0.104-0.332,0.217c0.065,0.083-0.059,0.324-0.228,0.447
		c-0.056,0.042-0.198,0.059-0.312,0.04c-0.276-0.054-0.501,0.107-0.403,0.28c0.059,0.107,0.039,0.156-0.137,0.308
		c-0.166,0.144-0.241,0.169-0.42,0.137c-0.283-0.054-0.505,0.1-0.407,0.28c0.065,0.112,0.046,0.143-0.166,0.279
		c-0.134,0.087-0.29,0.157-0.349,0.15c-0.062,0-0.113,0.013-0.113,0.032c-0.004,0.018,0.27,0.42,0.605,0.891
		c0.713,1.002,0.765,1.165,0.533,1.634c-0.137,0.273-0.191,0.319-1.553,1.341l-1.414,1.062l1.521,2.012
		c1.447,1.914,1.528,2.012,1.746,2.103c0.173,0.068,0.264,0.153,0.375,0.342c0.179,0.303,0.169,0.375-0.065,0.609l-0.183,0.176
		l0.827,1.178c0.455,0.645,1.445,2.016,2.2,3.047c0.762,1.029,1.387,1.908,1.394,1.96
		C157.634,167.692,157.317,167.937,156.511,168.509z"/>
	
		<linearGradient id="SVGID_2_" gradientUnits="userSpaceOnUse" x1="732" y1="949.6982" x2="732" y2="903.0312" gradientTransform="matrix(1 0 0 1 -582 -776)">
		<stop  offset="0" style="stop-color:#000000;stop-opacity:0.35"/>
		<stop  offset="0.0975" style="stop-color:#060606;stop-opacity:0.3159"/>
		<stop  offset="0.2216" style="stop-color:#151515;stop-opacity:0.2724"/>
		<stop  offset="0.36" style="stop-color:#2F2F2F;stop-opacity:0.224"/>
		<stop  offset="0.5088" style="stop-color:#545454;stop-opacity:0.1719"/>
		<stop  offset="0.6661" style="stop-color:#838383;stop-opacity:0.1169"/>
		<stop  offset="0.8304" style="stop-color:#BCBCBC;stop-opacity:0.0594"/>
		<stop  offset="0.9977" style="stop-color:#FEFEFE;stop-opacity:8.182824e-04"/>
		<stop  offset="1" style="stop-color:#FFFFFF;stop-opacity:0"/>
	</linearGradient>
	<rect x="126.667" y="127.031" fill="url(#SVGID_2_)" width="46.667" height="46.667"/>
	
		<linearGradient id="SVGID_3_" gradientUnits="userSpaceOnUse" x1="732" y1="949.6982" x2="732" y2="903.0312" gradientTransform="matrix(1 0 0 1 -582 -776)">
		<stop  offset="0" style="stop-color:#000000;stop-opacity:0"/>
		<stop  offset="0.3726" style="stop-color:#020202;stop-opacity:0.205"/>
		<stop  offset="0.5069" style="stop-color:#090909;stop-opacity:0.2788"/>
		<stop  offset="0.6026" style="stop-color:#141414;stop-opacity:0.3314"/>
		<stop  offset="0.68" style="stop-color:#252525;stop-opacity:0.374"/>
		<stop  offset="0.7463" style="stop-color:#3B3B3B;stop-opacity:0.4104"/>
		<stop  offset="0.805" style="stop-color:#575757;stop-opacity:0.4427"/>
		<stop  offset="0.8581" style="stop-color:#777777;stop-opacity:0.472"/>
		<stop  offset="0.9069" style="stop-color:#9D9D9D;stop-opacity:0.4988"/>
		<stop  offset="0.9523" style="stop-color:#C8C8C8;stop-opacity:0.5238"/>
		<stop  offset="0.9926" style="stop-color:#F6F6F6;stop-opacity:0.5459"/>
		<stop  offset="1" style="stop-color:#FFFFFF;stop-opacity:0.55"/>
	</linearGradient>
	<rect x="126.667" y="127.031" fill="url(#SVGID_3_)" width="46.667" height="46.667"/>
</g>
</svg>
