<?xml version="1.0" encoding="utf-8"?>
<!-- Generator: Adobe Illustrator 15.1.0, SVG Export Plug-In . SVG Version: 6.00 Build 0)  -->
<!DOCTYPE svg PUBLIC "-//W3C//DTD SVG 1.1//EN" "http://www.w3.org/Graphics/SVG/1.1/DTD/svg11.dtd">
<svg version="1.1" id="Layer_1" xmlns="http://www.w3.org/2000/svg" xmlns:xlink="http://www.w3.org/1999/xlink" x="0px" y="0px"
	 width="50px" height="50px" viewBox="125 125 50 50" enable-background="new 125 125 50 50" xml:space="preserve">
<g id="Sword">
	<g>
		<rect x="126.667" y="126.667" fill="#660000" width="46.667" height="46.667"/>
		<g id="stroke_6_">
			<path fill="#660000" d="M173.333,126.667v46.667h-46.667v-46.667H173.333 M175,125h-1.136h-45.456H125v1.137v45.453V175h3.408
				h45.456H175v-3.41v-45.453V125L175,125z"/>
			
				<linearGradient id="SVGID_1_" gradientUnits="userSpaceOnUse" x1="732" y1="936" x2="732" y2="886" gradientTransform="matrix(1 0 0 1 -582 -761)">
				<stop  offset="0" style="stop-color:#333333;stop-opacity:0.3"/>
				<stop  offset="0.2701" style="stop-color:#353535;stop-opacity:0.4215"/>
				<stop  offset="0.4166" style="stop-color:#3D3D3D;stop-opacity:0.4875"/>
				<stop  offset="0.5336" style="stop-color:#4B4B4B;stop-opacity:0.5401"/>
				<stop  offset="0.635" style="stop-color:#5E5E5E;stop-opacity:0.5857"/>
				<stop  offset="0.7262" style="stop-color:#787878;stop-opacity:0.6268"/>
				<stop  offset="0.8101" style="stop-color:#979797;stop-opacity:0.6646"/>
				<stop  offset="0.8885" style="stop-color:#BBBBBB;stop-opacity:0.6998"/>
				<stop  offset="0.9606" style="stop-color:#E5E5E5;stop-opacity:0.7323"/>
				<stop  offset="1" style="stop-color:#FFFFFF;stop-opacity:0.75"/>
			</linearGradient>
			<path fill="url(#SVGID_1_)" d="M173.333,126.667v46.667h-46.667v-46.667H173.333 M175,125h-1.136h-45.456H125v1.137v45.453V175
				h3.408h45.456H175v-3.41v-45.453V125L175,125z"/>
		</g>
	</g>
	<g id="Sword_1_">
		<path fill="#231F20" d="M158.027,141.5l10.124-10.63c0.006-0.003,0.006-0.007,0.003-0.013c-0.007-0.009-0.015-0.019-0.021-0.027
			c-0.01-0.022-0.02-0.049-0.027-0.073c-0.034-0.122-0.01-0.264,0.086-0.362l1.596-1.672l0,0l0,0
			c0.071-0.073,0.167-0.111,0.262-0.115c0.095-0.001,0.192,0.032,0.267,0.104l0,0l0,0l1.462,1.393l0,0l0,0
			c0.075,0.07,0.112,0.168,0.114,0.262c0.003,0.098-0.032,0.193-0.101,0.268l0,0l0,0l-1.596,1.671l0,0l0,0
			c-0.016,0.019-0.035,0.035-0.059,0.049c-0.02,0.015-0.042,0.025-0.064,0.037c-0.111,0.042-0.234,0.039-0.336-0.023
			c-0.006-0.003-0.01-0.001-0.013,0l-10.127,10.626c-0.004,0.005-0.007,0.008-0.002,0.016c0.038,0.06,0.059,0.129,0.062,0.198
			c0,0.099-0.034,0.194-0.102,0.269l0,0h-0.004l-0.301,0.315c-0.004,0.003-0.004,0.011-0.002,0.016
			c0.081,0.104,0.153,0.201,0.225,0.299c0.075,0.116,0.144,0.215,0.205,0.323c0.317,0.535,0.42,0.971,0.231,1.171l0,0l0,0l0,0
			c-0.034,0.037-0.082,0.066-0.132,0.083l0.001,0.002l-0.001,0.001l0,0l0,0c-0.07,0.065-0.151,0.104-0.248,0.125
			c-0.094,0.018-0.2,0.016-0.317-0.003c-0.354-0.058-0.807-0.293-1.305-0.652c-0.007-0.003-0.013-0.003-0.02,0l-0.713,0.754l0,0l0,0
			c-0.031,0.028-0.065,0.045-0.104,0.045c-0.035,0-0.073-0.012-0.104-0.042l0,0l0,0l-0.062-0.062
			c-0.003-0.002-0.01-0.002-0.011-0.002c-0.005,0-0.009,0-0.009,0.002c-2.38,2.575-4.824,5.112-7.3,7.608
			c-2.487,2.509-5.001,4.987-7.516,7.443c-4.732,4.617-7.664,7.326-9.684,8.828c-2.036,1.502-3.159,1.782-4.27,1.533l-0.059-0.018
			c-0.005,0-0.008,0-0.008-0.004c0-0.005,0.001-0.01,0.003-0.016l0.051-0.036c6.024-4.339,16.217-14.871,22.372-21.505
			c1.195-1.293,2.238-2.435,3.068-3.355c0.803-0.893,1.408-1.576,1.76-1.986c0.004-0.006,0.004-0.013,0-0.018l-0.065-0.059l0,0l0,0
			c-0.029-0.029-0.04-0.065-0.042-0.104c-0.002-0.037,0.012-0.077,0.039-0.106l0,0l0,0l0.726-0.762
			c0.005-0.005,0.007-0.01,0.004-0.016c-0.188-0.243-0.342-0.481-0.463-0.695c-0.276-0.514-0.354-0.929-0.171-1.133
			c0.002-0.001,0.002-0.001,0.005-0.005c0.014-0.053,0.039-0.1,0.075-0.14l0,0l0,0l0,0l0,0c0.039-0.041,0.091-0.07,0.146-0.089
			c0.059-0.018,0.124-0.023,0.192-0.022c0.352,0.014,0.889,0.264,1.487,0.685c0.002,0.002,0.007,0.002,0.01-0.001l0.303-0.316l0,0
			l0,0c0.076-0.075,0.171-0.112,0.267-0.117c0.068,0,0.137,0.017,0.195,0.05C158.018,141.503,158.021,141.503,158.027,141.5z"/>
		<path fill="#231F20" d="M158.812,142.249l0.723,0.688c0.004,0.005,0.014,0.003,0.014,0l1.126-1.182
			c0.007-0.002,0.007-0.006,0.005-0.011c0-0.001,0-0.001-0.005-0.004c-0.29-0.185-0.549-0.389-0.788-0.615l-0.068,0.071
			c0,0,0.004,0.002,0,0.006l0.007,0.017l0.222,0.972l0.008,0.041c0.003,0.002,0.003,0.003,0,0.007
			c-0.005,0.001-0.012,0.005-0.015,0.005L160,142.235l-0.979-0.173h-0.021c0,0-0.004-0.002-0.004-0.005L158.812,142.249
			L158.812,142.249z M159.939,141.065l0.061-0.062c0,0,0.007,0.002,0.007,0l0.02,0.005l0.979,0.172l0.042,0.006
			c0.004,0.003,0.007,0.003,0.007,0c0.003-0.002,0.007-0.008,0.003-0.008l-0.006-0.042l-0.222-0.972l-0.005-0.022
			c0,0-0.002-0.001-0.003-0.003l0.057-0.06c0.238,0.227,0.502,0.432,0.788,0.615c0.003,0.003,0.007,0.005,0.003,0.006
			c0.004,0.005,0.004,0.008,0,0.01l-0.924,0.97c0,0.001-0.007,0.003-0.017,0C160.442,141.497,160.179,141.295,159.939,141.065
			L159.939,141.065z M160.931,140.025c0.243,0.225,0.505,0.433,0.796,0.614c0.007,0.002,0.012,0.002,0.017,0l0.933-0.98
			c0-0.001,0.004-0.004,0-0.01c0-0.001,0-0.003-0.003-0.003c-0.29-0.188-0.551-0.394-0.788-0.618l-0.056,0.055l0.004,0.003
			l0.003,0.018l0.222,0.972l0.008,0.042c0.003,0.004,0,0.009,0,0.011c-0.005,0.001-0.008,0.005-0.011,0.001l-0.041-0.005
			l-0.98-0.173l-0.021-0.004l-0.004-0.001L160.931,140.025L160.931,140.025z M161.936,138.971l0.079-0.081
			c0,0.001,0.004,0.003,0.005,0.001l0.019,0.003l0.979,0.175l0.041,0.007c0.004,0.001,0.008,0,0.011-0.005
			c0.004-0.002,0.004-0.005,0-0.008l-0.005-0.04l-0.223-0.973l-0.004-0.017c0,0-0.003-0.003-0.004-0.005l0.064-0.065
			c0.239,0.226,0.5,0.431,0.788,0.615c0.005,0,0.005,0.003,0.005,0.005c0,0.003,0,0.008-0.004,0.012l-0.943,0.991
			c-0.004,0.001-0.01,0.001-0.013,0C162.438,139.403,162.175,139.2,161.936,138.971L161.936,138.971z M162.949,137.905
			c0.244,0.226,0.506,0.43,0.798,0.616c0.005,0.004,0.01,0.004,0.013,0l0.938-0.985c0-0.001,0.003-0.006,0-0.008
			c0-0.005,0-0.005-0.004-0.008c-0.286-0.184-0.55-0.389-0.787-0.617l-0.065,0.068c0.003,0,0.003,0.003,0.003,0.003l0.004,0.02
			l0.225,0.972l0.008,0.041c0,0.005,0,0.007-0.005,0.012c-0.003,0.001-0.006,0.001-0.01,0.001l-0.037-0.008l-0.983-0.171
			l-0.021-0.005c0,0.001-0.004,0-0.007,0L162.949,137.905L162.949,137.905z M163.957,136.848l0.069-0.072
			c0,0.002,0.004,0.003,0.004,0.003l0.02,0.003l0.982,0.175l0.039,0.003c0.004,0.002,0.009,0,0.013-0.003c0-0.001,0-0.005,0-0.008
			l-0.008-0.04l-0.221-0.972l-0.005-0.016c0.001-0.002-0.004-0.004-0.004-0.006l0.066-0.068c0.238,0.224,0.502,0.429,0.79,0.614
			c0.003,0.001,0.003,0.003,0.003,0.005c0.002,0.003,0,0.008-0.002,0.01l-0.938,0.985c-0.004,0.003-0.007,0.003-0.014,0
			C164.461,137.28,164.199,137.075,163.957,136.848L163.957,136.848z M164.964,135.79c0.243,0.228,0.507,0.43,0.8,0.615
			c0.003,0.004,0.01,0.001,0.013,0l0.936-0.981c0.004-0.002,0.004-0.005,0.004-0.01c0-0.001,0-0.003-0.004-0.004
			c-0.286-0.186-0.55-0.391-0.792-0.617l-0.063,0.07l0.003,0.003l0.003,0.019l0.225,0.972l0.009,0.042
			c0.002,0.003-0.002,0.008-0.005,0.01c-0.004,0.005-0.004,0.005-0.01,0.005l-0.039-0.008l-0.981-0.173l-0.018-0.005
			c-0.004,0-0.007,0-0.011-0.001L164.964,135.79L164.964,135.79z M165.974,134.733l0.064-0.068c0,0.002,0.004,0.003,0.004,0.002
			l0.022,0.003l0.98,0.174l0.042,0.007c0.003,0,0.007,0,0.01-0.003c0.002-0.002,0.003-0.007,0.002-0.011l-0.009-0.04l-0.225-0.97
			l-0.001-0.02c0,0-0.002-0.003-0.005-0.005l0.055-0.055c0.238,0.226,0.502,0.431,0.788,0.617c0.003,0,0.003,0.003,0.003,0.006
			c0.002,0.003,0,0.008-0.001,0.01l-0.923,0.968c-0.004,0.003-0.01,0.006-0.017,0.003
			C166.475,135.167,166.211,134.962,165.974,134.733L165.974,134.733z M166.966,133.691c0.241,0.229,0.505,0.431,0.796,0.615
			c0.004,0.003,0.01,0.001,0.014,0l0.942-0.988c0.003-0.003,0.003-0.007,0-0.009c0.003-0.005,0-0.007-0.004-0.01
			c-0.286-0.183-0.55-0.388-0.788-0.612l-0.059,0.062c0,0.001,0,0.003,0,0.005l0.007,0.019l0.222,0.972l0.006,0.04
			c0.004,0.003,0.004,0.004,0,0.008c-0.003,0.003-0.006,0.005-0.01,0.003l-0.042-0.005l-0.979-0.175l-0.021-0.003
			c-0.004,0-0.007-0.001-0.007-0.003L166.966,133.691L166.966,133.691z M167.979,132.628l0.071-0.079
			c0,0.004,0.004,0.006,0.004,0.006l0.022,0.003l0.98,0.173l0.042,0.006c0.003,0,0.007,0,0.01,0
			c0.003-0.005,0.003-0.006,0.003-0.012l-0.008-0.04l-0.225-0.972l-0.004-0.02c0,0-0.001-0.003-0.003-0.003l0.066-0.072l0.72,0.692
			c0.005,0.003,0.005,0.011,0.003,0.015l-0.875,0.916c-0.004,0.006-0.007,0.006-0.01,0
			C168.483,133.06,168.216,132.855,167.979,132.628z M159.212,140.367l-1.126,1.18c0,0.002-0.004,0.012,0,0.015l0.726,0.688
			l0.183-0.192l-0.004-0.005l-0.003-0.016l-0.222-0.974l-0.01-0.042c0-0.003,0.004-0.01,0.004-0.012
			c0.003-0.001,0.006-0.001,0.01-0.003l0.042,0.008l0.979,0.175l0.02,0.001c0,0,0.004,0.002,0.007,0.003l0.068-0.072
			c-0.101-0.096-0.195-0.191-0.286-0.294c-0.062-0.072-0.127-0.145-0.186-0.22c-0.062-0.078-0.117-0.156-0.175-0.235l-0.006-0.01
			c-0.003,0-0.007-0.003-0.01-0.003C159.22,140.36,159.216,140.365,159.212,140.367L159.212,140.367z M168.938,131.62l-0.066,0.072
			c-0.002-0.001-0.005-0.003-0.005-0.003l-0.02-0.004l-0.979-0.174l-0.042-0.008c-0.004,0-0.007,0.002-0.014,0.003
			c0,0.004,0,0.006,0,0.007l0.01,0.042l0.22,0.975l0.007,0.017c-0.002,0,0,0.003,0.002,0.003l-0.072,0.079
			c-0.098-0.094-0.191-0.188-0.28-0.289c-0.064-0.073-0.123-0.146-0.182-0.22s-0.117-0.15-0.173-0.23l-0.02-0.023
			c-0.003-0.003,0-0.008,0.004-0.016l0.873-0.918c0.002-0.003,0.012-0.003,0.016,0L168.938,131.62L168.938,131.62z M167.927,132.687
			c-0.098-0.096-0.195-0.193-0.287-0.293c-0.064-0.072-0.123-0.145-0.186-0.222c-0.062-0.079-0.12-0.155-0.176-0.235l-0.01-0.01
			c0-0.002-0.003-0.005-0.006-0.005c-0.004,0-0.007,0-0.007,0.005l-0.94,0.986c-0.004,0.003-0.004,0.008,0,0.013l0.016,0.027
			c0.052,0.08,0.111,0.154,0.173,0.23c0.056,0.07,0.12,0.143,0.183,0.216c0.091,0.1,0.182,0.199,0.279,0.29l0.078-0.083
			c0-0.001-0.003-0.003-0.003-0.005l-0.003-0.019l-0.222-0.97l-0.012-0.042c0-0.002,0.004-0.006,0.007-0.01
			c0.003-0.002,0.005-0.002,0.007-0.002l0.042,0.006l0.983,0.174l0.016,0.004c0.002-0.001,0.005,0,0.009,0.002L167.927,132.687
			L167.927,132.687z M166.914,133.747l-0.056,0.055c0,0-0.003-0.004-0.003-0.002l-0.02-0.003l-0.983-0.175l-0.042-0.006
			c0,0-0.007,0.001-0.007,0.003c-0.003,0.003-0.006,0.006-0.006,0.008l0.013,0.042l0.222,0.972l0.003,0.018
			c0,0.001,0.002,0.005,0.003,0.005l-0.064,0.07c-0.098-0.093-0.192-0.188-0.28-0.288c-0.065-0.07-0.127-0.145-0.186-0.218
			c-0.059-0.07-0.114-0.15-0.173-0.229l-0.016-0.027c-0.007-0.003-0.004-0.008,0-0.013l0.924-0.969
			c0.002-0.001,0.005-0.003,0.007-0.003c0.003,0,0.007,0,0.01,0.003l0.007,0.01c0.055,0.079,0.114,0.155,0.176,0.232
			c0.062,0.078,0.123,0.149,0.186,0.224C166.716,133.555,166.812,133.653,166.914,133.747L166.914,133.747z M165.918,134.79
			c-0.098-0.095-0.192-0.192-0.283-0.293c-0.065-0.07-0.124-0.146-0.186-0.222s-0.119-0.153-0.176-0.233l-0.007-0.01
			c-0.003-0.001-0.005-0.004-0.01-0.004c-0.003,0-0.003,0.003-0.01,0.004l-0.934,0.983c-0.007,0.003-0.007,0.009,0,0.014
			l0.013,0.021c0.056,0.079,0.112,0.156,0.174,0.23c0.061,0.075,0.119,0.148,0.185,0.218c0.089,0.102,0.183,0.2,0.28,0.294
			l0.067-0.07c-0.003,0-0.003-0.001-0.003-0.005l-0.007-0.019l-0.216-0.972l-0.015-0.04c0.003-0.003,0.003-0.007,0.003-0.007
			c0.004-0.003,0.01-0.006,0.013-0.006l0.043,0.008l0.981,0.173h0.018c0,0,0.002,0.003,0.004,0.005L165.918,134.79L165.918,134.79z
			 M164.914,135.848l-0.067,0.068c0-0.002-0.003-0.003-0.003-0.002l-0.02-0.005l-0.979-0.176l-0.046-0.007
			c-0.003,0-0.007,0-0.01,0.002c0,0.003-0.004,0.006-0.004,0.013l0.011,0.04l0.221,0.972l0.007,0.019c0,0,0,0.003,0.003,0.003
			l-0.069,0.072c-0.097-0.091-0.19-0.191-0.278-0.292c-0.065-0.07-0.127-0.143-0.183-0.215c-0.062-0.076-0.121-0.152-0.173-0.232
			l-0.02-0.024c-0.003-0.006-0.003-0.015,0-0.016l0.937-0.982c0.003-0.001,0.006-0.001,0.01-0.003c0.003,0,0.003,0.002,0.008,0.003
			l0.007,0.006c0.054,0.08,0.108,0.158,0.172,0.232c0.062,0.079,0.124,0.149,0.186,0.222
			C164.715,135.653,164.814,135.752,164.914,135.848L164.914,135.848z M163.906,136.903c-0.101-0.094-0.195-0.19-0.286-0.29
			c-0.063-0.072-0.124-0.145-0.189-0.223c-0.059-0.077-0.115-0.155-0.172-0.234l-0.007-0.01c-0.003-0.003-0.007-0.005-0.01-0.005
			c0,0-0.007,0.002-0.007,0.003l-0.938,0.985c-0.003,0.003-0.003,0.009,0,0.014l0.017,0.026c0.052,0.077,0.112,0.153,0.174,0.229
			c0.058,0.073,0.119,0.145,0.181,0.22c0.095,0.098,0.186,0.197,0.28,0.287l0.068-0.07c0-0.002,0-0.007,0-0.009l-0.007-0.018
			l-0.218-0.972l-0.012-0.042c0-0.001,0-0.006,0.002-0.006c0.007-0.004,0.01-0.004,0.013-0.006l0.043,0.009l0.979,0.173l0.02,0.003
			c0,0,0.004,0,0.004,0.002L163.906,136.903L163.906,136.903z M162.898,137.963l-0.064,0.063c0-0.001-0.004-0.005-0.005-0.001
			l-0.02-0.003l-0.977-0.175l-0.044-0.008c0,0-0.005,0-0.009,0.003c-0.003,0.005-0.006,0.008-0.006,0.01l0.013,0.04l0.22,0.972
			l0.007,0.017c0,0.003,0,0.004,0.003,0.004l-0.08,0.082c-0.098-0.091-0.19-0.189-0.279-0.287c-0.065-0.071-0.126-0.146-0.185-0.22
			c-0.06-0.073-0.119-0.15-0.174-0.23l-0.017-0.027c-0.007-0.003-0.007-0.008,0-0.012l0.946-0.992c0.001,0,0.004-0.003,0.006-0.003
			c0.005-0.001,0.008,0.002,0.012,0.002l0.006,0.012c0.053,0.077,0.112,0.155,0.175,0.233c0.062,0.077,0.122,0.15,0.184,0.222
			C162.705,137.77,162.796,137.869,162.898,137.963L162.898,137.963z M161.883,139.027c-0.099-0.092-0.196-0.192-0.288-0.293
			c-0.062-0.07-0.123-0.144-0.186-0.22c-0.059-0.077-0.117-0.155-0.172-0.232l-0.01-0.01c0-0.005-0.007-0.005-0.01-0.005
			c0,0-0.004,0-0.007,0.003l-0.935,0.976c-0.003,0.005-0.003,0.011,0,0.018l0.019,0.022c0.055,0.081,0.11,0.157,0.174,0.234
			c0.056,0.07,0.117,0.145,0.183,0.216c0.091,0.099,0.181,0.197,0.279,0.289l0.075-0.079c0-0.002-0.003-0.003-0.003-0.003
			l-0.004-0.021l-0.22-0.972l-0.011-0.042c0,0,0.001-0.006,0.003-0.007c0.003-0.002,0.008-0.005,0.01-0.005l0.042,0.008l0.98,0.172
			l0.022,0.006c0,0,0.004,0,0.004,0.001L161.883,139.027L161.883,139.027z M160.879,140.078l-0.057,0.06
			c-0.002,0-0.005-0.001-0.005-0.001l-0.02-0.002l-0.98-0.176l-0.042-0.003c-0.002-0.002-0.007,0-0.01,0.001
			c-0.004,0.002-0.004,0.003-0.004,0.01l0.012,0.04l0.22,0.973l0.005,0.018c-0.002,0,0,0.004,0.002,0.008l-0.061,0.062
			c-0.1-0.09-0.19-0.187-0.281-0.286c-0.065-0.072-0.127-0.145-0.183-0.222c-0.062-0.073-0.119-0.149-0.173-0.226l-0.02-0.028
			c-0.003-0.005-0.003-0.01,0-0.014l0.925-0.97c0.004-0.005,0.007-0.005,0.01-0.005c0.002,0,0.005,0.005,0.007,0.007l0.01,0.01
			c0.052,0.077,0.11,0.156,0.173,0.232c0.062,0.077,0.123,0.15,0.186,0.223C160.684,139.89,160.778,139.989,160.879,140.078z"/>
		<path fill="#231F20" d="M159.746,141.26l-0.874-0.153c-0.005-0.003-0.008-0.003-0.011,0c0,0.001,0,0.01,0,0.011l0.195,0.867
			c0.003,0.001,0.006,0.005,0.01,0.005l0.872,0.155c0.003,0.002,0.008,0,0.013-0.001c0-0.003,0-0.005,0-0.011l-0.198-0.866
			C159.753,141.263,159.753,141.26,159.746,141.26L159.746,141.26z M167.796,132.813l-0.872-0.155c-0.007-0.002-0.01-0.004-0.013,0
			c0,0.003,0,0.008,0,0.011l0.195,0.867c0.003,0.005,0.006,0.006,0.01,0.008l0.872,0.155c0.004,0,0.007,0,0.013-0.005
			c0.002-0.002,0.002-0.003,0-0.007l-0.198-0.867C167.803,132.815,167.803,132.813,167.796,132.813L167.796,132.813z
			 M168.802,131.757l-0.872-0.157c-0.007,0-0.01,0-0.013,0.003c-0.004,0.001,0,0.005,0,0.01l0.198,0.867
			c0,0.005,0,0.007,0.007,0.007l0.872,0.154c0.003,0,0.006,0,0.01,0c0.003-0.003,0.003-0.006,0.003-0.013l-0.196-0.864
			C168.809,131.76,168.807,131.759,168.802,131.757L168.802,131.757z M166.79,133.868l-0.872-0.155
			c-0.007-0.001-0.01-0.001-0.013,0.001c-0.003,0.003-0.004,0.007,0,0.012l0.195,0.865c0,0.005,0.003,0.006,0.01,0.006l0.872,0.156
			c0.004,0.001,0.007,0,0.01-0.002c0.004-0.003,0.007-0.006,0.004-0.01l-0.199-0.867
			C166.797,133.872,166.794,133.868,166.79,133.868L166.79,133.868z M165.784,134.925l-0.87-0.157c-0.009,0-0.012,0-0.015,0.003
			c-0.004,0.002-0.004,0.006-0.004,0.012l0.198,0.863c0,0.005,0.004,0.008,0.01,0.008l0.869,0.155c0.009,0,0.011,0,0.012-0.001
			c0.002-0.002,0.008-0.01,0.004-0.013l-0.197-0.865C165.791,134.928,165.788,134.925,165.784,134.925L165.784,134.925z
			 M164.777,135.98l-0.874-0.153c-0.004-0.001-0.007-0.001-0.01,0c-0.004,0.003-0.004,0.008-0.004,0.011l0.198,0.865
			c0,0.005,0.004,0.006,0.007,0.008l0.872,0.155c0.007,0.002,0.01,0,0.014-0.003c0.003-0.001,0.003-0.003,0-0.006l-0.195-0.868
			C164.785,135.983,164.782,135.98,164.777,135.98L164.777,135.98z M163.772,137.037l-0.874-0.156c-0.005,0-0.008-0.001-0.015,0.002
			c0,0.001,0,0.006,0,0.01l0.199,0.865c0,0.007,0.003,0.009,0.006,0.009l0.876,0.155c0.003,0,0.007,0,0.008-0.002
			c0.004-0.005,0.004-0.006,0.004-0.011l-0.197-0.867C163.779,137.04,163.776,137.037,163.772,137.037L163.772,137.037z
			 M162.766,138.092l-0.874-0.153c-0.005-0.001-0.009-0.001-0.014,0c-0.003,0.003-0.003,0.008,0,0.012l0.199,0.866
			c0,0.003,0.003,0.005,0.005,0.007l0.874,0.153c0.003,0.002,0.01,0,0.013-0.003c0.002-0.003,0.002-0.005,0-0.008l-0.195-0.865
			C162.771,138.095,162.771,138.092,162.766,138.092L162.766,138.092z M161.758,139.149l-0.871-0.156
			c-0.005-0.001-0.011-0.001-0.015,0.002c-0.003,0.003-0.003,0.006,0,0.01l0.198,0.868c0,0.002,0.004,0.003,0.007,0.007l0.874,0.155
			c0.004,0,0.008,0,0.012-0.001c0-0.003,0.003-0.007,0-0.012l-0.199-0.865C161.765,139.152,161.765,139.149,161.758,139.149
			L161.758,139.149z M160.754,140.205l-0.876-0.153c-0.003-0.002-0.012-0.002-0.012,0c-0.003,0.002,0,0.007,0,0.012l0.199,0.865
			c0,0.005,0.001,0.008,0.006,0.008l0.872,0.157c0.004,0,0.011,0,0.012-0.004c0.002-0.001,0.004-0.008,0.002-0.01l-0.197-0.868
			C160.759,140.208,160.757,140.207,160.754,140.205z"/>
		<path fill="#231F20" d="M159.489,143.001l-1.462-1.393l0,0l0,0c-0.062-0.055-0.137-0.082-0.215-0.078
			c-0.075,0-0.153,0.031-0.208,0.09h0.003l0,0l-0.521,0.545l0,0h-0.002c-0.051,0.06-0.081,0.138-0.08,0.211
			c0.002,0.078,0.033,0.152,0.09,0.21l0,0l0,0l1.462,1.393l0,0l0,0c0.059,0.056,0.137,0.083,0.216,0.083v-0.003
			c0.075,0,0.15-0.033,0.209-0.092l0,0l0,0l0.518-0.544l0,0l0,0c0.055-0.059,0.083-0.138,0.081-0.208
			C159.58,143.133,159.548,143.057,159.489,143.001L159.489,143.001L159.489,143.001z"/>
		<path fill="#231F20" d="M170.54,131.82l-1.875-1.79c-0.003-0.002-0.01-0.003-0.016,0l-0.397,0.418
			c-0.073,0.079-0.098,0.188-0.068,0.289c0.003,0.017,0.012,0.035,0.02,0.054c0.01,0.021,0.025,0.037,0.039,0.053l0,0l0,0l0,0
			l0.005,0.006l0,0l0.006,0.007l0,0l0.005,0.006l0,0l0.004,0.002l0,0l1.461,1.393c0.004,0.003,0.011,0.01,0.012,0.011
			c0.005,0.004,0.012,0.007,0.015,0.011l0,0l0.007,0.005l0,0c0.084,0.062,0.195,0.07,0.289,0.031
			c0.019-0.007,0.034-0.014,0.053-0.028c0.016-0.011,0.034-0.025,0.045-0.04l0,0l0,0l0.397-0.417
			C170.545,131.83,170.544,131.823,170.54,131.82L170.54,131.82z M169.453,129.202l1.875,1.788c0.003,0.004,0.01,0.004,0.017,0
			l0.391-0.411l0,0l0,0c0.059-0.06,0.083-0.137,0.083-0.211c-0.004-0.076-0.034-0.152-0.093-0.208l0,0l0,0l-1.462-1.396l0,0l0,0
			c-0.059-0.055-0.137-0.082-0.212-0.082c-0.078,0.003-0.152,0.033-0.208,0.094l0.002,0.001l0,0l-0.393,0.41
			C169.45,129.192,169.45,129.2,169.453,129.202z"/>
		<path fill="#231F20" d="M168.718,129.975l1.875,1.789c0.006,0.003,0.013,0.001,0.02-0.002l0.276-0.292
			c0.003-0.005,0.003-0.013,0-0.018l-1.875-1.789c-0.003-0.001-0.01-0.001-0.017,0.002l-0.279,0.295
			C168.714,129.965,168.714,129.972,168.718,129.975L168.718,129.975z M171.276,131.048l-1.879-1.79c0-0.003-0.01-0.003-0.013,0.001
			l-0.319,0.333c-0.003,0.005-0.003,0.014,0,0.015l1.879,1.79c0.003,0.003,0.013,0.001,0.018-0.002l0.314-0.333
			C171.279,131.058,171.279,131.052,171.276,131.048z"/>
		<path fill="#231F20" d="M159.411,144.154c-0.065-0.09-0.134-0.191-0.212-0.288c-0.004-0.001-0.004-0.003-0.007-0.003
			s-0.006,0-0.011,0.001l-0.146,0.155l0,0l0,0c-0.075,0.078-0.171,0.117-0.263,0.118l0,0c-0.096,0.001-0.195-0.033-0.267-0.105l0,0
			l0,0l-1.462-1.39l0,0l0,0c-0.074-0.072-0.114-0.168-0.117-0.263c-0.003-0.097,0.034-0.195,0.103-0.27l0,0l0,0l0.148-0.154
			c0.003-0.001,0.003-0.004,0.003-0.011c0.004,0,0-0.001-0.003-0.003c-0.581-0.407-1.097-0.646-1.429-0.658
			c-0.065-0.005-0.121,0.003-0.17,0.017c-0.045,0.016-0.085,0.039-0.114,0.068l0,0l0,0l0,0l0,0c-0.159,0.165-0.064,0.55,0.219,1.037
			c0.288,0.499,0.771,1.099,1.38,1.681l0,0l0,0l0.004,0.001l0,0c0.608,0.583,1.23,1.033,1.741,1.296
			c0.498,0.26,0.889,0.335,1.048,0.168l0,0l0,0l0,0c0.163-0.171,0.056-0.575-0.244-1.082
			C159.551,144.365,159.485,144.259,159.411,144.154z"/>
		<path fill="#231F20" d="M157.116,145.858l0.709-0.744c0.004-0.001,0.005-0.005,0.005-0.006c0-0.005,0-0.007-0.005-0.007
			c-0.309-0.23-0.631-0.505-0.955-0.813l0,0l0,0l0,0c-0.317-0.309-0.605-0.62-0.843-0.922c-0.002-0.005-0.005-0.005-0.009-0.005
			c-0.003,0-0.01,0-0.013,0.003l-0.715,0.752l0,0l0,0c-0.015,0.016-0.021,0.033-0.018,0.053c0,0.015,0.007,0.033,0.02,0.045l0,0
			l0.002,0.001l1.725,1.647l0,0l0,0c0.016,0.011,0.031,0.016,0.051,0.016C157.088,145.876,157.103,145.872,157.116,145.858
			L157.116,145.858L157.116,145.858z"/>
		<path fill="#231F20" d="M128.922,171.267c0.871-0.028,1.876-0.459,3.413-1.596c2.018-1.49,4.952-4.209,9.68-8.823
			c2.511-2.457,5.03-4.932,7.511-7.436c2.478-2.507,4.922-5.036,7.303-7.609c0.007-0.006,0.007-0.013,0-0.018l-0.074-0.071
			c-0.002-0.003-0.007-0.003-0.009-0.003c-0.006,0.003-0.006,0.003-0.01,0.004c-2.378,2.575-4.822,5.107-7.296,7.61
			c-2.485,2.505-4.999,4.982-7.514,7.435c-4.025,3.925-6.747,6.479-8.719,8.072c-1.966,1.59-3.191,2.232-4.205,2.343
			c0,0.005,0,0.005-0.004,0.005c-0.029,0.021-0.058,0.041-0.085,0.067c-0.003,0.005-0.005,0.013-0.003,0.013
			C128.91,171.265,128.915,171.27,128.922,171.267z"/>
		<path fill="#231F20" d="M155.358,144.402c-0.351,0.408-0.954,1.091-1.755,1.983c-0.832,0.921-1.873,2.062-3.072,3.359
			c-5.923,6.386-15.598,16.389-21.689,21.003c-0.003,0.007-0.005,0.013-0.003,0.018c0,0.005,0.005,0.005,0.01,0.005
			c0.965-0.171,2.146-0.822,3.985-2.307c1.971-1.598,4.693-4.144,8.713-8.066c2.515-2.457,5.029-4.931,7.517-7.444
			c2.473-2.492,4.918-5.025,7.297-7.599c0.004-0.003,0.004-0.013,0-0.015l-0.986-0.937c0-0.003-0.003-0.003-0.006-0.003
			C155.364,144.4,155.361,144.4,155.358,144.402z"/>
		<path fill="#231F20" d="M158.772,142.215l0.762,0.722c0.004,0.005,0.014,0.003,0.014,0l1.126-1.182
			c0.007-0.002,0.007-0.006,0.005-0.011c0-0.001,0-0.001-0.005-0.004l-0.034-0.025l-1.086,1.139
			c-0.003,0.005-0.01,0.006-0.016,0.001l-0.723-0.688L158.772,142.215L158.772,142.215z M159.753,141.182l0.065-0.07
			c0.003,0.001,0.003,0.005,0.006,0.006l0.004,0.017l0.218,0.972l0.011,0.042c0.004,0.002,0,0.007,0,0.01
			c-0.003,0.002-0.008,0.002-0.014,0.002h-0.004l-0.215-0.943l-0.007-0.017c0-0.005,0-0.01-0.006-0.009l-0.02-0.002L159.753,141.182
			L159.753,141.182z M159.899,141.029l0.039-0.045c0.24,0.23,0.508,0.434,0.794,0.62c0.007,0,0.013,0,0.013-0.002l0.886-0.93
			l0.036,0.023c0.003,0.003,0.006,0.005,0.003,0.007c0.004,0.004,0.004,0.008,0,0.01l-0.925,0.97c0,0.002-0.006,0.003-0.016,0
			C160.427,141.492,160.149,141.272,159.899,141.029L159.899,141.029z M160.759,140.125l0.039,0.01l0.02,0.001
			c0.005,0,0.006,0.002,0.008,0.007l0.005,0.022l0.215,0.945h0.003c0.007,0,0.01,0,0.014-0.007c0.003-0.001,0-0.003-0.002-0.006
			l-0.008-0.044l-0.219-0.972l-0.006-0.018c0-0.005,0-0.005-0.004-0.006L160.759,140.125L160.759,140.125z M160.892,139.983
			c0.254,0.243,0.531,0.467,0.834,0.656c0.006,0.002,0.011,0.002,0.017,0l0.931-0.98c0.003-0.001,0.003-0.004,0.003-0.01
			c0-0.001,0-0.003-0.003-0.003l-0.036-0.025l-0.895,0.937c-0.002,0.001-0.009,0.001-0.011,0.001
			c-0.291-0.185-0.555-0.39-0.797-0.618L160.892,139.983L160.892,139.983z M161.765,139.07l0.068-0.07c0,0.001,0,0.003,0.003,0.005
			l0.004,0.022l0.218,0.968l0.015,0.042c0,0.005,0,0.008-0.004,0.01c-0.003,0.006-0.008,0.006-0.011,0.002h-0.007l-0.215-0.943
			l-0.006-0.018c0-0.003,0-0.006-0.007-0.006l-0.021-0.005L161.765,139.07L161.765,139.07z M161.897,138.933l0.039-0.045
			c0.241,0.229,0.503,0.432,0.798,0.615c0,0.002,0.007,0.002,0.01,0l0.905-0.952l0.037,0.025c0.005,0,0.005,0.003,0.005,0.004
			c0,0.003,0,0.008-0.003,0.013l-0.944,0.991c-0.003,0.002-0.01,0.002-0.013,0C162.425,139.397,162.146,139.175,161.897,138.933
			L161.897,138.933z M162.771,138.014l0.039,0.008l0.02,0.003c0.005,0,0.01,0.002,0.01,0.008l0.003,0.017l0.217,0.943l0.005,0.001
			c0.003,0,0.006-0.001,0.008-0.003c0.005-0.001,0.005-0.008,0.005-0.011l-0.013-0.04l-0.219-0.972l-0.006-0.019
			c0-0.003,0-0.003-0.004-0.007L162.771,138.014L162.771,138.014z M162.913,137.867c0.247,0.245,0.527,0.459,0.832,0.654
			c0.005,0.004,0.01,0.004,0.013,0l0.939-0.985c0-0.001,0.003-0.006,0-0.008c0-0.005,0-0.005-0.004-0.008l-0.035-0.025l-0.898,0.945
			c-0.004,0.003-0.009,0.003-0.014,0.003c-0.289-0.185-0.553-0.392-0.794-0.62L162.913,137.867L162.913,137.867z M163.779,136.956
			l0.062-0.068c0.004,0.001,0.004,0.001,0.007,0.007l0.003,0.018l0.222,0.972l0.012,0.04c0.001,0.003,0,0.012-0.005,0.014
			c-0.004,0-0.007,0.003-0.01,0h-0.007l-0.215-0.944l-0.003-0.02c0-0.003-0.004-0.005-0.007-0.006l-0.02-0.003L163.779,136.956
			L163.779,136.956z M163.919,136.81l0.039-0.044c0.241,0.228,0.508,0.433,0.798,0.617c0.003,0,0.01,0,0.013-0.001l0.898-0.942
			l0.036,0.023c0.003,0.001,0.003,0.003,0.003,0.005c0.002,0.003,0,0.008-0.001,0.01l-0.939,0.986c-0.003,0.003-0.007,0.003-0.013,0
			C164.446,137.271,164.172,137.052,163.919,136.81L163.919,136.81z M164.783,135.902l0.041,0.006l0.02,0.005
			c0.003,0,0.007,0.001,0.007,0.006l0.005,0.017l0.215,0.943h0.003c0.005,0.001,0.011,0,0.011-0.003
			c0.004-0.001,0.004-0.003,0.004-0.008l-0.01-0.042l-0.222-0.97l-0.003-0.019c-0.004-0.001-0.002-0.003-0.007-0.004
			L164.783,135.902L164.783,135.902z M164.927,135.752c0.253,0.243,0.529,0.463,0.835,0.653c0.004,0.004,0.01,0.001,0.013,0
			l0.938-0.981c0-0.002,0-0.005,0-0.01c0-0.001,0-0.003-0.003-0.004l-0.034-0.025l-0.896,0.94c-0.006,0.003-0.01,0.005-0.015,0.002
			c-0.291-0.184-0.555-0.387-0.797-0.617L164.927,135.752L164.927,135.752z M165.791,134.847l0.065-0.07c0,0,0,0,0.003,0.005
			l0.007,0.018l0.218,0.972l0.012,0.042c0,0.005,0,0.007-0.005,0.012c0,0.001-0.007,0.003-0.01,0.001h-0.004l-0.218-0.945
			l-0.003-0.019c0-0.003-0.004-0.005-0.007-0.008h-0.018L165.791,134.847L165.791,134.847z M165.935,134.695l0.038-0.042
			c0.241,0.227,0.509,0.433,0.798,0.617c0.004,0.002,0.01,0,0.013-0.005l0.883-0.927l0.035,0.025c0.004,0,0.004,0.003,0.004,0.007
			c0.002,0.003,0,0.008-0.002,0.01l-0.923,0.968c-0.003,0.003-0.01,0.007-0.017,0.003
			C166.463,135.156,166.184,134.94,165.935,134.695L165.935,134.695z M166.797,133.788l0.039,0.008l0.02,0.003
			c0.003,0,0.006,0.004,0.008,0.007l0.002,0.02l0.218,0.941h0.004c0.003,0.001,0.006,0.001,0.01,0
			c0.003-0.001,0.003-0.005,0.003-0.011l-0.01-0.042l-0.22-0.969l-0.005-0.019c-0.003-0.003-0.003-0.003-0.005-0.005
			L166.797,133.788L166.797,133.788z M166.927,133.651c0.251,0.244,0.527,0.461,0.834,0.654c0.003,0.003,0.01,0.001,0.013,0
			l0.94-0.988c0.007-0.004,0.007-0.007,0.004-0.009c0.003-0.005,0-0.006-0.004-0.01l-0.035-0.022l-0.903,0.947
			c-0.004,0.001-0.007,0.001-0.014,0.001c-0.294-0.184-0.553-0.389-0.799-0.617L166.927,133.651L166.927,133.651z M167.803,132.733
			l0.065-0.068c0.003,0.002,0,0.003,0.003,0.007l0.004,0.019l0.225,0.969l0.008,0.042c0,0.003,0,0.007-0.005,0.01
			c0,0.001-0.003,0.003-0.01,0.001h-0.003l-0.215-0.943l-0.007-0.019c0-0.003-0.004-0.006-0.009-0.006l-0.016-0.005L167.803,132.733
			L167.803,132.733z M167.939,132.59l0.041-0.045c0.242,0.23,0.504,0.435,0.796,0.62c0.003,0.001,0.01,0.001,0.013-0.003l0.84-0.881
			l0.031,0.033c0.005,0.003,0.005,0.012,0.003,0.015l-0.874,0.917c-0.003,0.006-0.01,0.006-0.013,0
			C168.469,133.052,168.19,132.835,167.939,132.59L167.939,132.59z M168.809,131.677l0.039,0.008l0.02,0.004
			c0.005,0,0.007,0.003,0.008,0.007l0.004,0.02l0.216,0.941l0.005,0.002c0.005,0,0.007,0,0.01-0.004
			c0.004-0.003,0.005-0.008,0.002-0.01l-0.008-0.042l-0.22-0.972l-0.007-0.019c-0.002-0.003-0.002-0.003-0.003-0.005
			L168.809,131.677z M158.125,141.508l-0.036,0.039c-0.003,0.002-0.003,0.012,0,0.015l0.684,0.654l0.043-0.049L158.125,141.508
			L158.125,141.508z M168.874,131.608l-0.065,0.07l-0.941-0.166l-0.033-0.005l-0.004-0.03l-0.015-0.04c0-0.005,0-0.007,0.003-0.01
			c0.004-0.003,0.007-0.005,0.012-0.003l0.041,0.008l0.979,0.172l0.02,0.005C168.87,131.606,168.874,131.608,168.874,131.608
			L168.874,131.608z M167.98,132.545l-0.041,0.045c-0.083-0.081-0.163-0.164-0.241-0.25c-0.064-0.073-0.123-0.146-0.182-0.22
			s-0.117-0.15-0.173-0.23l-0.02-0.023c-0.003-0.003,0-0.008,0.004-0.015l0.027-0.03c0.054,0.077,0.105,0.149,0.163,0.219
			c0.059,0.075,0.12,0.146,0.184,0.22C167.793,132.358,167.884,132.454,167.98,132.545L167.98,132.545z M167.868,132.665
			l-0.065,0.068l-0.941-0.167l-0.035-0.006l-0.007-0.027l-0.01-0.042c-0.002-0.003,0.002-0.006,0.005-0.008
			c0.002-0.004,0.004-0.005,0.008-0.004l0.041,0.007l0.979,0.172l0.019,0.003C167.864,132.664,167.868,132.665,167.868,132.665
			L167.868,132.665z M166.966,133.61l-0.037,0.043c-0.083-0.08-0.164-0.164-0.242-0.25c-0.062-0.072-0.127-0.145-0.183-0.216
			c-0.061-0.077-0.119-0.151-0.173-0.23l-0.016-0.027c-0.004-0.005-0.004-0.01,0-0.013l0.025-0.03
			c0.056,0.075,0.107,0.148,0.163,0.218c0.062,0.073,0.12,0.146,0.186,0.219C166.777,133.42,166.87,133.518,166.966,133.61
			L166.966,133.61z M166.86,133.722l-0.063,0.066l-0.94-0.167l-0.036-0.004l-0.007-0.03l-0.01-0.042c-0.003-0.003,0-0.003,0-0.007
			c0.003-0.003,0.007-0.004,0.013-0.004l0.039,0.006l0.98,0.173l0.02,0.003C166.858,133.718,166.86,133.722,166.86,133.722
			L166.86,133.722z M165.974,134.653l-0.039,0.042c-0.085-0.082-0.163-0.165-0.241-0.25c-0.065-0.07-0.127-0.145-0.186-0.218
			c-0.059-0.07-0.114-0.15-0.172-0.229l-0.017-0.027c-0.007-0.003-0.004-0.008,0-0.013l0.027-0.03
			c0.056,0.075,0.109,0.148,0.164,0.216c0.06,0.076,0.121,0.149,0.185,0.221C165.784,134.464,165.876,134.558,165.974,134.653
			L165.974,134.653z M165.856,134.777l-0.065,0.07l-0.94-0.167l-0.036-0.005l-0.007-0.03l-0.013-0.04
			c0-0.006,0.003-0.007,0.003-0.011c0.009-0.003,0.009-0.005,0.012-0.003l0.041,0.007l0.982,0.171l0.017,0.006
			C165.852,134.775,165.856,134.777,165.856,134.777L165.856,134.777z M164.964,135.708l-0.037,0.044
			c-0.083-0.079-0.168-0.164-0.242-0.254c-0.068-0.07-0.128-0.142-0.186-0.218c-0.061-0.075-0.117-0.15-0.173-0.23l-0.015-0.021
			c-0.007-0.003-0.007-0.008,0-0.014l0.027-0.029c0.051,0.07,0.104,0.142,0.163,0.212c0.059,0.073,0.117,0.146,0.183,0.218
			C164.775,135.519,164.87,135.615,164.964,135.708L164.964,135.708z M164.847,135.833l-0.063,0.068l-0.938-0.168l-0.036-0.005
			l-0.007-0.029l-0.013-0.042c0-0.006,0.003-0.008,0.003-0.011c0.004-0.004,0.007-0.004,0.012-0.004l0.041,0.007l0.979,0.173
			l0.02,0.003C164.844,135.832,164.847,135.833,164.847,135.833L164.847,135.833z M163.958,136.765l-0.039,0.045
			c-0.083-0.082-0.166-0.165-0.24-0.251c-0.065-0.07-0.127-0.143-0.183-0.215c-0.062-0.076-0.12-0.152-0.173-0.232l-0.019-0.024
			c-0.004-0.006-0.004-0.015,0-0.016l0.028-0.03c0.054,0.077,0.107,0.15,0.163,0.22c0.061,0.07,0.119,0.143,0.186,0.217
			C163.77,136.578,163.864,136.675,163.958,136.765L163.958,136.765z M163.841,136.888l-0.062,0.068l-0.939-0.164l-0.034-0.007
			l-0.006-0.029l-0.017-0.041c-0.003-0.002,0-0.005,0.007-0.008c0-0.001,0.003-0.006,0.01-0.003l0.039,0.006l0.979,0.172
			l0.018,0.005C163.841,136.886,163.841,136.888,163.841,136.888L163.841,136.888z M162.952,137.823l-0.039,0.044
			c-0.084-0.083-0.166-0.164-0.244-0.249c-0.062-0.075-0.123-0.146-0.181-0.22c-0.06-0.075-0.12-0.151-0.174-0.229l-0.017-0.026
			c-0.003-0.005-0.003-0.008,0-0.014l0.029-0.03c0.051,0.076,0.104,0.15,0.161,0.217c0.061,0.073,0.119,0.146,0.188,0.22
			C162.762,137.635,162.854,137.732,162.952,137.823L162.952,137.823z M162.835,137.943l-0.064,0.07l-0.938-0.167l-0.038-0.006
			l-0.006-0.03l-0.012-0.04c0-0.003,0-0.005,0.003-0.01c0.007-0.004,0.009-0.005,0.012-0.005l0.041,0.012l0.979,0.174l0.02,0.001
			L162.835,137.943L162.835,137.943z M161.937,138.888l-0.039,0.045c-0.084-0.083-0.164-0.165-0.242-0.25
			c-0.065-0.072-0.125-0.146-0.184-0.22s-0.117-0.151-0.173-0.23l-0.017-0.027c-0.006-0.003-0.006-0.008,0-0.011l0.028-0.03
			c0.054,0.075,0.105,0.148,0.164,0.216c0.057,0.074,0.117,0.147,0.183,0.221C161.746,138.7,161.839,138.796,161.937,138.888
			L161.937,138.888z M161.833,139l-0.068,0.07l-0.939-0.167l-0.034-0.006l-0.01-0.03l-0.01-0.04c-0.002-0.005,0-0.007,0.003-0.008
			c0.004-0.003,0.005-0.003,0.01-0.003l0.043,0.006l0.979,0.172l0.02,0.005C161.829,138.998,161.833,139,161.833,139L161.833,139z
			 M160.935,139.941l-0.043,0.042c-0.081-0.079-0.163-0.162-0.24-0.247c-0.065-0.072-0.127-0.146-0.183-0.216
			c-0.062-0.077-0.117-0.153-0.174-0.234l-0.019-0.022c-0.003-0.007-0.003-0.012,0-0.018l0.029-0.03
			c0.054,0.077,0.107,0.149,0.163,0.219c0.059,0.072,0.121,0.148,0.186,0.218C160.742,139.755,160.837,139.852,160.935,139.941
			L160.935,139.941z M160.823,140.057l-0.065,0.068l-0.94-0.168l-0.034-0.003l-0.006-0.029l-0.012-0.042
			c-0.004-0.005,0-0.007,0.003-0.01c0.004-0.003,0.007-0.005,0.01-0.002l0.043,0.005l0.977,0.172l0.022,0.006
			C160.822,140.055,160.823,140.057,160.823,140.057L160.823,140.057z M159.939,140.983l-0.04,0.045
			c-0.085-0.08-0.165-0.163-0.241-0.249c-0.065-0.071-0.127-0.145-0.183-0.221c-0.062-0.073-0.118-0.149-0.172-0.226l-0.02-0.027
			c-0.004-0.005-0.004-0.01,0-0.014l0.027-0.028c0.056,0.072,0.109,0.146,0.164,0.213c0.06,0.079,0.121,0.148,0.185,0.223
			C159.749,140.798,159.844,140.89,159.939,140.983L159.939,140.983z M159.817,141.112l-0.064,0.07l-0.939-0.168l-0.034-0.008
			l-0.007-0.027l-0.011-0.04c-0.002-0.003,0-0.01,0.001-0.01c0.005-0.002,0.007-0.005,0.014-0.005l0.04,0.008l0.98,0.177
			l0.021,0.002C159.814,141.113,159.817,141.112,159.817,141.112z"/>
		<path fill="#231F20" d="M158.968,141.146l-0.081-0.016l0.189,0.843l0.85,0.151l-0.023-0.104l-0.745-0.132
			c-0.014-0.003-0.026-0.011-0.026-0.024L158.968,141.146L158.968,141.146z M167.019,132.697l-0.085-0.016l0.191,0.84l0.851,0.152
			l-0.023-0.103l-0.745-0.132c-0.014-0.003-0.023-0.013-0.026-0.025L167.019,132.697L167.019,132.697z M168.024,131.642
			l-0.085-0.017l0.19,0.842l0.849,0.151l-0.02-0.102l-0.746-0.135c-0.013-0.001-0.022-0.012-0.025-0.025L168.024,131.642
			L168.024,131.642z M166.013,133.751l-0.085-0.015l0.19,0.842l0.852,0.149l-0.024-0.102l-0.747-0.133
			c-0.012,0-0.021-0.01-0.024-0.023L166.013,133.751L166.013,133.751z M165.005,134.808l-0.083-0.017l0.188,0.84l0.854,0.154
			l-0.023-0.102l-0.747-0.133c-0.011-0.002-0.021-0.011-0.024-0.025L165.005,134.808L165.005,134.808z M163.997,135.865
			l-0.081-0.018l0.188,0.843l0.854,0.149l-0.023-0.104l-0.748-0.13c-0.012-0.002-0.023-0.012-0.026-0.024L163.997,135.865
			L163.997,135.865z M162.991,136.921l-0.081-0.016l0.188,0.838l0.85,0.155l-0.022-0.104l-0.745-0.134
			c-0.014,0-0.023-0.011-0.026-0.023L162.991,136.921L162.991,136.921z M161.985,137.977l-0.081-0.017l0.188,0.842l0.851,0.15
			l-0.022-0.102l-0.746-0.132c-0.014-0.002-0.023-0.011-0.025-0.027L161.985,137.977L161.985,137.977z M160.979,139.031
			l-0.081-0.013l0.188,0.843l0.851,0.146l-0.02-0.102l-0.749-0.131c-0.013-0.001-0.022-0.014-0.026-0.027L160.979,139.031
			L160.979,139.031z M159.974,140.089l-0.084-0.016l0.19,0.841l0.851,0.152l-0.024-0.104l-0.743-0.135
			c-0.015,0-0.024-0.011-0.026-0.023L159.974,140.089z"/>
		<path fill="#231F20" d="M159.681,144.63c0.007,0.105-0.01,0.21-0.081,0.289c-0.231,0.244-0.842-0.045-1.074-0.164
			c-0.623-0.321-1.24-0.818-1.751-1.3l0,0v-0.004c-0.469-0.444-0.954-0.983-1.302-1.546c0.059,0.171,0.143,0.34,0.229,0.486
			c0.354,0.605,0.871,1.191,1.379,1.673l0,0l0.004,0.001c0.503,0.483,1.116,0.974,1.734,1.293c0.212,0.106,0.811,0.392,1.019,0.171
			C160.026,145.344,159.814,144.885,159.681,144.63z"/>
		<path fill="#231F20" d="M159.514,145.733c0.008,0,0.018-0.003,0.027-0.003c0.003-0.002,0.007-0.007,0.007-0.011
			c-0.004-0.005-0.004-0.008-0.01-0.013c-0.209-0.015-0.469-0.103-0.762-0.254c-0.52-0.267-1.146-0.725-1.765-1.31l0,0l-0.002-0.003
			l0,0l0,0c-0.616-0.587-1.104-1.193-1.392-1.697c-0.143-0.242-0.237-0.465-0.28-0.648c-0.003-0.022-0.016-0.01-0.016,0
			c0.039,0.196,0.14,0.433,0.289,0.695c0.293,0.503,0.781,1.11,1.396,1.694l0,0v0.002l0,0l0,0c0.617,0.587,1.244,1.047,1.765,1.315
			c0.149,0.073,0.498,0.257,0.674,0.244C159.47,145.745,159.492,145.741,159.514,145.733z"/>
		<path fill="#231F20" d="M157.031,142.4c0.007,0.065,0.036,0.124,0.081,0.168l1.462,1.392c0.052,0.051,0.124,0.075,0.195,0.075
			c0.075-0.003,0.144-0.032,0.192-0.083l0.521-0.546c0.052-0.054,0.075-0.125,0.075-0.196c0-0.035-0.01-0.07-0.02-0.102
			c-0.019,0.046-0.041,0.091-0.077,0.127l-0.001,0.002l-0.002,0.001l-0.518,0.542c-0.059,0.063-0.139,0.097-0.226,0.099
			c-0.082,0.005-0.163-0.03-0.226-0.089l-0.005-0.001l0,0L157.031,142.4L157.031,142.4z"/>
		<path fill="#231F20" d="M157.8,145.108c-0.023-0.017-0.043-0.035-0.062-0.05l-0.599,0.631c-0.017,0.016-0.041,0.024-0.063,0.029
			c-0.027,0-0.046-0.011-0.065-0.027l-0.002-0.001l0,0l-1.668-1.59l-0.034,0.032c-0.006,0.008-0.013,0.02-0.01,0.033
			c-0.003,0.013,0.004,0.025,0.014,0.033l1.725,1.645c0.01,0.008,0.02,0.016,0.036,0.016c0.01-0.003,0.022-0.005,0.031-0.017
			L157.8,145.108z"/>
		<path fill="#231F20" d="M170.508,131.818l-0.081-0.076c-0.007-0.005-0.014-0.005-0.017-0.002l-0.271,0.283l0,0l-0.002,0.001
			l-0.002,0.002c-0.015,0.014-0.031,0.032-0.051,0.042c-0.019,0.013-0.035,0.021-0.055,0.029c-0.101,0.045-0.222,0.03-0.312-0.033
			l-0.004-0.004l-0.001-0.002c-0.007-0.003-0.012-0.008-0.015-0.013c-0.004-0.003-0.007-0.006-0.014-0.011l-1.461-1.39l-0.007-0.006
			l0,0l-0.003-0.006l0,0l-0.007-0.006l0,0l-0.008-0.012l0,0c-0.002,0-0.002-0.001-0.002-0.001c-0.009,0.042-0.007,0.078,0.008,0.118
			c0.005,0.015,0.012,0.033,0.021,0.052c0.007,0.015,0.021,0.034,0.034,0.046l0,0l0.003,0.007l0,0l0.007,0.006h0.002l0.005,0.003
			l0,0l0.001,0.003l1.465,1.394c0.004,0.003,0.004,0.007,0.01,0.01c0.007,0.001,0.01,0.004,0.014,0.008l0.006,0.005l0,0
			c0.077,0.056,0.18,0.067,0.268,0.028c0.016-0.006,0.032-0.016,0.047-0.026c0.018-0.008,0.031-0.02,0.046-0.035l0.379-0.401
			C170.518,131.832,170.515,131.821,170.508,131.818L170.508,131.818z M169.485,129.202l1.841,1.755
			c0.002,0.003,0.004,0.003,0.01,0.005c0,0,0.009-0.002,0.009-0.003l0.378-0.397l0,0c0.049-0.056,0.074-0.122,0.074-0.195
			c-0.002-0.019-0.005-0.039-0.01-0.057c0-0.006-0.003-0.01-0.007-0.008c-0.003,0-0.013,0-0.013,0.005
			c-0.015,0.016-0.027,0.033-0.039,0.048l-0.391,0.409c-0.013,0.013-0.034,0.013-0.049,0.003l-1.726-1.646
			c-0.003-0.002-0.003-0.003-0.01-0.002c-0.003,0-0.003,0-0.006,0.002l-0.062,0.064C169.479,129.19,169.482,129.2,169.485,129.202z"
			/>
		<path fill="#231F20" d="M168.743,129.965l1.85,1.765c0.003,0.002,0.003,0.003,0.01,0.003c0.003-0.001,0.003-0.001,0.006-0.003
			l0.251-0.262c0.004-0.005,0.004-0.013,0-0.018l-0.01-0.006c-0.003-0.003-0.013-0.003-0.017,0.003l-0.218,0.228
			c-0.013,0.012-0.036,0.014-0.047,0.002l-1.804-1.718c-0.002-0.001-0.003-0.004-0.007-0.001c-0.005,0-0.005,0-0.008,0.001
			L168.743,129.965L168.743,129.965z M171.243,131.048l-0.01-0.008c-0.003-0.005-0.01-0.005-0.013,0l-0.254,0.269
			c-0.013,0.011-0.036,0.015-0.052,0.001l-1.809-1.727l-0.005,0.006c-0.007,0.003-0.007,0.011-0.003,0.016l1.846,1.756
			c0,0.002,0.003,0.003,0.006,0.002c0.004,0,0.007-0.002,0.009-0.003l0.284-0.298C171.25,131.058,171.247,131.052,171.243,131.048z"
			/>
	</g>
	
		<linearGradient id="SVGID_2_" gradientUnits="userSpaceOnUse" x1="732" y1="934.333" x2="732" y2="887.667" gradientTransform="matrix(1 0 0 1 -582 -761)">
		<stop  offset="0" style="stop-color:#000000;stop-opacity:0.35"/>
		<stop  offset="0.0975" style="stop-color:#060606;stop-opacity:0.3159"/>
		<stop  offset="0.2216" style="stop-color:#151515;stop-opacity:0.2724"/>
		<stop  offset="0.36" style="stop-color:#2F2F2F;stop-opacity:0.224"/>
		<stop  offset="0.5088" style="stop-color:#545454;stop-opacity:0.1719"/>
		<stop  offset="0.6661" style="stop-color:#838383;stop-opacity:0.1169"/>
		<stop  offset="0.8304" style="stop-color:#BCBCBC;stop-opacity:0.0594"/>
		<stop  offset="0.9977" style="stop-color:#FEFEFE;stop-opacity:8.182824e-04"/>
		<stop  offset="1" style="stop-color:#FFFFFF;stop-opacity:0"/>
	</linearGradient>
	<rect x="126.667" y="126.667" fill="url(#SVGID_2_)" width="46.667" height="46.667"/>
	
		<linearGradient id="SVGID_3_" gradientUnits="userSpaceOnUse" x1="732" y1="934.333" x2="732" y2="887.667" gradientTransform="matrix(1 0 0 1 -582 -761)">
		<stop  offset="0" style="stop-color:#000000;stop-opacity:0"/>
		<stop  offset="0.3726" style="stop-color:#020202;stop-opacity:0.205"/>
		<stop  offset="0.5069" style="stop-color:#090909;stop-opacity:0.2788"/>
		<stop  offset="0.6026" style="stop-color:#141414;stop-opacity:0.3314"/>
		<stop  offset="0.68" style="stop-color:#252525;stop-opacity:0.374"/>
		<stop  offset="0.7463" style="stop-color:#3B3B3B;stop-opacity:0.4104"/>
		<stop  offset="0.805" style="stop-color:#575757;stop-opacity:0.4427"/>
		<stop  offset="0.8581" style="stop-color:#777777;stop-opacity:0.472"/>
		<stop  offset="0.9069" style="stop-color:#9D9D9D;stop-opacity:0.4988"/>
		<stop  offset="0.9523" style="stop-color:#C8C8C8;stop-opacity:0.5238"/>
		<stop  offset="0.9926" style="stop-color:#F6F6F6;stop-opacity:0.5459"/>
		<stop  offset="1" style="stop-color:#FFFFFF;stop-opacity:0.55"/>
	</linearGradient>
	<rect x="126.667" y="126.667" fill="url(#SVGID_3_)" width="46.667" height="46.667"/>
</g>
</svg>
