<?xml version="1.0" encoding="utf-8"?>
<!-- Generator: Adobe Illustrator 15.1.0, SVG Export Plug-In . SVG Version: 6.00 Build 0)  -->
<!DOCTYPE svg PUBLIC "-//W3C//DTD SVG 1.1//EN" "http://www.w3.org/Graphics/SVG/1.1/DTD/svg11.dtd">
<svg version="1.1" id="Layer_1" xmlns="http://www.w3.org/2000/svg" xmlns:xlink="http://www.w3.org/1999/xlink" x="0px" y="0px"
	 width="50px" height="50px" viewBox="125 125 50 50" enable-background="new 125 125 50 50" xml:space="preserve">
<g id="Axe">
	<g>
		<rect x="126.667" y="126.667" fill="#660000" width="46.667" height="46.667"/>
		<g id="stroke_5_">
			<path fill="#660000" d="M173.333,126.667v46.667h-46.667v-46.667H173.333 M175,125h-1.136h-45.453H125v1.136v45.453V175h3.412
				h45.453H175v-3.411v-45.453V125L175,125z"/>
			
				<linearGradient id="SVGID_1_" gradientUnits="userSpaceOnUse" x1="1023" y1="-1015.9995" x2="1023" y2="-966" gradientTransform="matrix(1 0 0 -1 -873 -841)">
				<stop  offset="0" style="stop-color:#333333;stop-opacity:0.3"/>
				<stop  offset="0.2701" style="stop-color:#353535;stop-opacity:0.4215"/>
				<stop  offset="0.4166" style="stop-color:#3D3D3D;stop-opacity:0.4875"/>
				<stop  offset="0.5336" style="stop-color:#4B4B4B;stop-opacity:0.5401"/>
				<stop  offset="0.635" style="stop-color:#5E5E5E;stop-opacity:0.5857"/>
				<stop  offset="0.7262" style="stop-color:#787878;stop-opacity:0.6268"/>
				<stop  offset="0.8101" style="stop-color:#979797;stop-opacity:0.6646"/>
				<stop  offset="0.8885" style="stop-color:#BBBBBB;stop-opacity:0.6998"/>
				<stop  offset="0.9606" style="stop-color:#E5E5E5;stop-opacity:0.7323"/>
				<stop  offset="1" style="stop-color:#FFFFFF;stop-opacity:0.75"/>
			</linearGradient>
			<path fill="url(#SVGID_1_)" d="M173.333,126.667v46.667h-46.667v-46.667H173.333 M175,125h-1.136h-45.453H125v1.136v45.453V175
				h3.412h45.453H175v-3.411v-45.453V125L175,125z"/>
		</g>
	</g>
	<path id="axe" fill="#231F20" d="M164.226,128.685c0.049,0.046,0.091,0.091,0.13,0.13c-0.54,0.648-0.801,3.568-1.257,3.662
		c-0.618-0.247-1.614-0.172-2.22,0.238c-0.729,0.508-0.788,2.572,0.026,2.649c0.293,0.059,0.43-0.182,0.723-0.244
		c0.533-0.11,1.354,0.121,1.895,0.479c0.006-0.006,0.013-0.013,0.02-0.022c0.195-0.505,0.149-0.804,0.182-1.28
		c0.495-0.153,0.983-0.195,1.491-0.521c0.749-0.472,1.442-1.354,2.22-1.608c-0.006,0.022-0.013,0.045-0.02,0.068
		c0.039,0.315-0.547,0.804-0.748,1.113c-0.527,0.807-1.459,1.846-1.166,2.64c-0.081,0.007-0.162,0.017-0.24,0.026
		c-0.332-0.166-1.042-0.124-1.107,0.247c0.521,0.755,0.619,1.576,0.085,2.321c0.732,1.136,2.409,1.11,2.891-0.4
		c0.202-0.638-0.104-1.309,0.039-1.934c0.234,0.059,0.449-0.079,0.671-0.117c0.586-0.091,1.178-0.183,1.758-0.345
		c0.338-0.091,0.713-0.338,1.152-0.338c0.547,1.777,0.547,3.857-0.225,5.628c-2.211,5.052-7.51,7.483-11.618,6.201
		c-0.01-0.036-0.02-0.068-0.025-0.104c0.394-0.758,0.735-1.641,0.865-2.425c0.046-0.44,0.091-0.886,0.14-1.318
		c1.098,0.465,2.843,0.188,3.047-1.407c0.108-0.859-0.742-1.611-1.533-1.413c-1.148,0.273-1.546,1.68-2.496,2.37
		c-0.354,0.254-0.674,0.248-0.974,0.423c-0.104,0.088-0.215,0.189-0.322,0.28c-0.146,0.013-0.289,0.033-0.439,0.049
		c-0.261,0.274-0.524,0.544-0.788,0.814c-0.943,0.967-1.787,1.953-2.669,2.845c-0.681,0.641-1.357,1.279-2.044,1.914
		c-0.173,0.257-0.352,0.642-0.703,0.902c-0.528,0.384-1.091,0.912-1.635,1.491c-1.002,1.045-1.81,2.184-2.988,3.05
		c-0.456,0.336-0.758,0.918-1.048,1.293c-0.267,0.211-0.534,0.423-0.794,0.635c-0.417,0.41-0.833,0.82-1.25,1.23
		c-0.515,0.374-0.879,0.94-1.185,1.38c-0.332,0.286-0.67,0.573-1.009,0.853c-0.944,0.69-1.511,1.836-2.383,2.438
		c-0.374,0.391-0.745,0.788-1.113,1.185c-0.231,0.215-0.462,0.439-0.69,0.658c-0.602,0.855-1.442,1.705-2.279,2.369
		c-0.332,0.261-0.391,0.605-0.755,0.769c-0.482,0.218-1.94,2.266-2.015,2.454c-0.017,0.222-0.036,0.449-0.055,0.671
		c-0.026,0.007-0.046,0.017-0.068,0.022c-0.121-0.055-0.231-0.113-0.349-0.169c-0.202,0.13-0.397,0.26-0.605,0.394
		c-0.11-0.025-0.211-0.045-0.325-0.062c-0.645,0.212-1.214,0.739-1.921,1.041c0.013-0.016,0.026-0.029,0.046-0.049
		c0.006-0.501,0.41-1.012,0.635-1.523c0.296-0.689,0.647-1.523,0.999-2.246c0.586,0.212,1.654-0.677,2.194-1.458
		c0.299-0.437,0.781-0.696,1.055-1.077c0.862-1.195,2.083-2.214,3.288-3.441c2.324-2.379,4.642-4.876,7.002-7.285
		c0.596-0.605,1.322-1.221,2.005-1.91c0.485-0.537,0.97-1.078,1.455-1.625c0.527-0.377,1.393-1.081,1.833-1.735
		c0.293-0.439,0.69-0.957,1.182-1.292c0.769-0.534,1.804-1.637,2.295-2.389c0.628-0.589,1.267-1.175,1.892-1.758
		c0.479-0.488,1.51-1.315,1.611-1.777c-0.029-0.072-0.062-0.143-0.088-0.215c0.596-0.589,0.26-0.651,0.729-1.393
		c0.26-0.212,0.527-0.427,0.794-0.638c1.211-0.774,2.09-1.992,1.445-2.969c-0.208-0.315-0.593-0.364-0.804-0.41
		c-1.521-0.296-2.24,1.081-2.041,2.351c0.032,0.202-0.036,0.462,0.113,0.54c-0.394,0.358-0.853,0.144-1.256,0.228
		c-0.759,0.156-1.605,0.619-2.383,0.677c-1.169-3.285,0.608-9.05,5.289-11.152c1.514-0.677,3.301-1.14,4.831-0.983
		C163.151,128.496,163.691,128.59,164.226,128.685z"/>
	
		<linearGradient id="SVGID_2_" gradientUnits="userSpaceOnUse" x1="1023" y1="-1014.3325" x2="1023" y2="-967.6665" gradientTransform="matrix(1 0 0 -1 -873 -841)">
		<stop  offset="0" style="stop-color:#000000;stop-opacity:0.35"/>
		<stop  offset="0.0975" style="stop-color:#060606;stop-opacity:0.3159"/>
		<stop  offset="0.2216" style="stop-color:#151515;stop-opacity:0.2724"/>
		<stop  offset="0.36" style="stop-color:#2F2F2F;stop-opacity:0.224"/>
		<stop  offset="0.5088" style="stop-color:#545454;stop-opacity:0.1719"/>
		<stop  offset="0.6661" style="stop-color:#838383;stop-opacity:0.1169"/>
		<stop  offset="0.8304" style="stop-color:#BCBCBC;stop-opacity:0.0594"/>
		<stop  offset="0.9977" style="stop-color:#FEFEFE;stop-opacity:8.182824e-04"/>
		<stop  offset="1" style="stop-color:#FFFFFF;stop-opacity:0"/>
	</linearGradient>
	<rect x="126.667" y="126.667" fill="url(#SVGID_2_)" width="46.667" height="46.667"/>
	
		<linearGradient id="SVGID_3_" gradientUnits="userSpaceOnUse" x1="1023" y1="-1014.3325" x2="1023" y2="-967.6665" gradientTransform="matrix(1 0 0 -1 -873 -841)">
		<stop  offset="0" style="stop-color:#000000;stop-opacity:0"/>
		<stop  offset="0.3726" style="stop-color:#020202;stop-opacity:0.205"/>
		<stop  offset="0.5069" style="stop-color:#090909;stop-opacity:0.2788"/>
		<stop  offset="0.6026" style="stop-color:#141414;stop-opacity:0.3314"/>
		<stop  offset="0.68" style="stop-color:#252525;stop-opacity:0.374"/>
		<stop  offset="0.7463" style="stop-color:#3B3B3B;stop-opacity:0.4104"/>
		<stop  offset="0.805" style="stop-color:#575757;stop-opacity:0.4427"/>
		<stop  offset="0.8581" style="stop-color:#777777;stop-opacity:0.472"/>
		<stop  offset="0.9069" style="stop-color:#9D9D9D;stop-opacity:0.4988"/>
		<stop  offset="0.9523" style="stop-color:#C8C8C8;stop-opacity:0.5238"/>
		<stop  offset="0.9926" style="stop-color:#F6F6F6;stop-opacity:0.5459"/>
		<stop  offset="1" style="stop-color:#FFFFFF;stop-opacity:0.55"/>
	</linearGradient>
	<rect x="126.667" y="126.667" fill="url(#SVGID_3_)" width="46.667" height="46.667"/>
</g>
</svg>
