<?xml version="1.0" encoding="utf-8"?>
<!-- Generator: Adobe Illustrator 15.1.0, SVG Export Plug-In . SVG Version: 6.00 Build 0)  -->
<!DOCTYPE svg PUBLIC "-//W3C//DTD SVG 1.1//EN" "http://www.w3.org/Graphics/SVG/1.1/DTD/svg11.dtd">
<svg version="1.1" xmlns="http://www.w3.org/2000/svg" xmlns:xlink="http://www.w3.org/1999/xlink" x="0px" y="0px" width="300px"
	 height="300px" viewBox="0 0 300 300" enable-background="new 0 0 300 300" xml:space="preserve">
<g id="Layer_1">
	<path fill-rule="evenodd" clip-rule="evenodd" fill="#231F20" d="M82.724,86.645c1.851,1.874,3.698,3.745,5.549,5.619
		c0.399,0.919,0.799,1.84,1.2,2.759c0.931,1.27,2.784,0.81,4.123,2.467c1.308,1.837,2.615,3.678,3.922,5.516
		c1.161,0.702,2.324,1.402,3.487,2.101c0.618,0.818,1.231,2.234,2.048,3.316c1.974,2.607,6.463,4.871,8.637,7.739
		c2.075,1.687,4.15,3.375,6.224,5.064c3.35,1.941,6.375,5.947,9.187,8.413c4.276,3.755,8.827,6.45,11.747,10.273
		c2.427,3.181,8.426,7.445,11.266,9.091c2.425,2.377,4.852,4.75,7.272,7.121c5.583,3.532,9.954,8.545,15.505,13.372
		c2.393,2.081,5.165,3.306,7.212,6.115c1.845,2.542,7.209,6.427,9.552,7.78c2.914,2.679,5.838,5.362,8.754,8.043
		c0.443,0.004,0.88,0.009,1.321,0.006c3.167,2.841,6.336,5.67,9.498,8.503c2.295,2.001,9.649,9.209,11.449,8.869
		c0.041,0.538,0.071,1.077,0.115,1.62c-0.429,1.161-1.541,4.391-2.442,4.522c-0.974,0.753-2.035,1.463-3.026,1.73
		c-2.838-1.276-5.252-5.277-8.611-7.339c-4.996-3.069-11.129-9.52-13.744-12.781c-3.032-2.399-6.071-4.805-9.106-7.203
		c-2.142-2.672-6.203-7.108-9.952-9.273c-2.436-1.408-4.082-3.597-6.146-5.375c-3.753-3.03-7.512-6.062-11.265-9.092
		c-2.434-3.141-7.374-7.486-10.991-9.612c-2.812-1.648-3.872-4.994-5.901-6.301c-5.733-3.688-10.605-8.511-16.438-13.613
		c-1.93-1.56-3.862-3.125-5.792-4.687c-1.036-1.376-3.923-4.72-6.198-6.179c-2.201-1.413-7.677-5.1-9.308-7.191
		c-0.846-1.083-1.771-2.79-3.502-3.826c-1.224-0.728-2.751-1.195-3.772-1.776c-0.744-0.966-1.484-1.928-2.224-2.896
		c-2.43-1.427-4.86-2.853-7.288-4.28c-1.739-1.061-0.742-2.733-2.804-3.971c-1.979-1.191-3.45-1.112-5.079-1.589
		c-1.128-0.333-1.946-1.998-2.706-2.563c-7.286,8.089-6.065,18.084,4.398,23.252c0.781,0.556,1.56,1.111,2.342,1.67
		c0.721,0.119,1.437,0.237,2.155,0.36c0.289,2.962,6.181,6.648,6.281,8.915c-1.58-0.637-3.249-0.223-4.797-0.39
		c-3.043-0.506-6.086-1.01-9.129-1.516c-5.333-1.321-10.863-4.227-16.299-5.506c-0.504-0.441-1.006-0.88-1.512-1.322
		c-2.499-1.328-4.838-2.854-7.611-4.562c-9.733-5.993-20.586-16.822-22.701-25.37c0.098-0.041,0.196-0.081,0.295-0.122
		c1.949,1.01,3.869-0.456,5.777-0.081c1.15,0.496,2.3,0.995,3.449,1.494c6.286,1.321,11.119,0.932,17.2-2.271
		c1.106-0.58,7.318-3.937,7.436-5.672c-0.483-2.055-1.324-3.427-1.282-5.495c-1.336-0.46-2.373-0.876-3.396-2.206
		c-0.148-0.587,0.117-1.419-0.028-1.928c-0.367-1.296-2.759-0.921-1.674-3.742c-1.972-1.427-4.685-4.569-5.306-6.545
		c0.167-0.046,0.332-0.088,0.499-0.135c2.222,1.372,4.443,2.749,6.667,4.118c2.55,0.741,5.329,0.914,8.028,3.219
		c-0.185,0.623-0.143,0.858,0.162,0.903c1.369,0.477,3.971,0.922,5.242,0.966c5.027-3.623,4.217-9.126,8.344-13.24
		c-0.044-0.672-0.087-1.347-0.134-2.023c4.705,4.267,8.346,3.875,12.801,4.724c6.5,1.25,19.099,4.402,25.229,8.563
		c0.016,0.269,0.035,0.538,0.052,0.809c-0.03,0.037-0.059,0.07-0.094,0.109c-1.061-0.346-6.01-1.211-7.18-1.147
		c-0.157,0.181-0.313,0.357-0.472,0.539c-0.223-1.264-5.014-0.524-6.138-0.805c-1.613-0.399-4.7-0.778-5.999-0.107
		c-1.968,1.024-9.502,5.447-11.12,8.155C84.9,82.559,84.401,84.699,82.724,86.645z M109.051,73.721
		c0.06-0.069,0.125-0.142,0.188-0.215C109.177,73.579,109.111,73.651,109.051,73.721z"/>
	<path fill-rule="evenodd" clip-rule="evenodd" fill="#231F20" d="M241.041,61.39c1.136,0.832,6.669,5.369,6.268,7.066
		c-0.566,2.367-8.542,8.948-10.642,10.745c-8.023,8.145-16.046,16.292-24.066,24.44c-2.824,2.416-5.441,7.621-9.353,8.692
		c0.798,1.222,1.972,2.412,2.144,4.149c-0.172,0.005-0.341,0.01-0.507,0.015c-0.39,0.066-0.782,0.134-1.173,0.2
		c-1.038-0.868-2.073-1.736-3.104-2.604c-0.113,0.055-0.223,0.117-0.334,0.175c-1.451,3.192-5.438,4.981-8.054,7.141
		c-6.582,5.436-12.79,11.364-19.39,16.892c-25.133,21.042-51.098,41.747-78.278,60.865c-8.255,5.808-25.951,21.156-38.56,18.282
		c0.054-0.109,0.107-0.225,0.158-0.341c4.354-1.515,8.208-5.941,11.716-8.587c6.379-4.808,13.179-9.112,19.481-13.864
		c22.464-16.95,44.816-33.707,66.242-51.59c8.405-7.018,16.352-14.647,24.82-21.6c2.88-2.367,5.96-7.351,9.867-8.366
		c-0.176-0.278-0.353-0.555-0.532-0.831c2.028-1.797,4.055-3.598,6.083-5.396c-0.869-1.192-2.112-2.528-2.314-4.315
		c0.156-0.342,0.32-0.682,0.475-1.024c0.233,0.162,0.459,0.325,0.69,0.488c0.227,0.488,1.807,2.757,2.435,2.623
		c3.498-3.301,6.997-6.601,10.498-9.9c8.307-7.873,16.617-15.752,24.926-23.622C234.221,68.049,237.006,64.225,241.041,61.39z"/>
</g>
<g id="Calque_1">
	<g>
		<g>
			<linearGradient id="SVGID_1_" gradientUnits="userSpaceOnUse" x1="70.3262" y1="105.749" x2="84.2178" y2="129.81">
				<stop  offset="0" style="stop-color:#CCCCCC"/>
				<stop  offset="0.0579" style="stop-color:#CECECE"/>
				<stop  offset="0.0832" style="stop-color:#D5D5D5"/>
				<stop  offset="0.102" style="stop-color:#E2E2E2"/>
				<stop  offset="0.1166" style="stop-color:#F2F2F2"/>
				<stop  offset="0.2024" style="stop-color:#EFEFEF"/>
				<stop  offset="0.2668" style="stop-color:#E5E5E5"/>
				<stop  offset="0.3241" style="stop-color:#D5D5D5"/>
				<stop  offset="0.377" style="stop-color:#BFBFBF"/>
				<stop  offset="0.3988" style="stop-color:#B3B3B3"/>
				<stop  offset="0.4031" style="stop-color:#B6B6B6"/>
				<stop  offset="0.4517" style="stop-color:#D0D0D0"/>
				<stop  offset="0.5014" style="stop-color:#E3E3E3"/>
				<stop  offset="0.5526" style="stop-color:#EEEEEE"/>
				<stop  offset="0.6074" style="stop-color:#F2F2F2"/>
				<stop  offset="0.6846" style="stop-color:#CBCBCB"/>
				<stop  offset="0.773" style="stop-color:#999999"/>
				<stop  offset="1" style="stop-color:#000000"/>
			</linearGradient>
			<path fill="url(#SVGID_1_)" stroke="#000000" stroke-miterlimit="10" d="M72.514,118.717v6.122c0,0.271,0.077,0.481,0.229,0.63
				s0.413,0.264,0.783,0.345v0.433h-6.739v-0.433c0.379-0.09,0.642-0.208,0.791-0.352c0.147-0.145,0.219-0.353,0.219-0.623v-15.626
				c0-0.28-0.072-0.491-0.219-0.636c-0.148-0.146-0.411-0.261-0.791-0.352v-0.433h13.51c1.646,0,2.952,0.082,3.918,0.244
				c0.964,0.163,1.806,0.446,2.523,0.852c0.833,0.467,1.456,1.103,1.867,1.904c0.391,0.776,0.586,1.605,0.586,2.488
				c0,3.011-1.958,4.773-5.87,5.288l4.193,5.096c0.737,0.891,1.277,1.465,1.622,1.724c0.343,0.255,0.763,0.398,1.256,0.425v0.433
				h-7.802v-0.433c0.536-0.073,0.805-0.236,0.805-0.487c0-0.163-0.247-0.554-0.742-1.178l-4.374-5.432H72.514z M72.514,115.674
				h7.278c1.076,0,1.835-0.028,2.278-0.082c0.444-0.054,0.85-0.167,1.219-0.338c0.801-0.37,1.204-1.036,1.204-2
				s-0.402-1.631-1.204-2.001c-0.38-0.179-0.783-0.294-1.211-0.345c-0.427-0.049-1.189-0.074-2.286-0.074h-7.278V115.674z"/>
			<linearGradient id="SVGID_2_" gradientUnits="userSpaceOnUse" x1="96.2529" y1="109.0718" x2="107.7134" y2="128.9219">
				<stop  offset="0" style="stop-color:#CCCCCC"/>
				<stop  offset="0.0579" style="stop-color:#CECECE"/>
				<stop  offset="0.0832" style="stop-color:#D5D5D5"/>
				<stop  offset="0.102" style="stop-color:#E2E2E2"/>
				<stop  offset="0.1166" style="stop-color:#F2F2F2"/>
				<stop  offset="0.2024" style="stop-color:#EFEFEF"/>
				<stop  offset="0.2668" style="stop-color:#E5E5E5"/>
				<stop  offset="0.3241" style="stop-color:#D5D5D5"/>
				<stop  offset="0.377" style="stop-color:#BFBFBF"/>
				<stop  offset="0.3988" style="stop-color:#B3B3B3"/>
				<stop  offset="0.4031" style="stop-color:#B6B6B6"/>
				<stop  offset="0.4517" style="stop-color:#D0D0D0"/>
				<stop  offset="0.5014" style="stop-color:#E3E3E3"/>
				<stop  offset="0.5526" style="stop-color:#EEEEEE"/>
				<stop  offset="0.6074" style="stop-color:#F2F2F2"/>
				<stop  offset="0.6846" style="stop-color:#CBCBCB"/>
				<stop  offset="0.773" style="stop-color:#999999"/>
				<stop  offset="1" style="stop-color:#000000"/>
			</linearGradient>
			<path fill="url(#SVGID_2_)" stroke="#000000" stroke-miterlimit="10" d="M97.989,119.81v3.691h11.25
				c0.327,0,0.578-0.062,0.752-0.187c0.173-0.124,0.312-0.351,0.419-0.678h0.44v4.476h-0.44c-0.094-0.316-0.233-0.54-0.411-0.67
				c-0.18-0.132-0.433-0.196-0.76-0.196H92.735v-0.379c0.37-0.081,0.632-0.198,0.783-0.352c0.153-0.153,0.229-0.369,0.229-0.649
				v-12.384c0-0.279-0.073-0.49-0.222-0.636c-0.148-0.144-0.412-0.265-0.791-0.365v-0.379h16.013c0.336,0,0.594-0.062,0.767-0.189
				c0.174-0.125,0.313-0.352,0.42-0.676h0.426v4.475h-0.426c-0.106-0.328-0.246-0.555-0.42-0.68
				c-0.173-0.123-0.431-0.186-0.767-0.186H97.989v3.326h6.676c0.326,0,0.579-0.064,0.753-0.189c0.173-0.127,0.318-0.353,0.435-0.677
				h0.427v4.366h-0.427c-0.105-0.319-0.246-0.543-0.419-0.671c-0.174-0.128-0.429-0.194-0.768-0.194H97.989z"/>
			<linearGradient id="SVGID_3_" gradientUnits="userSpaceOnUse" x1="119.6294" y1="110.9087" x2="128.9312" y2="127.0198">
				<stop  offset="0" style="stop-color:#CCCCCC"/>
				<stop  offset="0.0579" style="stop-color:#CECECE"/>
				<stop  offset="0.0832" style="stop-color:#D5D5D5"/>
				<stop  offset="0.102" style="stop-color:#E2E2E2"/>
				<stop  offset="0.1166" style="stop-color:#F2F2F2"/>
				<stop  offset="0.2024" style="stop-color:#EFEFEF"/>
				<stop  offset="0.2668" style="stop-color:#E5E5E5"/>
				<stop  offset="0.3241" style="stop-color:#D5D5D5"/>
				<stop  offset="0.377" style="stop-color:#BFBFBF"/>
				<stop  offset="0.3988" style="stop-color:#B3B3B3"/>
				<stop  offset="0.4031" style="stop-color:#B6B6B6"/>
				<stop  offset="0.4517" style="stop-color:#D0D0D0"/>
				<stop  offset="0.5014" style="stop-color:#E3E3E3"/>
				<stop  offset="0.5526" style="stop-color:#EEEEEE"/>
				<stop  offset="0.6074" style="stop-color:#F2F2F2"/>
				<stop  offset="0.6846" style="stop-color:#CBCBCB"/>
				<stop  offset="0.773" style="stop-color:#999999"/>
				<stop  offset="1" style="stop-color:#000000"/>
			</linearGradient>
			<path fill="url(#SVGID_3_)" stroke="#000000" stroke-miterlimit="10" d="M129.508,120.404h-4.035
				c-0.339,0-0.594,0.065-0.768,0.19c-0.173,0.126-0.314,0.351-0.419,0.675h-0.427v-4.014h0.427c0.104,0.32,0.246,0.545,0.419,0.673
				c0.174,0.128,0.429,0.193,0.768,0.193h8.433v0.392c-0.368,0.089-0.629,0.219-0.784,0.392c-0.153,0.171-0.23,0.415-0.23,0.729
				v3.189c0,0.279,0.077,0.497,0.23,0.65c0.154,0.154,0.416,0.276,0.784,0.365v0.31c-3.417,1.615-6.826,2.421-10.222,2.421
				c-2.931,0-5.305-0.589-7.119-1.771c-0.981-0.65-1.772-1.452-2.373-2.407c-0.708-1.136-1.062-2.348-1.062-3.636
				c0-1.785,0.642-3.372,1.932-4.76c2.002-2.145,4.968-3.218,8.891-3.218c1.719,0,3.682,0.324,5.887,0.973
				c0.875,0.253,1.388,0.379,1.534,0.379c0.181,0,0.392-0.071,0.632-0.217l0.38,0.176l-2.11,3.814l-0.38-0.163
				c0-0.036,0-0.063,0-0.082c0-0.333-0.39-0.676-1.171-1.027c-1.444-0.657-2.993-0.987-4.649-0.987
				c-1.909,0-3.474,0.446-4.697,1.338c-1.286,0.938-1.929,2.199-1.929,3.787c0,1.485,0.585,2.675,1.756,3.568
				c1.201,0.91,2.891,1.365,5.062,1.365c2.067,0,3.815-0.33,5.239-0.987V120.404z"/>
			<linearGradient id="SVGID_4_" gradientUnits="userSpaceOnUse" x1="135.9209" y1="111.6396" x2="144.0444" y2="125.71">
				<stop  offset="0" style="stop-color:#CCCCCC"/>
				<stop  offset="0.0579" style="stop-color:#CECECE"/>
				<stop  offset="0.0832" style="stop-color:#D5D5D5"/>
				<stop  offset="0.102" style="stop-color:#E2E2E2"/>
				<stop  offset="0.1166" style="stop-color:#F2F2F2"/>
				<stop  offset="0.2024" style="stop-color:#EFEFEF"/>
				<stop  offset="0.2668" style="stop-color:#E5E5E5"/>
				<stop  offset="0.3241" style="stop-color:#D5D5D5"/>
				<stop  offset="0.377" style="stop-color:#BFBFBF"/>
				<stop  offset="0.3988" style="stop-color:#B3B3B3"/>
				<stop  offset="0.4031" style="stop-color:#B6B6B6"/>
				<stop  offset="0.4517" style="stop-color:#D0D0D0"/>
				<stop  offset="0.5014" style="stop-color:#E3E3E3"/>
				<stop  offset="0.5526" style="stop-color:#EEEEEE"/>
				<stop  offset="0.6074" style="stop-color:#F2F2F2"/>
				<stop  offset="0.6846" style="stop-color:#CBCBCB"/>
				<stop  offset="0.773" style="stop-color:#999999"/>
				<stop  offset="1" style="stop-color:#000000"/>
			</linearGradient>
			<path fill="url(#SVGID_4_)" stroke="#000000" stroke-miterlimit="10" d="M142.104,112.483v12.373c0,0.278,0.073,0.491,0.222,0.64
				c0.146,0.148,0.41,0.272,0.792,0.372v0.379h-6.268v-0.379c0.37-0.081,0.629-0.198,0.783-0.352
				c0.152-0.153,0.229-0.369,0.229-0.649v-12.384c0-0.279-0.074-0.49-0.223-0.636c-0.148-0.144-0.41-0.265-0.79-0.365v-0.379h6.268
				v0.379c-0.382,0.091-0.646,0.209-0.792,0.358C142.177,111.99,142.104,112.202,142.104,112.483z"/>
			<linearGradient id="SVGID_5_" gradientUnits="userSpaceOnUse" x1="150.0337" y1="111.1099" x2="158.9561" y2="126.5639">
				<stop  offset="0" style="stop-color:#CCCCCC"/>
				<stop  offset="0.0579" style="stop-color:#CECECE"/>
				<stop  offset="0.0832" style="stop-color:#D5D5D5"/>
				<stop  offset="0.102" style="stop-color:#E2E2E2"/>
				<stop  offset="0.1166" style="stop-color:#F2F2F2"/>
				<stop  offset="0.2024" style="stop-color:#EFEFEF"/>
				<stop  offset="0.2668" style="stop-color:#E5E5E5"/>
				<stop  offset="0.3241" style="stop-color:#D5D5D5"/>
				<stop  offset="0.377" style="stop-color:#BFBFBF"/>
				<stop  offset="0.3988" style="stop-color:#B3B3B3"/>
				<stop  offset="0.4031" style="stop-color:#B6B6B6"/>
				<stop  offset="0.4517" style="stop-color:#D0D0D0"/>
				<stop  offset="0.5014" style="stop-color:#E3E3E3"/>
				<stop  offset="0.5526" style="stop-color:#EEEEEE"/>
				<stop  offset="0.6074" style="stop-color:#F2F2F2"/>
				<stop  offset="0.6846" style="stop-color:#CBCBCB"/>
				<stop  offset="0.773" style="stop-color:#999999"/>
				<stop  offset="1" style="stop-color:#000000"/>
			</linearGradient>
			<path fill="url(#SVGID_5_)" stroke="#000000" stroke-miterlimit="10" d="M163.272,112.47l-2.133,3.529l-0.382-0.176
				c0-0.298-0.111-0.532-0.333-0.703c-0.602-0.46-1.488-0.838-2.657-1.135c-1.17-0.298-2.357-0.446-3.56-0.446
				c-1.025,0-1.933,0.122-2.723,0.365c-1.14,0.351-1.71,0.859-1.71,1.527c0,0.441,0.277,0.756,0.824,0.94
				c0.547,0.184,1.605,0.331,3.18,0.439l2.5,0.163c2.186,0.144,3.846,0.503,4.983,1.081c0.635,0.325,1.154,0.758,1.567,1.297
				c0.515,0.675,0.776,1.438,0.776,2.284c0,1.541-0.813,2.758-2.439,3.651c-1.55,0.857-3.647,1.285-6.294,1.285
				c-2.67,0-5.25-0.481-7.736-1.448c-0.172-0.062-0.315-0.094-0.43-0.094c-0.21,0-0.405,0.108-0.584,0.325l-0.396-0.135l1.818-3.706
				l0.396,0.136c0,0.054,0,0.091,0,0.108c0,0.235,0.107,0.432,0.316,0.594c0.53,0.397,1.442,0.743,2.74,1.035
				c1.297,0.292,2.577,0.44,3.844,0.44c1.119,0,2.122-0.127,3.006-0.379c1.097-0.306,1.646-0.801,1.646-1.488
				c0-0.549-0.381-0.932-1.138-1.149c-0.509-0.143-1.421-0.265-2.739-0.365l-2.484-0.175c-1.339-0.09-2.363-0.207-3.07-0.352
				c-0.705-0.144-1.324-0.355-1.852-0.636c-0.675-0.359-1.202-0.85-1.582-1.472c-0.378-0.622-0.568-1.303-0.568-2.042
				c0-1.658,0.833-2.924,2.498-3.799c1.52-0.793,3.396-1.19,5.637-1.19c1.213,0,2.344,0.115,3.395,0.345
				c1.047,0.23,2.299,0.633,3.755,1.21c0.433,0.172,0.734,0.256,0.9,0.256c0.169,0,0.387-0.098,0.65-0.297L163.272,112.47z"/>
			<linearGradient id="SVGID_6_" gradientUnits="userSpaceOnUse" x1="170.6064" y1="107.1006" x2="180.5601" y2="124.3408">
				<stop  offset="0" style="stop-color:#CCCCCC"/>
				<stop  offset="0.0579" style="stop-color:#CECECE"/>
				<stop  offset="0.0832" style="stop-color:#D5D5D5"/>
				<stop  offset="0.102" style="stop-color:#E2E2E2"/>
				<stop  offset="0.1166" style="stop-color:#F2F2F2"/>
				<stop  offset="0.2024" style="stop-color:#EFEFEF"/>
				<stop  offset="0.2668" style="stop-color:#E5E5E5"/>
				<stop  offset="0.3241" style="stop-color:#D5D5D5"/>
				<stop  offset="0.377" style="stop-color:#BFBFBF"/>
				<stop  offset="0.3988" style="stop-color:#B3B3B3"/>
				<stop  offset="0.4031" style="stop-color:#B6B6B6"/>
				<stop  offset="0.4517" style="stop-color:#D0D0D0"/>
				<stop  offset="0.5014" style="stop-color:#E3E3E3"/>
				<stop  offset="0.5526" style="stop-color:#EEEEEE"/>
				<stop  offset="0.6074" style="stop-color:#F2F2F2"/>
				<stop  offset="0.6846" style="stop-color:#CBCBCB"/>
				<stop  offset="0.773" style="stop-color:#999999"/>
				<stop  offset="1" style="stop-color:#000000"/>
			</linearGradient>
			<path fill="url(#SVGID_6_)" stroke="#000000" stroke-miterlimit="10" d="M176.247,113.849v11.007c0,0.278,0.074,0.491,0.224,0.64
				c0.145,0.148,0.411,0.272,0.791,0.372v0.379h-6.267v-0.379c0.369-0.081,0.63-0.198,0.782-0.352
				c0.153-0.153,0.229-0.369,0.229-0.649v-11.018h-5.22c-0.34,0-0.595,0.064-0.768,0.192c-0.175,0.128-0.315,0.353-0.42,0.673
				h-0.427v-4.475h0.427c0.097,0.315,0.23,0.539,0.403,0.669c0.173,0.132,0.43,0.196,0.77,0.196h14.696
				c0.337,0,0.593-0.062,0.769-0.189c0.172-0.125,0.312-0.352,0.417-0.676h0.43v4.475h-0.43c-0.104-0.32-0.245-0.545-0.417-0.673
				c-0.176-0.128-0.43-0.192-0.769-0.192H176.247z"/>
			<linearGradient id="SVGID_7_" gradientUnits="userSpaceOnUse" x1="188.626" y1="109.0723" x2="200.0869" y2="128.9232">
				<stop  offset="0" style="stop-color:#CCCCCC"/>
				<stop  offset="0.0579" style="stop-color:#CECECE"/>
				<stop  offset="0.0832" style="stop-color:#D5D5D5"/>
				<stop  offset="0.102" style="stop-color:#E2E2E2"/>
				<stop  offset="0.1166" style="stop-color:#F2F2F2"/>
				<stop  offset="0.2024" style="stop-color:#EFEFEF"/>
				<stop  offset="0.2668" style="stop-color:#E5E5E5"/>
				<stop  offset="0.3241" style="stop-color:#D5D5D5"/>
				<stop  offset="0.377" style="stop-color:#BFBFBF"/>
				<stop  offset="0.3988" style="stop-color:#B3B3B3"/>
				<stop  offset="0.4031" style="stop-color:#B6B6B6"/>
				<stop  offset="0.4517" style="stop-color:#D0D0D0"/>
				<stop  offset="0.5014" style="stop-color:#E3E3E3"/>
				<stop  offset="0.5526" style="stop-color:#EEEEEE"/>
				<stop  offset="0.6074" style="stop-color:#F2F2F2"/>
				<stop  offset="0.6846" style="stop-color:#CBCBCB"/>
				<stop  offset="0.773" style="stop-color:#999999"/>
				<stop  offset="1" style="stop-color:#000000"/>
			</linearGradient>
			<path fill="url(#SVGID_7_)" stroke="#000000" stroke-miterlimit="10" d="M190.361,119.81v3.691h11.248
				c0.33,0,0.58-0.062,0.753-0.187c0.174-0.124,0.315-0.351,0.419-0.678h0.443v4.476h-0.443c-0.095-0.316-0.232-0.54-0.411-0.67
				c-0.178-0.132-0.431-0.196-0.761-0.196h-16.501v-0.379c0.369-0.081,0.629-0.198,0.784-0.352c0.151-0.153,0.229-0.369,0.229-0.649
				v-12.384c0-0.279-0.074-0.49-0.222-0.636c-0.147-0.144-0.41-0.265-0.791-0.365v-0.379h16.012c0.337,0,0.594-0.062,0.768-0.189
				c0.173-0.125,0.315-0.352,0.419-0.676h0.428v4.475h-0.428c-0.104-0.328-0.246-0.555-0.419-0.68
				c-0.174-0.123-0.431-0.186-0.768-0.186h-10.759v3.326h6.678c0.326,0,0.578-0.064,0.753-0.189
				c0.173-0.127,0.317-0.353,0.436-0.677h0.427v4.366h-0.427c-0.109-0.319-0.248-0.543-0.421-0.671
				c-0.174-0.128-0.431-0.194-0.768-0.194H190.361z"/>
			<linearGradient id="SVGID_8_" gradientUnits="userSpaceOnUse" x1="209.1016" y1="109.2524" x2="220.7026" y2="129.3461">
				<stop  offset="0" style="stop-color:#CCCCCC"/>
				<stop  offset="0.0579" style="stop-color:#CECECE"/>
				<stop  offset="0.0832" style="stop-color:#D5D5D5"/>
				<stop  offset="0.102" style="stop-color:#E2E2E2"/>
				<stop  offset="0.1166" style="stop-color:#F2F2F2"/>
				<stop  offset="0.2024" style="stop-color:#EFEFEF"/>
				<stop  offset="0.2668" style="stop-color:#E5E5E5"/>
				<stop  offset="0.3241" style="stop-color:#D5D5D5"/>
				<stop  offset="0.377" style="stop-color:#BFBFBF"/>
				<stop  offset="0.3988" style="stop-color:#B3B3B3"/>
				<stop  offset="0.4031" style="stop-color:#B6B6B6"/>
				<stop  offset="0.4517" style="stop-color:#D0D0D0"/>
				<stop  offset="0.5014" style="stop-color:#E3E3E3"/>
				<stop  offset="0.5526" style="stop-color:#EEEEEE"/>
				<stop  offset="0.6074" style="stop-color:#F2F2F2"/>
				<stop  offset="0.6846" style="stop-color:#CBCBCB"/>
				<stop  offset="0.773" style="stop-color:#999999"/>
				<stop  offset="1" style="stop-color:#000000"/>
			</linearGradient>
			<path fill="url(#SVGID_8_)" stroke="#000000" stroke-miterlimit="10" d="M211.151,120.026v4.83c0,0.278,0.075,0.492,0.221,0.64
				c0.148,0.148,0.413,0.272,0.792,0.372v0.379h-6.266v-0.379c0.369-0.081,0.63-0.198,0.783-0.352
				c0.154-0.153,0.231-0.369,0.231-0.649v-12.384c0-0.279-0.076-0.49-0.222-0.636c-0.149-0.144-0.413-0.265-0.793-0.365v-0.379
				h11.616c1.506,0,2.656,0.066,3.448,0.197c0.79,0.131,1.498,0.368,2.119,0.71c1.277,0.713,1.915,1.874,1.915,3.488
				c0,1.225-0.394,2.184-1.179,2.873c-0.785,0.69-2.054,1.186-3.803,1.492l3.352,3.993c0.61,0.738,1.1,1.24,1.463,1.505
				c0.365,0.265,0.779,0.432,1.244,0.505v0.379h-7.453v-0.379c0.548-0.126,0.824-0.328,0.824-0.606c0-0.198-0.169-0.5-0.507-0.905
				l-3.542-4.33H211.151z M211.151,117.284h6.394c0.97,0,1.688-0.092,2.152-0.271c0.654-0.244,0.981-0.726,0.981-1.447
				c0-0.64-0.229-1.087-0.689-1.338c-0.457-0.252-1.272-0.379-2.444-0.379h-6.394V117.284z"/>
		</g>
		<g>
			<linearGradient id="SVGID_9_" gradientUnits="userSpaceOnUse" x1="109.5156" y1="135.3223" x2="125.1655" y2="162.4287">
				<stop  offset="0" style="stop-color:#CCCCCC"/>
				<stop  offset="0.0579" style="stop-color:#CECECE"/>
				<stop  offset="0.0832" style="stop-color:#D5D5D5"/>
				<stop  offset="0.102" style="stop-color:#E2E2E2"/>
				<stop  offset="0.1166" style="stop-color:#F2F2F2"/>
				<stop  offset="0.2024" style="stop-color:#EFEFEF"/>
				<stop  offset="0.2668" style="stop-color:#E5E5E5"/>
				<stop  offset="0.3241" style="stop-color:#D5D5D5"/>
				<stop  offset="0.377" style="stop-color:#BFBFBF"/>
				<stop  offset="0.3988" style="stop-color:#B3B3B3"/>
				<stop  offset="0.4031" style="stop-color:#B6B6B6"/>
				<stop  offset="0.4517" style="stop-color:#D0D0D0"/>
				<stop  offset="0.5014" style="stop-color:#E3E3E3"/>
				<stop  offset="0.5526" style="stop-color:#EEEEEE"/>
				<stop  offset="0.6074" style="stop-color:#F2F2F2"/>
				<stop  offset="0.6846" style="stop-color:#CBCBCB"/>
				<stop  offset="0.773" style="stop-color:#999999"/>
				<stop  offset="1" style="stop-color:#000000"/>
			</linearGradient>
			<path fill="url(#SVGID_9_)" stroke="#000000" stroke-miterlimit="10" d="M109.733,145.081v12.474c0,0.31,0.083,0.546,0.246,0.706
				c0.167,0.161,0.459,0.291,0.881,0.392v0.48h-7.053v-0.48c0.423-0.101,0.714-0.23,0.88-0.392c0.163-0.16,0.245-0.396,0.245-0.706
				v-17.374c0-0.3-0.082-0.53-0.245-0.692c-0.166-0.161-0.457-0.289-0.88-0.389v-0.48h8.162v0.48
				c-0.504,0.109-0.756,0.339-0.756,0.69c0,0.241,0.165,0.506,0.491,0.797l13.246,11.766v-12.173c0-0.3-0.083-0.53-0.246-0.692
				c-0.165-0.161-0.458-0.289-0.879-0.389v-0.48h7.051v0.48c-0.421,0.101-0.715,0.229-0.879,0.389
				c-0.162,0.162-0.246,0.392-0.246,0.692v17.374c0,0.31,0.084,0.546,0.246,0.706c0.164,0.161,0.458,0.291,0.879,0.392v0.48h-7.562
				v-0.48c0.493-0.092,0.739-0.309,0.739-0.646c0-0.199-0.289-0.551-0.862-1.053L109.733,145.081z"/>
			<linearGradient id="SVGID_10_" gradientUnits="userSpaceOnUse" x1="138.6411" y1="140.0391" x2="151.3818" y2="162.1066">
				<stop  offset="0" style="stop-color:#CCCCCC"/>
				<stop  offset="0.0579" style="stop-color:#CECECE"/>
				<stop  offset="0.0832" style="stop-color:#D5D5D5"/>
				<stop  offset="0.102" style="stop-color:#E2E2E2"/>
				<stop  offset="0.1166" style="stop-color:#F2F2F2"/>
				<stop  offset="0.2024" style="stop-color:#EFEFEF"/>
				<stop  offset="0.2668" style="stop-color:#E5E5E5"/>
				<stop  offset="0.3241" style="stop-color:#D5D5D5"/>
				<stop  offset="0.377" style="stop-color:#BFBFBF"/>
				<stop  offset="0.3988" style="stop-color:#B3B3B3"/>
				<stop  offset="0.4031" style="stop-color:#B6B6B6"/>
				<stop  offset="0.4517" style="stop-color:#D0D0D0"/>
				<stop  offset="0.5014" style="stop-color:#E3E3E3"/>
				<stop  offset="0.5526" style="stop-color:#EEEEEE"/>
				<stop  offset="0.6074" style="stop-color:#F2F2F2"/>
				<stop  offset="0.6846" style="stop-color:#CBCBCB"/>
				<stop  offset="0.773" style="stop-color:#999999"/>
				<stop  offset="1" style="stop-color:#000000"/>
			</linearGradient>
			<path fill="url(#SVGID_10_)" stroke="#000000" stroke-miterlimit="10" d="M140.57,151.978v4.104h12.51
				c0.357,0,0.639-0.067,0.834-0.206c0.191-0.139,0.347-0.39,0.467-0.756h0.489v4.975h-0.489c-0.107-0.351-0.262-0.598-0.459-0.742
				c-0.201-0.146-0.484-0.219-0.842-0.219h-18.351v-0.421c0.412-0.089,0.703-0.22,0.87-0.392c0.171-0.17,0.257-0.41,0.257-0.721
				v-13.769c0-0.31-0.082-0.544-0.247-0.704c-0.166-0.162-0.458-0.296-0.88-0.408v-0.42h17.803c0.372,0,0.659-0.068,0.854-0.21
				c0.189-0.139,0.346-0.39,0.464-0.751h0.477v4.976h-0.477c-0.118-0.365-0.274-0.616-0.464-0.757
				c-0.195-0.136-0.482-0.206-0.854-0.206H140.57v3.698h7.422c0.362,0,0.642-0.069,0.837-0.211c0.192-0.141,0.353-0.391,0.482-0.75
				h0.472v4.855h-0.472c-0.115-0.355-0.273-0.605-0.468-0.746c-0.193-0.144-0.476-0.218-0.852-0.218H140.57z"/>
			<linearGradient id="SVGID_11_" gradientUnits="userSpaceOnUse" x1="168.3936" y1="135.333" x2="182.8184" y2="160.3175">
				<stop  offset="0" style="stop-color:#CCCCCC"/>
				<stop  offset="0.0579" style="stop-color:#CECECE"/>
				<stop  offset="0.0832" style="stop-color:#D5D5D5"/>
				<stop  offset="0.102" style="stop-color:#E2E2E2"/>
				<stop  offset="0.1166" style="stop-color:#F2F2F2"/>
				<stop  offset="0.2024" style="stop-color:#EFEFEF"/>
				<stop  offset="0.2668" style="stop-color:#E5E5E5"/>
				<stop  offset="0.3241" style="stop-color:#D5D5D5"/>
				<stop  offset="0.377" style="stop-color:#BFBFBF"/>
				<stop  offset="0.3988" style="stop-color:#B3B3B3"/>
				<stop  offset="0.4031" style="stop-color:#B6B6B6"/>
				<stop  offset="0.4517" style="stop-color:#D0D0D0"/>
				<stop  offset="0.5014" style="stop-color:#E3E3E3"/>
				<stop  offset="0.5526" style="stop-color:#EEEEEE"/>
				<stop  offset="0.6074" style="stop-color:#F2F2F2"/>
				<stop  offset="0.6846" style="stop-color:#CBCBCB"/>
				<stop  offset="0.773" style="stop-color:#999999"/>
				<stop  offset="1" style="stop-color:#000000"/>
			</linearGradient>
			<path fill="url(#SVGID_11_)" stroke="#000000" stroke-miterlimit="10" d="M173.868,147.439l-4.315,9.153
				c-0.209,0.449-0.315,0.823-0.315,1.11c0,0.562,0.387,0.904,1.161,1.023v0.406h-7.341v-0.406c0.704-0.15,1.057-0.49,1.057-1.023
				c0-0.27-0.104-0.639-0.316-1.11l-5.213-11.481c-0.402-0.883-0.74-1.471-1.014-1.767c-0.276-0.297-0.69-0.504-1.241-0.626v-0.42
				h7.488v0.42c-0.728,0.204-1.089,0.519-1.089,0.947c0,0.211,0.115,0.573,0.351,1.083l3.704,7.952l3.685-7.891
				c0.223-0.469,0.335-0.832,0.335-1.083c0-0.501-0.394-0.837-1.18-1.009v-0.42h8.77v0.42c-0.763,0.212-1.144,0.562-1.144,1.053
				c0,0.223,0.101,0.547,0.301,0.978l3.593,7.952l3.591-8.026c0.154-0.35,0.23-0.657,0.23-0.918c0-0.279-0.082-0.495-0.247-0.646
				c-0.167-0.15-0.465-0.28-0.899-0.392v-0.42h7.673v0.42c-0.571,0.183-0.991,0.41-1.255,0.685s-0.597,0.844-0.994,1.708
				l-5.282,11.481c-0.189,0.413-0.285,0.772-0.285,1.081c0,0.582,0.4,0.934,1.197,1.053v0.406h-7.64v-0.406
				c0.75-0.178,1.127-0.546,1.127-1.098c0-0.138-0.131-0.484-0.388-1.036L173.868,147.439z"/>
		</g>
		<g>
			<linearGradient id="SVGID_12_" gradientUnits="userSpaceOnUse" x1="64.2334" y1="160.2422" x2="85.3496" y2="196.8165">
				<stop  offset="0" style="stop-color:#CCCCCC"/>
				<stop  offset="0.0579" style="stop-color:#CECECE"/>
				<stop  offset="0.0832" style="stop-color:#D5D5D5"/>
				<stop  offset="0.102" style="stop-color:#E2E2E2"/>
				<stop  offset="0.1166" style="stop-color:#F2F2F2"/>
				<stop  offset="0.2024" style="stop-color:#EFEFEF"/>
				<stop  offset="0.2668" style="stop-color:#E5E5E5"/>
				<stop  offset="0.3241" style="stop-color:#D5D5D5"/>
				<stop  offset="0.377" style="stop-color:#BFBFBF"/>
				<stop  offset="0.3988" style="stop-color:#B3B3B3"/>
				<stop  offset="0.4031" style="stop-color:#B6B6B6"/>
				<stop  offset="0.4517" style="stop-color:#D0D0D0"/>
				<stop  offset="0.5014" style="stop-color:#E3E3E3"/>
				<stop  offset="0.5526" style="stop-color:#EEEEEE"/>
				<stop  offset="0.6074" style="stop-color:#F2F2F2"/>
				<stop  offset="0.6846" style="stop-color:#CBCBCB"/>
				<stop  offset="0.773" style="stop-color:#999999"/>
				<stop  offset="1" style="stop-color:#000000"/>
			</linearGradient>
			<path fill="url(#SVGID_12_)" stroke="#000000" stroke-miterlimit="10" d="M72.251,177.77l-6.749,14.578
				c-0.389,0.741-0.586,1.207-0.586,1.404c0,0.568,0.533,0.969,1.601,1.201v0.591H57.01v-0.591c0.967-0.16,1.45-0.579,1.45-1.258
				c0-0.186-0.202-0.731-0.607-1.646l-8.462-18.607c-0.417-0.923-0.797-1.548-1.137-1.874c-0.338-0.327-0.832-0.545-1.482-0.654
				v-0.591h10.263v0.591c-0.909,0.171-1.364,0.534-1.364,1.091c0,0.281,0.117,0.687,0.35,1.214l5.836,13.351l6.323-13.423
				c0.271-0.576,0.411-0.956,0.411-1.142c0-0.571-0.484-0.934-1.45-1.091v-0.591h10.73v0.591c-0.983,0.222-1.472,0.618-1.472,1.2
				c0,0.197,0.122,0.568,0.366,1.104l6.026,13.351l5.823-13.127c0.302-0.652,0.451-1.138,0.451-1.459
				c0-0.543-0.519-0.898-1.556-1.069v-0.591h10.15v0.591c-0.72,0.171-1.22,0.392-1.491,0.665c-0.273,0.27-0.637,0.887-1.084,1.863
				l-8.461,18.607c-0.403,0.889-0.606,1.482-0.606,1.777c0,0.603,0.512,0.979,1.537,1.126v0.591h-9.631v-0.591
				c1.01-0.136,1.513-0.547,1.513-1.237c0-0.233-0.222-0.788-0.67-1.666L72.251,177.77z"/>
			<linearGradient id="SVGID_13_" gradientUnits="userSpaceOnUse" x1="103.5088" y1="172.0703" x2="119.1729" y2="199.2013">
				<stop  offset="0" style="stop-color:#CCCCCC"/>
				<stop  offset="0.0579" style="stop-color:#CECECE"/>
				<stop  offset="0.0832" style="stop-color:#D5D5D5"/>
				<stop  offset="0.102" style="stop-color:#E2E2E2"/>
				<stop  offset="0.1166" style="stop-color:#F2F2F2"/>
				<stop  offset="0.2024" style="stop-color:#EFEFEF"/>
				<stop  offset="0.2668" style="stop-color:#E5E5E5"/>
				<stop  offset="0.3241" style="stop-color:#D5D5D5"/>
				<stop  offset="0.377" style="stop-color:#BFBFBF"/>
				<stop  offset="0.3988" style="stop-color:#B3B3B3"/>
				<stop  offset="0.4031" style="stop-color:#B6B6B6"/>
				<stop  offset="0.4517" style="stop-color:#D0D0D0"/>
				<stop  offset="0.5014" style="stop-color:#E3E3E3"/>
				<stop  offset="0.5526" style="stop-color:#EEEEEE"/>
				<stop  offset="0.6074" style="stop-color:#F2F2F2"/>
				<stop  offset="0.6846" style="stop-color:#CBCBCB"/>
				<stop  offset="0.773" style="stop-color:#999999"/>
				<stop  offset="1" style="stop-color:#000000"/>
			</linearGradient>
			<path fill="url(#SVGID_13_)" stroke="#000000" stroke-miterlimit="10" d="M105.881,186.748v5.045h15.374
				c0.448,0,0.79-0.084,1.027-0.253c0.237-0.171,0.431-0.478,0.576-0.932h0.603v6.118h-0.603c-0.132-0.43-0.314-0.736-0.566-0.913
				c-0.241-0.179-0.588-0.27-1.036-0.27H98.699v-0.517c0.506-0.111,0.863-0.269,1.072-0.48c0.207-0.213,0.314-0.507,0.314-0.887
				v-16.927c0-0.383-0.1-0.674-0.305-0.868c-0.201-0.197-0.562-0.363-1.081-0.502v-0.516h21.885c0.466,0,0.812-0.085,1.049-0.259
				c0.237-0.171,0.431-0.481,0.574-0.924h0.584v6.117h-0.584c-0.143-0.447-0.336-0.758-0.574-0.931
				c-0.237-0.165-0.583-0.254-1.049-0.254h-14.703v4.548h9.129c0.442,0,0.789-0.085,1.026-0.26c0.239-0.172,0.433-0.479,0.595-0.922
				h0.586v5.969h-0.586c-0.147-0.437-0.335-0.743-0.572-0.92c-0.239-0.175-0.588-0.265-1.049-0.265H105.881z"/>
			<linearGradient id="SVGID_14_" gradientUnits="userSpaceOnUse" x1="130.5889" y1="177.625" x2="144.6602" y2="201.9972">
				<stop  offset="0" style="stop-color:#CCCCCC"/>
				<stop  offset="0.0579" style="stop-color:#CECECE"/>
				<stop  offset="0.0832" style="stop-color:#D5D5D5"/>
				<stop  offset="0.102" style="stop-color:#E2E2E2"/>
				<stop  offset="0.1166" style="stop-color:#F2F2F2"/>
				<stop  offset="0.2024" style="stop-color:#EFEFEF"/>
				<stop  offset="0.2668" style="stop-color:#E5E5E5"/>
				<stop  offset="0.3241" style="stop-color:#D5D5D5"/>
				<stop  offset="0.377" style="stop-color:#BFBFBF"/>
				<stop  offset="0.3988" style="stop-color:#B3B3B3"/>
				<stop  offset="0.4031" style="stop-color:#B6B6B6"/>
				<stop  offset="0.4517" style="stop-color:#D0D0D0"/>
				<stop  offset="0.5014" style="stop-color:#E3E3E3"/>
				<stop  offset="0.5526" style="stop-color:#EEEEEE"/>
				<stop  offset="0.6074" style="stop-color:#F2F2F2"/>
				<stop  offset="0.6846" style="stop-color:#CBCBCB"/>
				<stop  offset="0.773" style="stop-color:#999999"/>
				<stop  offset="1" style="stop-color:#000000"/>
			</linearGradient>
			<path fill="url(#SVGID_14_)" stroke="#000000" stroke-miterlimit="10" d="M145.472,190.37h-11.139l-1.258,2.256
				c-0.301,0.542-0.453,0.967-0.453,1.275c0,0.589,0.463,0.967,1.383,1.126v0.517h-8.896v-0.517
				c0.546-0.074,0.952-0.215,1.221-0.427c0.267-0.209,0.579-0.618,0.94-1.236l8.846-15.301c0.331-0.578,0.498-1.088,0.498-1.516
				c0-0.504-0.406-0.898-1.214-1.185v-0.516h9.408v0.516c-0.795,0.274-1.188,0.691-1.188,1.26c0,0.405,0.179,0.902,0.54,1.496
				l9.171,14.84c0.506,0.804,0.896,1.325,1.188,1.562c0.289,0.239,0.729,0.408,1.32,0.506v0.517h-9.895v-0.517
				c0.936-0.136,1.407-0.508,1.407-1.123c0-0.382-0.183-0.854-0.543-1.414L145.472,190.37z M143.725,187.471l-3.965-6.656
				l-3.773,6.656H143.725z"/>
			<linearGradient id="SVGID_15_" gradientUnits="userSpaceOnUse" x1="162.0615" y1="172.417" x2="173.1641" y2="191.6472">
				<stop  offset="0" style="stop-color:#CCCCCC"/>
				<stop  offset="0.0579" style="stop-color:#CECECE"/>
				<stop  offset="0.0832" style="stop-color:#D5D5D5"/>
				<stop  offset="0.102" style="stop-color:#E2E2E2"/>
				<stop  offset="0.1166" style="stop-color:#F2F2F2"/>
				<stop  offset="0.2024" style="stop-color:#EFEFEF"/>
				<stop  offset="0.2668" style="stop-color:#E5E5E5"/>
				<stop  offset="0.3241" style="stop-color:#D5D5D5"/>
				<stop  offset="0.377" style="stop-color:#BFBFBF"/>
				<stop  offset="0.3988" style="stop-color:#B3B3B3"/>
				<stop  offset="0.4031" style="stop-color:#B6B6B6"/>
				<stop  offset="0.4517" style="stop-color:#D0D0D0"/>
				<stop  offset="0.5014" style="stop-color:#E3E3E3"/>
				<stop  offset="0.5526" style="stop-color:#EEEEEE"/>
				<stop  offset="0.6074" style="stop-color:#F2F2F2"/>
				<stop  offset="0.6846" style="stop-color:#CBCBCB"/>
				<stop  offset="0.773" style="stop-color:#999999"/>
				<stop  offset="1" style="stop-color:#000000"/>
			</linearGradient>
			<path fill="url(#SVGID_15_)" stroke="#000000" stroke-miterlimit="10" d="M165.029,187.044v6.6c0,0.381,0.106,0.677,0.305,0.876
				c0.202,0.203,0.562,0.372,1.083,0.508v0.517h-8.565v-0.517c0.504-0.111,0.863-0.269,1.071-0.48
				c0.208-0.213,0.313-0.507,0.313-0.887v-16.927c0-0.383-0.101-0.674-0.303-0.868c-0.202-0.197-0.56-0.363-1.082-0.502v-0.516
				h15.789c3.128,0,5.485,0.403,7.07,1.203c0.926,0.465,1.643,1.133,2.161,1.993c0.521,0.861,0.783,1.83,0.783,2.901
				c0,2.06-0.821,3.589-2.47,4.592c-1.643,1.005-4.158,1.507-7.545,1.507H165.029z M165.029,183.293h8.264
				c1.516,0,2.564-0.122,3.16-0.371c0.864-0.355,1.298-1.015,1.298-1.977c0-0.961-0.434-1.619-1.298-1.975
				c-0.579-0.249-1.631-0.373-3.16-0.373h-8.264V183.293z"/>
			<linearGradient id="SVGID_16_" gradientUnits="userSpaceOnUse" x1="194.3984" y1="174.8281" x2="206.3823" y2="195.5848">
				<stop  offset="0" style="stop-color:#CCCCCC"/>
				<stop  offset="0.0579" style="stop-color:#CECECE"/>
				<stop  offset="0.0832" style="stop-color:#D5D5D5"/>
				<stop  offset="0.102" style="stop-color:#E2E2E2"/>
				<stop  offset="0.1166" style="stop-color:#F2F2F2"/>
				<stop  offset="0.2024" style="stop-color:#EFEFEF"/>
				<stop  offset="0.2668" style="stop-color:#E5E5E5"/>
				<stop  offset="0.3241" style="stop-color:#D5D5D5"/>
				<stop  offset="0.377" style="stop-color:#BFBFBF"/>
				<stop  offset="0.3988" style="stop-color:#B3B3B3"/>
				<stop  offset="0.4031" style="stop-color:#B6B6B6"/>
				<stop  offset="0.4517" style="stop-color:#D0D0D0"/>
				<stop  offset="0.5014" style="stop-color:#E3E3E3"/>
				<stop  offset="0.5526" style="stop-color:#EEEEEE"/>
				<stop  offset="0.6074" style="stop-color:#F2F2F2"/>
				<stop  offset="0.6846" style="stop-color:#CBCBCB"/>
				<stop  offset="0.773" style="stop-color:#999999"/>
				<stop  offset="1" style="stop-color:#000000"/>
			</linearGradient>
			<path fill="url(#SVGID_16_)" stroke="#000000" stroke-miterlimit="10" d="M200.361,174.403c3.853,0,7.062,0.841,9.631,2.513
				c3.073,2.024,4.609,4.837,4.609,8.448c0,3.385-1.536,6.092-4.609,8.111c-2.539,1.671-5.735,2.512-9.588,2.512
				c-3.855,0-7.052-0.841-9.59-2.512c-3.087-2.02-4.629-4.78-4.629-8.277c0-3.537,1.542-6.298,4.629-8.282
				C193.369,175.278,196.549,174.442,200.361,174.403z M200.383,178.323c-2.501,0-4.535,0.683-6.106,2.053
				c-1.46,1.278-2.187,2.887-2.187,4.822c0,1.921,0.727,3.522,2.187,4.801c1.571,1.382,3.616,2.071,6.128,2.071
				c2.499,0,4.532-0.689,6.104-2.071c1.458-1.267,2.188-2.839,2.188-4.71c0-2.033-0.73-3.668-2.188-4.913
				C204.921,179.031,202.883,178.347,200.383,178.323z"/>
			<linearGradient id="SVGID_17_" gradientUnits="userSpaceOnUse" x1="224.582" y1="171.2207" x2="240.7183" y2="199.1695">
				<stop  offset="0" style="stop-color:#CCCCCC"/>
				<stop  offset="0.0579" style="stop-color:#CECECE"/>
				<stop  offset="0.0832" style="stop-color:#D5D5D5"/>
				<stop  offset="0.102" style="stop-color:#E2E2E2"/>
				<stop  offset="0.1166" style="stop-color:#F2F2F2"/>
				<stop  offset="0.2024" style="stop-color:#EFEFEF"/>
				<stop  offset="0.2668" style="stop-color:#E5E5E5"/>
				<stop  offset="0.3241" style="stop-color:#D5D5D5"/>
				<stop  offset="0.377" style="stop-color:#BFBFBF"/>
				<stop  offset="0.3988" style="stop-color:#B3B3B3"/>
				<stop  offset="0.4031" style="stop-color:#B6B6B6"/>
				<stop  offset="0.4517" style="stop-color:#D0D0D0"/>
				<stop  offset="0.5014" style="stop-color:#E3E3E3"/>
				<stop  offset="0.5526" style="stop-color:#EEEEEE"/>
				<stop  offset="0.6074" style="stop-color:#F2F2F2"/>
				<stop  offset="0.6846" style="stop-color:#CBCBCB"/>
				<stop  offset="0.773" style="stop-color:#999999"/>
				<stop  offset="1" style="stop-color:#000000"/>
			</linearGradient>
			<path fill="url(#SVGID_17_)" stroke="#000000" stroke-miterlimit="10" d="M224.961,181.907v11.734
				c0,0.383,0.104,0.679,0.313,0.887c0.213,0.209,0.568,0.376,1.069,0.499v0.517h-8.042v-0.517c0.502-0.111,0.859-0.269,1.069-0.48
				c0.209-0.213,0.312-0.507,0.312-0.887v-16.927c0-0.383-0.1-0.674-0.301-0.868c-0.201-0.197-0.564-0.363-1.081-0.502v-0.516h9.302
				v0.516c-0.635,0.139-0.954,0.378-0.954,0.722c0,0.295,0.234,0.644,0.696,1.035l12.992,11.017v-11.403
				c0-0.383-0.102-0.676-0.304-0.88c-0.199-0.202-0.562-0.364-1.081-0.49v-0.516H247v0.516c-0.518,0.126-0.88,0.288-1.081,0.49
				c-0.203,0.204-0.303,0.495-0.303,0.88v16.908c0,0.383,0.1,0.672,0.303,0.878c0.201,0.203,0.563,0.372,1.081,0.508v0.517h-8.679
				v-0.517c0.636-0.109,0.952-0.335,0.952-0.68c0-0.169-0.087-0.348-0.257-0.529c-0.174-0.186-0.567-0.546-1.189-1.082
				L224.961,181.907z"/>
		</g>
	</g>
</g>
</svg>
