<?xml version="1.0" encoding="utf-8"?>
<!-- Generator: Adobe Illustrator 15.1.0, SVG Export Plug-In . SVG Version: 6.00 Build 0)  -->
<!DOCTYPE svg PUBLIC "-//W3C//DTD SVG 1.1//EN" "http://www.w3.org/Graphics/SVG/1.1/DTD/svg11.dtd">
<svg version="1.1" id="Layer_1" xmlns="http://www.w3.org/2000/svg" xmlns:xlink="http://www.w3.org/1999/xlink" x="0px" y="0px"
	 width="50px" height="50px" viewBox="125 125 50 50" enable-background="new 125 125 50 50" xml:space="preserve">
<g id="shotgun">
	<g>
		<rect x="126.667" y="126.667" fill="#660000" width="46.667" height="46.667"/>
		<g id="stroke_2_">
			<path fill="#660000" d="M173.333,126.667v46.667h-46.667v-46.667H173.333 M175,125h-1.136h-45.453H125v1.136v45.459V175h3.412
				h45.453H175v-3.405v-45.459V125L175,125z"/>
			
				<linearGradient id="SVGID_1_" gradientUnits="userSpaceOnUse" x1="1023" y1="-1015.9995" x2="1023" y2="-966" gradientTransform="matrix(1 0 0 -1 -873 -841)">
				<stop  offset="0" style="stop-color:#333333;stop-opacity:0.3"/>
				<stop  offset="0.2701" style="stop-color:#353535;stop-opacity:0.4215"/>
				<stop  offset="0.4166" style="stop-color:#3D3D3D;stop-opacity:0.4875"/>
				<stop  offset="0.5336" style="stop-color:#4B4B4B;stop-opacity:0.5401"/>
				<stop  offset="0.635" style="stop-color:#5E5E5E;stop-opacity:0.5857"/>
				<stop  offset="0.7262" style="stop-color:#787878;stop-opacity:0.6268"/>
				<stop  offset="0.8101" style="stop-color:#979797;stop-opacity:0.6646"/>
				<stop  offset="0.8885" style="stop-color:#BBBBBB;stop-opacity:0.6998"/>
				<stop  offset="0.9606" style="stop-color:#E5E5E5;stop-opacity:0.7323"/>
				<stop  offset="1" style="stop-color:#FFFFFF;stop-opacity:0.75"/>
			</linearGradient>
			<path fill="url(#SVGID_1_)" d="M173.333,126.667v46.667h-46.667v-46.667H173.333 M175,125h-1.136h-45.453H125v1.136v45.459V175
				h3.412h45.453H175v-3.405v-45.459V125L175,125z"/>
		</g>
	</g>
	<path id="gun_2_" fill="#231F20" d="M138.522,157.878c0.251-0.241,0.274-0.28,0.202-0.349c-0.085-0.081-0.264,0.017-0.537,0.303
		c-0.14,0.149-0.15,0.169-0.049,0.244C138.229,158.138,138.268,158.125,138.522,157.878z M143.333,152.754
		c-0.007-0.104-0.117-0.146-0.189-0.072c-0.039,0.046-0.055,0.108-0.02,0.137C143.184,152.884,143.34,152.832,143.333,152.754z
		 M143.581,152.487c0.078-0.004,0.078-0.026-0.003-0.098c-0.071-0.072-0.098-0.072-0.098,0.003
		C143.486,152.468,143.506,152.487,143.581,152.487z M144.443,151.702c-0.192-0.182-0.316-0.152-0.524,0.137
		c-0.241,0.342-0.153,0.459,0.15,0.205c0.124-0.098,0.257-0.176,0.312-0.183C144.531,151.855,144.551,151.8,144.443,151.702z
		 M130.843,167.077c0.179-0.183,0.186-0.209,0.088-0.277s-0.137-0.049-0.394,0.199c-0.247,0.24-0.267,0.279-0.192,0.345
		c0.039,0.042,0.124,0.045,0.195,0.003C130.599,167.312,130.736,167.188,130.843,167.077z M136.934,161.595
		c0.156-0.149,0.202-0.215,0.169-0.293c-0.02-0.062-0.042-0.11-0.055-0.123c-0.01-0.014-0.335,0.293-0.726,0.677
		c-0.391,0.381-1.68,1.637-2.861,2.793c-1.667,1.631-2.158,2.135-2.191,2.246c-0.022,0.098-0.055,0.124-0.098,0.104
		c-0.036-0.014-0.143,0.052-0.228,0.149c-0.156,0.163-0.156,0.176-0.02,0.117c0.078-0.039,0.166-0.068,0.176-0.078
		c0.01-0.014,0.319-0.307,0.68-0.654c0.368-0.349,1.039-1,1.494-1.436c1-0.951,1.38-1.322,2.565-2.451
		C136.334,162.175,136.83,161.702,136.934,161.595z M146.348,152.591c0.091-0.045,0.072-0.169-0.006-0.169
		c-0.085,0-0.814,0.771-0.804,0.84c0.02,0.065,0.013,0.068,0.41-0.319C146.129,152.771,146.309,152.61,146.348,152.591z
		 M165.886,131.999c0.101-0.081,0.628-0.758,0.628-0.814c-0.007-0.026-0.234-0.286-0.521-0.573l-0.512-0.534l-0.201,0.032
		c-0.222,0.033-0.681,0.397-0.886,0.7c-0.11,0.163-0.123,0.257-0.062,0.592c0.062,0.361,0.322,1.012,0.466,1.143
		c0.094,0.084,0.488-0.062,0.755-0.28C165.696,132.148,165.847,132.024,165.886,131.999z M144.674,154.694
		c0.596-0.6,0.677-0.697,0.345-0.391c-0.729,0.66-1.686,1.602-1.39,1.38C143.767,155.576,144.238,155.127,144.674,154.694z
		 M132.497,168.32l0.322-0.293l-0.104-0.101c-0.062-0.062-0.13-0.095-0.156-0.088c-0.033,0.006-0.195,0.149-0.358,0.312
		c-0.312,0.3-0.312,0.3-0.195,0.384c0.065,0.043,0.124,0.078,0.136,0.082C132.155,168.616,132.311,168.483,132.497,168.32z
		 M167.073,132.506l0.629-0.605l-0.124-0.124l-0.13-0.114l-0.385,0.361c-0.215,0.202-0.853,0.785-1.406,1.302
		c-0.566,0.514-2.976,2.858-5.374,5.208c-4.964,4.857-8.05,7.871-9.707,9.486c-1.078,1.048-1.413,1.413-0.954,1.042
		c0.104-0.084,1.094-1.029,2.182-2.083c3.037-2.956,4.84-4.694,5.25-5.084c0.205-0.195,0.583-0.553,0.84-0.794
		c0.466-0.449,0.531-0.501,1.384-1.256c1.211-1.078,3.001-2.751,5.521-5.153C165.7,133.822,166.731,132.845,167.073,132.506z
		 M166.663,135.091c0.114-0.101,0.198-0.205,0.205-0.222c0-0.022-0.065-0.098-0.137-0.172l-0.137-0.127l-0.348,0.322
		c-0.199,0.173-1.892,1.791-3.767,3.584c-1.875,1.8-3.529,3.379-3.679,3.516c-0.149,0.13-0.254,0.254-0.234,0.267
		c0.062,0.068,0.466-0.137,0.854-0.426c0.228-0.173,1.9-1.719,3.717-3.435C164.971,136.677,166.556,135.195,166.663,135.091z
		 M153.418,149.04c0.215,0.013,0.195-0.107-0.049-0.257c-0.195-0.13-0.244-0.098-0.173,0.098
		C153.249,149,153.288,149.033,153.418,149.04z M153.809,148.789c0.072-0.068-0.234-0.342-0.332-0.29
		c-0.085,0.042,0,0.192,0.153,0.286C153.698,148.822,153.772,148.822,153.809,148.789z M154.043,148.548
		c0.039-0.045,0.01-0.108-0.11-0.215c-0.117-0.117-0.183-0.143-0.229-0.104c-0.038,0.052-0.013,0.111,0.111,0.225
		C153.933,148.568,153.994,148.597,154.043,148.548z M154.31,148.19c-0.078-0.127-0.309-0.277-0.352-0.222
		c-0.045,0.045,0.088,0.254,0.209,0.335C154.284,148.372,154.382,148.304,154.31,148.19z M154.603,148.044
		c0.046-0.049,0.017-0.101-0.11-0.199c-0.081-0.072-0.188-0.117-0.222-0.098c-0.078,0.042,0.026,0.234,0.16,0.299
		C154.492,148.08,154.57,148.07,154.603,148.044z M154.727,147.572c-0.091-0.082-0.188-0.137-0.208-0.117
		c-0.062,0.068,0.032,0.267,0.149,0.332C154.87,147.897,154.909,147.747,154.727,147.572z M155.134,147.559
		c0.055-0.052-0.068-0.225-0.219-0.309c-0.123-0.068-0.13-0.068-0.13,0.068c-0.007,0.111,0.026,0.15,0.156,0.205
		C155.029,147.565,155.114,147.578,155.134,147.559z M155.28,147.077c-0.114-0.114-0.189-0.143-0.222-0.104
		c-0.068,0.075,0,0.215,0.156,0.306C155.42,147.396,155.476,147.25,155.28,147.077z M155.632,147.061
		c0.098-0.042,0.006-0.192-0.18-0.316c-0.172-0.114-0.195,0.02-0.032,0.202C155.508,147.051,155.579,147.087,155.632,147.061z
		 M155.837,146.569c-0.117-0.11-0.186-0.137-0.225-0.098c-0.068,0.075,0.025,0.254,0.176,0.326
		C155.983,146.895,156.016,146.738,155.837,146.569z M157.63,144.99c0.026,0,0.014-0.036-0.032-0.082
		c-0.052-0.039-0.071-0.039-0.052,0.007C157.571,144.955,157.607,144.99,157.63,144.99z M156.185,146.556
		c0.092-0.042-0.02-0.241-0.188-0.332c-0.159-0.088-0.173,0.049-0.023,0.221C156.067,146.543,156.14,146.582,156.185,146.556z
		 M156.504,146.279c0.049-0.045,0.01-0.094-0.121-0.211c-0.107-0.082-0.218-0.137-0.25-0.117c-0.072,0.045,0.052,0.241,0.201,0.329
		C156.394,146.309,156.478,146.315,156.504,146.279z M156.765,145.892c-0.065-0.137-0.258-0.241-0.326-0.172
		c-0.035,0.049-0.013,0.104,0.088,0.198C156.68,146.055,156.836,146.042,156.765,145.892z M157.038,145.755
		c0.059-0.026,0.035-0.072-0.107-0.212c-0.134-0.124-0.205-0.156-0.241-0.117c-0.059,0.062,0.042,0.234,0.179,0.322
		C156.917,145.768,156.992,145.774,157.038,145.755z M157.2,145.241c-0.091-0.088-0.162-0.11-0.201-0.072
		c-0.068,0.075,0.025,0.251,0.176,0.319C157.386,145.599,157.396,145.433,157.2,145.241z M157.614,145.124
		c-0.036-0.107-0.322-0.267-0.358-0.195c-0.02,0.039,0.036,0.13,0.101,0.202C157.503,145.257,157.646,145.254,157.614,145.124z
		 M168.938,134.049c0.365-0.335,0.388-0.365,0.326-0.465c-0.039-0.055-0.085-0.098-0.104-0.091c-0.032,0.01-0.319,0.271-0.651,0.583
		c-0.579,0.553-0.589,0.566-0.494,0.647c0.064,0.068,0.117,0.056,0.312-0.12C168.447,134.499,168.724,134.245,168.938,134.049z
		 M144.818,160.576c0.241-0.188,0.241-0.41-0.007-0.749c-0.345-0.465-0.472-0.569-0.716-0.553c-0.172,0.006-0.28,0.065-0.511,0.264
		c-0.335,0.289-0.417,0.472-0.375,0.853c0.02,0.195,0.065,0.276,0.28,0.479c0.25,0.244,0.254,0.251,0.072,0.192
		c-0.114-0.039-0.3-0.183-0.505-0.381c-0.368-0.355-0.498-0.378-0.368-0.043c0.072,0.186,0.13,0.241,0.472,0.488
		c0.524,0.375,0.628,0.368,1.146-0.098C144.505,160.84,144.743,160.632,144.818,160.576z M142.627,163.099
		c0.006-0.016-0.075-0.062-0.198-0.11c-0.41-0.149-0.729-0.088-0.729,0.149c-0.013,0.268,0.124,0.303,0.527,0.137
		C142.435,163.187,142.617,163.112,142.627,163.099z M144.971,165.892l-0.186,0.192c-0.254,0.276-1.709,1.006-1.907,0.954
		c-0.104-0.02-0.801-1.94-1.058-2.917c-0.293-1.101-0.459-1.419-0.876-1.712c-0.133-0.091-0.253-0.198-0.27-0.228
		c-0.042-0.082-0.329-0.039-1.058,0.162c-0.306,0.078-0.735,0.156-0.963,0.166c-0.384,0.017-0.417,0.007-0.553-0.159
		c-0.104-0.13-0.16-0.163-0.205-0.117c-0.029,0.032-0.133,0.12-0.228,0.208c-0.094,0.078-0.628,0.58-1.168,1.107
		c-0.547,0.527-1.152,1.106-1.348,1.289l-0.358,0.328l0.521,0.453c0.355,0.299,0.527,0.479,0.521,0.521
		c-0.016,0.039-0.267,0.283-0.557,0.534l-0.537,0.462l-0.059,0.827c-0.059,0.853-0.163,1.233-0.349,1.197
		c-0.049-0.006-0.163-0.064-0.25-0.12c-0.088-0.062-0.195-0.095-0.228-0.075c-0.039,0.02-0.169,0.397-0.299,0.847
		c-0.124,0.456-0.273,0.901-0.335,0.993l-0.114,0.162l-0.287-0.211c-0.153-0.124-0.664-0.583-1.129-1.022
		c-0.771-0.739-0.853-0.801-0.934-0.755c-0.222,0.123-0.684-0.137-0.908-0.492c-0.062-0.101-0.049-0.133,0.114-0.25
		c0.111-0.092,0.156-0.153,0.124-0.183c-0.019-0.022-0.084,0.003-0.143,0.065c-0.055,0.062-0.107,0.078-0.114,0.042
		c-0.017-0.036,0.013-0.104,0.062-0.153c0.065-0.071,0.052-0.094-0.071-0.176l-0.144-0.084l0.202-0.244
		c0.11-0.137,0.462-0.505,0.768-0.817l0.576-0.573l0.14,0.137c0.071,0.072,0.146,0.134,0.159,0.127
		c0.094-0.035,5.589-5.439,5.593-5.498c0.003-0.049,0.049-0.104,0.094-0.123c0.059-0.029,0.104-0.098,0.124-0.173
		c0.023-0.081,0.202-0.276,0.56-0.599c0.286-0.271,0.521-0.492,0.521-0.508c0-0.02-0.182-0.312-0.41-0.668
		c-0.354-0.553-0.403-0.65-0.345-0.742c0.059-0.071,0.039-0.146-0.059-0.276c-0.075-0.095-0.169-0.276-0.231-0.388l-0.094-0.221
		l0.443-0.41c0.247-0.234,0.547-0.518,0.651-0.635l0.208-0.219l0.462,0.163c0.713,0.234,1.178,0.446,1.478,0.677
		c0.452,0.339,0.433,0.339,0.7,0.056c0.205-0.219,0.231-0.261,0.156-0.322c-0.049-0.046-0.117-0.065-0.149-0.046
		c-0.042,0.026-0.205-0.088-0.541-0.391l-0.479-0.43l0.199-0.205c0.188-0.205,0.192-0.225,0.101-0.315
		c-0.149-0.134-0.072-0.374,0.137-0.456c0.104-0.045,0.179-0.032,0.26,0.039c0.078,0.078,0.124,0.078,0.202-0.006
		c0.078-0.078,0.078-0.124,0.007-0.202c-0.137-0.117-0.052-0.365,0.14-0.456c0.095-0.045,0.163-0.032,0.244,0.036
		c0.079,0.078,0.13,0.078,0.199,0.01c0.055-0.046,0.342-0.322,0.635-0.605l0.541-0.521l-0.117-0.092
		c-0.104-0.068-0.114-0.137-0.059-0.43c0.062-0.332,0.055-0.352-0.104-0.455c-0.091-0.056-0.237-0.202-0.329-0.31l-0.153-0.212
		l0.183-0.195c0.137-0.14,0.183-0.222,0.149-0.286c-0.075-0.16-0.124-0.157-0.28,0.01c-0.101,0.107-0.169,0.143-0.179,0.104
		c-0.016-0.071,0.179-0.289,0.4-0.445c0.254-0.179,0.794,0.071,1.003,0.472c0.072,0.114,0.195,0.244,0.287,0.312
		c0.156,0.098,0.188,0.098,0.351-0.029c0.144-0.11,0.234-0.137,0.4-0.091c0.29,0.059,0.381,0.162,0.43,0.484
		c0.017,0.146,0.046,0.29,0.075,0.31c0.059,0.059,0.042,0.455-0.02,0.605c-0.036,0.071-0.046,0.13-0.029,0.137
		c0.022-0.007,1.123-1.074,1.592-1.56c0.068-0.068,0.117-0.068,0.192-0.003c0.192,0.182,0.413,0.016,1.754-1.296
		c0.677-0.664,4.512-4.401,8.509-8.304c4.004-3.9,7.412-7.23,7.578-7.396l0.307-0.303l-0.192-0.618
		c-0.417-1.27-0.71-2.976-0.582-3.399c0.13-0.436,0.364-0.605,0.82-0.599l0.221-0.007l0.717,0.759
		c0.391,0.407,0.875,0.921,1.08,1.136c0.3,0.326,0.371,0.378,0.423,0.332c0.026-0.036,0.102-0.039,0.163-0.006
		c0.104,0.052,0.717,0.68,0.951,0.99l0.123,0.156l-0.621,0.592l-0.629,0.596l0.176,0.157l0.173,0.159l0.225-0.241
		c0.13-0.137,0.41-0.4,0.628-0.599l0.391-0.352l0.244,0.228l0.241,0.228l0.137-0.14l0.137-0.146l0.208,0.195l0.209,0.202
		l-0.16,0.163l-0.149,0.163l0.179,0.225l0.183,0.225l-0.901,0.928c-0.756,0.781-0.908,0.921-1.01,0.915
		c-0.088-0.006-0.667,0.501-3.675,3.294c-2.718,2.533-3.567,3.346-3.594,3.447c-0.032,0.075-0.169,0.309-0.319,0.514
		c-0.143,0.205-0.364,0.553-0.484,0.765c-0.114,0.211-0.41,0.651-0.648,0.97c-0.413,0.566-0.472,0.628-1.861,1.885
		c-1.68,1.514-1.96,1.771-2.246,2.028c-0.114,0.111-0.397,0.371-0.629,0.586c-1.279,1.198-1.272,1.191-1.517,1.061
		c-0.102-0.055-0.244-0.137-0.3-0.191c-0.117-0.082-0.127-0.075-0.566,0.328c-0.241,0.229-0.977,0.915-1.631,1.53
		c-0.898,0.827-1.185,1.126-1.178,1.182c0.017,0.042-0.091,0.267-0.215,0.505l-0.234,0.436l-1.045,0.925
		c-0.576,0.508-1.481,1.315-2.002,1.784l-0.957,0.865l-0.078,0.28c-0.042,0.156-0.065,0.364-0.045,0.466
		c0.042,0.205,0.365,0.735,0.553,0.914c0.221,0.209,0.084,0.397-1.113,1.504c-1.191,1.107-1.159,1.045-0.82,1.511
		c0.117,0.156,0.241,0.332,0.283,0.391c0.068,0.071,0.052,0.188-0.017,0.371c-0.091,0.24-0.078,0.296,0.137,0.872
		c0.254,0.681,0.553,1.179,0.808,1.354L144.971,165.892z"/>
	
		<linearGradient id="SVGID_2_" gradientUnits="userSpaceOnUse" x1="1023" y1="-1014.3325" x2="1023" y2="-967.6665" gradientTransform="matrix(1 0 0 -1 -873 -841)">
		<stop  offset="0" style="stop-color:#000000;stop-opacity:0.35"/>
		<stop  offset="0.0975" style="stop-color:#060606;stop-opacity:0.3159"/>
		<stop  offset="0.2216" style="stop-color:#151515;stop-opacity:0.2724"/>
		<stop  offset="0.36" style="stop-color:#2F2F2F;stop-opacity:0.224"/>
		<stop  offset="0.5088" style="stop-color:#545454;stop-opacity:0.1719"/>
		<stop  offset="0.6661" style="stop-color:#838383;stop-opacity:0.1169"/>
		<stop  offset="0.8304" style="stop-color:#BCBCBC;stop-opacity:0.0594"/>
		<stop  offset="0.9977" style="stop-color:#FEFEFE;stop-opacity:8.182824e-04"/>
		<stop  offset="1" style="stop-color:#FFFFFF;stop-opacity:0"/>
	</linearGradient>
	<rect x="126.667" y="126.667" fill="url(#SVGID_2_)" width="46.667" height="46.667"/>
	
		<linearGradient id="SVGID_3_" gradientUnits="userSpaceOnUse" x1="1023" y1="-1014.3325" x2="1023" y2="-967.6665" gradientTransform="matrix(1 0 0 -1 -873 -841)">
		<stop  offset="0" style="stop-color:#000000;stop-opacity:0"/>
		<stop  offset="0.3726" style="stop-color:#020202;stop-opacity:0.205"/>
		<stop  offset="0.5069" style="stop-color:#090909;stop-opacity:0.2788"/>
		<stop  offset="0.6026" style="stop-color:#141414;stop-opacity:0.3314"/>
		<stop  offset="0.68" style="stop-color:#252525;stop-opacity:0.374"/>
		<stop  offset="0.7463" style="stop-color:#3B3B3B;stop-opacity:0.4104"/>
		<stop  offset="0.805" style="stop-color:#575757;stop-opacity:0.4427"/>
		<stop  offset="0.8581" style="stop-color:#777777;stop-opacity:0.472"/>
		<stop  offset="0.9069" style="stop-color:#9D9D9D;stop-opacity:0.4988"/>
		<stop  offset="0.9523" style="stop-color:#C8C8C8;stop-opacity:0.5238"/>
		<stop  offset="0.9926" style="stop-color:#F6F6F6;stop-opacity:0.5459"/>
		<stop  offset="1" style="stop-color:#FFFFFF;stop-opacity:0.55"/>
	</linearGradient>
	<rect x="126.667" y="126.667" fill="url(#SVGID_3_)" width="46.667" height="46.667"/>
</g>
</svg>
