<?xml version="1.0" encoding="utf-8"?>
<!-- Generator: Adobe Illustrator 15.1.0, SVG Export Plug-In . SVG Version: 6.00 Build 0)  -->
<!DOCTYPE svg PUBLIC "-//W3C//DTD SVG 1.1//EN" "http://www.w3.org/Graphics/SVG/1.1/DTD/svg11.dtd">
<svg version="1.1" id="Layer_1" xmlns="http://www.w3.org/2000/svg" xmlns:xlink="http://www.w3.org/1999/xlink" x="0px" y="0px"
	 width="50px" height="50px" viewBox="0 0 50 50" enable-background="new 0 0 50 50" xml:space="preserve">
<g id="Guns">
	<g>
		<rect x="1.667" y="1.667" fill="#660000" width="46.667" height="46.667"/>
		<g id="stroke">
			<path fill="#660000" d="M48.334,1.667v46.667H1.667V1.667H48.334 M50,0h-1.137H3.408H0v1.136v45.456V50h3.408h45.456H50v-3.408
				V1.136V0L50,0z"/>
			
				<linearGradient id="SVGID_1_" gradientUnits="userSpaceOnUse" x1="838" y1="-1080.9995" x2="838" y2="-1031" gradientTransform="matrix(1 0 0 -1 -813 -1031)">
				<stop  offset="0" style="stop-color:#333333;stop-opacity:0.3"/>
				<stop  offset="0.2701" style="stop-color:#353535;stop-opacity:0.4215"/>
				<stop  offset="0.4166" style="stop-color:#3D3D3D;stop-opacity:0.4875"/>
				<stop  offset="0.5336" style="stop-color:#4B4B4B;stop-opacity:0.5401"/>
				<stop  offset="0.635" style="stop-color:#5E5E5E;stop-opacity:0.5857"/>
				<stop  offset="0.7262" style="stop-color:#787878;stop-opacity:0.6268"/>
				<stop  offset="0.8101" style="stop-color:#979797;stop-opacity:0.6646"/>
				<stop  offset="0.8885" style="stop-color:#BBBBBB;stop-opacity:0.6998"/>
				<stop  offset="0.9606" style="stop-color:#E5E5E5;stop-opacity:0.7323"/>
				<stop  offset="1" style="stop-color:#FFFFFF;stop-opacity:0.75"/>
			</linearGradient>
			<path fill="url(#SVGID_1_)" d="M48.334,1.667v46.667H1.667V1.667H48.334 M50,0h-1.137H3.408H0v1.136v45.456V50h3.408h45.456H50
				v-3.408V1.136V0L50,0z"/>
		</g>
	</g>
	<path fill="#231F20" d="M4.942,39.924c-0.055,0.075-0.085,0.098-0.068,0.055c0.018-0.044,0.063-0.105,0.1-0.136
		C5.011,39.812,4.997,39.849,4.942,39.924z M43.992,4.646c-0.076,0.068-0.093,0.071-0.065,0.011c0.02-0.047,0.068-0.089,0.104-0.095
		C44.071,4.557,44.059,4.585,43.992,4.646z M44.18,4.446c-0.038,0.052-0.062,0.067-0.054,0.032c0.007-0.033,0.041-0.078,0.071-0.097
		C44.228,4.365,44.219,4.392,44.18,4.446z M44.392,4.242c-0.039,0.054-0.065,0.068-0.056,0.034c0.007-0.034,0.04-0.078,0.07-0.098
		C44.437,4.159,44.431,4.189,44.392,4.242z M44.602,4.038c-0.04,0.053-0.065,0.068-0.057,0.034s0.041-0.079,0.072-0.097
		C44.647,3.956,44.641,3.984,44.602,4.038z M13.028,19.236c0.094-0.128,0.122-0.181,0.062-0.118
		c-0.061,0.064-0.137,0.167-0.172,0.233C12.885,19.416,12.934,19.363,13.028,19.236z M13.038,19.548
		c0.023-0.003,0.006-0.028-0.035-0.057c-0.046-0.031-0.063-0.03-0.041,0.007C12.981,19.529,13.016,19.552,13.038,19.548z
		 M13.19,19.447c0.015-0.022-0.006-0.046-0.047-0.059c-0.041-0.011-0.08-0.013-0.085-0.005s0.015,0.034,0.047,0.059
		C13.136,19.465,13.174,19.468,13.19,19.447z M11.827,22.795c0.021-0.003,0.016-0.042-0.013-0.083
		c-0.04-0.062-0.047-0.061-0.037,0.005C11.784,22.764,11.806,22.798,11.827,22.795z M11.986,22.78
		c0.008-0.011-0.006-0.064-0.031-0.118c-0.026-0.053-0.054-0.091-0.062-0.079c-0.007,0.009,0.007,0.063,0.034,0.118
		C11.952,22.754,11.978,22.79,11.986,22.78z M13.237,22.625c0.007-0.009,0.004-0.041-0.009-0.07
		c-0.012-0.029-0.035-0.034-0.051-0.011c-0.017,0.022-0.012,0.054,0.008,0.07C13.208,22.628,13.23,22.636,13.237,22.625z
		 M17.043,19.373c0.112,0.012,0.112,0.012,0.036-0.047c-0.057-0.043-0.056-0.058,0-0.054c0.059,0.005,0.064-0.032,0.024-0.153
		c-0.074-0.224-0.335-0.497-0.637-0.667c-0.271-0.152-0.6-0.233-0.607-0.148c-0.011,0.128,0.316,0.495,0.688,0.772
		C16.779,19.25,16.976,19.367,17.043,19.373z M18.798,19.217c-0.019-0.015-0.088,0.048-0.153,0.136s-0.107,0.158-0.092,0.155
		C18.613,19.498,18.83,19.24,18.798,19.217z M3.387,41.887c0.016-0.021,0.01-0.051-0.01-0.066c-0.022-0.017-0.051-0.011-0.067,0.01
		c-0.016,0.021-0.012,0.051,0.01,0.066C3.34,41.912,3.371,41.908,3.387,41.887z M4.73,40.264c0.062-0.039,0.06-0.046-0.005-0.037
		c-0.046,0.007-0.082,0.029-0.078,0.05C4.649,40.296,4.688,40.291,4.73,40.264z M4.861,40.375c0.007-0.008,0.003-0.04-0.01-0.068
		c-0.01-0.03-0.032-0.033-0.049-0.012c-0.017,0.023-0.014,0.055,0.007,0.07C4.831,40.38,4.854,40.386,4.861,40.375z M26.836,13.361
		c-0.079-0.167-0.318-0.21-0.418-0.079c-0.029,0.037,0.017,0.057,0.154,0.068c0.122,0.01,0.19,0.038,0.188,0.074
		c-0.002,0.032,0.012,0.07,0.031,0.085C26.856,13.558,26.884,13.464,26.836,13.361z M26.484,14.459
		c-0.067,0.011-0.212-0.088-0.16-0.109c0.023-0.01,0.079,0.01,0.124,0.042C26.494,14.426,26.51,14.456,26.484,14.459z
		 M26.548,14.525c0.083-0.086,0.086-0.121,0.024-0.195c-0.118-0.143-0.256-0.166-0.375-0.061c-0.061,0.051-0.111,0.122-0.114,0.153
		c-0.007,0.074,0.242,0.256,0.312,0.229C26.424,14.64,26.494,14.582,26.548,14.525z M12.929,33.316
		c0.066-0.105,0.056-0.148-0.038-0.157c-0.051-0.004-0.062,0.027-0.044,0.12C12.872,33.4,12.875,33.402,12.929,33.316z
		 M13.119,33.065c0.046-0.065,0.053-0.093,0.015-0.063c-0.038,0.032-0.075,0.083-0.084,0.118
		C13.041,33.154,13.072,33.13,13.119,33.065z M12.836,33.509c-0.094-0.174-0.208-0.11-0.549,0.31
		c-0.208,0.254-0.338,0.382-0.402,0.39c-0.053,0.009-0.118,0.056-0.147,0.104c-0.066,0.116-0.353,0.415-0.857,0.898
		c-0.238,0.227-0.396,0.405-0.379,0.427c0.018,0.023-0.045,0.093-0.148,0.173c-0.098,0.071-0.284,0.25-0.413,0.395
		c-0.129,0.146-0.267,0.271-0.305,0.282c-0.037,0.01-0.142,0.134-0.234,0.276c-0.166,0.263-0.418,0.516-0.589,0.596
		c-0.069,0.031-0.086,0.062-0.066,0.115c0.022,0.055,0.013,0.061-0.039,0.023c-0.052-0.038-0.09-0.014-0.183,0.121
		c-0.064,0.091-0.117,0.2-0.116,0.243c0.001,0.053-0.02,0.06-0.073,0.02c-0.066-0.049-0.098-0.023-0.3,0.242
		c-0.438,0.578-1.325,1.474-1.389,1.402c-0.031-0.032-0.592,0.73-0.583,0.792c0.006,0.04,0.083-0.003,0.197-0.108
		c0.077-0.073,0.18-0.146,0.355-0.247c0.062-0.035,0.136-0.087,0.164-0.112c0.027-0.026,0.08-0.044,0.117-0.04
		c0.047,0.003,0.059-0.012,0.042-0.055c-0.014-0.032,0.027-0.114,0.089-0.183c0.062-0.066,0.105-0.144,0.094-0.169
		c-0.02-0.049,0.12-0.208,0.392-0.452c0.091-0.081,0.221-0.229,0.287-0.327c0.066-0.101,0.194-0.231,0.287-0.295
		c0.09-0.062,0.181-0.146,0.202-0.187c0.019-0.039,0.083-0.083,0.141-0.097c0.073-0.018,0.202-0.148,0.41-0.41
		c0.577-0.727,0.615-0.771,0.635-0.724c0.01,0.027,0.036,0.006,0.057-0.048c0.021-0.051,0.132-0.17,0.247-0.262
		c0.251-0.2,0.368-0.312,0.575-0.553c0.087-0.101,0.213-0.216,0.278-0.26c0.065-0.042,0.224-0.192,0.351-0.339
		c0.126-0.145,0.257-0.27,0.291-0.279c0.033-0.007,0.169-0.137,0.302-0.284c0.133-0.149,0.293-0.291,0.358-0.316
		c0.082-0.032,0.127-0.081,0.15-0.168c0.019-0.066,0.051-0.124,0.073-0.125c0.037-0.007,0.165-0.123,0.295-0.271
		c0.036-0.039,0.093-0.082,0.126-0.095c0.035-0.014,0.072-0.06,0.084-0.1c0.012-0.043,0.052-0.09,0.091-0.105
		C12.873,33.663,12.893,33.614,12.836,33.509z M7.415,41.773c0.031-0.047,0.029-0.062-0.007-0.039
		c-0.031,0.019-0.054,0.053-0.051,0.075C7.359,41.833,7.385,41.815,7.415,41.773z M27.271,18.112
		c0.058-0.205,0.146-0.427,0.193-0.494c0.049-0.066,0.116-0.181,0.151-0.254l0.062-0.132l-0.82-0.646
		c-0.456-0.361-0.91-0.688-1.024-0.744c-0.149-0.071-0.312-0.092-0.573-0.074c-0.493,0.031-0.566,0.052-0.893,0.262
		c-0.4,0.254-0.543,0.377-0.948,0.826c-0.425,0.472-1.867,2.021-2.591,2.785c-0.283,0.299-0.618,0.659-0.741,0.799
		c-0.124,0.139-0.646,0.696-1.157,1.24c-2.045,2.165-5.462,5.802-5.646,6.01l-0.194,0.222l0.107,0.119
		c0.201,0.221,0.632,0.507,1.354,0.893c0.397,0.214,0.828,0.449,0.958,0.522c0.224,0.125,0.253,0.13,0.527,0.046
		c0.372-0.112,0.546-0.315,0.473-0.548c-0.061-0.194-0.042-0.214,0.175-0.171c0.135,0.025,0.219,0.004,0.33-0.081
		c0.083-0.064,0.776-0.746,1.54-1.515c0.763-0.77,1.578-1.587,1.81-1.817c0.232-0.23,0.422-0.443,0.423-0.471
		c0.002-0.028-0.167-0.195-0.375-0.371c-0.488-0.41-0.679-0.702-0.761-1.157c-0.04-0.225-0.039-0.375,0.005-0.434
		c0.085-0.117,0.092-0.111,0.18,0.164c0.04,0.125,0.146,0.316,0.235,0.421c0.31,0.368,0.888,0.643,1.313,0.625
		c0.163-0.006,0.357-0.182,1.713-1.535c0.455-0.454,1.014-1.01,1.244-1.235c0.23-0.226,0.883-0.875,1.453-1.441
		C27.119,18.608,27.142,18.579,27.271,18.112z M25.784,21.996c0.1-0.075,0.118-0.107,0.079-0.137
		c-0.061-0.043-0.45,0.383-0.44,0.481c0.004,0.037,0.054-0.003,0.12-0.092C25.604,22.164,25.715,22.05,25.784,21.996z
		 M25.891,22.655c0.028-0.02,0.025-0.044-0.007-0.054c-0.062-0.02-0.111,0.027-0.068,0.065
		C25.83,22.679,25.865,22.674,25.891,22.655z M25.983,22.544c0.016-0.023,0.007-0.044-0.025-0.047
		c-0.032-0.003-0.063,0.003-0.07,0.014c-0.006,0.009,0.005,0.028,0.027,0.044C25.937,22.572,25.967,22.566,25.983,22.544z
		 M26.185,22.35c0.036-0.047,0.046-0.098,0.025-0.114c-0.048-0.037-0.078,0.004-0.084,0.116
		C26.12,22.421,26.132,22.421,26.185,22.35z M32.513,16.88c0.037,0.013,0.041-0.022,0.01-0.088
		c-0.072-0.148-0.104-0.163-0.086-0.037C32.446,16.812,32.479,16.87,32.513,16.88z M41.952,7.268
		c0.094-0.087,0.118-0.131,0.078-0.134c-0.032-0.003-0.106,0.058-0.164,0.134c-0.056,0.078-0.092,0.138-0.077,0.134
		C41.804,7.398,41.878,7.338,41.952,7.268z M43.173,6.06c0.031-0.046,0.029-0.063-0.006-0.04c-0.033,0.019-0.056,0.054-0.052,0.076
		C43.118,6.119,43.144,6.102,43.173,6.06z M43.364,5.876c0.038-0.052,0.044-0.081,0.017-0.063c-0.031,0.019-0.064,0.062-0.072,0.098
		C43.299,5.944,43.324,5.931,43.364,5.876z M43.558,5.691c0.046-0.064,0.054-0.093,0.016-0.061c-0.038,0.03-0.076,0.083-0.084,0.116
		C43.48,5.779,43.511,5.754,43.558,5.691z M43.756,5.508c0.039-0.055,0.045-0.082,0.017-0.063c-0.033,0.02-0.063,0.062-0.073,0.097
		C43.69,5.576,43.716,5.56,43.756,5.508z M42.59,7.39c0.037-0.029,0.059-0.071,0.047-0.097c-0.016-0.042-0.41,0.295-0.508,0.433
		c-0.069,0.097,0.102-0.003,0.254-0.15C42.461,7.501,42.554,7.417,42.59,7.39z M44.5,4.835c0.008-0.01,0.004-0.041-0.008-0.07
		s-0.034-0.034-0.051-0.012c-0.017,0.024-0.013,0.055,0.008,0.07C44.47,4.838,44.493,4.844,44.5,4.835z M43.355,6.618
		c0.048-0.06,0.047-0.069-0.021-0.044c-0.044,0.018-0.122,0.093-0.177,0.169l-0.095,0.138l0.114-0.095
		C43.242,6.736,43.322,6.66,43.355,6.618z M44.968,4.824c0.037-0.004-0.102-0.171-0.197-0.234c-0.043-0.031-0.022,0.012,0.046,0.092
		C44.885,4.762,44.953,4.827,44.968,4.824z M44.555,5.413c-0.035,0.006-0.151,0.107-0.259,0.226
		c-0.122,0.137-0.159,0.197-0.101,0.164C44.337,5.721,44.631,5.401,44.555,5.413z M45.032,4.924
		c-0.012-0.029-0.03-0.019-0.042,0.025c-0.011,0.043-0.015,0.083-0.006,0.09C45.015,5.063,45.052,4.975,45.032,4.924z M42.749,7.797
		c-0.192,0.031-0.271,0.074-0.367,0.192c-0.246,0.304-0.267,0.319-0.331,0.27c-0.119-0.087-0.048,0.067,0.099,0.214l0.142,0.141
		l0.141-0.178c0.079-0.099,0.236-0.271,0.353-0.384C43.104,7.739,43.104,7.738,42.749,7.797z M45.446,4.606
		c0.031-0.042-0.247-0.333-0.344-0.359c-0.037-0.009-0.001,0.031,0.073,0.092c0.078,0.06,0.14,0.134,0.137,0.164
		c-0.001,0.031,0.021,0.074,0.053,0.098C45.395,4.624,45.432,4.626,45.446,4.606z M45.828,4.921
		c-0.228-0.232-0.262-0.248-0.272-0.12c-0.006,0.063,0.017,0.134,0.048,0.156c0.044,0.032,0.038,0.044-0.024,0.054
		c-0.045,0.007-0.135,0.087-0.204,0.179c-0.1,0.137-0.11,0.175-0.049,0.221c0.058,0.043,0.106,0.018,0.254-0.137
		c0.109-0.116,0.208-0.183,0.252-0.171C45.959,5.139,45.957,5.055,45.828,4.921z M28.414,30.003c0.302-0.353,0.304-0.4,0.034-0.798
		c-0.129-0.188-0.225-0.28-0.398-0.382c-0.589-0.343-0.971-0.608-0.967-0.67c0.007-0.104-0.095-0.148-0.188-0.079
		c-0.046,0.033-0.175,0.246-0.282,0.466l-0.194,0.406l0.141,0.225c0.138,0.217,0.138,0.227,0.024,0.343
		c-0.064,0.068-0.165,0.185-0.224,0.266c-0.127,0.166-0.154,0.156-0.326-0.137c-0.093-0.161-0.142-0.21-0.189-0.189
		c-0.09,0.036-0.36,0.312-0.365,0.376c-0.003,0.027,0.051,0.138,0.118,0.242c0.119,0.187,0.136,0.195,0.601,0.381
		c0.706,0.284,0.73,0.296,0.666,0.383c-0.097,0.129-0.232,0.135-0.763,0.031c-0.505-0.101-0.518-0.106-0.835-0.361l-0.324-0.262
		l-0.18,0.138c-0.271,0.206-0.626,0.566-0.615,0.626c0.004,0.029,0.132,0.174,0.285,0.322c0.277,0.271,0.277,0.271,0.649,0.344
		c0.261,0.05,0.452,0.051,0.634,0.002c0.324-0.085,0.843-0.348,1.222-0.616c0.161-0.113,0.501-0.329,0.759-0.481
		C28.072,30.354,28.209,30.246,28.414,30.003z M28.222,38.064l-0.144,0.203l-1.305,0.394c-0.755,0.229-1.395,0.39-1.517,0.386
		c-0.417-0.018-1.171-0.527-1.767-1.195c-1.154-1.293-1.171-1.319-1.517-2.148c-0.22-0.531-0.346-0.923-0.412-1.29l-0.095-0.524
		l-0.292-0.254c-0.287-0.248-0.3-0.254-0.804-0.367c-0.497-0.111-0.53-0.111-1.013,0.016c-0.687,0.179-1.598,0.643-1.8,0.916
		c-0.143,0.193-0.144,0.201-0.048,0.529c0.135,0.464,0.229,0.641,0.706,1.316l0.417,0.592l-0.046,0.246l-0.047,0.243l0.322,0.224
		c0.178,0.123,0.415,0.267,0.528,0.322l0.206,0.099l-0.053,0.315l-0.054,0.313l0.822,0.567c0.45,0.311,1.454,1.004,2.229,1.536
		l1.409,0.97l-0.109,0.609l-0.109,0.61l-1.104,1.499l-1.102,1.497l-0.102-0.044c-0.057-0.025-0.242-0.146-0.415-0.27
		c-0.171-0.125-0.64-0.44-1.039-0.701c-1.087-0.709-4.196-2.751-5.521-3.624c-0.642-0.424-1.194-0.777-1.227-0.789
		c-0.109-0.035-0.583,0.651-2.804,4.062c-0.522,0.803-0.677,1.074-0.815,1.429l-0.171,0.434l-0.572,0.561
		c-0.517,0.507-0.603,0.572-0.895,0.693c-0.376,0.154-0.266,0.197-1.519-0.573c-0.43-0.266-1.204-0.736-1.72-1.049l-0.937-0.567
		l-0.615-0.714l-0.616-0.713l-0.147-0.497c-0.081-0.272-0.131-0.551-0.113-0.619c0.02-0.067,0.134-0.234,0.257-0.371
		c0.205-0.227,0.222-0.235,0.22-0.125c-0.002,0.108,0.099,0.373,0.162,0.42c0.013,0.01,0.022-0.022,0.02-0.076
		c-0.004-0.077,0.008-0.084,0.069-0.041c0.062,0.043,0.064,0.035,0.013-0.049c-0.078-0.125-0.021-0.217,0.062-0.101
		c0.034,0.046,0.101,0.08,0.149,0.079c0.072-0.004,0.078-0.059,0.037-0.314c-0.057-0.338-0.007-0.539,0.097-0.396
		c0.034,0.048,0.072,0.065,0.09,0.041c0.017-0.022,0.012-0.055-0.01-0.071c-0.023-0.017-0.018-0.04,0.01-0.053
		c0.03-0.011,0.039-0.031,0.021-0.045c-0.018-0.013-0.009-0.062,0.02-0.108c0.045-0.073,0.065-0.069,0.158,0.032l0.107,0.114
		L3.731,41.48c-0.025-0.088-0.027-0.186-0.005-0.215c0.05-0.067,0.098-0.036,0.114,0.07c0.006,0.044,0.032,0.077,0.057,0.073
		c0.026-0.005,0.033-0.063,0.018-0.135c-0.022-0.1,0.01-0.184,0.16-0.405c0.104-0.153,0.237-0.337,0.297-0.407
		c0.105-0.12,0.109-0.121,0.073-0.006c-0.026,0.077,0.016,0.029,0.115-0.133c0.109-0.181,0.173-0.251,0.225-0.248
		c0.049,0.005,0.049,0.017,0.002,0.035c-0.045,0.018-0.047,0.029-0.003,0.032c0.035,0.004,0.089-0.026,0.119-0.067
		c0.052-0.071,0.247-0.045,0.258,0.034c0.003,0.022-0.018,0.023-0.046,0.002c-0.035-0.025-0.041,0-0.02,0.073
		c0.019,0.062,0.074,0.142,0.12,0.179c0.083,0.062,0.088,0.059,0.094-0.068c0.008-0.132,0.01-0.135,0.294-0.033
		c0.156,0.056,0.282,0.091,0.281,0.075c-0.004-0.015-0.163-0.113-0.355-0.22c-0.194-0.104-0.354-0.215-0.357-0.244
		c-0.003-0.028,0.041-0.139,0.098-0.247c0.103-0.19,0.111-0.193,0.666-0.336c0.309-0.08,0.599-0.176,0.645-0.213
		s0.325-0.302,0.623-0.587c0.466-0.446,0.577-0.578,0.815-0.953c0.493-0.777,0.621-0.919,2.44-2.755
		c0.989-0.999,1.906-1.942,2.038-2.098l0.24-0.281l-0.153-0.147c-0.162-0.155-0.75-0.664-1.731-1.495
		c-1.015-0.859-1.103-1.128-0.604-1.88c0.188-0.282,0.252-0.418,0.25-0.521c-0.008-0.274,0.354-0.762,1.311-1.767
		c0.147-0.155,0.68-0.744,1.182-1.312c0.503-0.566,1.03-1.161,1.171-1.319c0.169-0.189,0.25-0.309,0.236-0.346
		c-0.011-0.031-0.031-0.056-0.043-0.053c-0.013,0.001-0.17,0.152-0.351,0.338c-0.409,0.416-0.584,0.482-1.001,0.367
		c-0.765-0.209-1.455-0.923-1.545-1.594l-0.032-0.229l0.332-0.454c0.183-0.25,0.375-0.559,0.428-0.686
		c0.095-0.225,0.093-0.233-0.042-0.31c-0.135-0.078-0.135-0.083-0.028-0.325c0.088-0.196,0.143-0.271,0.277-0.37
		c0.144-0.105,0.183-0.11,0.275-0.043c0.087,0.064,0.12,0.061,0.178-0.02c0.067-0.09,0.06-0.104-0.136-0.249l-0.205-0.152
		l0.536-0.746c0.379-0.526,0.562-0.752,0.623-0.767c0.123-0.031,0.479,0.237,0.42,0.315c-0.023,0.031-0.027,0.069-0.008,0.084
		c0.053,0.039,0.159-0.044,0.301-0.238c0.103-0.138,0.18-0.189,0.365-0.238c0.211-0.058,0.273-0.105,0.605-0.461
		c0.477-0.51,0.505-0.529,0.76-0.515c0.375,0.019,0.659,0.136,1.079,0.448c0.635,0.47,0.976,1.045,0.896,1.507
		c-0.026,0.157-0.068,0.221-0.254,0.411c-0.235,0.24-0.309,0.375-0.192,0.357c0.059-0.009,1.229-1.192,1.391-1.407
		c0.037-0.049,0.068-0.049,0.098-0.004c0.023,0.037,0.145,0.072,0.269,0.078c0.263,0.015,0.167,0.093,1.219-1.006
		c1.323-1.383,2.018-2.098,3.113-3.208c0.584-0.589,1.154-1.178,1.271-1.307c0.513-0.574,0.938-0.868,1.251-0.863
		c0.154,0.003,0.288,0.084,1.685,1.022c1.63,1.094,3.579,2.496,3.676,2.645c0.058,0.084,0.076,0.074,0.342-0.189l0.283-0.278
		l0.22,0.048c0.255,0.056,0.285,0.05,0.544-0.129c0.139-0.096,0.235-0.121,0.368-0.1c0.201,0.034,0.29,0.01,0.372-0.098
		c0.031-0.041,0.119-0.087,0.2-0.101c0.119-0.021,0.146-0.046,0.16-0.144c0.024-0.157,0.272-0.394,0.426-0.401
		c0.104-0.004,0.127-0.026,0.17-0.167c0.065-0.217,0.305-0.447,0.468-0.45c0.117-0.002,0.134-0.018,0.168-0.158
		c0.051-0.206,0.3-0.448,0.465-0.452c0.114-0.003,0.131-0.02,0.166-0.159c0.059-0.238,0.34-0.504,0.519-0.495
		c0.139,0.008,0.145,0.002,0.153-0.139c0.01-0.204,0.266-0.456,0.504-0.498c0.169-0.03,0.178-0.039,0.166-0.154
		c-0.017-0.157,0.299-0.506,0.496-0.55c0.15-0.035,0.18-0.062,0.197-0.193c0.019-0.111,0.322-0.406,0.455-0.439
		c0.053-0.014,0.179-0.142,0.309-0.317c0.164-0.223,0.255-0.308,0.368-0.348c0.115-0.04,0.174-0.096,0.25-0.235
		c0.124-0.229,0.353-0.426,0.494-0.425c0.096,0,0.114-0.02,0.16-0.17c0.027-0.092,0.102-0.214,0.167-0.274
		c0.1-0.092,0.113-0.14,0.084-0.351c-0.045-0.337,0.023-0.446,0.254-0.407c0.217,0.036,0.287-0.001,0.256-0.135
		c-0.088-0.368-0.063-0.396,0.271-0.316l0.263,0.063L41.305,7.58l-0.025-0.204l0.079,0.16c0.045,0.089,0.101,0.16,0.121,0.155
		C41.5,7.688,41.496,7.67,41.469,7.65c-0.026-0.02-0.023-0.052,0.005-0.071c0.03-0.021,0.066-0.083,0.084-0.138
		c0.017-0.061,0.212-0.273,0.476-0.515c0.245-0.229,0.579-0.572,0.741-0.766c0.412-0.493,0.791-0.865,0.907-0.893
		c0.055-0.011,0.169-0.102,0.255-0.201c0.299-0.341,0.522-0.565,0.604-0.605c0.046-0.022,0.112-0.077,0.147-0.123
		c0.033-0.045,0.133-0.108,0.224-0.137l0.164-0.054l-0.094-0.158C44.93,3.901,44.869,3.816,44.847,3.8
		c-0.052-0.039,0.025-0.143,0.103-0.135c0.127,0.009,0.933,0.667,1.325,1.077c0.384,0.403,0.63,0.782,0.557,0.857
		c-0.049,0.048-1.033,0.977-1.742,1.643c-0.352,0.331-0.943,0.887-1.312,1.236l-0.669,0.635l-0.232-0.044
		c-0.129-0.024-0.251-0.03-0.272-0.014c-0.022,0.017-0.013,0.097,0.025,0.18c0.048,0.107,0.045,0.183-0.006,0.251
		c-0.039,0.053-0.084,0.089-0.102,0.078c-0.016-0.011-0.115-0.029-0.22-0.039l-0.189-0.016l0.028,0.214
		c0.017,0.119,0.008,0.244-0.018,0.279c-0.026,0.036-0.163,0.047-0.317,0.026c-0.269-0.037-0.444,0.036-0.603,0.251
		c-0.028,0.034-0.098,0.058-0.157,0.049c-0.122-0.017-0.19,0.05-0.2,0.201c-0.012,0.137-0.379,0.463-0.541,0.48
		c-0.099,0.009-0.129,0.036-0.158,0.143c-0.021,0.075-0.12,0.221-0.226,0.332c-0.149,0.161-0.218,0.203-0.328,0.196
		c-0.132-0.007-0.14,0-0.163,0.148c-0.037,0.221-0.351,0.5-0.578,0.511c-0.159,0.007-0.163,0.011-0.15,0.14
		c0.011,0.111-0.018,0.165-0.188,0.346c-0.161,0.173-0.229,0.214-0.354,0.213c-0.15-0.001-0.155,0.003-0.162,0.148
		c-0.012,0.185-0.237,0.401-0.462,0.443c-0.128,0.022-0.153,0.045-0.178,0.159c-0.043,0.202-0.37,0.531-0.489,0.49
		c-0.102-0.035-0.185,0.04-0.147,0.133c0.014,0.037-0.038,0.127-0.137,0.238c-0.127,0.141-0.198,0.18-0.333,0.185
		c-0.167,0.007-0.17,0.01-0.179,0.156c-0.012,0.209-0.268,0.464-0.492,0.49c-0.153,0.017-0.162,0.025-0.165,0.153
		c-0.005,0.18-0.235,0.413-0.413,0.418c-0.114,0.006-0.133,0.022-0.141,0.121c-0.007,0.063-0.048,0.167-0.096,0.23
		c-0.06,0.083-0.07,0.163-0.034,0.281c0.048,0.158,0.042,0.177-0.135,0.373c-0.18,0.205-0.182,0.212-0.126,0.425
		c0.043,0.165,0.037,0.244-0.031,0.335c-0.081,0.109-0.589,0.616-0.798,0.794c-0.067,0.06-0.065,0.103,0.008,0.224
		c0.104,0.174,0.106,0.233,0.084,1.477c-0.008,0.503-0.05,1.117-0.093,1.363l-0.076,0.447l-0.461,0.623
		c-0.559,0.756-0.729,0.903-0.977,0.841c-0.218-0.053-0.246-0.04-0.493,0.221c-0.152,0.164-0.232,0.292-0.317,0.512
		c-0.115,0.299-0.123,0.308-0.572,0.679c-0.078,0.067-0.152,0.106-0.165,0.092c-0.064-0.081-0.248-0.083-0.362-0.004
		c-0.17,0.116-0.475,0.53-0.621,0.844c-0.092,0.195-0.16,0.282-0.324,0.419c-0.185,0.151-0.234,0.167-0.422,0.137l-0.215-0.034
		l-0.228,0.28c-0.124,0.155-0.275,0.393-0.337,0.53c-0.06,0.138-0.146,0.296-0.197,0.352c-0.109,0.131-0.353,0.254-0.447,0.228
		c-0.039-0.013-0.082-0.005-0.097,0.015c-0.039,0.053,0.274,0.266,0.651,0.448l0.338,0.162l0.208,0.352
		c0.227,0.383,0.255,0.487,0.245,0.942c-0.008,0.297-0.014,0.312-0.231,0.564c-0.19,0.221-0.399,0.367-1.42,0.99
		c-1.028,0.629-1.243,0.742-1.517,0.8c-0.174,0.037-0.416,0.047-0.533,0.024c-0.199-0.038-0.305-0.018-0.223,0.042
		c0.02,0.015,0.017,0.087-0.007,0.16c-0.022,0.075-0.028,0.265-0.014,0.423l0.027,0.29l0.487,0.39
		c0.546,0.435,0.621,0.557,0.618,0.986c-0.005,0.336,0.286,0.653,0.867,0.952c0.29,0.148,0.404,0.308,0.46,0.648
		c0.056,0.331,0.171,0.464,0.676,0.776c0.304,0.187,0.311,0.195,0.417,0.487c0.079,0.218,0.093,0.336,0.048,0.432
		C28.394,37.798,28.302,37.951,28.222,38.064z"/>
	
		<linearGradient id="SVGID_2_" gradientUnits="userSpaceOnUse" x1="838.001" y1="-1079.3335" x2="838.001" y2="-1032.667" gradientTransform="matrix(1 0 0 -1 -813 -1031)">
		<stop  offset="0" style="stop-color:#000000;stop-opacity:0.35"/>
		<stop  offset="0.0975" style="stop-color:#060606;stop-opacity:0.3159"/>
		<stop  offset="0.2216" style="stop-color:#151515;stop-opacity:0.2724"/>
		<stop  offset="0.36" style="stop-color:#2F2F2F;stop-opacity:0.224"/>
		<stop  offset="0.5088" style="stop-color:#545454;stop-opacity:0.1719"/>
		<stop  offset="0.6661" style="stop-color:#838383;stop-opacity:0.1169"/>
		<stop  offset="0.8304" style="stop-color:#BCBCBC;stop-opacity:0.0594"/>
		<stop  offset="0.9977" style="stop-color:#FEFEFE;stop-opacity:8.182824e-04"/>
		<stop  offset="1" style="stop-color:#FFFFFF;stop-opacity:0"/>
	</linearGradient>
	<rect x="1.667" y="1.667" fill="url(#SVGID_2_)" width="46.667" height="46.667"/>
	
		<linearGradient id="SVGID_3_" gradientUnits="userSpaceOnUse" x1="838.001" y1="-1079.3335" x2="838.001" y2="-1032.667" gradientTransform="matrix(1 0 0 -1 -813 -1031)">
		<stop  offset="0" style="stop-color:#000000;stop-opacity:0"/>
		<stop  offset="0.3726" style="stop-color:#020202;stop-opacity:0.205"/>
		<stop  offset="0.5069" style="stop-color:#090909;stop-opacity:0.2788"/>
		<stop  offset="0.6026" style="stop-color:#141414;stop-opacity:0.3314"/>
		<stop  offset="0.68" style="stop-color:#252525;stop-opacity:0.374"/>
		<stop  offset="0.7463" style="stop-color:#3B3B3B;stop-opacity:0.4104"/>
		<stop  offset="0.805" style="stop-color:#575757;stop-opacity:0.4427"/>
		<stop  offset="0.8581" style="stop-color:#777777;stop-opacity:0.472"/>
		<stop  offset="0.9069" style="stop-color:#9D9D9D;stop-opacity:0.4988"/>
		<stop  offset="0.9523" style="stop-color:#C8C8C8;stop-opacity:0.5238"/>
		<stop  offset="0.9926" style="stop-color:#F6F6F6;stop-opacity:0.5459"/>
		<stop  offset="1" style="stop-color:#FFFFFF;stop-opacity:0.55"/>
	</linearGradient>
	<rect x="1.667" y="1.667" fill="url(#SVGID_3_)" width="46.667" height="46.667"/>
</g>
</svg>
