<?xml version="1.0" encoding="utf-8"?>
<!-- Generator: Adobe Illustrator 15.1.0, SVG Export Plug-In . SVG Version: 6.00 Build 0)  -->
<!DOCTYPE svg PUBLIC "-//W3C//DTD SVG 1.1//EN" "http://www.w3.org/Graphics/SVG/1.1/DTD/svg11.dtd">
<svg version="1.1" id="Layer_1" xmlns="http://www.w3.org/2000/svg" xmlns:xlink="http://www.w3.org/1999/xlink" x="0px" y="0px"
	 width="50px" height="50px" viewBox="0 0 50 50" enable-background="new 0 0 50 50" xml:space="preserve">
<g id="Incendiaries">
	<g>
		<rect x="1.667" y="1.667" fill="#660000" width="46.667" height="46.667"/>
		<g id="stroke">
			<path fill="#660000" d="M48.334,1.667v46.667H1.667V1.667H48.334 M50,0h-1.137H3.408H0v1.136v45.456V50h3.408h45.455H50v-3.408
				V1.136V0L50,0z"/>
			
				<linearGradient id="SVGID_1_" gradientUnits="userSpaceOnUse" x1="1069" y1="1552" x2="1069" y2="1502" gradientTransform="matrix(1 0 0 1 -1044 -1502)">
				<stop  offset="0" style="stop-color:#333333;stop-opacity:0.3"/>
				<stop  offset="0.2701" style="stop-color:#353535;stop-opacity:0.4215"/>
				<stop  offset="0.4166" style="stop-color:#3D3D3D;stop-opacity:0.4875"/>
				<stop  offset="0.5336" style="stop-color:#4B4B4B;stop-opacity:0.5401"/>
				<stop  offset="0.635" style="stop-color:#5E5E5E;stop-opacity:0.5857"/>
				<stop  offset="0.7262" style="stop-color:#787878;stop-opacity:0.6268"/>
				<stop  offset="0.8101" style="stop-color:#979797;stop-opacity:0.6646"/>
				<stop  offset="0.8885" style="stop-color:#BBBBBB;stop-opacity:0.6998"/>
				<stop  offset="0.9606" style="stop-color:#E5E5E5;stop-opacity:0.7323"/>
				<stop  offset="1" style="stop-color:#FFFFFF;stop-opacity:0.75"/>
			</linearGradient>
			<path fill="url(#SVGID_1_)" d="M48.334,1.667v46.667H1.667V1.667H48.334 M50,0h-1.137H3.408H0v1.136v45.456V50h3.408h45.455H50
				v-3.408V1.136V0L50,0z"/>
		</g>
	</g>
	<g>
		<path d="M3.301,36.633c10.388-17.342,26.879-6.852,26.879-6.852S15.511,20.703,8.687,41.557c-0.214,0.654-0.952,1.223-0.679,1.893
			c0.839,2.07,13.694,2.018,19.802-3.779c2.423-2.297,5.591-7.592,8.684-13.502c0.439-0.845,0.881-1.701,1.313-2.56
			c3.068-6.721,6.801-13.897,9.592-20.578c-3.819,2.476-7.005,5.293-11.429,6.611c-5.359,1.632-10.255,1.672-15.309,3.754
			C19,14.175,12.687,16.651,9.309,20.171C4.497,25.187,2.116,31.406,3.301,36.633z"/>
		<g>
			<path d="M36.249,23.481c0.151,0.686,2.328-0.325,2.328-0.325s-0.776,4.436-1.375,6.004c-0.475,1.246-4.855,11.588-7.185,13.799
				c-5.853,5.553-15.098,5.311-20.651-0.543c-5.552-5.854-5.31-15.096,0.542-20.649c2.263-2.147,15.761-7.875,15.761-7.875
				s-2.875,4.758,1.806,2.605c0.889-0.407,15.783-6.457,15.783-6.457S35.856,21.709,36.249,23.481z"/>
			<path d="M37.552,28.027c0.511-1.941,1.025-4.872,1.025-4.872s-2.177,1.011-2.328,0.325c-0.393-1.772,7.01-13.441,7.01-13.441
				s-14.895,6.05-15.783,6.457c-4.68,2.153-1.806-2.605-1.806-2.605S12.172,19.62,9.909,21.767c-0.61,0.579-1.159,1.199-1.646,1.849
				C15.305,21.571,25.032,21.625,37.552,28.027z"/>
		</g>
	</g>
	
		<linearGradient id="SVGID_2_" gradientUnits="userSpaceOnUse" x1="1069" y1="1550.334" x2="1069" y2="1503.668" gradientTransform="matrix(1 0 0 1 -1044 -1502)">
		<stop  offset="0" style="stop-color:#000000;stop-opacity:0.35"/>
		<stop  offset="0.0975" style="stop-color:#060606;stop-opacity:0.3159"/>
		<stop  offset="0.2216" style="stop-color:#151515;stop-opacity:0.2724"/>
		<stop  offset="0.36" style="stop-color:#2F2F2F;stop-opacity:0.224"/>
		<stop  offset="0.5088" style="stop-color:#545454;stop-opacity:0.1719"/>
		<stop  offset="0.6661" style="stop-color:#838383;stop-opacity:0.1169"/>
		<stop  offset="0.8304" style="stop-color:#BCBCBC;stop-opacity:0.0594"/>
		<stop  offset="0.9977" style="stop-color:#FEFEFE;stop-opacity:8.182824e-04"/>
		<stop  offset="1" style="stop-color:#FFFFFF;stop-opacity:0"/>
	</linearGradient>
	<rect x="1.667" y="1.667" fill="url(#SVGID_2_)" width="46.667" height="46.667"/>
	
		<linearGradient id="SVGID_3_" gradientUnits="userSpaceOnUse" x1="1069" y1="1550.334" x2="1069" y2="1503.668" gradientTransform="matrix(1 0 0 1 -1044 -1502)">
		<stop  offset="0" style="stop-color:#000000;stop-opacity:0"/>
		<stop  offset="0.3726" style="stop-color:#020202;stop-opacity:0.205"/>
		<stop  offset="0.5069" style="stop-color:#090909;stop-opacity:0.2788"/>
		<stop  offset="0.6026" style="stop-color:#141414;stop-opacity:0.3314"/>
		<stop  offset="0.68" style="stop-color:#252525;stop-opacity:0.374"/>
		<stop  offset="0.7463" style="stop-color:#3B3B3B;stop-opacity:0.4104"/>
		<stop  offset="0.805" style="stop-color:#575757;stop-opacity:0.4427"/>
		<stop  offset="0.8581" style="stop-color:#777777;stop-opacity:0.472"/>
		<stop  offset="0.9069" style="stop-color:#9D9D9D;stop-opacity:0.4988"/>
		<stop  offset="0.9523" style="stop-color:#C8C8C8;stop-opacity:0.5238"/>
		<stop  offset="0.9926" style="stop-color:#F6F6F6;stop-opacity:0.5459"/>
		<stop  offset="1" style="stop-color:#FFFFFF;stop-opacity:0.55"/>
	</linearGradient>
	<rect x="1.667" y="1.667" fill="url(#SVGID_3_)" width="46.667" height="46.667"/>
</g>
</svg>
