<?xml version="1.0" encoding="utf-8"?>
<!-- Generator: Adobe Illustrator 15.1.0, SVG Export Plug-In . SVG Version: 6.00 Build 0)  -->
<!DOCTYPE svg PUBLIC "-//W3C//DTD SVG 1.1//EN" "http://www.w3.org/Graphics/SVG/1.1/DTD/svg11.dtd">
<svg version="1.1" id="Layer_1" xmlns="http://www.w3.org/2000/svg" xmlns:xlink="http://www.w3.org/1999/xlink" x="0px" y="0px"
	 width="50px" height="50px" viewBox="0 0 50 50" enable-background="new 0 0 50 50" xml:space="preserve">
<g id="Other">
	<g>
		<rect x="1.667" y="1.667" fill="#660000" width="46.667" height="46.667"/>
		<g id="stroke">
			<path fill="#660000" d="M48.334,1.667v46.667H1.667V1.667H48.334 M50,0h-1.137H3.408H0v1.136v45.456V50h3.408h45.455H50v-3.408
				V1.136V0L50,0z"/>
			
				<linearGradient id="SVGID_1_" gradientUnits="userSpaceOnUse" x1="1069" y1="1552" x2="1069" y2="1502" gradientTransform="matrix(1 0 0 1 -1044 -1502)">
				<stop  offset="0" style="stop-color:#333333;stop-opacity:0.3"/>
				<stop  offset="0.2701" style="stop-color:#353535;stop-opacity:0.4215"/>
				<stop  offset="0.4166" style="stop-color:#3D3D3D;stop-opacity:0.4875"/>
				<stop  offset="0.5336" style="stop-color:#4B4B4B;stop-opacity:0.5401"/>
				<stop  offset="0.635" style="stop-color:#5E5E5E;stop-opacity:0.5857"/>
				<stop  offset="0.7262" style="stop-color:#787878;stop-opacity:0.6268"/>
				<stop  offset="0.8101" style="stop-color:#979797;stop-opacity:0.6646"/>
				<stop  offset="0.8885" style="stop-color:#BBBBBB;stop-opacity:0.6998"/>
				<stop  offset="0.9606" style="stop-color:#E5E5E5;stop-opacity:0.7323"/>
				<stop  offset="1" style="stop-color:#FFFFFF;stop-opacity:0.75"/>
			</linearGradient>
			<path fill="url(#SVGID_1_)" d="M48.334,1.667v46.667H1.667V1.667H48.334 M50,0h-1.137H3.408H0v1.136v45.456V50h3.408h45.455H50
				v-3.408V1.136V0L50,0z"/>
		</g>
	</g>
	<path d="M46.939,12.814c-0.822,4.825-4.648,6.131-5.199,6.467c-0.554,0.336-2.231,0.974-1.215,3.165
		c1.017,2.19,3.072,0.368,3.072,0.368s2.398-2.439,3.453-1.596c1.055,0.842,0.228,2.001,0.228,2.001
		c-2.425,4.278-8.149,9.588-12.354,13.434c-4.204,3.847-11.89,7.686-13.508,8.737c-1.619,1.048-2.344,0.842-2.811,0.402
		c-0.464-0.437,0.59-1.296,2.031-3.111c1.438-1.82-0.39-2.75-1.066-3.075c-0.677-0.328-1.157,0.175-2.15,1.365
		c-0.993,1.189-1.143,1.632-4.159,3.109c-3.018,1.479-6.038-0.095-6.038-0.095c-1.924-0.688-3.858-5.002-4.259-5.805
		c-0.404-0.803,0.027-3.541,0.183-4.106c0.157-0.562,3.998-3.16,5.111-3.954c1.113-0.793,1.621-1.745,1.503-2.53
		c-0.116-0.787-0.907-3.332-1.33-4.116c-0.424-0.782,1.118-3.659,1.461-4.233c0.341-0.572,0.558-0.765,1.53-0.932
		c0.972-0.167,4.472-0.798,5.656-1.075c1.185-0.277,1.719-1.332,1.988-2.073c0.27-0.741,2.103-4.686,2.405-5.303
		c0.304-0.618,1.084-1,1.084-1s2.423-1.104,2.775-1.187c0.355-0.082,2.137,0.579,3.829,1.438c1.686,0.859,3.008-0.002,3.32-0.396
		c0.309-0.39,2.647-3.198,3.141-3.949c0.498-0.748,1.321-0.822,1.321-0.822s3.547-0.402,4.06-0.392c0.51,0.01,1.153,0.56,1.153,0.56
		S47.762,7.989,46.939,12.814z M43.454,8.408c-2.012-2.27-5.567-2.405-7.937-0.302c-2.373,2.104-2.662,5.649-0.649,7.919
		c2.016,2.27,5.566,2.405,7.94,0.3C45.18,14.222,45.468,10.677,43.454,8.408z M30.698,12.458c-2.013-2.27-5.569-2.405-7.939-0.302
		c-2.372,2.104-2.662,5.65-0.647,7.919c2.012,2.27,5.567,2.404,7.939,0.299C32.419,18.273,32.712,14.727,30.698,12.458z
		 M20.749,21.283c-2.013-2.27-5.568-2.405-7.939-0.302c-2.372,2.104-2.661,5.648-0.646,7.918c2.013,2.271,5.567,2.407,7.938,0.302
		C22.474,27.098,22.763,23.554,20.749,21.283z M15.263,33.221c-2.014-2.269-5.568-2.401-7.939-0.297
		c-2.371,2.103-2.661,5.647-0.649,7.916c2.014,2.27,5.569,2.405,7.939,0.303C16.986,39.039,17.275,35.491,15.263,33.221z
		 M23.989,27.377c-0.861,2.036-2.408,3.603-4.395,5.328c-1.987,1.725,0.157,4.229,2.141,5.637c1.983,1.408,3.504,1.336,5.3,0.749
		c1.797-0.59,6.043-3.08,9.382-7.162c3.335-4.081,1.45-8.864,1.224-9.86c-0.229-0.998-1.764-3.384-4.843-0.536
		c-3.079,2.846-5.531,3.188-6.623,3.515C25.321,25.305,24.85,25.34,23.989,27.377z"/>
	
		<linearGradient id="SVGID_2_" gradientUnits="userSpaceOnUse" x1="1069" y1="1550.334" x2="1069" y2="1503.668" gradientTransform="matrix(1 0 0 1 -1044 -1502)">
		<stop  offset="0" style="stop-color:#000000;stop-opacity:0.35"/>
		<stop  offset="0.0975" style="stop-color:#060606;stop-opacity:0.3159"/>
		<stop  offset="0.2216" style="stop-color:#151515;stop-opacity:0.2724"/>
		<stop  offset="0.36" style="stop-color:#2F2F2F;stop-opacity:0.224"/>
		<stop  offset="0.5088" style="stop-color:#545454;stop-opacity:0.1719"/>
		<stop  offset="0.6661" style="stop-color:#838383;stop-opacity:0.1169"/>
		<stop  offset="0.8304" style="stop-color:#BCBCBC;stop-opacity:0.0594"/>
		<stop  offset="0.9977" style="stop-color:#FEFEFE;stop-opacity:8.182824e-04"/>
		<stop  offset="1" style="stop-color:#FFFFFF;stop-opacity:0"/>
	</linearGradient>
	<rect x="1.667" y="1.667" fill="url(#SVGID_2_)" width="46.667" height="46.667"/>
	
		<linearGradient id="SVGID_3_" gradientUnits="userSpaceOnUse" x1="1069" y1="1550.334" x2="1069" y2="1503.668" gradientTransform="matrix(1 0 0 1 -1044 -1502)">
		<stop  offset="0" style="stop-color:#000000;stop-opacity:0"/>
		<stop  offset="0.3726" style="stop-color:#020202;stop-opacity:0.205"/>
		<stop  offset="0.5069" style="stop-color:#090909;stop-opacity:0.2788"/>
		<stop  offset="0.6026" style="stop-color:#141414;stop-opacity:0.3314"/>
		<stop  offset="0.68" style="stop-color:#252525;stop-opacity:0.374"/>
		<stop  offset="0.7463" style="stop-color:#3B3B3B;stop-opacity:0.4104"/>
		<stop  offset="0.805" style="stop-color:#575757;stop-opacity:0.4427"/>
		<stop  offset="0.8581" style="stop-color:#777777;stop-opacity:0.472"/>
		<stop  offset="0.9069" style="stop-color:#9D9D9D;stop-opacity:0.4988"/>
		<stop  offset="0.9523" style="stop-color:#C8C8C8;stop-opacity:0.5238"/>
		<stop  offset="0.9926" style="stop-color:#F6F6F6;stop-opacity:0.5459"/>
		<stop  offset="1" style="stop-color:#FFFFFF;stop-opacity:0.55"/>
	</linearGradient>
	<rect x="1.667" y="1.667" fill="url(#SVGID_3_)" width="46.667" height="46.667"/>
</g>
</svg>
