<?xml version="1.0" encoding="utf-8"?>
<!-- Generator: Adobe Illustrator 15.1.0, SVG Export Plug-In . SVG Version: 6.00 Build 0)  -->
<!DOCTYPE svg PUBLIC "-//W3C//DTD SVG 1.1//EN" "http://www.w3.org/Graphics/SVG/1.1/DTD/svg11.dtd">
<svg version="1.1" id="Layer_1" xmlns="http://www.w3.org/2000/svg" xmlns:xlink="http://www.w3.org/1999/xlink" x="0px" y="0px"
	 width="50px" height="50px" viewBox="125 125 50 50" enable-background="new 125 125 50 50" xml:space="preserve">
<g id="Rifle">
	<g>
		<rect x="126.667" y="126.667" fill="#660000" width="46.667" height="46.667"/>
		<g id="stroke_3_">
			<path fill="#660000" d="M173.333,126.667v46.667h-46.667v-46.667H173.333 M175,125h-1.136h-45.453H125v1.136v45.459V175h3.412
				h45.453H175v-3.405v-45.459V125L175,125z"/>
			
				<linearGradient id="SVGID_1_" gradientUnits="userSpaceOnUse" x1="1023" y1="-1015.9995" x2="1023" y2="-966" gradientTransform="matrix(1 0 0 -1 -873 -841)">
				<stop  offset="0" style="stop-color:#333333;stop-opacity:0.3"/>
				<stop  offset="0.2701" style="stop-color:#353535;stop-opacity:0.4215"/>
				<stop  offset="0.4166" style="stop-color:#3D3D3D;stop-opacity:0.4875"/>
				<stop  offset="0.5336" style="stop-color:#4B4B4B;stop-opacity:0.5401"/>
				<stop  offset="0.635" style="stop-color:#5E5E5E;stop-opacity:0.5857"/>
				<stop  offset="0.7262" style="stop-color:#787878;stop-opacity:0.6268"/>
				<stop  offset="0.8101" style="stop-color:#979797;stop-opacity:0.6646"/>
				<stop  offset="0.8885" style="stop-color:#BBBBBB;stop-opacity:0.6998"/>
				<stop  offset="0.9606" style="stop-color:#E5E5E5;stop-opacity:0.7323"/>
				<stop  offset="1" style="stop-color:#FFFFFF;stop-opacity:0.75"/>
			</linearGradient>
			<path fill="url(#SVGID_1_)" d="M173.333,126.667v46.667h-46.667v-46.667H173.333 M175,125h-1.136h-45.453H125v1.136v45.459V175
				h3.412h45.453H175v-3.405v-45.459V125L175,125z"/>
		</g>
	</g>
	<path id="gun_3_" fill="#231F20" d="M165.638,133.922c0.007-0.013,0.02-0.023,0.033-0.023c0.006,0,0.003,0.01-0.02,0.026
		C165.632,133.945,165.625,133.945,165.638,133.922z M165.378,134.131c-0.014-0.01-0.007-0.023,0.01-0.036
		c0.013-0.006,0.029-0.013,0.029-0.013c0.007,0.006,0,0.02-0.013,0.039C165.394,134.134,165.381,134.141,165.378,134.131z
		 M165.183,134.294c-0.01-0.007-0.01-0.023,0-0.03c0.013-0.006,0.025-0.006,0.032,0c0.007,0.013,0.007,0.026-0.007,0.033
		C165.202,134.303,165.188,134.303,165.183,134.294z M141.129,154.313c-0.016-0.02-0.016-0.029,0.003-0.02
		c0.013,0.006,0.026,0.022,0.026,0.032C141.152,154.336,141.139,154.329,141.129,154.313z M141.693,153.958
		c-0.052,0.014-0.062,0.014-0.03-0.013c0.036-0.039,0.101-0.059,0.114-0.039C141.794,153.923,141.774,153.938,141.693,153.958z
		 M143.857,152.207c-0.049,0.022-0.049,0.02,0.017-0.039c0.052-0.046,0.078-0.062,0.078-0.046
		C143.958,152.155,143.945,152.168,143.857,152.207z M142.36,153.721c-0.032,0.003-0.032,0-0.006-0.022
		c0.013-0.014,0.032-0.014,0.039-0.007C142.409,153.714,142.409,153.714,142.36,153.721z M141.836,154.138
		c-0.016-0.023-0.016-0.023,0.003-0.017c0.016,0.007,0.023,0.022,0.023,0.032S141.849,154.157,141.836,154.138z M142.969,153.249
		c-0.042,0.006-0.039,0.006,0-0.029c0.026-0.023,0.045-0.029,0.045-0.017c0.006,0.017,0.006,0.025,0,0.025
		C143.014,153.235,142.988,153.242,142.969,153.249z M142.305,153.903c-0.006-0.017,0-0.029,0-0.029
		c0.006-0.007,0.013,0,0.023,0.006c0.006,0.01,0.003,0.023-0.003,0.033C142.318,153.919,142.311,153.916,142.305,153.903z
		 M149.642,143.672c-0.039-0.039-0.013,0,0.049,0.072c0.065,0.078,0.088,0.104,0.065,0.065
		C149.723,143.763,149.674,143.705,149.642,143.672z M142.607,152.136c-0.049-0.06,0.007-0.111,0.85-0.808
		c0.456-0.381,0.833-0.703,0.833-0.717c0-0.029-0.241-0.315-0.267-0.315c-0.01,0-0.101,0.062-0.195,0.14
		c-0.163,0.13-0.186,0.146-0.244,0.27l-0.068,0.134l-0.479,0.396l-0.479,0.4l-0.13,0.026c-0.111,0.026-0.144,0.042-0.287,0.156
		c-0.221,0.192-0.221,0.192-0.075,0.361c0.075,0.091,0.13,0.146,0.149,0.146c0.023,0.004,0.082-0.036,0.14-0.074
		c0.104-0.085,0.13-0.098,0.189-0.072C142.584,152.204,142.637,152.168,142.607,152.136z M160.228,138.236
		c0.007-0.007,1.055-0.889,2.338-1.957c1.282-1.071,2.799-2.334,3.365-2.812c0.569-0.479,1.312-1.1,1.647-1.383
		c0.338-0.28,0.553-0.469,0.481-0.417c-0.078,0.052-2.754,2.266-5.943,4.909c-5.485,4.541-7.842,6.5-7.953,6.63l-0.049,0.056
		l0.059-0.026c0.039-0.013,0.3-0.222,0.593-0.469c0.293-0.244,0.54-0.443,0.554-0.443
		C155.339,142.331,160.222,138.262,160.228,138.236z M167.266,132.552c-0.013,0-0.026,0.013-0.036,0.026
		c-0.006,0.013,0,0.013,0.017,0C167.272,132.565,167.272,132.559,167.266,132.552z M166.875,132.871
		c-0.02,0.013-0.052,0.036-0.065,0.056c-0.02,0.022-0.006,0.016,0.033-0.013C166.875,132.881,166.888,132.865,166.875,132.871z
		 M167.083,132.708c0.072-0.072,0.072-0.072-0.025,0.006c-0.085,0.068-0.104,0.084-0.085,0.104s0.026,0.02,0.032-0.006
		C167.005,132.799,167.048,132.747,167.083,132.708z M168.249,131.855c0.013-0.052,0.025-0.062,0.059-0.052
		c0.055,0.01,0.091-0.033,0.062-0.072c-0.02-0.02-0.017-0.029,0.01-0.029c0.052,0,0.244-0.134,0.3-0.199l0.042-0.052l-0.068,0.006
		c-0.055,0.006-0.098,0.036-0.169,0.094c-0.052,0.049-0.141,0.107-0.186,0.134c-0.062,0.039-0.095,0.065-0.101,0.088
		c-0.004,0.022-0.01,0.026-0.026,0.02c-0.013-0.01-0.046,0.01-0.081,0.055c-0.039,0.052-0.053,0.072-0.029,0.068
		c0.025,0,0.032,0.003,0.025,0.032c-0.016,0.042,0,0.036,0.085-0.006c0.022-0.01,0.042-0.017,0.042-0.017
		S168.226,131.888,168.249,131.855z M166.458,133.363c-0.013-0.003-0.025,0.01-0.039,0.023c-0.006,0.02,0,0.02,0.02,0.006
		C166.458,133.372,166.465,133.363,166.458,133.363z M153.138,144.492c-0.013,0-0.032,0.006-0.039,0.02c-0.01,0.02,0,0.02,0.02,0
		C153.138,144.505,153.145,144.492,153.138,144.492z M169.153,131.452c-0.064-0.065-0.064-0.068-0.045-0.013
		c0.045,0.084,0.088,0.143,0.098,0.114C169.212,131.537,169.187,131.494,169.153,131.452z M140.993,154.915l0.023-0.059
		l-0.032,0.046c-0.017,0.025-0.036,0.059-0.036,0.071C140.941,155.017,140.973,154.98,140.993,154.915z M141.726,155
		c-0.026-0.003-0.046,0-0.046,0.007c-0.003,0.016,0.078,0.029,0.085,0.013C141.764,155.013,141.745,155.003,141.726,155z
		 M142.845,154.274c0.007-0.023,0.007-0.029,0-0.023c-0.006,0.007-0.019,0.033-0.026,0.046c-0.01,0.026-0.006,0.032,0.007,0.026
		C142.832,154.316,142.838,154.294,142.845,154.274z M144.076,153.21c-0.017-0.02-0.026-0.039-0.017-0.049
		c0.023-0.017,0.036,0.003,0.042,0.049C144.102,153.242,144.102,153.242,144.076,153.21z M142.962,154.231
		c0-0.013-0.016-0.013-0.032,0c-0.036,0.033-0.036,0,0.006-0.045c0.02-0.02,0.039-0.052,0.039-0.072
		c0.006-0.032,0.006-0.032,0.026-0.013c0.013,0.02,0.013,0.049,0,0.068c-0.013,0.02-0.02,0.042-0.013,0.049
		c0.006,0.007,0,0.02-0.007,0.032C142.976,154.251,142.962,154.245,142.962,154.231z M142.741,154.538
		c-0.02-0.02-0.02-0.026,0.003-0.02c0.01,0.013,0.023,0.025,0.023,0.036C142.767,154.564,142.754,154.558,142.741,154.538z
		 M143.945,153.584c-0.006-0.007,0-0.022,0-0.029c0.006-0.007,0.026-0.007,0.033,0c0.006,0.013,0.006,0.026,0,0.032
		C143.965,153.594,143.952,153.591,143.945,153.584z M142.734,154.655c-0.033,0-0.045,0.006-0.045,0.025
		c0.006,0.023-0.007,0.036-0.026,0.036c-0.023,0.007-0.02-0.013,0.003-0.056c0.023-0.049,0.036-0.055,0.078-0.042
		C142.803,154.636,142.799,154.648,142.734,154.655z M143.815,154.6c0-0.013,0-0.029,0-0.032s0.013,0.003,0.026,0.01
		c0.006,0.01,0.006,0.026-0.013,0.032C143.822,154.619,143.815,154.612,143.815,154.6z M143.88,154.577
		c-0.01,0-0.033-0.014-0.039-0.029c-0.013-0.017-0.013-0.023,0.006-0.017c0.013,0,0.039,0,0.055-0.007
		c0.029-0.013,0.029-0.006,0.013,0.023C143.903,154.563,143.89,154.577,143.88,154.577z M144.694,154.271
		c-0.013-0.006-0.02,0,0,0.02c0.017,0.017,0.026,0.023,0.026,0.014C144.72,154.293,144.713,154.28,144.694,154.271z
		 M144.818,154.512c-0.013,0-0.026,0.013-0.033,0.026c-0.006,0.019,0,0.019,0.02,0.006
		C144.818,154.531,144.828,154.512,144.818,154.512z M144.857,154.499c-0.013-0.007-0.017,0,0,0.02
		c0.013,0.013,0.023,0.025,0.026,0.013C144.879,154.519,144.87,154.505,144.857,154.499z M140.661,157.988
		c-0.01-0.013-0.036-0.02-0.042-0.007c-0.026,0.02-0.02,0.026,0.013,0.033c0.02,0.006,0.039,0.006,0.042,0.006
		C140.68,158.008,140.674,157.995,140.661,157.988z M144.694,154.587c-0.072,0.017-0.072,0.025-0.006,0.068
		c0.049,0.025,0.049,0.025,0.059-0.026C144.753,154.577,144.753,154.573,144.694,154.587z M140.625,158.203
		c-0.042-0.013-0.042-0.013-0.006,0.007c0.013,0.016,0.039,0.032,0.049,0.045c0.01,0.014,0.016,0.007,0.01-0.013
		C140.667,158.229,140.645,158.21,140.625,158.203z M143.503,156.159c-0.033-0.023-0.046-0.029-0.033-0.014
		c0.023,0.033,0.084,0.072,0.084,0.059C143.555,156.198,143.529,156.179,143.503,156.159z M144.226,156.458
		c-0.033-0.02-0.117-0.059-0.189-0.088c-0.153-0.068-0.469-0.166-0.449-0.137c0.01,0.014,0.078,0.043,0.149,0.068
		c0.072,0.02,0.137,0.053,0.14,0.068c0.01,0.02,0.013,0.023,0.017,0.011c0.003-0.014,0.065,0,0.133,0.032
		c0.179,0.084,0.225,0.098,0.238,0.084C144.277,156.484,144.258,156.465,144.226,156.458z M144.635,155.97
		c0.006-0.02,0.02-0.039,0.026-0.045c0.007-0.014,0.013,0,0.007,0.02c-0.007,0.02-0.02,0.042-0.026,0.049
		C144.629,156.003,144.629,155.993,144.635,155.97z M144.524,156.172c0.007-0.02,0.02-0.046,0.03-0.049
		c0.006-0.01,0.01,0.003,0.003,0.02c-0.006,0.022-0.019,0.042-0.026,0.049C144.525,156.198,144.518,156.191,144.524,156.172z
		 M144.479,156.279c-0.003-0.003,0.007-0.02,0.013-0.036c0.006-0.016,0.02-0.02,0.026-0.006
		C144.512,156.26,144.492,156.296,144.479,156.279z M144.512,156.354c0.02-0.059,0.055-0.134,0.075-0.176
		c0.017-0.039,0.055-0.111,0.082-0.163c0.026-0.049,0.081-0.16,0.13-0.241c0.176-0.322,0.202-0.381,0.222-0.533
		c0.016-0.144-0.013-0.287-0.072-0.355c-0.033-0.035-0.033-0.081-0.006-0.101c0.006-0.007,0.029,0,0.049,0.02
		c0.055,0.039,0.094,0.234,0.087,0.41c0,0.156,0.02,0.144,0.072-0.032c0.02-0.068,0.02-0.15,0.007-0.219
		c-0.03-0.11-0.111-0.24-0.14-0.215c-0.017,0.01-0.02,0-0.026-0.032c-0.01-0.049-0.017-0.042-0.082,0.013
		c-0.072,0.062-0.075,0.068-0.045,0.127c0.026,0.06,0.016,0.053-0.065-0.045c-0.149-0.176-0.325-0.231-0.488-0.163
		c-0.084,0.032-0.729,0.58-0.762,0.642c-0.013,0.029,0,0.055,0.082,0.146c0.055,0.059,0.179,0.195,0.264,0.293
		c0.091,0.098,0.189,0.195,0.215,0.212c0.065,0.035,0.247,0.064,0.273,0.042c0.033-0.026,0.088,0.013,0.088,0.059
		c0,0.052-0.055,0.085-0.094,0.068c-0.013-0.01-0.033-0.01-0.036,0c-0.01,0.042-0.192,0.02-0.312-0.032
		c-0.104-0.049-0.146-0.082-0.273-0.209c-0.081-0.088-0.169-0.169-0.198-0.176c-0.068-0.029-0.124,0.007-0.137,0.095
		c-0.013,0.068-0.007,0.098,0.059,0.198c0.052,0.068,0.104,0.134,0.146,0.166c0.107,0.068,0.335,0.137,0.4,0.121
		c0.059-0.014,0.071-0.007,0.124,0.055c0.104,0.124,0.228,0.131,0.293,0.02c0.033-0.052,0.036-0.052,0.016,0.036
		c-0.016,0.075,0,0.237,0.036,0.276c0,0.007,0.006-0.039,0-0.098C144.486,156.501,144.499,156.406,144.512,156.354z
		 M144.561,156.765c-0.036-0.053-0.062-0.075-0.055-0.053c0,0.02,0.032,0.065,0.065,0.102
		C144.642,156.901,144.635,156.882,144.561,156.765z M144.642,156.914c-0.013-0.007-0.013,0.007,0.006,0.032
		c0.02,0.02,0.026,0.026,0.026,0.013C144.668,156.943,144.655,156.924,144.642,156.914z M144.857,157.1
		c-0.091-0.212-0.189-0.576-0.183-0.69c0.007-0.107-0.032-0.074-0.045,0.049c-0.026,0.156-0.01,0.215,0.15,0.622
		c0.13,0.322,0.137,0.335,0.186,0.335c0.042-0.006,0.042-0.006,0.019-0.055C144.964,157.331,144.916,157.217,144.857,157.1z
		 M133.809,171.895c-0.068,0.032-0.143,0.026-0.225-0.02c-0.062-0.032-0.127-0.101-0.4-0.452c-0.319-0.4-1.289-1.618-2.155-2.705
		c-0.602-0.756-0.827-1.101-1.006-1.523c-0.166-0.4-0.153-0.69,0.023-0.771c0.026-0.014,0.149-0.095,0.264-0.18
		c0.117-0.084,0.315-0.234,0.452-0.332c0.371-0.26,0.697-0.553,0.938-0.846c0.293-0.346,0.391-0.498,0.642-1.052
		c0.244-0.524,0.218-0.498,0.563-0.801c0.495-0.439,4.219-3.503,4.564-3.757c0.371-0.27,0.442-0.306,0.566-0.273
		c0.049,0.013,0.098,0.023,0.104,0.023c0.013,0,0.062,0.02,0.111,0.038c0.052,0.02,0.104,0.039,0.117,0.036
		c0.013-0.003,0.026,0.01,0.026,0.017c0,0.013,0.032,0.022,0.068,0.032c0.036,0.004,0.068,0.014,0.081,0.026
		c0.072,0.059,0.355,0.088,0.527,0.059c0.312-0.065,0.658-0.251,0.853-0.469c0.306-0.342,0.442-0.69,0.465-1.179
		c0.01-0.244,0.003-0.312-0.042-0.501c-0.039-0.179-0.11-0.342-0.218-0.501c-0.146-0.229-0.163-0.3-0.111-0.463
		c0.068-0.218,0.485-0.85,0.684-1.038c0.075-0.068,0.14-0.123,0.14-0.114c0.003,0.014,0.023,0.007,0.039-0.01
		c0.059-0.049,0.345-0.113,0.524-0.12c0.088-0.003,0.166-0.013,0.166-0.02c0.007-0.026-0.293-0.007-0.456,0.032
		c-0.13,0.033-0.176,0.033-0.172,0.007c0-0.02-0.01-0.026-0.017-0.02c-0.006,0.007-0.039-0.022-0.071-0.071
		c-0.052-0.075-0.157-0.137-0.169-0.098c-0.003,0.006-0.033,0.006-0.065-0.007c-0.137-0.039-0.202-0.039-0.345,0.013
		c-0.085,0.029-0.195,0.065-0.251,0.078c-0.055,0.014-0.107,0.026-0.114,0.033c-0.042,0.032-0.169-0.082-0.16-0.15
		c0.007-0.064,0.042-0.068,0.088-0.02c0.049,0.065,0.065,0.02,0.013-0.055c-0.039-0.053-0.039-0.062,0.045-0.131
		c0.068-0.062,0.111-0.081,0.231-0.107c0.088-0.029,0.163-0.032,0.205-0.013c0.094,0.039,0.183,0.013,0.287-0.091
		c0.088-0.082,0.101-0.088,0.176-0.075c0.042,0.003,0.104,0.036,0.137,0.062c0.124,0.111,0.205,0.156,0.228,0.137
		c0.052-0.039,0,0.104-0.062,0.192c-0.075,0.101-0.075,0.143,0,0.074c0.107-0.081,0.543-0.074,0.908,0.014
		c0.088,0.025,0.163,0.035,0.182,0.02c0.017-0.02,0.078-0.131,0.14-0.258c0.134-0.273,0.375-0.657,0.544-0.882
		c0.241-0.312,0.456-0.518,1.074-1.028c0.615-0.508,0.648-0.541,0.651-0.664c0.003-0.075-0.085-0.219-0.14-0.219
		c-0.02,0-0.101,0.046-0.183,0.102c-0.191,0.124,2.257-1.92,5.984-4.994c1.673-1.387,2.806-2.331,2.777-2.321
		c-0.026,0.006-0.053,0.013-0.053,0.01c-0.006,0,0.039-0.039,0.092-0.072c0.065-0.049,0.094-0.062,0.078-0.039
		c0,0.02,0.045-0.006,0.13-0.071c0.117-0.101,0.124-0.108,0.059-0.091c-0.059,0.013-0.052,0.006,0.111-0.134
		c0.162-0.14,0.488-0.413,0.885-0.732c0.095-0.071,0.283-0.228,0.417-0.342c0.13-0.114,0.299-0.244,0.367-0.296
		c0.421-0.303,0.876-0.674,2.588-2.087c1.687-1.393,4.174-3.479,5.463-4.577c0.24-0.212,0.82-0.697,1.279-1.078
		c0.572-0.482,0.83-0.709,0.823-0.726c-0.007-0.033,0.107-0.134,0.296-0.257c0.075-0.055,0.153-0.117,0.179-0.137
		c0.046-0.045,0.137-0.124,0.248-0.208c0.045-0.032,0.137-0.11,0.201-0.169c0.065-0.062,0.131-0.124,0.15-0.144
		c0.022-0.02,0.029-0.032,0.01-0.045c-0.023-0.006-0.023-0.006,0.013-0.006c0.056,0.003,0.137-0.072,0.107-0.098
		c-0.02-0.02-0.007-0.036,0.036-0.068c0.035-0.023,0.068-0.042,0.068-0.029c0.013,0.01,0.13-0.104,0.137-0.127
		c0-0.023-0.007-0.017-0.082,0.039c-0.029,0.022-0.068,0.042-0.078,0.042c-0.035,0-0.127,0.117-0.113,0.137
		c0.006,0.007,0,0.02-0.02,0.033c-0.02,0.016-0.026,0.016-0.02,0c0.01-0.013,0.01-0.026,0.003-0.039
		c-0.017-0.013-0.442,0.338-0.504,0.423c-0.033,0.032-0.056,0.055-0.056,0.049c0-0.01-0.068,0.032-0.149,0.101
		c-0.082,0.065-0.137,0.117-0.127,0.124c0.01,0-0.004,0.026-0.03,0.056c-0.019,0.026-0.049,0.045-0.062,0.039
		c-0.006-0.003,0-0.022,0.026-0.049c0.022-0.026-0.026,0.007-0.104,0.068c-0.11,0.091-0.137,0.121-0.13,0.144
		c0.007,0.022,0,0.042-0.017,0.055c-0.036,0.026-0.056-0.006-0.029-0.039c0.022-0.032-9.651,7.982-10.349,8.568
		c-0.182,0.156-0.484,0.41-0.667,0.557c-0.186,0.149-0.41,0.348-0.508,0.43c-0.091,0.088-0.244,0.218-0.335,0.29
		c-0.149,0.121-3.05,2.514-3.883,3.21c-0.521,0.43-3.705,3.037-4.414,3.607c-0.335,0.28-0.951,0.774-1.367,1.106
		c-0.541,0.443-0.791,0.651-0.915,0.778c-0.095,0.095-0.335,0.312-0.537,0.479c-0.202,0.169-0.365,0.319-0.372,0.332
		c0,0.013-0.013,0.032-0.026,0.045c-0.016,0.014-0.026,0.046-0.023,0.065c0.007,0.039,0.007,0.043-0.052,0.039
		c-0.029,0-0.088-0.02-0.124-0.039l-0.062-0.039l-0.26,0.212c-0.144,0.121-0.28,0.219-0.3,0.219c-0.032,0.013-0.049,0-0.081-0.062
		c-0.062-0.114-0.042-0.137,0.231-0.361c0.225-0.186,0.254-0.208,0.316-0.208c0.082-0.004,0.127-0.039,0.101-0.072
		c-0.006-0.013-0.013-0.032,0-0.038c0.013-0.011,0-0.033-0.032-0.065c-0.036-0.02-0.153-0.149-0.267-0.287
		c-0.182-0.218-0.211-0.247-0.247-0.237c-0.026,0.003-0.345,0.251-0.742,0.583c-0.684,0.56-0.703,0.572-0.739,0.657
		c-0.023,0.052-0.036,0.11-0.036,0.13c0.023,0.124-0.251,0.456-0.798,0.977c-0.706,0.677-1.162,1.074-1.598,1.426
		c-0.423,0.339-0.462,0.358-0.56,0.378c-0.144,0.039-0.28-0.026-0.521-0.241c-0.244-0.221-0.667-0.755-0.778-0.979
		c-0.124-0.264-0.111-0.342,0.081-0.515c0.248-0.211,1.136-0.953,1.295-1.07c0.371-0.273,0.541-0.397,0.583-0.424
		c0.029-0.02,0.159-0.117,0.296-0.221c0.287-0.222,0.469-0.339,0.716-0.463c0.156-0.074,0.189-0.084,0.312-0.074l0.137,0.013
		l0.752-0.621c0.426-0.349,0.758-0.632,0.765-0.648c0-0.017-0.02-0.062-0.033-0.098c-0.098-0.166-0.084-0.225,0.075-0.469
		c0.062-0.094,0.082-0.114,0.169-0.152c0.257-0.121,0.414-0.127,0.498-0.02c0.075,0.088,0.078,0.084,0.309-0.102l0.212-0.172
		l0.006-0.085c0.006-0.091,0-0.098-0.163-0.309c-0.117-0.146-0.241-0.371-0.241-0.433c0-0.033,0.036-0.094,0.082-0.156
		c0.114-0.137,0.589-0.527,0.719-0.593c0.104-0.042,0.111-0.042,0.189,0.007c0.049,0.032,0.117,0.088,0.16,0.12
		c0.039,0.036,0.075,0.068,0.087,0.068c0.007,0.007,0.059,0.072,0.117,0.137c0.108,0.13,0.111,0.13,0.225,0.144l0.117,0.016
		l0.199-0.166c0.11-0.088,0.195-0.169,0.195-0.186c0-0.01-0.026-0.068-0.059-0.121c-0.033-0.055-0.056-0.124-0.056-0.149
		c0.003-0.062,0.157-0.316,0.225-0.378c0.039-0.026,0.143-0.071,0.231-0.101c0.146-0.049,0.186-0.056,0.244-0.029
		c0.036,0.022,0.091,0.059,0.111,0.084c0.029,0.033,0.062,0.045,0.091,0.039c0.026,0,0.271-0.195,0.681-0.534
		c0.693-0.573,0.589-0.476,1.344-1.318c0.127-0.14,0.384-0.43,0.566-0.628c0.188-0.208,0.394-0.443,0.469-0.527
		c0.075-0.084,0.228-0.25,0.338-0.375c0.104-0.12,0.234-0.257,0.277-0.309c0.25-0.293,1.269-1.211,1.494-1.348
		c0.218-0.13,0.247-0.137,0.371-0.033c0.215,0.183,1.37,1.615,1.383,1.726c0.004,0.013-0.016,0.068-0.038,0.124
		c-0.043,0.088-0.075,0.121-0.391,0.391c-0.7,0.599-1.019,0.807-3.594,2.34l-0.615,0.368l-0.684,0.566
		c-0.807,0.664-0.762,0.599-0.592,0.794c0.137,0.149,0.149,0.156,0.211,0.101c0.134-0.107,0.225-0.149,0.274-0.127
		c0.068,0.039,0.136-0.022,0.11-0.098c-0.016-0.052-0.016-0.055,0.16-0.192l0.202-0.137l0.124,0.13
		c0.163,0.172,0.215,0.198,0.3,0.146c0.042-0.02,1.523-1.244,3.291-2.715c1.771-1.471,4.574-3.809,6.234-5.189
		c1.66-1.38,3.541-2.949,4.186-3.49c0.645-0.54,2.849-2.37,4.896-4.069l3.724-3.086l0.085,0.006c0.11,0.017,0.283,0.16,0.43,0.365
		c0.123,0.182,0.159,0.287,0.12,0.381c-0.029,0.068-0.173,0.192-2.757,2.35c-1.501,1.253-4.609,3.845-6.911,5.759
		c-3.229,2.689-4.187,3.49-4.202,3.532c-0.017,0.042-0.007,0.055,0.12,0.198c0.101,0.111,0.14,0.163,0.166,0.238
		c0.065,0.179,0.046,0.322-0.065,0.504c-0.02,0.036-0.137,0.16-0.26,0.267c-0.241,0.225-0.247,0.234-0.17,0.335
		c0.065,0.075,0.068,0.133,0.026,0.218c-0.068,0.117-0.114,0.144-0.254,0.137c-0.163,0-0.195,0.026-0.339,0.28
		c-0.062,0.117-0.169,0.28-0.234,0.374c-0.116,0.173-0.136,0.186-0.97,0.902c-0.469,0.397-1.146,0.986-1.51,1.299
		c-2.468,2.151-2.494,2.174-2.765,2.412c-0.127,0.111-0.576,0.508-0.999,0.883c-0.801,0.703-1.172,1.038-2.035,1.822
		c-0.28,0.261-0.563,0.498-0.622,0.541c-0.072,0.049-0.149,0.074-0.241,0.088c-0.121,0.025-0.143,0.032-0.28,0.149
		c-0.202,0.169-0.202,0.163-0.006,0.397c0.13,0.162,0.163,0.215,0.215,0.348c0.068,0.17,0.078,0.381,0.033,0.541
		c-0.02,0.081-0.137,0.325-0.205,0.449c-0.127,0.218-0.212,0.43-0.218,0.543c-0.013,0.251,0.006,0.346,0.186,0.762
		c0.042,0.101,0.075,0.212,0.075,0.251c-0.006,0.068-0.013,0.071-0.072,0.075c-0.065,0.006-0.071,0-0.117-0.065
		c-0.022-0.046-0.071-0.131-0.104-0.195c-0.075-0.183-0.335-0.495-0.482-0.586c-0.107-0.062-0.188-0.082-0.215-0.062
		c-0.022,0.023-0.098-0.013-0.172-0.068c-0.036-0.025-0.094-0.052-0.124-0.059c-0.029,0-0.068-0.016-0.088-0.025
		s-0.094-0.014-0.169-0.007c-0.104,0.01-0.15,0.026-0.208,0.078c-0.039,0.036-0.071,0.068-0.065,0.078
		c0.006,0.013,0.006,0.026-0.013,0.039c-0.013,0.013-0.02,0.026-0.02,0.036c0.026,0.059-0.127,0.433-0.234,0.599
		c-0.117,0.179-0.176,0.354-0.192,0.622c-0.013,0.137-0.016,0.254-0.013,0.254c0.006,0.006-0.003,0.088-0.013,0.188
		c-0.01,0.098-0.013,0.205-0.006,0.247c0.039,0.192,0.052,0.28,0.052,0.3c-0.006,0.007,0.01,0.042,0.029,0.078
		c0.013,0.032,0.026,0.065,0.02,0.071c-0.006,0.007,0.013,0.065,0.036,0.131c0.03,0.071,0.049,0.13,0.039,0.13
		c-0.01,0.013,0.049,0.261,0.101,0.423c0.02,0.072,0.117,0.241,0.169,0.31c0.071,0.081,0.208,0.388,0.202,0.459
		c0,0.071-0.111,0.244-0.202,0.312c-0.14,0.124-1.348,0.615-1.384,0.566c-0.003-0.007-0.013-0.007-0.016,0.007
		c-0.01,0.02-0.084,0.013-0.137-0.02c-0.02-0.007-0.065-0.014-0.107-0.007c-0.042,0.013-0.082,0-0.101-0.022
		c-0.049-0.06-0.195,0.003-0.345,0.152c-0.208,0.202-0.423,0.508-1.341,1.921c-0.195,0.3-0.423,0.631-0.501,0.755
		c-0.081,0.124-0.381,0.566-0.67,0.996c-0.287,0.427-0.531,0.788-0.543,0.808c-0.017,0.02-0.14,0.202-0.273,0.397
		c-0.134,0.198-0.361,0.54-0.505,0.748c-0.417,0.605-1.325,1.947-1.419,2.08c-0.059,0.088-0.085,0.153-0.091,0.219
		c-0.006,0.055-0.026,0.149-0.049,0.204c-0.039,0.108-0.042,0.114-0.182,0.196c-0.13,0.081-0.147,0.101-0.29,0.289
		c-0.081,0.107-0.208,0.293-0.28,0.403c-0.082,0.121-0.208,0.277-0.319,0.395c-0.199,0.212-0.267,0.296-0.476,0.628
		C134.017,171.702,133.893,171.843,133.809,171.895z"/>
	
		<linearGradient id="SVGID_2_" gradientUnits="userSpaceOnUse" x1="1023" y1="-1014.3325" x2="1023" y2="-967.6665" gradientTransform="matrix(1 0 0 -1 -873 -841)">
		<stop  offset="0" style="stop-color:#000000;stop-opacity:0.35"/>
		<stop  offset="0.0975" style="stop-color:#060606;stop-opacity:0.3159"/>
		<stop  offset="0.2216" style="stop-color:#151515;stop-opacity:0.2724"/>
		<stop  offset="0.36" style="stop-color:#2F2F2F;stop-opacity:0.224"/>
		<stop  offset="0.5088" style="stop-color:#545454;stop-opacity:0.1719"/>
		<stop  offset="0.6661" style="stop-color:#838383;stop-opacity:0.1169"/>
		<stop  offset="0.8304" style="stop-color:#BCBCBC;stop-opacity:0.0594"/>
		<stop  offset="0.9977" style="stop-color:#FEFEFE;stop-opacity:8.182824e-04"/>
		<stop  offset="1" style="stop-color:#FFFFFF;stop-opacity:0"/>
	</linearGradient>
	<rect x="126.667" y="126.667" fill="url(#SVGID_2_)" width="46.667" height="46.667"/>
	
		<linearGradient id="SVGID_3_" gradientUnits="userSpaceOnUse" x1="1023" y1="-1014.3325" x2="1023" y2="-967.6665" gradientTransform="matrix(1 0 0 -1 -873 -841)">
		<stop  offset="0" style="stop-color:#000000;stop-opacity:0"/>
		<stop  offset="0.3726" style="stop-color:#020202;stop-opacity:0.205"/>
		<stop  offset="0.5069" style="stop-color:#090909;stop-opacity:0.2788"/>
		<stop  offset="0.6026" style="stop-color:#141414;stop-opacity:0.3314"/>
		<stop  offset="0.68" style="stop-color:#252525;stop-opacity:0.374"/>
		<stop  offset="0.7463" style="stop-color:#3B3B3B;stop-opacity:0.4104"/>
		<stop  offset="0.805" style="stop-color:#575757;stop-opacity:0.4427"/>
		<stop  offset="0.8581" style="stop-color:#777777;stop-opacity:0.472"/>
		<stop  offset="0.9069" style="stop-color:#9D9D9D;stop-opacity:0.4988"/>
		<stop  offset="0.9523" style="stop-color:#C8C8C8;stop-opacity:0.5238"/>
		<stop  offset="0.9926" style="stop-color:#F6F6F6;stop-opacity:0.5459"/>
		<stop  offset="1" style="stop-color:#FFFFFF;stop-opacity:0.55"/>
	</linearGradient>
	<rect x="126.667" y="126.667" fill="url(#SVGID_3_)" width="46.667" height="46.667"/>
</g>
</svg>
