<?xml version="1.0" encoding="utf-8"?>
<!-- Generator: Adobe Illustrator 15.1.0, SVG Export Plug-In . SVG Version: 6.00 Build 0)  -->
<!DOCTYPE svg PUBLIC "-//W3C//DTD SVG 1.1//EN" "http://www.w3.org/Graphics/SVG/1.1/DTD/svg11.dtd">
<svg version="1.1" id="Layer_1" xmlns="http://www.w3.org/2000/svg" xmlns:xlink="http://www.w3.org/1999/xlink" x="0px" y="0px"
	 width="50px" height="50px" viewBox="-17.5 -17.5 50 50" enable-background="new -17.5 -17.5 50 50" xml:space="preserve">
<g id="Other">
	<g>
		<rect x="-15.833" y="-15.833" fill="#660000" width="46.667" height="46.667"/>
		<g id="stroke_8_">
			<path fill="#660000" d="M30.833-15.833v46.667h-46.667v-46.667H30.833 M32.5-17.5h-1.136h-45.453H-17.5v1.136v45.453V32.5h3.412
				h45.453H32.5v-3.411v-45.453V-17.5L32.5-17.5z"/>
			
				<linearGradient id="SVGID_1_" gradientUnits="userSpaceOnUse" x1="589.5" y1="793.5" x2="589.5" y2="743.5" gradientTransform="matrix(1 0 0 1 -582 -761)">
				<stop  offset="0" style="stop-color:#333333;stop-opacity:0.3"/>
				<stop  offset="0.2701" style="stop-color:#353535;stop-opacity:0.4215"/>
				<stop  offset="0.4166" style="stop-color:#3D3D3D;stop-opacity:0.4875"/>
				<stop  offset="0.5336" style="stop-color:#4B4B4B;stop-opacity:0.5401"/>
				<stop  offset="0.635" style="stop-color:#5E5E5E;stop-opacity:0.5857"/>
				<stop  offset="0.7262" style="stop-color:#787878;stop-opacity:0.6268"/>
				<stop  offset="0.8101" style="stop-color:#979797;stop-opacity:0.6646"/>
				<stop  offset="0.8885" style="stop-color:#BBBBBB;stop-opacity:0.6998"/>
				<stop  offset="0.9606" style="stop-color:#E5E5E5;stop-opacity:0.7323"/>
				<stop  offset="1" style="stop-color:#FFFFFF;stop-opacity:0.75"/>
			</linearGradient>
			<path fill="url(#SVGID_1_)" d="M30.833-15.833v46.667h-46.667v-46.667H30.833 M32.5-17.5h-1.136h-45.453H-17.5v1.136v45.453V32.5
				h3.412h45.453H32.5v-3.411v-45.453V-17.5L32.5-17.5z"/>
		</g>
	</g>
	<g id="other" transform="matrix(0.691503,0,0,0.691503,-172.6774,935.21964)">
		<path id="path4647" fill="#231F20" d="M256.577-1373.002l-8.846,13.053c0.344,5.216-0.946,10.493-3.997,14.994
			c-3.045,4.496-10.22,5.634-15.125,7.272l13.059,8.841c5.22-0.339,10.465,0.932,14.984,4.002
			c4.472,3.022,5.644,10.215,7.278,15.115l8.841-13.053c-0.339-5.211,0.932-10.46,3.997-14.984
			c3.026-4.473,10.219-5.64,15.125-7.283l-13.059-8.841c-5.221,0.344-10.465-0.927-14.984-3.992
			C259.382-1360.909,258.206-1368.102,256.577-1373.002z M263.365-1345.958c2.536,1.718,3.2,5.168,1.487,7.706
			c-1.723,2.538-5.178,3.196-7.706,1.483c-2.538-1.713-3.202-5.169-1.488-7.702C257.377-1347.008,260.832-1347.672,263.365-1345.958
			z"/>
		<path id="path4635" fill="#231F20" d="M256.464-1373.365l-8.846,13.054c0.344,5.216-0.946,10.484-3.992,14.989
			c-3.055,4.496-10.23,5.644-15.125,7.282l13.049,8.841c5.22-0.343,10.47,0.932,14.989,3.992c4.477,3.031,5.648,10.219,7.278,15.119
			l8.845-13.049c-0.335-5.22,0.928-10.469,3.997-14.988c3.032-4.468,10.22-5.64,15.129-7.273l-13.057-8.845
			c-5.217,0.339-10.47-0.936-14.989-3.997C259.26-1361.271,258.093-1368.46,256.464-1373.365z M263.252-1346.325
			c2.532,1.723,3.2,5.178,1.483,7.71c-1.719,2.528-5.169,3.202-7.707,1.479c-2.533-1.723-3.197-5.174-1.478-7.702
			C257.264-1347.37,260.719-1348.039,263.252-1346.325z"/>
		<path id="path3191" fill="#231F20" d="M256.464-1373.365l-8.841,13.054c0.104,1.587,0.056,3.187-0.141,4.759l9.933-14.668
			C257.094-1371.327,256.784-1372.395,256.464-1373.365z"/>
		<path id="path3189" fill="#231F20" d="M278.73-1354.248c-1.601,0.108-3.192,0.057-4.765-0.141l14.669,9.937
			c1.102-0.32,2.171-0.626,3.145-0.96L278.73-1354.248z"/>
		<path id="path3183" fill="#231F20" d="M272.807-1327.896l-9.932,14.673c0.321,1.097,0.617,2.166,0.942,3.135l8.849-13.049
			C272.553-1324.727,272.605-1326.319,272.807-1327.896z"/>
		<path id="path3167" fill="#231F20" d="M231.656-1338.996c-1.111,0.321-2.175,0.627-3.154,0.952l13.054,8.835
			c1.591-0.099,3.187-0.057,4.759,0.151L231.656-1338.996z"/>
		<path id="path5169" opacity="0.7854" fill="#231F20" enable-background="new    " d="M256.464-1373.365l-8.846,13.054
			c0.344,5.216-0.946,10.484-3.992,14.989c-3.055,4.496-10.23,5.644-15.125,7.282l13.049,8.841c5.22-0.343,10.47,0.932,14.989,3.992
			c4.477,3.031,5.648,10.219,7.278,15.119l8.845-13.049c-0.335-5.22,0.928-10.469,3.997-14.988c3.032-4.468,10.22-5.64,15.129-7.273
			l-13.057-8.845c-5.217,0.339-10.47-0.936-14.989-3.997C259.26-1361.271,258.093-1368.46,256.464-1373.365z M263.252-1346.325
			c2.532,1.723,3.2,5.178,1.483,7.71c-1.719,2.528-5.169,3.202-7.707,1.479c-2.533-1.723-3.197-5.174-1.478-7.702
			C257.264-1347.37,260.719-1348.039,263.252-1346.325z"/>
	</g>
	
		<linearGradient id="SVGID_2_" gradientUnits="userSpaceOnUse" x1="589.5" y1="791.8329" x2="589.5" y2="745.1669" gradientTransform="matrix(1 0 0 1 -582 -761)">
		<stop  offset="0" style="stop-color:#000000;stop-opacity:0.35"/>
		<stop  offset="0.0975" style="stop-color:#060606;stop-opacity:0.3159"/>
		<stop  offset="0.2216" style="stop-color:#151515;stop-opacity:0.2724"/>
		<stop  offset="0.36" style="stop-color:#2F2F2F;stop-opacity:0.224"/>
		<stop  offset="0.5088" style="stop-color:#545454;stop-opacity:0.1719"/>
		<stop  offset="0.6661" style="stop-color:#838383;stop-opacity:0.1169"/>
		<stop  offset="0.8304" style="stop-color:#BCBCBC;stop-opacity:0.0594"/>
		<stop  offset="0.9977" style="stop-color:#FEFEFE;stop-opacity:8.182824e-04"/>
		<stop  offset="1" style="stop-color:#FFFFFF;stop-opacity:0"/>
	</linearGradient>
	<rect x="-15.833" y="-15.834" fill="url(#SVGID_2_)" width="46.667" height="46.667"/>
	
		<linearGradient id="SVGID_3_" gradientUnits="userSpaceOnUse" x1="589.5" y1="791.8329" x2="589.5" y2="745.1669" gradientTransform="matrix(1 0 0 1 -582 -761)">
		<stop  offset="0" style="stop-color:#000000;stop-opacity:0"/>
		<stop  offset="0.3726" style="stop-color:#020202;stop-opacity:0.205"/>
		<stop  offset="0.5069" style="stop-color:#090909;stop-opacity:0.2788"/>
		<stop  offset="0.6026" style="stop-color:#141414;stop-opacity:0.3314"/>
		<stop  offset="0.68" style="stop-color:#252525;stop-opacity:0.374"/>
		<stop  offset="0.7463" style="stop-color:#3B3B3B;stop-opacity:0.4104"/>
		<stop  offset="0.805" style="stop-color:#575757;stop-opacity:0.4427"/>
		<stop  offset="0.8581" style="stop-color:#777777;stop-opacity:0.472"/>
		<stop  offset="0.9069" style="stop-color:#9D9D9D;stop-opacity:0.4988"/>
		<stop  offset="0.9523" style="stop-color:#C8C8C8;stop-opacity:0.5238"/>
		<stop  offset="0.9926" style="stop-color:#F6F6F6;stop-opacity:0.5459"/>
		<stop  offset="1" style="stop-color:#FFFFFF;stop-opacity:0.55"/>
	</linearGradient>
	<rect x="-15.833" y="-15.834" fill="url(#SVGID_3_)" width="46.667" height="46.667"/>
</g>
</svg>
