<?xml version="1.0" encoding="utf-8"?>
<!-- Generator: Adobe Illustrator 15.1.0, SVG Export Plug-In . SVG Version: 6.00 Build 0)  -->
<!DOCTYPE svg PUBLIC "-//W3C//DTD SVG 1.1//EN" "http://www.w3.org/Graphics/SVG/1.1/DTD/svg11.dtd">
<svg version="1.1" id="Layer_1" xmlns="http://www.w3.org/2000/svg" xmlns:xlink="http://www.w3.org/1999/xlink" x="0px" y="0px"
	 width="150px" height="100px" viewBox="0 0 150 100" enable-background="new 0 0 150 100" xml:space="preserve">
<g>
	<path id="Base_2_" fill="#C11612" d="M111.465,7.328c-3.019,0.905-6.279,1.363-9.699,1.363c-11.423,0-14.524-6.975-14.524-6.975
		L62.609,1.788c0,0-3.072,6.903-14.51,6.903c-3.409,0-6.669-0.458-9.693-1.363l-8.031-2.402v30.398
		c0,26.723,21.301,49.263,41.234,61.453l3.47,2.111l3.401-2.214c20.284-13.229,41.02-30.861,41.02-61.351V4.926L111.465,7.328z"/>
	<path id="Base_1_" fill="#C11612" d="M85.6,4.721c1.913,2.565,6.592,6.97,16.166,6.97c3.713,0,7.266-0.501,10.559-1.488
		l4.176-1.249v26.37c0,29.057-20.048,46.049-39.656,58.836l-1.818,1.184l-1.851-1.126c-19.241-11.767-39.8-33.417-39.8-58.894V8.955
		l4.171,1.248c3.3,0.988,6.851,1.489,10.553,1.489c9.579,0,14.246-4.363,16.154-6.908L85.6,4.721 M87.241,1.716L62.609,1.788
		c0,0-3.072,6.903-14.51,6.903c-3.409,0-6.669-0.458-9.693-1.363l-8.031-2.402v30.398c0,26.723,21.301,49.263,41.234,61.453
		l3.47,2.111l3.401-2.214c20.284-13.229,41.02-30.861,41.02-61.351V4.926l-8.035,2.402c-3.019,0.905-6.279,1.363-9.699,1.363
		C90.343,8.691,87.241,1.716,87.241,1.716L87.241,1.716z"/>
</g>
<g>
	<linearGradient id="Dark_1_" gradientUnits="userSpaceOnUse" x1="54.0781" y1="-8.7598" x2="105.9414" y2="81.0701">
		<stop  offset="0" style="stop-color:#FFFFFF;stop-opacity:0"/>
		<stop  offset="0.1242" style="stop-color:#FBFBFB;stop-opacity:0.0621"/>
		<stop  offset="0.2495" style="stop-color:#EFEFEF;stop-opacity:0.1248"/>
		<stop  offset="0.3755" style="stop-color:#DBDBDB;stop-opacity:0.1878"/>
		<stop  offset="0.502" style="stop-color:#BEBEBE;stop-opacity:0.251"/>
		<stop  offset="0.6289" style="stop-color:#9A9A9A;stop-opacity:0.3144"/>
		<stop  offset="0.7561" style="stop-color:#6D6D6D;stop-opacity:0.3781"/>
		<stop  offset="0.8811" style="stop-color:#393939;stop-opacity:0.4406"/>
		<stop  offset="1" style="stop-color:#000000;stop-opacity:0.5"/>
	</linearGradient>
	<path id="Dark_3_" fill="url(#Dark_1_)" d="M111.465,7.328c-3.019,0.905-6.279,1.363-9.699,1.363
		c-11.423,0-14.524-6.975-14.524-6.975L62.609,1.788c0,0-3.072,6.903-14.51,6.903c-3.409,0-6.669-0.458-9.693-1.363l-8.031-2.402
		v30.398c0,26.723,21.301,49.263,41.234,61.453l3.47,2.111l3.401-2.214c20.284-13.229,41.02-30.861,41.02-61.351V4.926
		L111.465,7.328z"/>
	<linearGradient id="Dark_4_" gradientUnits="userSpaceOnUse" x1="43.9355" y1="-6.4521" x2="109.8169" y2="72.0622">
		<stop  offset="0" style="stop-color:#FFFFFF;stop-opacity:0"/>
		<stop  offset="0.1091" style="stop-color:#FAFAFA;stop-opacity:0.0273"/>
		<stop  offset="0.2329" style="stop-color:#EDEDED;stop-opacity:0.0582"/>
		<stop  offset="0.364" style="stop-color:#D6D6D6;stop-opacity:0.091"/>
		<stop  offset="0.5001" style="stop-color:#B6B6B6;stop-opacity:0.125"/>
		<stop  offset="0.6403" style="stop-color:#8D8D8D;stop-opacity:0.1601"/>
		<stop  offset="0.7837" style="stop-color:#5B5B5B;stop-opacity:0.1959"/>
		<stop  offset="0.9271" style="stop-color:#212121;stop-opacity:0.2318"/>
		<stop  offset="1" style="stop-color:#000000;stop-opacity:0.25"/>
	</linearGradient>
	<path id="Dark_2_" fill="url(#Dark_4_)" d="M85.6,4.721c1.913,2.565,6.592,6.97,16.166,6.97c3.713,0,7.266-0.501,10.559-1.488
		l4.176-1.249v26.37c0,29.057-20.048,46.049-39.656,58.836l-1.818,1.184l-1.851-1.126c-19.241-11.767-39.8-33.417-39.8-58.894V8.955
		l4.171,1.248c3.3,0.988,6.851,1.489,10.553,1.489c9.579,0,14.246-4.363,16.154-6.908L85.6,4.721 M87.241,1.716L62.609,1.788
		c0,0-3.072,6.903-14.51,6.903c-3.409,0-6.669-0.458-9.693-1.363l-8.031-2.402v30.398c0,26.723,21.301,49.263,41.234,61.453
		l3.47,2.111l3.401-2.214c20.284-13.229,41.02-30.861,41.02-61.351V4.926l-8.035,2.402c-3.019,0.905-6.279,1.363-9.699,1.363
		C90.343,8.691,87.241,1.716,87.241,1.716L87.241,1.716z"/>
</g>
<g>
	<linearGradient id="Light_3_" gradientUnits="userSpaceOnUse" x1="54.0781" y1="-8.7598" x2="105.9414" y2="81.0701">
		<stop  offset="0" style="stop-color:#FFFFFF;stop-opacity:0.5"/>
		<stop  offset="0.9939" style="stop-color:#FFFFFF;stop-opacity:0"/>
	</linearGradient>
	<path id="Light_2_" fill="url(#Light_3_)" d="M111.465,7.328c-3.019,0.905-6.279,1.363-9.699,1.363
		c-11.423,0-14.524-6.975-14.524-6.975L62.609,1.788c0,0-3.072,6.903-14.51,6.903c-3.409,0-6.669-0.458-9.693-1.363l-8.031-2.402
		v30.398c0,26.723,21.301,49.263,41.234,61.453l3.47,2.111l3.401-2.214c20.284-13.229,41.02-30.861,41.02-61.351V4.926
		L111.465,7.328z"/>
	<linearGradient id="Light_4_" gradientUnits="userSpaceOnUse" x1="43.9355" y1="-6.4521" x2="109.8169" y2="72.0622">
		<stop  offset="0" style="stop-color:#FFFFFF;stop-opacity:0.35"/>
		<stop  offset="0.0961" style="stop-color:#FFFFFF;stop-opacity:0.3164"/>
		<stop  offset="1" style="stop-color:#FFFFFF;stop-opacity:0"/>
	</linearGradient>
	<path id="Light_1_" fill="url(#Light_4_)" d="M85.6,4.721c1.913,2.565,6.592,6.97,16.166,6.97c3.713,0,7.266-0.501,10.559-1.488
		l4.176-1.249v26.37c0,29.057-20.048,46.049-39.656,58.836l-1.818,1.184l-1.851-1.126c-19.241-11.767-39.8-33.417-39.8-58.894V8.955
		l4.171,1.248c3.3,0.988,6.851,1.489,10.553,1.489c9.579,0,14.246-4.363,16.154-6.908L85.6,4.721 M87.241,1.716L62.609,1.788
		c0,0-3.072,6.903-14.51,6.903c-3.409,0-6.669-0.458-9.693-1.363l-8.031-2.402v30.398c0,26.723,21.301,49.263,41.234,61.453
		l3.47,2.111l3.401-2.214c20.284-13.229,41.02-30.861,41.02-61.351V4.926l-8.035,2.402c-3.019,0.905-6.279,1.363-9.699,1.363
		C90.343,8.691,87.241,1.716,87.241,1.716L87.241,1.716z"/>
</g>
<g>
	<linearGradient id="SVGID_1_" gradientUnits="userSpaceOnUse" x1="3.7207" y1="52.2988" x2="20.6127" y2="72.4299">
		<stop  offset="0" style="stop-color:#FFFFFF"/>
		<stop  offset="0.0496" style="stop-color:#FAFAFA"/>
		<stop  offset="0.1098" style="stop-color:#EBEBEB"/>
		<stop  offset="0.1753" style="stop-color:#D3D3D3"/>
		<stop  offset="0.1902" style="stop-color:#CCCCCC"/>
		<stop  offset="0.3988" style="stop-color:#F2F2F2"/>
		<stop  offset="0.4613" style="stop-color:#EAEAEA"/>
		<stop  offset="0.5574" style="stop-color:#D5D5D5"/>
		<stop  offset="0.589" style="stop-color:#CCCCCC"/>
		<stop  offset="0.773" style="stop-color:#F2F2F2"/>
		<stop  offset="0.8879" style="stop-color:#ADADAD"/>
		<stop  offset="1" style="stop-color:#666666"/>
	</linearGradient>
	<path fill="url(#SVGID_1_)" stroke="#000000" stroke-miterlimit="10" d="M0.834,67.692c0.344-0.053,0.615-0.225,0.814-0.516
		c0.198-0.291,0.39-0.622,0.576-0.992l7.344-15.443c0.185-0.343,0.351-0.661,0.497-0.953c0.145-0.291,0.218-0.542,0.218-0.754
		c0-0.264-0.093-0.45-0.278-0.556c-0.186-0.105-0.384-0.185-0.596-0.238v-0.714h6.709v0.714c-0.186,0.054-0.371,0.126-0.556,0.219
		c-0.186,0.093-0.278,0.285-0.278,0.575c0,0.212,0.046,0.424,0.139,0.635c0.092,0.212,0.231,0.49,0.417,0.834l8.257,16.156
		c0.132,0.292,0.311,0.504,0.536,0.636c0.225,0.133,0.482,0.265,0.774,0.396v0.715H18.42v-0.715c0.105,0,0.238-0.039,0.397-0.119
		c0.159-0.079,0.238-0.198,0.238-0.357c0-0.264-0.106-0.608-0.317-1.031l-1.509-2.938H7.543l-1.429,2.819
		c-0.265,0.556-0.397,0.952-0.397,1.19c0,0.292,0.251,0.437,0.754,0.437v0.715H0.834V67.692z M15.8,60.309l-3.335-7.383
		l-3.731,7.383H15.8z"/>
	<linearGradient id="SVGID_2_" gradientUnits="userSpaceOnUse" x1="29.9082" y1="50.6616" x2="46.4964" y2="70.4307">
		<stop  offset="0" style="stop-color:#FFFFFF"/>
		<stop  offset="0.0496" style="stop-color:#FAFAFA"/>
		<stop  offset="0.1098" style="stop-color:#EBEBEB"/>
		<stop  offset="0.1753" style="stop-color:#D3D3D3"/>
		<stop  offset="0.1902" style="stop-color:#CCCCCC"/>
		<stop  offset="0.3988" style="stop-color:#F2F2F2"/>
		<stop  offset="0.4613" style="stop-color:#EAEAEA"/>
		<stop  offset="0.5574" style="stop-color:#D5D5D5"/>
		<stop  offset="0.589" style="stop-color:#CCCCCC"/>
		<stop  offset="0.773" style="stop-color:#F2F2F2"/>
		<stop  offset="0.8879" style="stop-color:#ADADAD"/>
		<stop  offset="1" style="stop-color:#666666"/>
	</linearGradient>
	<path fill="url(#SVGID_2_)" stroke="#000000" stroke-miterlimit="10" d="M40.531,50.94c2.355,0,4.194,0.391,5.518,1.171
		c1.323,0.781,1.985,2.111,1.985,3.99c0,0.714-0.133,1.35-0.397,1.905c-0.265,0.556-0.615,1.039-1.052,1.449
		c-0.437,0.41-0.92,0.741-1.449,0.992c-0.53,0.252-1.072,0.443-1.627,0.575l3.89,5.677c0.211,0.292,0.443,0.51,0.695,0.655
		c0.251,0.146,0.522,0.258,0.814,0.337v0.715h-6.074v-0.715c0.343,0,0.516-0.119,0.516-0.357c0-0.264-0.199-0.675-0.596-1.23
		l-3.136-4.684h-5.518v5.677c0,0.212,0.085,0.363,0.258,0.456c0.172,0.093,0.337,0.139,0.496,0.139v0.715h-5.28v-0.715
		c0.477,0,0.715-0.198,0.715-0.595V52.251c0-0.397-0.238-0.596-0.715-0.596V50.94H40.531z M40.452,58.483
		c2.593,0,3.89-0.82,3.89-2.462c0-0.661-0.312-1.184-0.933-1.567c-0.623-0.384-1.608-0.576-2.958-0.576H34.18v4.605H40.452z"/>
	<linearGradient id="SVGID_3_" gradientUnits="userSpaceOnUse" x1="56.3677" y1="49.3105" x2="73.76" y2="70.0379">
		<stop  offset="0" style="stop-color:#FFFFFF"/>
		<stop  offset="0.0496" style="stop-color:#FAFAFA"/>
		<stop  offset="0.1098" style="stop-color:#EBEBEB"/>
		<stop  offset="0.1753" style="stop-color:#D3D3D3"/>
		<stop  offset="0.1902" style="stop-color:#CCCCCC"/>
		<stop  offset="0.3988" style="stop-color:#F2F2F2"/>
		<stop  offset="0.4613" style="stop-color:#EAEAEA"/>
		<stop  offset="0.5574" style="stop-color:#D5D5D5"/>
		<stop  offset="0.589" style="stop-color:#CCCCCC"/>
		<stop  offset="0.773" style="stop-color:#F2F2F2"/>
		<stop  offset="0.8879" style="stop-color:#ADADAD"/>
		<stop  offset="1" style="stop-color:#666666"/>
	</linearGradient>
	<path fill="url(#SVGID_3_)" stroke="#000000" stroke-miterlimit="10" d="M54.425,67.692c0.132-0.025,0.244-0.079,0.337-0.158
		c0.092-0.08,0.139-0.265,0.139-0.556V52.449c0-0.37-0.034-0.596-0.1-0.675c-0.066-0.079-0.192-0.119-0.377-0.119V50.94h5.518v0.715
		c-0.265,0-0.397,0.119-0.397,0.357c0,0.105,0.046,0.245,0.139,0.417c0.092,0.172,0.231,0.416,0.417,0.734l4.843,8.932l4.882-8.893
		c0.185-0.317,0.331-0.575,0.437-0.773c0.105-0.199,0.159-0.338,0.159-0.417c0-0.238-0.106-0.357-0.317-0.357V50.94h5.597v0.715
		c-0.133,0-0.258,0.033-0.377,0.1c-0.119,0.065-0.179,0.205-0.179,0.416v14.927c0,0.212,0.06,0.363,0.179,0.456
		c0.119,0.093,0.244,0.139,0.377,0.139v0.715h-4.605v-0.715c0.556,0,0.794-0.198,0.714-0.595V55.942h-0.079l-6.749,12.465h-0.318
		l-6.391-12.465h0.04h-0.079v11.155c0,0.396,0.225,0.595,0.675,0.595v0.715h-4.486V67.692z"/>
	<linearGradient id="SVGID_4_" gradientUnits="userSpaceOnUse" x1="85.0918" y1="52.0342" x2="97.9124" y2="67.3132">
		<stop  offset="0" style="stop-color:#FFFFFF"/>
		<stop  offset="0.0496" style="stop-color:#FAFAFA"/>
		<stop  offset="0.1098" style="stop-color:#EBEBEB"/>
		<stop  offset="0.1753" style="stop-color:#D3D3D3"/>
		<stop  offset="0.1902" style="stop-color:#CCCCCC"/>
		<stop  offset="0.3988" style="stop-color:#F2F2F2"/>
		<stop  offset="0.4613" style="stop-color:#EAEAEA"/>
		<stop  offset="0.5574" style="stop-color:#D5D5D5"/>
		<stop  offset="0.589" style="stop-color:#CCCCCC"/>
		<stop  offset="0.773" style="stop-color:#F2F2F2"/>
		<stop  offset="0.8879" style="stop-color:#ADADAD"/>
		<stop  offset="1" style="stop-color:#666666"/>
	</linearGradient>
	<path fill="url(#SVGID_4_)" stroke="#000000" stroke-miterlimit="10" d="M91.502,50.702c1.455,0,2.825,0.186,4.109,0.556
		c1.283,0.371,2.401,0.927,3.354,1.668c0.952,0.741,1.706,1.674,2.263,2.799c0.556,1.125,0.833,2.441,0.833,3.949
		c0,1.509-0.277,2.825-0.833,3.95c-0.557,1.125-1.311,2.058-2.263,2.798c-0.953,0.742-2.071,1.277-3.354,1.608
		c-1.284,0.331-2.654,0.496-4.109,0.496s-2.825-0.165-4.108-0.496c-1.284-0.331-2.401-0.866-3.354-1.608
		c-0.953-0.74-1.707-1.673-2.263-2.798s-0.834-2.441-0.834-3.95c0-1.508,0.278-2.824,0.834-3.949s1.31-2.058,2.263-2.799
		s2.07-1.297,3.354-1.668C88.677,50.888,90.047,50.702,91.502,50.702z M91.502,53.64c-0.847,0-1.674,0.14-2.48,0.417
		c-0.808,0.278-1.528,0.675-2.164,1.191c-0.635,0.516-1.145,1.145-1.528,1.886s-0.575,1.588-0.575,2.54
		c0,0.953,0.191,1.8,0.575,2.541s0.894,1.369,1.528,1.885c0.636,0.517,1.356,0.913,2.164,1.191c0.807,0.278,1.634,0.417,2.48,0.417
		s1.674-0.139,2.481-0.417c0.807-0.278,1.528-0.675,2.163-1.191c0.636-0.516,1.145-1.144,1.528-1.885s0.576-1.588,0.576-2.541
		c0-0.952-0.192-1.799-0.576-2.54s-0.893-1.37-1.528-1.886c-0.635-0.517-1.356-0.913-2.163-1.191
		C93.176,53.779,92.349,53.64,91.502,53.64z"/>
	<linearGradient id="SVGID_5_" gradientUnits="userSpaceOnUse" x1="107.0781" y1="50.6616" x2="123.6663" y2="70.4307">
		<stop  offset="0" style="stop-color:#FFFFFF"/>
		<stop  offset="0.0496" style="stop-color:#FAFAFA"/>
		<stop  offset="0.1098" style="stop-color:#EBEBEB"/>
		<stop  offset="0.1753" style="stop-color:#D3D3D3"/>
		<stop  offset="0.1902" style="stop-color:#CCCCCC"/>
		<stop  offset="0.3988" style="stop-color:#F2F2F2"/>
		<stop  offset="0.4613" style="stop-color:#EAEAEA"/>
		<stop  offset="0.5574" style="stop-color:#D5D5D5"/>
		<stop  offset="0.589" style="stop-color:#CCCCCC"/>
		<stop  offset="0.773" style="stop-color:#F2F2F2"/>
		<stop  offset="0.8879" style="stop-color:#ADADAD"/>
		<stop  offset="1" style="stop-color:#666666"/>
	</linearGradient>
	<path fill="url(#SVGID_5_)" stroke="#000000" stroke-miterlimit="10" d="M117.701,50.94c2.355,0,4.194,0.391,5.519,1.171
		c1.322,0.781,1.984,2.111,1.984,3.99c0,0.714-0.133,1.35-0.396,1.905c-0.266,0.556-0.616,1.039-1.053,1.449
		s-0.92,0.741-1.448,0.992c-0.53,0.252-1.072,0.443-1.628,0.575l3.891,5.677c0.211,0.292,0.442,0.51,0.694,0.655
		c0.251,0.146,0.522,0.258,0.813,0.337v0.715h-6.073v-0.715c0.344,0,0.516-0.119,0.516-0.357c0-0.264-0.198-0.675-0.595-1.23
		l-3.137-4.684h-5.518v5.677c0,0.212,0.085,0.363,0.258,0.456c0.172,0.093,0.338,0.139,0.496,0.139v0.715h-5.279v-0.715
		c0.477,0,0.714-0.198,0.714-0.595V52.251c0-0.397-0.237-0.596-0.714-0.596V50.94H117.701z M117.622,58.483
		c2.593,0,3.891-0.82,3.891-2.462c0-0.661-0.312-1.184-0.934-1.567s-1.607-0.576-2.957-0.576h-6.272v4.605H117.622z"/>
	<linearGradient id="SVGID_6_" gradientUnits="userSpaceOnUse" x1="132.6514" y1="47.7568" x2="146.5165" y2="64.2807">
		<stop  offset="0" style="stop-color:#FFFFFF"/>
		<stop  offset="0.0496" style="stop-color:#FAFAFA"/>
		<stop  offset="0.1098" style="stop-color:#EBEBEB"/>
		<stop  offset="0.1753" style="stop-color:#D3D3D3"/>
		<stop  offset="0.1902" style="stop-color:#CCCCCC"/>
		<stop  offset="0.3988" style="stop-color:#F2F2F2"/>
		<stop  offset="0.4613" style="stop-color:#EAEAEA"/>
		<stop  offset="0.5574" style="stop-color:#D5D5D5"/>
		<stop  offset="0.589" style="stop-color:#CCCCCC"/>
		<stop  offset="0.773" style="stop-color:#F2F2F2"/>
		<stop  offset="0.8879" style="stop-color:#ADADAD"/>
		<stop  offset="1" style="stop-color:#666666"/>
	</linearGradient>
	<path fill="url(#SVGID_6_)" stroke="#000000" stroke-miterlimit="10" d="M130.285,52.33c-0.186-0.238-0.41-0.41-0.675-0.517
		c-0.265-0.104-0.516-0.158-0.754-0.158V50.94h6.55v0.715c-0.133,0-0.278,0.047-0.437,0.139c-0.159,0.093-0.238,0.219-0.238,0.377
		c0,0.159,0.053,0.305,0.158,0.437c0.105,0.133,0.225,0.292,0.357,0.477l4.01,5.24l3.533-4.923c0.238-0.343,0.417-0.602,0.536-0.773
		s0.179-0.338,0.179-0.496c0-0.212-0.066-0.344-0.199-0.397c-0.133-0.053-0.265-0.079-0.396-0.079V50.94h6.073v0.715
		c-0.317,0-0.668,0.179-1.052,0.536s-0.722,0.721-1.013,1.092l-6.073,7.859v5.955c0,0.396,0.251,0.595,0.754,0.595v0.715h-5.279
		v-0.715c0.477,0,0.715-0.198,0.715-0.595v-6.114L130.285,52.33z"/>
</g>
<g>
	<linearGradient id="SVGID_7_" gradientUnits="userSpaceOnUse" x1="48.6636" y1="15.1616" x2="60.001" y2="34.7986">
		<stop  offset="0" style="stop-color:#FFFFFF"/>
		<stop  offset="0.0496" style="stop-color:#FAFAFA"/>
		<stop  offset="0.1098" style="stop-color:#EBEBEB"/>
		<stop  offset="0.1753" style="stop-color:#D3D3D3"/>
		<stop  offset="0.1902" style="stop-color:#CCCCCC"/>
		<stop  offset="0.3988" style="stop-color:#F2F2F2"/>
		<stop  offset="0.4613" style="stop-color:#EAEAEA"/>
		<stop  offset="0.5574" style="stop-color:#D5D5D5"/>
		<stop  offset="0.589" style="stop-color:#CCCCCC"/>
		<stop  offset="0.773" style="stop-color:#F2F2F2"/>
		<stop  offset="0.8879" style="stop-color:#ADADAD"/>
		<stop  offset="1" style="stop-color:#666666"/>
	</linearGradient>
	<path fill="url(#SVGID_7_)" stroke="#000000" stroke-miterlimit="10" d="M54.638,36.192c0,0.42,0.256,0.63,0.769,0.63v0.629h-5.382
		v-0.629c0.163,0,0.309-0.053,0.437-0.157c0.128-0.105,0.192-0.262,0.192-0.473V22.284h-5.766c-0.21,0-0.414,0.059-0.612,0.174
		c-0.198,0.117-0.297,0.338-0.297,0.664H43.35V18.23h0.629c0,0.327,0.099,0.548,0.297,0.664c0.198,0.117,0.402,0.175,0.612,0.175
		h15.517c0.209,0,0.414-0.058,0.611-0.175c0.198-0.116,0.297-0.337,0.297-0.664h0.629v4.892h-0.629c0-0.326-0.1-0.547-0.297-0.664
		c-0.198-0.115-0.402-0.174-0.611-0.174h-5.767V36.192z"/>
	<linearGradient id="SVGID_8_" gradientUnits="userSpaceOnUse" x1="69.5078" y1="20.2876" x2="80.4478" y2="39.2361">
		<stop  offset="0" style="stop-color:#FFFFFF"/>
		<stop  offset="0.0496" style="stop-color:#FAFAFA"/>
		<stop  offset="0.1098" style="stop-color:#EBEBEB"/>
		<stop  offset="0.1753" style="stop-color:#D3D3D3"/>
		<stop  offset="0.1902" style="stop-color:#CCCCCC"/>
		<stop  offset="0.3988" style="stop-color:#F2F2F2"/>
		<stop  offset="0.4613" style="stop-color:#EAEAEA"/>
		<stop  offset="0.5574" style="stop-color:#D5D5D5"/>
		<stop  offset="0.589" style="stop-color:#CCCCCC"/>
		<stop  offset="0.773" style="stop-color:#F2F2F2"/>
		<stop  offset="0.8879" style="stop-color:#ADADAD"/>
		<stop  offset="1" style="stop-color:#666666"/>
	</linearGradient>
	<path fill="url(#SVGID_8_)" stroke="#000000" stroke-miterlimit="10" d="M70.295,36.298c0,0.188,0.052,0.32,0.157,0.402
		s0.227,0.122,0.367,0.122v0.629h-4.404v-0.629c0.14,0,0.262-0.04,0.367-0.122s0.157-0.215,0.157-0.402v-13.07
		c0-0.187-0.052-0.32-0.157-0.402c-0.105-0.081-0.227-0.122-0.367-0.122v-0.629h4.404v0.629c-0.14,0-0.262,0.041-0.367,0.122
		c-0.105,0.082-0.157,0.216-0.157,0.402v4.928h9.365v-4.928c0-0.187-0.051-0.32-0.156-0.402c-0.105-0.081-0.228-0.122-0.367-0.122
		v-0.629h4.404v0.629c-0.141,0-0.264,0.041-0.367,0.122c-0.105,0.082-0.158,0.216-0.158,0.402v13.07c0,0.188,0.053,0.32,0.158,0.402
		c0.104,0.082,0.227,0.122,0.367,0.122v0.629h-4.404v-0.629c0.14,0,0.262-0.04,0.367-0.122s0.156-0.215,0.156-0.402v-5.277h-9.365
		V36.298z"/>
	<linearGradient id="SVGID_9_" gradientUnits="userSpaceOnUse" x1="91.6172" y1="20.8613" x2="102.0498" y2="38.9312">
		<stop  offset="0" style="stop-color:#FFFFFF"/>
		<stop  offset="0.0496" style="stop-color:#FAFAFA"/>
		<stop  offset="0.1098" style="stop-color:#EBEBEB"/>
		<stop  offset="0.1753" style="stop-color:#D3D3D3"/>
		<stop  offset="0.1902" style="stop-color:#CCCCCC"/>
		<stop  offset="0.3988" style="stop-color:#F2F2F2"/>
		<stop  offset="0.4613" style="stop-color:#EAEAEA"/>
		<stop  offset="0.5574" style="stop-color:#D5D5D5"/>
		<stop  offset="0.589" style="stop-color:#CCCCCC"/>
		<stop  offset="0.773" style="stop-color:#F2F2F2"/>
		<stop  offset="0.8879" style="stop-color:#ADADAD"/>
		<stop  offset="1" style="stop-color:#666666"/>
	</linearGradient>
	<path fill="url(#SVGID_9_)" stroke="#000000" stroke-miterlimit="10" d="M103.006,25.324c0-0.442-0.361-0.664-1.083-0.664h-8.527
		v3.495h5.382c0.396,0,0.687-0.029,0.874-0.088c0.186-0.058,0.279-0.215,0.279-0.472h0.629V31.3H99.86
		c0.07-0.256-0.023-0.412-0.279-0.471c-0.257-0.059-0.617-0.088-1.083-0.088h-5.103v4.124h8.946c0.279,0,0.513-0.063,0.699-0.192
		c0.187-0.128,0.279-0.297,0.279-0.507h0.629v3.669h-0.629c0-0.209-0.093-0.326-0.279-0.349c-0.187-0.024-0.42-0.035-0.699-0.035
		H89.516v-0.629c0.117,0,0.233-0.04,0.35-0.122s0.175-0.215,0.175-0.402v-13.07c0-0.187-0.059-0.32-0.175-0.402
		c-0.116-0.081-0.232-0.122-0.35-0.122v-0.629h12.407c0.722,0,1.083-0.21,1.083-0.629h0.629v3.879H103.006z"/>
</g>
</svg>
